<?xml version="1.0" standalone="no"?>
<!DOCTYPE svg PUBLIC "-//W3C//DTD SVG 20010904//EN"
 "http://www.w3.org/TR/2001/REC-SVG-20010904/DTD/svg10.dtd">
<svg version="1.0" xmlns="http://www.w3.org/2000/svg"
 width="700.000000pt" height="700.000000pt" viewBox="0 0 700.000000 700.000000"
 preserveAspectRatio="xMidYMid meet">
<metadata>
Created by potrace 1.11, written by Peter Selinger 2001-2013
</metadata>
<g transform="translate(0.000000,700.000000) scale(0.100000,-0.100000)"
fill="#000000" stroke="none">
<path d="M1857 6004 c-1 -1 -42 -4 -92 -7 -49 -3 -101 -8 -115 -11 -14 -3 -41
-8 -60 -10 -44 -6 -205 -52 -245 -70 -16 -8 -47 -21 -67 -29 -59 -24 -177 -96
-253 -153 -226 -169 -393 -407 -488 -694 -19 -58 -39 -134 -46 -170 -6 -36
-13 -76 -17 -90 -3 -14 -7 -97 -9 -185 -2 -124 2 -189 17 -285 11 -69 21 -136
23 -148 2 -13 8 -45 14 -70 5 -26 17 -85 26 -132 8 -47 18 -96 20 -110 3 -14
10 -52 15 -85 6 -33 17 -91 25 -130 8 -38 16 -83 19 -100 3 -16 17 -91 31
-165 14 -74 37 -193 50 -265 14 -71 27 -141 30 -155 3 -14 9 -50 15 -80 6 -30
12 -66 15 -80 3 -14 9 -50 15 -80 13 -70 15 -81 41 -215 26 -140 27 -143 34
-185 4 -19 16 -80 26 -135 11 -55 24 -122 29 -150 5 -27 18 -99 30 -160 11
-60 22 -121 25 -135 9 -45 44 -225 49 -245 9 -40 45 -114 82 -166 108 -155
301 -270 514 -307 14 -2 857 -5 1874 -5 1419 -2 1865 1 1921 10 255 43 482
214 565 423 11 27 26 84 34 127 28 141 65 338 69 363 7 37 35 191 41 220 3 14
8 39 11 55 3 17 37 197 76 400 38 204 71 381 74 395 5 22 34 180 50 265 3 17
10 53 15 80 15 73 18 89 24 126 4 28 35 190 52 274 2 11 8 45 14 75 6 30 12
64 14 75 2 11 11 58 20 105 9 47 18 96 21 110 55 269 66 529 29 730 -25 141
-87 318 -155 445 -91 171 -248 353 -394 456 -33 24 -62 45 -65 48 -25 29 -230
123 -335 156 -111 34 -134 39 -215 51 -25 3 -58 8 -75 11 -26 4 -3414 11
-3418 7z"/>
</g>
</svg>
