<?xml version="1.0" encoding="UTF-8" standalone="no"?><!DOCTYPE svg PUBLIC "-//W3C//DTD SVG 1.1//EN" "http://www.w3.org/Graphics/SVG/1.1/DTD/svg11.dtd"><svg width="100%" height="100%" viewBox="0 0 1280 180" version="1.1" xmlns="http://www.w3.org/2000/svg" xmlns:xlink="http://www.w3.org/1999/xlink" xml:space="preserve" style="fill-rule:evenodd;clip-rule:evenodd;stroke-linejoin:round;stroke-miterlimit:1.41421;">
    <path d="M731.251,69.822c-3.576,0.577 -7.583,-0.969 -8.614,-5.647c-0.741,-3.366 1.542,-5.476 1.542,-5.476l2.451,4.222c0,0 -0.168,0.684 -0.059,1.026c0.114,0.342 0.515,0.685 0.855,0.63c0.345,-0.059 0.687,-0.176 0.972,0.055c0.285,0.228 0.513,0.171 0.855,0c0.342,-0.171 0.171,0.456 0.855,-0.055c0.682,-0.516 0.34,-1.544 -0.168,-2.057c-0.516,-0.514 -1.029,-0.625 -1.029,-0.625l-2.281,-4.393c0,0 4.733,-0.627 7.415,3.252c2.68,3.878 0.652,8.512 -2.794,9.068m-3.537,-7.927l0.515,0.969l-0.404,0.057l-0.739,-1.599l-1.995,-3.079l0.456,-0.228l2.167,3.88Zm-5.875,-7.987c0,0 -1.768,1.941 -1.882,2.283c-0.114,0.342 -1.086,1.879 -1.086,1.879l-1.026,-0.568l3.366,-4.39l0.628,0.796Zm-0.4,-7.527c0,0 -0.399,0 -0.513,0.342c-0.114,0.343 0.285,0.343 0.459,0.685c0.168,0.34 -0.119,0.853 -0.345,1.197c-0.228,0.342 -0.8,0.513 -1.14,0.57c-0.342,0.057 -0.573,0.684 -0.573,0.684c0,0 -1.028,0.229 -1.482,0.057c-0.454,-0.168 -3.134,-1.712 -3.134,-1.712c0,0 -0.116,-1.138 -0.46,-1.481c-0.342,-0.342 -1.084,-0.173 -1.255,-0.342c-0.171,-0.173 -0.34,-0.857 -0.454,-1.197c-0.114,-0.344 -0.456,-2.112 -0.57,-2.454c-0.116,-0.34 0.285,-0.456 0.627,-0.741c0.343,-0.285 0.628,-0.513 0.856,-0.399c0.23,0.114 1.541,0.629 2.169,0.857c0.625,0.226 1.651,0.798 2.28,0.969c0.628,0.172 1.77,0.514 2.053,0.796c0.283,0.288 0.57,0.571 0.743,0.972c0.169,0.399 0.739,1.197 0.739,1.197m-8.954,9.408c0.114,-0.226 0.742,-0.283 0.742,-0.283l0.171,1.255c0,0 -0.285,-0.057 -0.454,-0.228c-0.174,-0.174 -0.561,-0.538 -0.459,-0.744m2.568,-5.359l3.364,1.368l-3.254,1.485l-0.11,-2.853Zm0.343,4.164c0.111,-0.285 4.162,-1.653 4.162,-1.653l-2.794,3.706c0,0 -0.801,0.173 -1.026,-0.114c-0.231,-0.285 -0.456,-1.654 -0.342,-1.939m-3.88,-3.594c-0.059,0.515 0.228,1.941 0.228,1.941c0,0 -0.684,-0.63 -1.028,-0.913c-0.345,-0.287 -1.369,-1.256 -1.369,-1.256c0,0 1.195,-0.057 1.542,-0.057c0.342,0 0.228,-0.913 0.228,-0.913l0.454,-0.228c0,0 0,0.913 -0.055,1.426m-1.71,9.298l0.796,-1.71c0,0 0.344,0.057 0.515,0.739c0.171,0.684 0.283,0.912 0.171,1.482c-0.114,0.573 -0.114,1.312 -0.285,1.542c-0.171,0.228 -0.853,-0.114 -0.853,-0.114c0,0 0.112,-0.744 0.052,-1.086c-0.052,-0.342 -0.396,-0.853 -0.396,-0.853m-1.768,5.702c0,0 -2.055,4.108 -6.616,3.822c-4.493,-0.282 -7.246,-4.105 -5.989,-8.212c1.254,-4.108 6.1,-4.505 7.186,-4.448c1.086,0.055 1.768,0.34 1.768,0.34l-2.283,3.138l-0.91,1.027c0,0 -1.084,0.057 -1.031,1.14c0.059,1.083 0.171,2.224 0.857,2.338c0.687,0.116 2.11,0.34 2.853,-0.456c0.742,-0.799 0.228,-0.972 0.228,-0.972l1.369,0.173c0,0 -0.055,0.571 0.456,0.856c0.515,0.285 1.425,0.57 1.425,0.57l0.687,0.684Zm-0.116,-8.441l-0.97,-0.969c0,0 0.744,-0.231 0.97,-0.112c0.228,0.112 0,1.081 0,1.081m-1.086,1.314c0.461,0.454 0.632,0.967 0.632,0.967c0,0 0.112,0.627 0.112,0.857c0,0.226 -0.514,1.369 -0.514,1.369l-3.079,0.171c0,0 -0.171,-0.288 -0.171,-0.57c0,-0.285 -0.912,-0.285 -0.912,-0.285l2.737,-3.312c0,0 0.741,0.344 1.195,0.803m29.604,3.022c-2.625,-7.702 -10.836,-5.818 -10.836,-5.818l-1.998,-3.136l0.23,-0.459c0,0 0.057,-1.936 0.057,-2.28c0,-0.343 -0.971,-1.882 -0.971,-1.882l-0.112,-1.311c0,0 0.796,-0.459 0.965,-0.742c0.173,-0.285 -0.623,-1.142 -0.623,-1.142c0,0 0.055,-1.252 -0.116,-1.483c-0.171,-0.226 -2.167,-0.741 -2.509,-0.912c-0.342,-0.169 -1.028,-0.63 -1.824,-1.197c-0.796,-0.571 -2.566,-1.198 -2.566,-1.198l0.342,-0.456c0.34,-0.456 0.112,-0.8 0.228,-1.254c0.112,-0.456 -0.116,-1.711 -0.915,-2.283c-0.8,-0.57 -2.223,-0.97 -3.364,-0.456c-1.14,0.513 -1.254,2.054 -1.596,2.223c-0.342,0.174 -0.798,0.117 -1.026,0.06c-0.229,-0.06 -0.628,-0.801 -0.858,-1.027c-0.226,-0.228 -0.739,0 -1.309,0.283c-0.573,0.285 -1.369,0.515 -1.941,0.401c-0.568,-0.116 -2.224,0.685 -2.851,0.91c-0.627,0.231 -1.539,0.343 -1.884,0.63c-0.34,0.285 -0.169,0.627 -0.34,1.48c-0.171,0.858 1.029,2.511 1.029,2.511c0,0 -1.2,1.599 -1.257,3.081c-0.061,1.483 0.685,3.31 1.996,4.334c1.311,1.026 4.789,3.993 4.618,3.993c-0.171,0 -1.48,1.024 -1.48,1.024c0,0 -0.684,-0.054 -2.171,-0.397c-1.48,-0.342 -8.097,-0.171 -9.638,5.873c-1.537,6.049 2.869,10.323 8.158,10.496c5.248,0.171 8.156,-5.248 8.156,-5.248l0.568,0.173c0.572,0.169 0.969,0.224 1.37,-0.23c0.399,-0.456 -0.912,-1.425 -0.912,-1.425c0,0 0.285,-0.285 0.456,-0.399c0.171,-0.114 1.14,-0.114 2.224,-0.4c1.083,-0.285 1.026,-0.686 1.142,-1.254c0.114,-0.57 0,-0.741 0.91,-1.143c0.913,-0.399 1.143,-0.91 1.426,-0.91c0.287,0 0.627,-0.116 0.971,-0.399c0.343,-0.287 0.228,-0.401 0.796,-0.401c0.573,0 0.915,-0.228 1.485,-0.568c0.57,-0.344 -0.912,-1.2 -0.912,-1.2c0,0 1.024,-1.824 1.254,-2.337c0.228,-0.514 1.255,-1.255 1.255,-1.255l1.482,2.281c0,0 -3.079,1.542 -2.737,6.559c0.402,5.859 5.896,8.161 9.636,7.985c4.619,-0.217 7.688,-4.71 5.992,-9.695m466.858,8.858c0,0.579 -0.151,0.83 -0.007,1.019c-0.073,0.042 -0.144,0.08 -0.185,0.112c-0.255,0.158 -0.67,0.411 -1.149,0.691c-0.32,-0.023 -0.511,-0.02 -0.751,0.164c-0.335,0.272 -0.303,0.128 -1.024,0.79c-0.438,0.214 -0.869,0.403 -1.245,0.529c-0.527,0.175 -1.59,0.641 -2.778,1.167c-0.032,0.014 -0.064,0.03 -0.105,0.044c-1.628,0.73 -3.473,1.564 -4.479,1.932c-0.096,-0.08 -0.025,-0.311 -0.025,-0.311c0,0 0.223,-1.742 0.319,-3.113c0.089,-1.364 0.121,-3.175 0.607,-4.322c0.479,-1.145 0.832,-1.913 0.983,-2.835c0.152,-0.923 0.111,-2.629 0.367,-3.386c0.264,-0.758 0.887,-2.192 1.133,-2.407c0.24,-0.212 0.808,-0.013 0.808,-0.013l1.453,0.08c0,0 1.893,-0.067 2.787,-0.092c0.903,-0.029 1.231,0.379 1.222,1.015c-0.007,0.632 0.83,2.233 1.015,3.656c0.182,1.421 0.31,1.676 0.399,2.386c0.096,0.709 -0.376,1.225 0.192,1.421c0.568,0.196 0.456,0.75 0.463,1.473m-1.686,-31.558l0.383,0.13c0.377,0.134 0.856,0.342 0.648,0.819c-0.207,0.481 -0.75,1.183 -0.75,1.183c0,0 -0.169,-0.611 -0.137,-1.067c0.032,-0.454 -0.144,-1.065 -0.144,-1.065m-23.981,32.016c0.054,0.447 -0.377,1.948 -0.625,2.881c-0.231,0.935 -0.119,2.547 -0.167,2.823c-0.057,0.276 -0.217,1.111 -0.185,2.101c0.041,0.985 0.208,2.228 0.265,2.671c0.055,0.444 0.039,0.99 0.039,0.99l-2.459,0.501c-0.089,-0.62 -0.36,-3.384 -0.383,-4.283c-0.025,-0.898 0.294,-2.566 0.607,-2.969c0.312,-0.402 1.181,-2.682 1.373,-3.335c0.184,-0.659 0.839,-1.829 0.791,-2.182c-0.041,-0.356 0.68,0.362 0.744,0.802m-22.308,17.902c-0.741,0.235 -1.357,0.426 -1.654,0.517c-0.814,0.249 -3.017,1.152 -4.686,1.775c-0.495,0.002 -0.958,-0.078 -0.958,-0.078c0.198,-0.568 -0.016,-0.809 -0.393,-0.942c-0.376,-0.13 0.105,-0.554 0.185,-1.377c0.064,-0.821 0.24,-2.288 0.135,-3.086c-0.103,-0.798 0.255,-1.48 0.44,-2.855c0.182,-1.38 0.654,-2.614 1.14,-4.395c0.488,-1.777 0.609,-2.968 0.68,-3.789c0.073,-0.821 0.239,-1.655 0.28,-2.023c0.039,-0.369 0.815,0.073 1.326,0.461c0.494,0.386 2.298,1.054 2.62,1.462c0.326,0.408 0.128,4.404 0.16,5.305c0.023,0.901 -0.089,2.812 -0.16,3.633c-0.08,0.821 -0.568,1.879 -0.271,2.11c0.303,0.232 0.789,0.529 0.789,0.529c0,0 0.048,1.708 0.105,2.153c0.032,0.23 0.15,0.445 0.262,0.6m-355.865,12.655c-2.498,0 -6.142,-0.549 -7.191,-5.64c-1.047,-5.093 4.942,-7.339 4.942,-7.339c0,0 0.249,5.241 0.249,5.69c0,0.449 0.25,0.65 0.499,0.751c0.249,0.1 0.201,0.447 0.5,0.748c0.305,0.298 0.896,-0.051 1.049,-0.149c0.15,-0.1 0.447,-0.2 0.654,-0.499c0.199,-0.299 -0.552,-0.6 -0.552,-0.6c0,0 -0.15,-0.201 -0.15,-0.552c0,-0.347 -0.753,-0.796 -0.753,-0.796l-0.048,-3.845c0,0 0.399,0.1 0.696,-0.098c0.303,-0.201 0.255,-0.801 0.255,-0.801c0,0 2.445,0.45 3.69,1.25c1.255,0.796 2.947,3.293 2.5,6.486c-0.447,3.198 -3.841,5.394 -6.34,5.394m-1.898,-24.563c-0.454,-0.499 -1.316,-2.183 -1.585,-2.49c0.246,0.2 1.15,0.96 1.535,1.393c0.447,0.5 0.748,1.346 1.047,1.797c0.301,0.447 0.853,1.496 0.949,1.697c0.102,0.199 0.102,0.949 -0.048,0.798c-0.153,-0.15 -0.648,-0.898 -0.849,-1.348c-0.2,-0.449 -0.552,-1.297 -1.049,-1.847m-0.8,3.095l-0.098,1.699l-7.942,1.546c0,0 -0.748,-0.351 -0.901,-0.399c-0.146,-0.05 -1.097,-0.951 -1.097,-0.951c0,0 0.402,-1.744 0.349,-2.841c-0.045,-1.102 -1.792,-3.796 -1.792,-3.796c0,0 -0.552,-1.4 -0.853,-1.747c-0.299,-0.351 -0.397,-0.9 -0.397,-0.9c0,0 0.547,0.05 1.25,0.05c0.695,0 2.944,0.447 4.342,0.447c1.396,0 3.494,0.351 3.494,0.351c0,0 1.197,2.595 1.649,3.695c0.449,1.099 1.996,2.846 1.996,2.846m-13.215,0.798c-0.134,0.602 -0.267,2.331 -0.267,2.799l0,1.131l-1.395,0.465c0,0 0.066,-0.732 -0.139,-0.866c-0.197,-0.13 -0.931,-0.067 -0.931,-0.067c0,0 -0.335,-0.798 -0.931,-1.265c-0.597,-0.463 -0.998,-1.063 -0.998,-1.063c0,0 1.133,-1.597 1.468,-2.197c0.331,-0.599 0.666,-1.199 0.865,-1.468c0.198,-0.265 0.397,-0.997 0.397,-0.997c0,0 1.398,1.467 1.664,1.731c0.267,0.267 0.397,1.2 0.267,1.797m-4.661,4.062c0.271,0.465 0.203,0.798 0.203,0.798l-1.531,0.4l-0.134,-0.265c0,0 0.266,-1.065 0.399,-1.332c0.132,-0.264 0.132,-0.534 0.132,-0.534c0,0 0.666,0.466 0.931,0.933m-1.531,1.998l1.998,-0.6l-0.066,0.466l-1.932,0.668l0,-0.534Zm-0.666,3.927c0.269,0.265 1.068,1.266 1.068,1.266c0,0 -0.735,0.799 -1.465,1.198c-0.734,0.399 -5.715,2.497 -8.322,-1.798c-2.463,-4.059 1.065,-7.989 3.528,-8.853c1.531,-0.541 4.258,-0.267 4.258,-0.267l-0.063,0.864c-0.067,0.867 -0.867,2.863 -0.867,2.863c0,0 -0.132,0.666 -0.532,0.666c-0.401,0 -1.131,0.333 -1.131,0.333c0,0 -0.269,-0.598 -0.467,-0.598c-0.199,0 -0.066,0.73 -0.333,1.261c-0.267,0.536 -0.13,0.468 -0.265,0.935c-0.134,0.466 -0.068,0.466 0.333,0.732c0.399,0.265 0.732,0.466 0.732,0.466c0,0 -0.203,0.399 -0.401,0.467c-0.201,0.066 -0.066,0.73 0.198,0.999c0.265,0.265 0.668,-0.534 0.668,-0.534c0,0 0.468,0.534 0.067,0.799c-0.399,0.267 -0.201,0.6 0.068,0.864c0.265,0.269 0.598,0.069 0.931,-0.132c0.333,-0.199 -0.135,-0.732 0.063,-1.266c0.203,-0.531 0.402,-0.531 0.735,-0.73c0.333,-0.2 0.933,0.199 1.197,0.465m2.999,-2.33c-0.139,0.599 -0.401,1.133 -0.401,1.133l-1.53,-1.599l1.997,-0.666c0,0 0.067,0.534 -0.066,1.132m1.729,-1.597c0.069,-0.201 2.064,-1.131 2.064,-1.131l0.066,0.997c0,0 -0.267,0 -0.399,0.2c-0.134,0.199 0.199,0.732 0.199,0.732l0,0.666c0,0.201 -0.397,0.867 -0.796,0.931c-0.402,0.066 -1.266,1.199 -1.266,1.199c0,0 0.066,-0.533 0.264,-1.598c0.197,-1.065 -0.132,-1.996 -0.132,-1.996m5.709,1.581c0,0 -0.402,0.1 -0.653,-0.402c-0.246,-0.497 -0.645,-1.345 -0.146,-1.847c0.5,-0.5 1.846,-1.597 1.846,-1.597l8.19,-1.797l0.2,0.399l-9.437,5.244Zm-11.333,6.99c0,0 1.697,-0.6 2.696,-1.448c0.996,-0.849 1.747,-1.998 1.747,-1.998c0,0 1.297,-0.05 1.348,0.301c0.052,0.349 0.045,1.667 1.749,1.747c2.194,0.1 2.146,-1.699 2.146,-1.699c0,0 1.448,-0.349 1.797,-0.199c0.349,0.151 0.199,0.399 0.5,0.399c0.296,0 0.349,0.151 0.796,-0.102c0.454,-0.246 0.351,-0.447 0.85,-0.598c0.5,-0.15 0.801,-0.399 0.899,-0.848c0.1,-0.449 -0.196,-0.547 -0.798,-0.698c-0.6,-0.151 -1.496,-0.801 -1.496,-0.801l8.885,-4.942l0.098,2.247c0,0 -5.341,1.498 -6.39,6.691c-1.049,5.191 3.546,8.238 3.546,8.238c0,0 -5.542,0 -6.29,-0.251c-0.75,-0.251 -4.947,-3.993 -5.592,-4.342c-0.648,-0.347 -1.998,-0.751 -2.997,-0.899c-1.001,-0.153 -3.494,-0.798 -3.494,-0.798m-161.837,-30.712l-0.531,0.44l-0.905,0.269l-0.541,1.542l-0.365,-0.634l-0.182,-0.816l-0.605,-0.954l3.129,0.153Zm-4.005,-0.196l-0.057,0l0,-0.002l0.057,0.002Zm-375.78,-18.129c-0.004,0.362 0.027,0.745 0.096,0.987c0.134,0.468 0.6,1.2 0.6,1.2l-0.135,2.198c0,0 -0.796,-1.332 -0.997,-1.665c-0.2,-0.333 -1.929,-1.931 -2.33,-2.531c-0.069,-0.101 -0.133,-0.226 -0.197,-0.342l2.963,0.153Zm-2.1,8.908c0.2,-0.196 0.666,-0.666 0.666,-0.333c0,0.335 -0.067,1.2 -0.133,1.863c-0.068,0.669 -0.734,1.401 -1.065,1.535c-0.333,0.133 0,0 -0.399,-0.465c-0.401,-0.47 -0.8,-1.07 -0.8,-1.07c0,0 1.53,-1.327 1.731,-1.53m308.759,84.083c0,0 -14.649,0 -28.363,-0.666c-13.711,-0.668 -37.278,2.265 -45.664,2.397c-8.391,0.134 -34.487,-4.792 -42.608,-5.593c-8.122,-0.798 -21.701,0 -22.766,-0.798c-1.065,-0.8 -12.115,1.065 -18.64,0.664c-6.525,-0.397 -15.844,-3.193 -20.771,-3.994c-4.926,-0.798 -12.918,-3.596 -14.38,-5.06c-0.426,-0.427 -2.034,-0.94 -4.098,-1.472c0.018,-0.009 0.032,-0.015 0.032,-0.015l1.872,-1.013c0,0 0.285,0.153 0.52,0.153c0.087,0 0.171,-0.021 0.228,-0.08c0.183,-0.192 0.094,-0.47 0.094,-0.47l6.803,-3.551c0,0 0.089,0.504 0.19,1.163c0.098,0.662 0.447,2.607 1.243,3.289c0.796,0.686 3.313,1.882 5.738,2.44c2.422,0.568 8.208,1.645 8.489,1.683c2.034,0.27 12.895,2.361 14.749,2.575c0.424,0.046 1.106,-0.022 1.273,-0.089c0.77,-0.285 1.708,-1.099 1.883,-1.521c0.172,-0.424 0.917,-2.139 0.938,-4.292c0.016,-2.155 -0.158,-3.134 -0.538,-3.444c-0.381,-0.303 -1.435,-0.636 -1.989,-0.876c-0.557,-0.239 -3.608,-1.345 -4.365,-1.546c-0.755,-0.199 -1.752,-0.484 -1.752,-0.484l0.016,-0.157c0,0 0.406,-0.002 0.6,-0.171c0.194,-0.169 -0.034,-0.506 -0.381,-0.689c-0.351,-0.178 -2.105,-0.328 -2.105,-0.328c0,0 -0.301,-0.383 -0.71,-0.383l-0.006,0c-0.406,0.006 -1.191,0.141 -1.191,0.141c0,0 -0.26,-0.057 -0.632,-0.187c-0.365,-0.125 -2.661,-0.648 -2.661,-0.648c0,0 -0.091,-0.577 -0.208,-0.725c-0.109,-0.144 -0.378,-0.356 -0.522,-0.474c-0.135,-0.121 -0.098,-0.682 -0.11,-0.833c-0.006,-0.057 0.003,-0.171 0.014,-0.31c1.364,-0.041 2.493,-0.068 3.214,-0.068c3.729,0 13.581,3.731 27.43,5.729c13.846,1.993 22.367,6.388 25.961,6.789c3.594,0.397 10.119,-0.668 16.51,0.664c6.391,1.33 24.232,0.531 29.423,0.664c5.194,0.132 23.168,0.666 27.563,1.067c4.392,0.402 39.677,10.519 39.677,10.519m-39.198,-32.37c0,0.948 -0.878,3.336 -0.878,3.336l-1.633,0.924c0,0 -0.55,-2.014 -0.65,-2.463c-0.101,-0.452 0.223,-3.547 0.273,-3.996c0.05,-0.449 -0.039,-2.178 -0.039,-2.529c0,-0.351 -0.732,-2.096 -0.784,-2.397c-0.016,-0.096 -0.027,0.002 0,-0.436c0.009,-0.107 0.315,-0.189 0.324,-0.308c0.061,-0.848 -0.123,-2.301 -0.123,-2.301c0.15,0.299 0.848,1.498 1.147,2.894c0.301,1.401 0.648,2.051 0.996,2.696c0.352,0.65 1.367,3.631 1.367,4.58m-5.511,3.161c0,0.299 -0.78,2.561 -0.78,2.561c0,0 -0.415,0.486 -0.914,0.734c-0.5,0.249 -1.649,0.399 -2.297,0.5c-0.65,0.098 -1.25,0.148 -2.098,0.349c-0.851,0.2 -1.197,0.351 -1.597,0.2c-0.401,-0.15 -2.745,-1.749 -3.147,-2.093c-0.399,-0.356 -1.298,-0.851 -1.747,-1.204c-0.451,-0.349 -1.097,-2.594 -1.546,-3.045c-0.45,-0.449 -1.35,-1.848 -1.597,-2.297c-0.251,-0.447 -1.25,-1.149 -1.9,-1.398c-0.647,-0.248 -1.496,0 -2.545,-0.148c-1.049,-0.151 -1.448,-0.151 -2.048,-0.399l-3.594,-0.117c0,0 -4.263,0.863 -4.797,1.129c-0.526,0.267 -2.791,1.866 -2.791,1.866c0,0 -1.731,0.333 -2.265,0.399c-0.531,0.069 -1.866,0.201 -2.664,0.404c-0.798,0.196 -3.845,1.277 -4.043,1.277c-0.199,0 -0.865,0.132 -0.865,0.132c-0.39,0.071 -6.876,0.306 -6.876,0.306c0,0 -2.983,-0.091 -5.25,-0.091c-2.263,0 -9.958,-0.545 -11.406,-0.634c-1.448,-0.089 -4.609,-2.254 -5.424,-2.525c-0.816,-0.269 -10.956,2.082 -14.124,2.173c-3.17,0.092 -12.496,-0.723 -15.846,0.003c-3.351,0.72 -7.242,1.719 -9.504,2.082c-2.265,0.363 -3.622,1.086 -4.801,1.359c-0.807,0.185 -5.458,0.333 -8.293,0.406c0.085,-0.483 0.158,-0.937 0.158,-0.937c0,0 0.324,-0.151 0.552,-0.167l0.038,0c0.352,0 2.071,0.206 3.077,0.206c1.047,-0.007 2.874,-0.217 3.227,-0.295c0.352,-0.077 0.696,-0.28 0.769,-0.339c0.073,-0.055 0.308,-0.712 0.285,-1.33c-0.021,-0.609 -0.488,-2.139 -0.488,-2.139l5.649,-2.854c0,0 0.103,0.023 0.436,0.023c0.335,0 0.237,-0.298 0.237,-0.298l1.768,-0.981c0,0 0.23,-0.041 0.328,-0.101c0.096,-0.054 0.486,-0.314 0.837,-0.447c0.347,-0.125 2.461,-0.64 2.855,-0.796c0.404,-0.159 4.817,-2.102 6.094,-2.789c1.285,-0.682 3.905,-2.21 4.049,-3.086c0.098,-0.599 -0.153,-0.748 -0.459,-0.748c-0.146,0 -0.301,0.032 -0.44,0.069c-0.422,0.109 -9.631,4.712 -10.028,4.867c-0.404,0.157 -1.022,0.766 -1.341,0.944c-0.319,0.18 -1.635,0.762 -1.807,0.83c-0.177,0.062 -0.49,0.317 -0.49,0.317l-1.701,0.922c0,0 -0.085,-0.119 -0.212,-0.119c-0.016,0 -0.032,0.002 -0.048,0.007c-0.151,0.034 -0.263,0.305 -0.263,0.305l-5.893,3.022c0,0 -0.157,-0.346 -0.296,-0.515c-0.11,-0.132 -0.263,-0.26 -0.39,-0.26c-0.041,0 -0.078,0.014 -0.112,0.041c-0.057,0.039 -0.103,0.05 -0.146,0.05c-0.034,0 -0.069,-0.007 -0.103,-0.016c-0.034,-0.002 -0.07,-0.007 -0.109,-0.007c-0.014,0 -0.032,0 -0.05,0.003c-0.174,0.013 -0.349,0.123 -0.422,0.207c-0.032,0.039 -0.11,0.048 -0.203,0.048c-0.041,0 -0.082,-0.002 -0.126,-0.002c-0.036,-0.005 -0.07,-0.005 -0.105,-0.005c-0.036,0 -0.07,0 -0.098,0.005c-0.175,0.009 -0.401,0.435 -0.449,0.515c-0.046,0.08 -0.354,0.025 -0.442,0.265c-0.085,0.235 -0.08,0.976 -0.08,0.976l-1.006,0.563c0,0 -0.953,-0.39 -1.325,-0.543c-0.365,-0.152 -1.542,-0.499 -1.542,-0.499c0,0 -0.1,-0.607 -0.091,-0.835c0.007,-0.235 -0.256,-0.344 -0.475,-0.559c-0.223,-0.214 -0.572,-0.469 -0.661,-0.588c-0.082,-0.119 -0.016,-0.255 -0.016,-0.255l0.146,-0.048c0.151,-0.053 0.105,-0.664 0.105,-0.664c0,0 0.499,0 0.317,-0.369c-0.178,-0.37 -0.531,-0.961 -0.531,-0.961l0.155,-0.011c0.15,-0.009 0.663,-0.354 0.96,-0.49c0.299,-0.14 0.595,-0.279 0.825,-0.29c0.229,-0.023 0.374,-0.148 0.172,-0.249c-0.197,-0.098 -1.941,-0.812 -1.941,-0.812c0,0 -0.028,-0.344 -0.121,-0.604c-0.098,-0.267 -0.908,-1.437 -1.166,-1.72c-0.228,-0.26 -0.764,-0.469 -1.395,-0.469c-0.071,0 -0.142,0.002 -0.215,0.006c-0.723,0.057 -1.257,0.174 -1.806,0.486c-0.557,0.31 -1.453,1.145 -1.802,2.128c-0.349,0.985 0.059,2.338 0.059,2.338l0.082,0.242c0,0 -0.05,-0.005 -0.134,-0.005c-0.18,0 -0.532,0.011 -0.915,0.057c-0.558,0.066 -1.909,0.137 -2.664,0.251c-0.761,0.103 -0.241,0.577 -0.1,0.743c0.139,0.171 0.844,1.045 0.96,1.186c0.11,0.144 0.388,0.767 0.354,0.999c-0.037,0.231 0.15,1.013 0.15,1.013c0,0 -0.321,0.153 -0.677,0.205c-0.354,0.05 -0.504,0.062 -0.892,0.347c-0.394,0.283 -0.762,0.826 -0.912,1.172c-0.082,0.18 -0.347,0.659 -0.609,1.141c-2.468,0.109 -4.856,0.262 -5.944,0.481c-2.716,0.54 -7.152,-0.18 -9.236,-0.543c-2.08,-0.363 -3.889,-0.363 -6.154,-0.274c-2.264,0.091 -8.06,1.902 -9.417,2.354c-1.359,0.454 -11.499,0.271 -14.758,0.182c-3.259,-0.091 -15.842,0.452 -15.842,0.452c0,0 -0.545,-0.723 -0.997,-1.72c-0.454,-0.994 -3.475,-4.066 -4.239,-5.597c-0.765,-1.532 -2.911,-5.745 -3.83,-6.278c-0.919,-0.539 -2.144,-0.844 -2.832,-0.997c-0.691,-0.153 -1.378,-1.302 -1.458,-1.763c-0.075,-0.458 0.233,-0.686 0.538,-0.686c0.306,0 0.306,-0.461 0.539,-0.461c0.228,0 0.533,-0.306 0.533,-0.611l0,-1.303l0.459,-0.308c0,0 -0.306,-0.686 1.074,-0.46c1.378,0.232 1.378,-0.764 0.534,-1.07c-0.842,-0.308 -1.147,-0.381 -1.453,-1.149c-0.306,-0.767 -1.533,-2.452 -2.527,-2.603c-0.997,-0.155 -2.527,0.687 -2.988,1.225c-0.461,0.536 -0.305,2.682 -0.305,2.682c0,0 -0.308,0.992 -0.692,1.298c-0.38,0.31 -3.521,3.218 -3.904,3.446c-0.383,0.233 -2.219,2.299 -2.755,2.91c-0.538,0.616 -1.458,3.985 -1.608,4.443c-0.039,0.114 -0.331,0.718 -0.741,1.555l-0.356,0.719c-1.257,2.538 -3.143,6.276 -3.143,6.276l-4.256,-0.18l-2.625,-0.816l-3.533,-0.363c0,0 -2.353,0.363 -2.805,0.183c-0.109,-0.046 -1.298,-0.183 -3.382,-0.021l-21.598,-24.05l0,-0.301l-0.274,-0.306l-0.641,0.101l-18.601,-11.582l-0.092,-1.019l-0.638,-0.101l-0.185,0.815l-16.031,10.162l-1.665,0.315l-0.994,-1.088l-2.176,-0.358l0.091,-1.179l0.906,0.091l2.447,-0.634c0,0 0.764,0.363 0.812,-0.723c0.05,-1.088 -1.9,-1.359 -1.9,-1.359c0,0 -0.725,-0.543 -0.452,-0.543c0.269,0 -0.994,-0.273 -0.994,-0.273l-1.451,-0.092l-1.177,-1.265l-0.271,-0.452l0,-0.994l-1.539,-0.546l0.089,-0.636l0.271,-0.812l-0.452,-1.359l-1.63,-0.452l-0.903,-0.454l-0.906,0.363l-2.084,-0.091l-0.723,1.631l-1.36,0.453l-1.266,0.181l0.361,-0.817l-0.272,-1.085l-0.905,-0.997l-1.268,-0.089l-0.634,0.814l-0.087,2.082l-1.27,0.363l-1.177,1.357l-1.991,0.452l-0.452,-0.723l0.452,-0.634l0.451,-0.723l-0.091,-1.088l-0.812,-0.723l0.361,-0.726l0.451,-0.905l-1.177,-0.816l-0.451,-1.54l-0.361,-0.269l-0.182,-0.814l-1.72,-0.363l-0.725,0.541l-0.723,1.179l-1.268,-0.361l-0.363,-0.453l0.546,-0.815c0,0 -0.52,-0.996 -1.542,-0.996c-1.022,0 -1.177,1.357 -1.177,1.357l-0.906,-0.634l-0.634,0.182l-0.814,0.363l-1.177,-0.272l-0.362,-1.268l-0.272,-1.266l-1.448,-1.45l-0.903,-0.905l-0.997,-0.454l-2.084,0.091l-0.812,0.905l-1.09,0.092l-0.995,1.085c0,0 -0.244,-0.641 -0.996,-0.36c-0.751,0.28 -1.449,1.355 -1.449,1.355l-0.451,1.179l-2.354,1.357l-0.997,0.545l-0.542,1.359c0,0 -0.306,-0.629 -0.726,-0.816c-0.419,-0.19 -0.985,0.757 -0.905,1.268c0.082,0.508 0.634,0.542 0.634,0.542l0.363,0.815l-0.092,1.268c0,0 -0.308,-0.534 -1.088,-0.543c-0.777,-0.011 -0.269,0.994 -0.269,0.994l-0.18,1.54l-0.816,0l-0.545,-1.54l-0.995,-0.634l-0.451,-0.36l-1.36,0.271l-1.085,-0.182l-0.454,1.359l0.362,0.814l-0.18,1.814l-0.093,1.265l0.454,1.086l1.359,1.628l-1.629,1.542l-1.45,1.54l-0.723,1.808l-1.993,0.637l-1.088,2.171l-0.995,-0.814l-0.634,-1.088l-0.271,-3.351l-0.18,-1.988l-0.906,-1.451l-0.996,-2.354c0,0 -0.566,-3.375 -1.18,-3.439c-0.611,-0.066 -0.631,1.9 -0.631,1.9l-0.089,1.177l-0.272,1.63l-0.725,0.726l-0.905,1.899l-0.454,2.808l-0.906,2.174l-0.182,-1.814l-1.177,-3.528l-1.537,-2.718l-0.543,-3.077c0,0 -0.463,-0.605 -0.814,-0.636c-0.356,-0.03 -0.545,1.268 -0.545,1.268l-0.272,1.722l-0.269,1.357l-1.45,1.087l-0.452,1.992l-0.816,-1.54l-0.363,-1.357l-0.814,-1.904c0,0 -1.15,-2.153 -1.266,-2.172c-0.119,-0.018 -0.185,0.452 -0.185,0.452l-0.812,1.362l-0.362,1.717l-1.177,0.816l-0.363,1.54l-0.634,1.446l-1.088,2.356l-0.362,-0.997l-0.358,-0.634l-1.088,-2.356l-0.634,-2.894l-0.363,-0.725l-0.634,-1.631l-0.725,-1.266l0,-1.811l-0.361,-0.725c0,0 -0.602,-1.929 -0.907,-1.9c-0.301,0.028 -0.272,0.634 -0.272,0.634l-0.72,1.809l-0.726,-0.634l-0.184,-1.718l-0.721,-1.721c0,0 -0.536,-2.001 -0.725,-1.992c-0.19,0.007 -0.092,0.634 -0.092,0.634l-0.723,1.358c0,0 -0.239,1.03 -0.319,1.728c-0.1,-0.283 -0.223,-0.554 -0.223,-0.554l-0.365,-1.083l-0.721,0.451l-0.725,1.179l-0.363,-0.453l-0.905,0.18l-0.634,-1.179c0,0 -0.317,-1.948 -0.726,-1.898c-0.408,0.046 -0.451,1.357 -0.451,1.357l-0.814,1.629l0.091,2.082l0.54,1.088l-1.268,1.811l-1.085,0.453l-0.272,1.538l-0.905,1.088l-1.086,1.81l-0.454,-2.627l-0.723,-0.543l-0.18,-1.177l-0.274,-1.357l-0.994,-1.357l0.18,-2.082c0,0 -0.999,-2.139 -1.539,-2.265c-0.541,-0.125 -0.18,0.723 -0.18,0.723l-0.363,1.9l0,1.451l-1.179,0.996l0,1.902l-0.63,-0.364l-0.907,-1.086l-0.815,0.905l-1.268,1.722l-0.454,-0.816l-1.81,-0.814l0,-2.537l-0.178,-1.628l-0.092,-1.993l-0.271,-1.9l-0.545,-1.631l0,-2.082l-0.634,-1.722c0,0 -0.673,-1.471 -1.177,-1.448c-0.502,0.025 -0.814,1.724 -0.814,1.724l-0.274,0.812l-0.18,2.356l-0.541,1.537l-0.362,1.268l0,2.08l0.271,1.451l-1.268,-0.089l-0.543,-0.815l-1.268,-0.364l-1.45,-1.177l-0.087,-1.629l-0.274,-0.994l-0.182,-0.999l-0.449,-1.537l-1.542,-0.363l-0.906,-1.357l-0.088,-2.899l-1.269,-0.725l0,-1.811l0.181,-1.088l-0.817,-2.171l-0.903,-1.446c0,0 -0.299,-0.137 -0.725,-0.274c-0.427,-0.136 -0.361,2.265 -0.361,2.265l-1.268,-0.182l-0.362,-0.723l-0.997,-1.722l-0.454,-1.357l-0.812,-1.357l0.18,-1.629l-0.091,-1.813l-0.543,-1.177l0.272,-2.173c0,0 -0.18,-1.095 -0.543,-1.088c-0.36,0.009 -0.271,0.725 -0.271,0.725l-0.726,1.722l-0.36,1.083l-0.183,2.445l-0.362,1.271l-0.723,0.994l-0.091,1.722l-0.272,1.083l-0.089,1.631l-0.545,-0.18l-0.996,-0.452l-0.995,0.632l-0.091,1.179l-0.363,1.177l-0.723,0.091l-0.905,1.718l-0.272,-0.363l-1.085,-0.723l-0.997,-0.452l-0.362,-0.362l-0.454,-1.362l0,-1.717l-0.452,-1.088l-0.725,0.456l-0.543,-0.816l0,-1.357l-0.182,-1.177l-0.543,-0.274l-0.18,-0.905l-0.181,-1.177c0,0 -0.365,-1.994 -0.725,-1.994c-0.362,0.005 -0.451,0.545 -0.451,0.545l-0.092,1.088l-0.451,2.083l-0.545,0.814l-0.903,-0.363l-0.094,-0.905l-0.089,-1.268l-0.182,-0.906l-0.092,-0.814l0,-1.177l-0.451,-1.177l-0.906,-0.089l0.092,-0.816l-0.361,-1.628c0,0 -0.353,-2.47 -0.725,-2.626c-0.374,-0.157 -0.454,0.541 -0.454,0.541l-0.271,1.088l-0.18,1.085l-0.274,0.815l0.362,1.268l-0.996,0.454l-0.089,0.451l-0.272,1.448l-0.907,0.363l-0.361,-0.905l0.637,-0.723l-0.454,-0.363l-0.274,-1.268l0,-0.997l-0.853,-2.057c0,0 0.456,-1.058 -0.543,-1.359c-0.999,-0.299 -0.271,0.727 -0.271,0.727l-1.049,2.058c0,0 -0.123,-0.302 -0.363,-0.185c-0.237,0.118 -0.18,0.908 -0.18,0.908l-0.634,1.268l-0.18,1.448l-0.545,0.271l-0.18,1.72l-0.272,-0.36l-0.725,0.271l-0.723,0.814l-0.994,0.814l-0.726,-0.453l-0.182,-1.266l-0.995,-1.177l-0.362,-0.454l-0.363,-1.266l-0.18,-1.63l-0.089,-1.269l-0.634,-1.085l-0.634,-1.811c0,0 -0.1,-0.835 -0.725,-0.725c-0.63,0.114 -0.272,0.814 -0.272,0.814l-0.271,0.999l-0.183,1.72l-0.451,0.814l-0.454,1.268l-0.543,0.723l-0.634,0.905l-0.997,0.997l-0.54,1.085l-0.183,1.18l0.632,0.449l0,0.997l-0.994,0.453l-1.357,0.543l-0.817,-0.362l-0.18,-0.452l-0.091,-0.454c0,0 -0.7,-0.641 -1.451,-0.814c-0.745,-0.171 -0.449,0.452 -0.449,0.452l0,1.268l-0.545,0l0,1.313l-1.086,0l-0.905,1.314l-0.725,0l-0.543,0l-0.632,-1.088l0,-0.365l-0.659,-1.174l0,132.56l1280,0l0,-149.21l-1.669,-0.741l-0.552,-1.11l-0.192,-1.111l-0.367,-1.759l-0.278,-1.852l-0.737,0.37l-0.741,1.111l-0.84,-2.037l-0.743,0.741l-0.367,0.833l-0.926,2.408l-0.55,2.589l-0.648,-1.293l-0.839,-1.946l-0.83,-1.85l-0.463,-2.962l-0.367,0.65l-0.463,2.495l-0.559,1.761l-0.928,1.667l-0.279,1.017l-0.271,1.667l-0.743,1.943l-0.831,-0.184l-0.191,-0.557l-0.735,-1.48l-0.463,-1.943l-0.28,1.295l-0.367,1.667l-0.84,0.739l-0.271,2.037l0.089,1.389l-1.207,0.559l-0.278,1.478l-0.552,1.573l-0.559,0.835l-1.295,1.202l-0.645,0l-0.096,0.926l-0.456,-0.463l-0.744,-1.852l-1.293,0.187l-0.374,-1.482l-0.928,-1.296l-1.198,0.926l-1.021,-2.593l0.28,-2.5l-1.111,-2.128l-0.376,-1.295l-0.463,-2.037l-0.919,-3.058l-0.278,1.113l-0.185,2.315l-0.655,1.849l-0.182,2.594l-0.367,1.852l-1.574,3.056l-0.648,1.478l-0.374,-0.833l-1.015,-0.554l-0.558,-0.557l-0.463,-1.019l-0.737,1.854l-0.278,2.222l0,2.13l-1.207,0.091l-0.647,1.017l-0.926,-1.389l-0.183,2.039l-0.376,1.759l-0.735,0.371l-0.743,1.944l-0.096,2.312l-0.926,1.391l-0.552,1.759l-0.559,-0.835l-0.271,-1.756l0,-1.207l-0.655,-1.201l-1.11,2.127l-0.463,1.483l-0.367,1.389l-0.279,1.945l-0.832,0.091c0,0 -0.383,1.061 -1.197,1.061c-0.815,0 -4.074,0.725 -5.527,1.268c-1.446,0.545 -1.899,2.171 -2.716,2.625c-0.814,0.452 -3.074,0.365 -4.799,0.997c-1.717,0.634 -2.891,0.905 -4.976,2.807c-2.012,1.836 -2.427,2.662 -3.346,3.78c-0.568,0.043 -1.142,0.139 -1.325,0.209c-0.344,0.135 -0.823,-0.796 -0.032,-0.898c0.798,-0.105 0.591,-0.347 0.383,-1.223c-0.207,-0.88 -0.073,-1.254 -0.456,-2.107c-0.383,-0.853 -0.47,-1.565 -0.942,-3.038c-0.456,-1.473 -1.11,-3.015 -1.462,-3.599c-0.342,-0.591 -1.462,-0.892 -2.483,-1.122c-1.029,-0.228 -2.858,-0.438 -3.161,-0.671c-0.297,-0.23 -0.466,-0.752 -0.609,-1.181c-0.144,-0.433 0.44,-0.782 0.928,-1.209c0.486,-0.422 0.581,-1.065 1.172,-1.414c0.584,-0.346 0.24,-0.935 0.105,-1.911c-0.128,-0.978 0.543,-2.778 0.543,-2.778c0,0 -0.103,-0.798 0.431,-0.869c0.527,-0.068 1.35,0.005 1.797,-0.055c0.447,-0.057 0.479,-0.513 0.776,-1.003c0.294,-0.49 0.223,-1.022 0.223,-1.022c0,0 0.511,-0.246 1.124,-0.331c0.625,-0.079 1.239,-0.25 0.792,-0.912c-0.454,-0.664 -1.676,-0.413 -1.916,-0.832c-0.233,-0.42 -0.96,-1.141 -0.96,-1.141c0,0 0.401,-0.412 0.759,-1.09c0.368,-0.682 0,-1.357 -0.686,-1.808c-0.696,-0.452 -1.574,-0.967 -1.574,-0.967c0,0 -0.007,-0.721 -0.326,-1.129c-0.328,-0.411 -1.104,-0.851 -1.822,-1.481c-0.71,-0.629 -1.996,-1.455 -3.483,-1.081c-1.475,0.377 -2.331,1.478 -2.803,2.714c-0.47,1.234 1.567,2.322 1.567,2.322c0,0 -0.328,0.228 -1.063,0.142c-0.734,-0.087 -0.759,1.092 -1.133,1.68c-0.377,0.591 -0.992,0.673 -1.303,1.795c-0.303,1.125 -1.788,2.854 -2.052,3.613c-0.265,0.755 -0.632,2.064 -0.32,2.386c0.311,0.321 0.406,0.396 0.767,1.072c0.36,0.677 -1.15,0.875 -1.804,0.688c-0.655,-0.184 -1.239,0.165 -1.734,1.22c-0.495,1.056 0.527,2.008 1.478,2.334c0.942,0.328 2.315,1.145 2.315,1.145c0,0 -0.207,2.552 -0.128,3.172c0.08,0.623 0.735,2.162 0.735,2.885c0.009,0.721 -0.032,1.811 -0.128,3.175c-0.087,1.366 -1.165,2.771 -1.197,3.95c-0.023,1.177 -0.655,3.966 -0.616,5.677c0.041,1.713 -0.399,3.843 -0.367,4.11c0.041,0.264 -0.527,0.789 -0.869,0.926c-0.345,0.134 -2.037,0.987 -2.301,1.021c-0.265,0.037 -0.776,0.292 -1.23,0.263c-0.296,-0.021 0.336,-0.504 -0.456,-1.196c-0.431,-0.378 -2.506,0.133 -2.659,-0.442c-0.087,-0.356 0.032,-1.22 0.128,-1.866c0.095,-0.645 0.216,-1.831 0.552,-2.689c0.342,-0.855 0.421,-2.312 0.415,-3.756c-0.01,-1.444 -0.032,-1.621 -0.479,-2.283c-0.447,-0.666 -1.813,-2.112 -1.702,-2.666c0.103,-0.559 0.272,-0.668 0.064,-1.546c-0.207,-0.874 -0.695,-1.173 -0.919,-1.506c-0.224,-0.333 0.376,-1.311 0.623,-2.155c0.255,-0.846 0.191,-1.288 0.136,-1.733c-0.057,-0.445 0.119,-0.468 0.375,-0.591c0.257,-0.123 0.743,-1.902 0.497,-3.134c-0.256,-1.231 -0.648,-2.173 -0.721,-2.707c-0.071,-0.531 -1.204,-1.646 -1.204,-1.646c0,0 0.422,-0.235 1.053,-0.226c0.632,0.007 0.327,-0.226 0.703,-0.814c0.376,-0.591 0.287,-0.582 0.328,-0.947c0.048,-0.365 0.368,-0.68 0.368,-0.68c0,0 0.51,-0.246 1.293,-0.44c0.791,-0.196 0.654,-0.538 0.137,-1.012c-0.514,-0.475 -1.606,0.12 -1.877,-0.566c-0.272,-0.687 -1.319,-1.092 -1.957,-1.188c-0.648,-0.098 -2.213,0.378 -2.739,1.17c-0.53,0.791 -0.016,1.266 0.255,1.952c0.262,0.684 -0.176,0.744 -0.176,0.744c0,0 -0.319,-0.411 -0.28,-0.776c0.041,-0.367 -0.192,-0.789 -0.249,-1.232c-0.054,-0.442 0.112,-0.465 -0.127,-0.973c-0.247,-0.511 -1.086,-1.394 -1.412,-1.804c-0.32,-0.409 -0.824,-0.794 -1.663,-0.958c-0.83,-0.158 -1.398,-0.358 -2.947,0.207c-1.557,0.564 -1.42,1.626 -1.302,2.514c0.121,0.887 0.064,1.167 -0.374,1.945c-0.44,0.78 -0.504,1.69 -0.807,2.812c-0.304,1.127 0.527,2.643 0.479,3.008c-0.039,0.365 -0.128,0.379 -0.463,0.602c-0.326,0.224 -0.552,0.614 -1.287,1.884c-0.734,1.271 -1.044,3.75 -1.044,5.102c-0.009,1.357 0.527,2.833 0.613,3.453c0.08,0.623 1.424,1.068 1.424,1.068c0,0 1.076,0.668 1.363,0.814c0.288,0.144 1.312,0.369 2.334,0.595c1.021,0.228 1.286,-0.527 1.924,-0.518c0.63,0.007 0.719,-0.006 1.022,0.226c0.297,0.235 0.08,0.621 0.032,0.988c-0.041,0.367 -0.543,1.336 -0.52,2.235c0.032,0.901 -1.028,4.559 -1.076,5.558c-0.048,0.999 -0.753,2.536 -0.568,3.957c0.185,1.419 -0.281,5.451 -0.281,5.451l-0.223,0.39c0,0 -2.539,0.602 -3.433,0.627c-0.903,0.03 -1.646,-0.141 -2.292,-0.239c-0.641,-0.099 -2.356,0.579 -2.356,0.579c0,0 -0.121,-0.89 -1.174,-0.659c-1.054,0.223 -2.149,0.1 -2.149,0.1c0,0 -0.073,-0.531 0.367,-0.591c0.447,-0.059 0.479,-0.515 0.361,-1.402l-0.616,-4.705c-0.121,-0.977 -0.128,-3.773 -0.224,-4.484c-0.088,-0.71 -0.551,-1.462 -1.318,-2.534c-0.775,-1.074 -1.941,-3.902 -1.941,-3.902c0,0 0.064,-2.085 -0.175,-2.594c-0.247,-0.51 -0.664,-1.628 -0.935,-2.314c-0.272,-0.687 -0.894,-1.328 -0.894,-1.328c0,0 0.032,-0.456 0.606,-0.889c0.575,-0.44 0.418,-0.96 0.096,-2.003c-0.31,-1.044 -0.39,-2.294 -0.543,-2.819c-0.159,-0.522 -0.718,-1.35 -1.133,-1.747c-0.415,-0.397 -0.44,-0.574 -0.424,-1.206c0,-0.637 -0.726,-0.719 -0.942,-0.963c-0.215,-0.241 0.232,-1.021 0.232,-1.021l0.894,-0.026c0.894,-0.027 0.488,-0.424 0.623,-0.805c0.128,-0.378 0.303,-0.401 0.255,-0.757c-0.048,-0.353 0.089,-0.734 0.089,-0.734c0,0 1.941,-0.155 2.14,-0.91c0.041,-0.16 0.143,-0.472 -0.096,-0.593c-0.607,-0.304 -2.012,-0.306 -2.012,-0.306l-0.137,-0.342c-0.134,-0.342 -0.39,-0.942 -0.973,-1.229c-0.575,-0.283 -1.294,-0.278 -1.294,-0.278c0,0 -0.064,-0.447 -0.041,-0.99c0.016,-0.543 -0.406,-1.031 -0.734,-1.439c-0.319,-0.411 -2.164,-0.712 -3.02,-1.05c-0.862,-0.339 -2.602,-0.565 -3.656,-0.337c-1.056,0.23 -1.893,0.7 -2.547,1.234c-0.657,0.54 -1.072,1.496 -1.088,2.762c-0.007,1.266 0.679,1.717 0.679,1.717c0,0 -0.478,0.513 -0.494,1.058c-0.026,0.543 0.095,1.433 -0.128,1.823c-0.217,0.39 -0.313,1.033 -0.44,2.134c-0.128,1.097 0.127,2.331 0.424,2.559c0.294,0.233 0.454,0.755 0.518,1.198c0.057,0.444 0,0.723 -0.406,1.044c-0.409,0.324 -0.463,0.605 -0.632,2.071c-0.167,1.467 0.271,2.762 0.664,2.983c0.39,0.219 2.946,1.15 2.946,1.15l0.064,1.165c0,0 -3.729,0.488 -4.418,0.757c-0.686,0.272 -0.718,0.726 -0.485,2.5c0.23,1.774 1.302,2.358 1.302,2.358c0,0 1.076,-0.05 1.669,-0.308c0.598,-0.257 1.756,-0.408 1.756,-0.408l0.958,0.415l0.336,0.5c0.335,0.497 0.67,1.715 0.67,1.715l0.415,1.12c0,0 0.386,2.93 0.393,3.649c0.006,0.725 -0.265,1.48 -0.639,2.705c-0.383,1.22 -1.111,3.936 -1.382,5.323c-0.272,1.391 0.089,4.144 -0.096,4.798c-0.182,0.657 -0.055,1.633 -0.367,2.033c-0.313,0.401 -0.009,1.991 -0.009,1.991c0,0 -0.224,0.292 -0.176,0.339c-0.479,0.064 -6.523,0.917 -7.825,1.351c-1.366,0.453 -8.427,2.625 -8.881,2.716c-0.447,0.091 -3.987,0.091 -5.43,0c-1.446,-0.091 -2.445,0 -3.716,0.363c-1.261,0.36 -5.334,2.533 -6.7,2.714c-1.357,0.184 -3.075,0.816 -5.159,1.359c-2.076,0.543 -4.888,0.997 -6.245,1.086c-1.357,0.091 -2.716,0 -3.074,-0.089c-0.367,-0.092 -3.355,-0.723 -4.53,-0.815c-1.181,-0.091 -4.887,-0.725 -5.526,-1.541c-0.632,-0.815 -3.17,-1.268 -4.16,-1.538c-0.999,-0.271 -4.887,-0.725 -7.339,-0.816c-2.445,-0.091 -10.767,0.816 -12.038,0.725c-1.268,-0.091 -4.712,-0.816 -5.884,-1.448c-1.184,-0.634 -4.983,-1.088 -6.158,-1.268c-1.174,-0.18 -2.803,-0.272 -4.345,-1.448c-1.541,-1.177 -3.259,-1.631 -4.983,-1.809c-1.717,-0.182 -12.131,-2.358 -12.849,-2.63c-0.728,-0.269 -2.27,-0.814 -5.433,-4.251c-3.177,-3.444 -5.526,-2.173 -6.429,-2.536c-0.91,-0.363 -2.267,-0.634 -3.171,-0.454c-0.9,0.178 -5.708,1.177 -7.243,1.631c-1.542,0.451 -4.536,3.711 -4.799,4.256c-0.271,0.54 -4.791,7.914 -6.062,8.094c-1.27,0.182 -4.52,6.422 -5.152,6.691c-0.639,0.274 -3.984,1.086 -4.623,1.449c-0.632,0.362 -3.074,1.27 -3.977,1.177c-0.91,-0.092 -2.628,1.81 -3.713,2.173c-1.095,0.363 -2.988,-0.271 -3.802,-0.632c-0.815,-0.365 -3.627,-0.182 -3.987,-0.093c-0.367,0.093 -2.899,0.362 -3.528,-0.18c-0.641,-0.541 -3.444,-1.36 -4.345,-1.54c-0.912,-0.182 -1.902,-0.091 -2.541,0.18c-0.629,0.274 -2.531,2.265 -3.441,3.351c-0.904,1.085 -3.346,2.716 -4.074,2.805c-0.718,0.091 -1.813,0.725 -2.531,1.633c-0.728,0.905 -1.629,3.35 -2.085,3.804c-0.456,0.449 -1.542,0.995 -2.356,1.177c-0.814,0.178 -1.628,1.357 -1.9,2.078c-0.273,0.727 -3.188,0.269 -3.642,0.812c-0.447,0.54 -2.436,1.284 -4.153,1.918c-1.717,0.631 -5.526,-1.398 -6.158,-1.309c-0.632,0.091 -4.888,0.091 -6.062,0.091c-1.182,0 -2.627,0.727 -3.537,1.088c-0.904,0.358 -4.888,1.902 -6.966,1.719c-2.084,-0.182 -7.243,-0.636 -9.686,-0.636c-2.452,0 -8.338,0.185 -9.695,-0.452c-1.359,-0.634 -5.606,-2.351 -6.605,-3.17c-0.999,-0.814 -4.801,-0.994 -6.247,-1.174c-1.453,-0.18 -11.483,-2.65 -12.658,-3.015c-1.181,-0.361 -4.153,-3.846 -4.967,-4.208c-0.814,-0.363 -5.615,-1.631 -6.788,-2.172c-1.183,-0.547 -3.443,-0.907 -4.983,-0.725c-1.535,0.18 -3.355,0.272 -4.345,-0.362c-0.999,-0.634 -2.077,-0.908 -3.348,-1.177c-1.268,-0.272 -2.627,-1.088 -3.528,-2.265c-0.912,-1.177 -2.541,-0.997 -3.444,-0.905c-0.901,0.091 -3.369,1.658 -4.367,1.021c-0.99,-0.634 -3.634,0.589 -5.447,0.044c-1.813,-0.541 -11.773,-3.802 -13.219,-3.982c-1.443,-0.181 -8.961,-0.272 -8.961,-0.272c0,0 3.898,-2.171 3.802,-6.97c-0.143,-7.515 -8.057,-8.06 -8.057,-8.06c0,0 -0.087,-0.723 -0.361,-0.903c-0.271,-0.182 -0.996,-0.456 -0.996,-0.456l-0.092,-4.162c0,0 0.992,1.265 1.264,1.537c0.28,0.269 0.912,0.816 1.542,0.816c0.638,0 0.727,-1.539 0.816,-1.902c0.087,-0.362 -0.721,-0.903 -0.632,-1.268c0.087,-0.36 -0.456,-2.082 -0.456,-2.082c0,0 0.367,-0.634 0.639,-1.177c0.271,-0.54 -0.183,-1.539 -0.183,-1.539c0,0 -1.085,-0.632 -1.541,-1.086c-0.457,-0.454 -1.629,-1.448 -2.08,-1.902c-0.454,-0.452 -1.271,-1.448 -1.271,-1.448l0.725,-0.181c0,0 0.546,-0.088 0.815,-0.542c0.271,-0.454 0.362,-0.272 1.539,-0.363c1.182,-0.089 1.086,-2.173 1.086,-3.442c0,-1.265 -2.625,-2.805 -2.894,-2.805c-0.272,0 -0.906,-0.545 -1.271,-0.454c-0.36,0.092 -0.36,0.906 -0.814,1.36c-0.452,0.453 -0.36,1.083 -0.36,1.083l-0.634,0.636c0,0 -0.452,-0.451 -1.271,-0.816c-0.812,-0.363 -3.891,-0.632 -4.525,-0.632c-0.634,0 -4.344,-0.271 -5.067,-0.271c-0.726,0 -2.356,0 -3.082,0.36c-0.723,0.36 -1.808,1.268 -2.894,2.082c-1.088,0.817 -1.088,2.447 -0.999,3.079c0.091,0.637 0.728,1.813 0.728,2.897c0,1.088 0.903,3.168 0.992,3.713c0.091,0.542 -0.089,1.177 -0.541,1.539c-0.451,0.363 -1.63,2.171 -1.63,2.171c0,0 -8.872,-0.723 -10.321,6.067c-1.306,6.121 4.076,8.601 4.076,8.601c0,0 -1.993,0.365 -2.992,0.453c-0.999,0.092 -4.614,0.995 -6.067,0.995c-1.446,0 -2.894,-1.357 -5.702,-3.168c-2.807,-1.811 -6.429,-3.442 -7.877,-3.531c-1.448,-0.091 -9.78,-0.451 -11.588,-0.634c-1.811,-0.182 -5.887,0.272 -8.058,0.454c-2.174,0.18 -7.337,1.537 -7.695,1.448c-0.363,-0.091 -2.719,-1.359 -3.079,-1.628c-0.365,-0.271 -2.808,0 -3.442,-0.365c-0.634,-0.362 -2.171,-1.448 -3.348,-2.26c-1.181,-0.814 -5.252,-4.258 -7.335,-6.972c-2.08,-2.719 -3.35,-2.356 -4.62,-2.719c-1.266,-0.362 -2.441,-1.446 -3.075,-2.171c-0.634,-0.728 -2.445,-2.808 -3.71,-3.622c-1.269,-0.816 -10.323,-4.436 -12.225,-4.979c-1.9,-0.542 -3.982,-0.907 -6.518,-0.727c-2.536,0.185 -5.25,-0.449 -6.249,-0.903c-0.995,-0.454 -2.986,-0.906 -3.8,-0.995c-0.819,-0.091 -5.072,-0.636 -5.072,-0.636l-0.543,-1.631l0.089,-1.176l-0.18,-1.088l0.091,-1.264c0,0 -0.256,-0.328 -0.543,-0.545c-0.29,-0.219 -0.545,0.817 -0.545,0.817l-0.814,1.448l-1.268,-0.545l-0.723,0l-0.183,-0.543l-1.083,0l-0.183,-0.723l0,-0.454l-0.091,-0.634c0,0 -0.321,-1.457 -0.905,-1.72c-0.584,-0.26 -1.448,0.817 -1.448,0.817l-1.086,0.812l-0.91,-0.089l-1.266,0.18l0.091,-1.448l0.092,-1.537l0,-1.088l-1.72,-0.454l-0.091,-1.355l-1.086,-0.636l-0.269,-0.908l-0.997,-1.357l-0.182,-2.716c0,0 -0.657,-1.834 -1.177,-1.902c-0.52,-0.062 -0.363,0.818 -0.363,0.818l-0.636,1.811l0,0.903l-0.723,2.443l-0.543,1.633l-0.091,2.171c0,0 -0.636,-0.511 -0.908,-0.36c-0.264,0.15 -0.089,1.266 -0.089,1.266l-0.812,2.082l-0.816,-0.814l-0.452,-0.632l-1.265,-0.545c0,0 0.111,-0.568 -0.185,-0.997c-0.294,-0.431 -0.812,0.726 -0.812,0.726l-0.089,-1.449l-0.094,-0.634l-0.273,-1.177l-0.272,-1.179c0,0 -0.26,-0.823 -0.54,-1.083c-0.283,-0.262 -0.548,0.814 -0.548,0.814c0,0 -0.707,-1.024 -1.172,-1.268c-0.467,-0.244 -0.908,0.454 -0.908,0.454l-0.814,1.448l-0.54,1.268l-0.276,1.175l0.365,1.542l-0.995,-0.637l-0.456,-1.539l-0.54,-0.814l0,-1.36l-0.274,-1.268l-0.363,-1.266c0,0 0.187,-0.629 -0.814,-0.814c-0.999,-0.187 -0.363,0.999 -0.363,0.999l-0.451,1.626l-0.272,1.36l-0.453,0.905l-0.363,0.452l-0.18,1.268l-0.906,2.264l-0.271,2.354l-0.452,1.266l-0.636,-1.537l-0.089,-1.268l-0.452,-1.271l-0.36,-0.812c0,0 -0.05,-0.894 -0.547,-0.996c-0.495,-0.103 -0.363,0.905 -0.363,0.905l0,1.268l-0.634,1.809l-0.725,0.636l-0.18,1.809l-0.089,1.177l-0.726,0.182l-0.451,1.266l-0.543,1.904l-0.1,0.144l-4.835,-0.233c-0.035,-0.255 -0.085,-0.575 -0.135,-0.725c-0.091,-0.274 0.194,-1.204 -0.454,-1.633c-0.648,-0.424 -0.725,0.363 -0.725,0.363l-1.357,0.905l-0.545,-0.363l-0.183,-1.902l-0.266,-0.814l0,-2.08l-0.997,-1.813l-0.18,-1.448l-0.092,-1.72l-0.453,-1.175c0,0 0.235,-1.5 -0.454,-1.633c-0.689,-0.13 -0.361,0.365 -0.361,0.365l0,0.997l-0.36,1.809l-0.456,1.719l-0.449,1.811l-0.094,1.177l-0.365,1.268l-0.629,0.817l-0.454,1.717l-1.496,1.85l-0.107,-0.003l-0.751,-0.67l0,-0.906c0,0 -0.488,-1.099 -0.727,-1.448c-0.231,-0.347 -0.361,0.363 -0.361,0.363l-0.36,1.448l-0.926,1.058l-359.535,-17.345c-0.16,-0.193 -0.395,-0.351 -0.6,-0.383c-0.397,-0.066 -1.396,-0.066 -1.53,0.267c-0.002,0.002 -0.002,0.009 -0.002,0.012l-3.567,-0.183c-0.153,-0.248 -0.308,-0.499 -0.493,-0.627c-0.465,-0.333 -2.395,-0.801 -2.86,-0.732c-0.422,0.057 -0.42,0.705 -0.609,1.076l-226.734,-26.002l0,0.801l226.349,25.961c0.045,0.029 0.052,0.055 0.13,0.091c0.663,0.335 1.728,0.468 2.46,0.6c0.733,0.132 0.669,0.531 1.002,0.867c0.33,0.333 0.597,0.531 0.796,1.065c0.2,0.531 0.866,2.73 0.866,2.73c0,0 -1.065,1.131 -1.466,1.398c-0.399,0.267 -1.33,0.864 -1.33,0.864l-0.134,-0.933l0.068,-0.467c0,0 0.198,-0.265 -0.333,-1.462c-0.531,-1.198 -1.929,-2.463 -4.062,-1.797c-2.13,0.666 -1.464,3.993 -1.464,3.993l0.399,0.532l-0.265,0.668l0.4,0.928l0.864,0.602c0,0 0.201,0.333 0,0.465c-0.201,0.133 -0.864,1.335 -0.933,2.397c-0.066,1.065 0.465,3.727 1.068,4.927c0.597,1.197 2.127,4.062 2.996,5.259c0.862,1.197 3.193,3.261 3.46,3.531c0.265,0.262 0.865,0 0.865,0c0,0 0.666,0.396 1.131,0.727c0.465,0.335 0.666,0.069 1.266,-0.13c0.597,-0.201 0.465,-0.068 1.197,0.13c0.734,0.203 0.8,-0.198 1.131,-0.397c0.333,-0.2 3.795,-2.93 4.329,-3.462c0.531,-0.534 1.863,-1.998 1.863,-1.998c0,0 1.599,0.201 2.598,0.069c0.997,-0.135 4.192,-0.135 4.192,-0.135c0,0 1.266,1.4 1.665,1.53c0.399,0.135 0.867,0.466 1.065,-0.13c0.198,-0.599 0.999,-1.733 0.999,-1.733c0,0 1.464,-0.132 1.596,0.201c0.135,0.331 0.999,1.197 1.332,1.532c0.333,0.331 0.931,-0.266 1.467,-0.533c0.531,-0.267 0.864,-1.401 1.129,-1.665c0.269,-0.267 0.533,-0.066 0.866,-0.402c0.333,-0.33 0.6,-1.197 0.865,-1.596c0.269,-0.399 1.067,-1.464 0.333,-2.196c-0.732,-0.732 -1.33,0.066 -1.93,0.465c-0.599,0.399 -2.198,0.933 -2.664,0.867c-0.465,-0.069 -1.263,0.732 -1.263,0.732l-0.6,-0.066l-0.066,-0.402c-0.066,-0.399 -0.933,-0.6 -1.398,-0.198c-0.468,0.399 -1.266,0.333 -1.665,0.198c-0.399,-0.132 -3.993,-1.398 -4.393,-1.731c-0.399,-0.331 -1.863,-1.33 -2.663,-1.33c-0.799,0 -3.127,1.266 -3.127,1.266c0,0 -0.534,-0.335 -0.999,-0.933c-0.466,-0.599 -1.467,-0.666 -1.731,-0.467c-0.267,0.203 -2.197,1.865 -2.197,1.865l-1.199,-1.065c0,0 -0.066,-1.865 -0.066,-2.465l0,-3.127c0,0 0.531,-0.201 0.732,-0.8c0.198,-0.596 -0.133,-1.795 -0.133,-1.795l0.133,-0.402c0.132,-0.399 -0.468,-1.065 -0.468,-1.065l0.201,-2.862c0,0 0.857,-1.553 1.163,-2.139l359.072,17.319l-0.183,0.789l0.634,1.086l0.632,1.359l-1.266,0.089l-0.636,-0.18l-0.451,-0.452l-0.632,0.181l-0.454,1.902l-0.18,1.989l-0.995,0.273l-0.725,2.354l-0.18,1.086l-0.456,1.63l-0.723,1.448l-0.452,-0.816l-0.634,-1.717c0,0 0.297,-1.49 -0.271,-1.811c-0.568,-0.324 -0.725,0.36 -0.725,0.36l-0.361,1.542l-0.454,1.537l-0.634,0.363l-0.273,1.991c0,0 0.184,1.268 -0.272,1.359c-0.451,0.089 -0.903,0.089 -0.903,0.089c0,0 -0.543,2.265 -0.543,2.536c0,0.272 -0.634,1.266 -0.905,1.631c-0.269,0.36 -1.36,0.723 -1.722,1.268c-0.361,0.54 -1.357,1.989 -1.72,2.625c-0.362,0.632 -0.905,0.994 -1.357,0.632c-0.454,-0.361 -0.274,-0.091 -0.454,0.454c-0.18,0.542 -1.993,5.07 -4.529,7.966c-2.534,2.897 -4.071,2.716 -5.611,3.17c-1.539,0.452 -3.621,1.086 -5.521,1.086c-1.905,0 -5.887,0.091 -6.703,0.363c-0.812,0.271 -4.525,1.176 -6.427,1.448c-1.902,0.271 -3.168,0.996 -5.704,1.628c-2.537,0.634 -13.951,-0.283 -16.394,0.354c-2.447,0.631 -3.35,0.089 -4.89,0.089c-1.539,0 -4.799,-0.181 -5.704,0.089c-0.905,0.271 -2.99,0.725 -4.073,0.907c-1.088,0.181 -3.442,0.634 -4.619,0.723c-1.179,0.092 -3.539,1.396 -3.539,1.396c0,0 -0.354,-0.67 -0.534,-1.576c-0.18,-0.908 -0.456,-3.893 -0.728,-4.981c-0.175,-0.705 -0.629,-1.893 -0.973,-3.216c-0.026,-0.105 0.289,-0.463 0.474,-0.577c0.511,-0.319 -0.233,-1.341 -0.233,-1.667c0,-1.086 0.009,-3.863 0.192,-5.129c0.178,-1.271 -0.454,-2.628 -0.272,-3.533c0.178,-0.905 0.543,-0.363 0.995,-1.088c0.451,-0.723 0.271,-1.083 0.636,-2.805c0.361,-1.72 0.178,-2.536 0.541,-4.885c0.362,-2.356 -2.172,-2.63 -2.172,-2.63c0,0 30.434,-1.809 33.422,-1.355c2.988,0.449 7.574,1.362 8.208,1.905c0.634,0.542 1.357,0.453 1.9,-0.363c0.545,-0.814 2.274,-3.027 0.725,-6.881c-2.228,-5.547 -16.717,-5.339 -34.372,-4.956c-34.84,0.76 -51.729,3.962 -57.613,5.047c-5.887,1.086 -10.776,1.991 -12.587,4.888c-1.811,2.899 0.725,7.699 1.811,8.874c1.09,1.177 1.633,0 3.079,-0.634c1.45,-0.634 8.851,-3.038 13.063,-3.569c10.61,-1.337 29.15,-2.21 29.15,-2.21c0,0 1.626,1.45 2.577,2.052c0.949,0.598 3.843,0.415 3.994,0.516c0.148,0.1 0.1,1.099 0.1,1.446c0,0.351 -0.251,1.199 -0.15,1.649c0.098,0.449 0.396,1.45 0.298,1.797c-0.1,0.349 -0.248,1.049 -0.298,1.448c-0.053,0.399 0.449,1.697 0.349,1.898c-0.101,0.2 -0.949,3.845 -1.2,4.844c-0.164,0.65 -0.609,3.87 -0.573,5.877c0.005,0.185 0.308,0.538 0.452,0.632c0.287,0.198 0.347,0.598 0.39,0.928c0.148,1.15 0.632,2.646 0.732,3.097c0.098,0.45 0.199,3.196 0.299,3.894c0.098,0.7 -0.053,2.495 -0.053,2.796m-0.047,-33.403c0,0 -0.051,0.65 -0.199,0.75c-0.15,0.1 -2.164,0.214 -3.097,-0.05c-0.196,-0.055 -0.855,-0.447 -0.855,-0.447l4.151,-0.253Zm-135.089,38.074l-1.453,0.773l-0.992,-0.235c0,0 0.315,-0.415 0.65,-0.846c0.561,-0.032 1.152,-0.062 1.765,-0.094c0.019,0.228 0.03,0.402 0.03,0.402m-5.417,-0.071c-0.44,0.52 -0.989,1.188 -1.206,1.535c-0.322,0.506 0.319,1.562 0.319,1.562l-8.833,4.5c0,0 0.032,0.014 -0.014,0.014c-0.036,0 -0.123,-0.007 -0.319,-0.039c-0.032,-0.005 -0.057,-0.007 -0.082,-0.007c-0.367,0 -0.399,0.449 -0.399,0.449l-1.615,1.018c0,0 -0.039,-0.057 -0.118,-0.057c-0.035,0 -0.083,0.015 -0.14,0.052c-0.171,0.114 -0.926,0.493 -1.231,0.518c-0.007,0.002 -0.164,0.032 -0.395,0.054c-4.862,-1.138 -10.806,-2.237 -10.806,-2.565c0,-0.534 9.322,-1.731 9.988,-1.996c0.665,-0.265 3.991,-3.065 5.058,-3.195c1.065,-0.135 5.859,-0.935 5.859,-0.935c0,0 1.594,-0.532 2.926,-0.799c0.162,-0.032 0.514,-0.068 1.008,-0.109m-106.036,-3.296c-1.211,0.076 -2.525,0.119 -3.802,0.082c-5.652,-0.164 -11.418,-1.126 -11.418,-1.126l-4.823,-21.268l20.043,22.312Z" style="fill:#20292F;fill-rule:nonzero;"/>
</svg>