<?xml version="1.0" encoding="UTF-8" standalone="no"?>
<!DOCTYPE svg PUBLIC "-//W3C//DTD SVG 1.1//EN" "http://www.w3.org/Graphics/SVG/1.1/DTD/svg11.dtd">
<svg width="100%" height="100%" viewBox="0 0 6530 3300" version="1.1" xmlns="http://www.w3.org/2000/svg" xmlns:xlink="http://www.w3.org/1999/xlink" xml:space="preserve" xmlns:serif="http://www.serif.com/" style="fill-rule:evenodd;clip-rule:evenodd;stroke-linejoin:round;stroke-miterlimit:2;">
    <g id="Layer-1" serif:id="Layer 1" transform="matrix(4.16667,0,0,4.16667,155.072,99.6787)">
        <g transform="matrix(1,0,0,1,236.817,313.637)">
            <path d="M0,116.881L14.518,111.468C19.602,120.164 26.575,127.055 35.434,132.138C44.292,137.225 54.543,139.766 66.192,139.766C79.642,139.766 90.591,136.486 99.042,129.923C107.489,123.363 111.714,114.34 111.714,102.856C111.714,98.265 110.769,94.04 108.885,90.183C106.997,86.33 104.782,83.131 102.241,80.587C99.695,78.046 96.089,75.542 91.415,73.082C86.739,70.621 82.556,68.695 78.865,67.299C75.174,65.907 70.375,64.223 64.469,62.255C59.056,60.452 54.953,59.098 52.166,58.194C49.375,57.295 45.522,55.818 40.601,53.765C35.68,51.716 31.866,49.871 29.16,48.229C26.453,46.591 23.376,44.415 19.931,41.708C16.486,39.001 13.86,36.214 12.057,33.342C10.251,30.473 8.692,27.028 7.382,23.007C6.068,18.989 5.413,14.683 5.413,10.089C5.413,-4.018 10.785,-15.295 21.531,-23.745C32.273,-32.192 46.752,-36.418 64.961,-36.418C78.412,-36.418 90.265,-33.342 100.519,-27.191C110.769,-21.039 118.112,-13.368 122.541,-4.183L109.253,0.492C99.245,-15.256 84.317,-23.131 64.469,-23.131C51.016,-23.131 40.479,-20.093 32.851,-14.026C25.223,-7.955 21.408,0.084 21.408,10.089C21.408,17.47 24.153,23.868 29.652,29.282C35.146,34.695 40.435,38.509 45.522,40.724C50.606,42.938 58.972,45.934 70.621,49.705C71.768,50.197 72.67,50.528 73.328,50.69C79.726,52.823 85.139,54.75 89.568,56.472C93.997,58.194 98.835,60.532 104.086,63.485C109.334,66.438 113.517,69.598 116.635,72.959C119.75,76.323 122.375,80.506 124.509,85.508C126.641,90.514 127.708,96.05 127.708,102.117C127.708,118.196 122.129,130.745 110.976,139.766C99.819,148.789 84.727,153.299 65.7,153.299C50.114,153.299 36.788,150.016 25.714,143.456C14.642,136.898 6.068,128.039 0,116.881" style="fill:rgb(53,52,53);fill-rule:nonzero;"/>
        </g>
        <g transform="matrix(1,0,0,1,708.303,313.637)">
            <path d="M0,116.881L14.518,111.468C19.602,120.164 26.575,127.055 35.434,132.138C44.292,137.225 54.543,139.766 66.192,139.766C79.642,139.766 90.591,136.486 99.042,129.923C107.489,123.363 111.714,114.34 111.714,102.856C111.714,98.265 110.768,94.04 108.885,90.183C106.997,86.33 104.783,83.131 102.242,80.587C99.696,78.046 96.089,75.542 91.415,73.082C86.739,70.621 82.556,68.695 78.865,67.299C75.174,65.907 70.375,64.223 64.469,62.255C59.056,60.452 54.953,59.098 52.166,58.194C49.375,57.295 45.522,55.818 40.601,53.765C35.68,51.716 31.866,49.871 29.16,48.229C26.453,46.591 23.376,44.415 19.931,41.708C16.486,39.001 13.86,36.214 12.057,33.342C10.251,30.473 8.692,27.028 7.382,23.007C6.068,18.989 5.413,14.683 5.413,10.089C5.413,-4.018 10.785,-15.295 21.531,-23.745C32.273,-32.192 46.752,-36.418 64.961,-36.418C78.412,-36.418 90.264,-33.342 100.519,-27.191C110.768,-21.039 118.112,-13.368 122.541,-4.183L109.253,0.492C99.245,-15.256 84.317,-23.131 64.469,-23.131C51.016,-23.131 40.479,-20.093 32.851,-14.026C25.223,-7.955 21.408,0.084 21.408,10.089C21.408,17.47 24.153,23.868 29.652,29.282C35.146,34.695 40.435,38.509 45.522,40.724C50.606,42.938 58.972,45.934 70.621,49.705C71.768,50.197 72.669,50.528 73.328,50.69C79.725,52.823 85.139,54.75 89.568,56.472C93.998,58.194 98.834,60.532 104.085,63.485C109.333,66.438 113.517,69.598 116.635,72.959C119.75,76.323 122.375,80.506 124.509,85.508C126.64,90.514 127.708,96.05 127.708,102.117C127.708,118.196 122.129,130.745 110.976,139.766C99.819,148.789 84.727,153.299 65.7,153.299C50.114,153.299 36.788,150.016 25.714,143.456C14.642,136.898 6.068,128.039 0,116.881" style="fill:rgb(53,52,53);fill-rule:nonzero;"/>
        </g>
        <g transform="matrix(1,0,0,1,445.909,448.6)">
            <path d="M0,-153.504L-54.167,14.272L-71.392,14.272L-11.575,-167.776L12.805,-167.776L70.403,13.706L53.179,13.706L0,-153.504Z" style="fill:rgb(53,52,53);fill-rule:nonzero;"/>
        </g>
        <g transform="matrix(1,0,0,1,506.641,448.593)">
            <path d="M0,-154.283L0,-167.571L127.708,-167.571L127.708,-154.283L71.605,-154.283L71.605,13.288L56.103,13.288L56.103,-154.283L0,-154.283Z" style="fill:rgb(53,52,53);fill-rule:nonzero;"/>
        </g>
        <g transform="matrix(1,0,0,1,0,-49.095)">
            <rect x="661.608" y="330.118" width="15.502" height="180.859" style="fill:rgb(53,52,53);"/>
        </g>
        <g transform="matrix(1,0,0,1,875.71,327.283)">
            <path d="M0,88.338C0,99.33 3.691,108.231 11.073,115.036C18.455,121.846 27.886,125.248 39.37,125.248C55.938,125.248 70.455,117.128 82.925,100.888L35.434,37.649C25.099,44.212 16.61,51.471 9.967,59.425C3.322,67.384 0,77.019 0,88.338M-15.502,88.584C-15.502,64.47 -1.23,43.72 27.313,26.329C26.821,25.675 25.795,24.238 24.238,22.023C22.677,19.809 21.654,18.375 21.162,17.717C20.67,17.063 19.766,15.791 18.455,13.903C17.141,12.019 16.279,10.666 15.872,9.843C15.46,9.024 14.764,7.794 13.779,6.152C12.796,4.514 12.138,3.242 11.812,2.338C11.481,1.438 11.031,0.246 10.459,-1.23C9.881,-2.706 9.475,-4.017 9.229,-5.167C8.982,-6.313 8.774,-7.585 8.612,-8.981C8.446,-10.373 8.366,-11.811 8.366,-13.287C8.366,-23.291 12.22,-31.865 19.932,-39.001C27.64,-46.137 38.221,-49.705 51.674,-49.705C72.67,-49.705 88.008,-39.863 97.688,-20.177L85.631,-14.764C82.679,-20.504 78.207,-25.629 72.222,-30.143C66.23,-34.653 59.711,-36.91 52.658,-36.91C43.962,-36.91 37.034,-34.572 31.866,-29.897C26.699,-25.222 24.114,-19.6 24.114,-13.041C24.114,-6.478 28.79,3.691 38.141,17.471C47.491,31.251 62.501,51.594 83.171,78.495C86.615,82.763 89.156,86.043 90.799,88.338C96.538,77.185 100.476,64.554 102.609,50.444L116.636,52.904C114.175,70.46 108.924,86.369 100.887,100.642L126.232,133.614L108.023,133.614L91.783,112.698C78.003,129.597 60.286,138.043 38.633,138.043C21.734,138.043 8.49,133.329 -1.106,123.895C-10.703,114.464 -15.502,102.694 -15.502,88.584" style="fill:rgb(53,52,53);fill-rule:nonzero;"/>
        </g>
        <g transform="matrix(1,0,0,1,1237.2,461.882)">
            <path d="M0,-180.859L-35.188,-119.835C-36.501,-117.7 -38.348,-114.502 -40.724,-110.238C-43.104,-105.97 -45.318,-102.033 -47.367,-98.427C-49.421,-94.817 -51.348,-91.537 -53.15,-88.584L-53.643,-88.584C-53.973,-89.238 -56.433,-93.629 -61.024,-101.749C-65.619,-109.869 -69.064,-115.898 -71.359,-119.835L-106.793,-180.859L-213.266,-180.859L-213.266,0L-197.764,0L-197.764,-84.647L-128.014,-84.647L-128.014,-97.689L-197.764,-97.689L-197.764,-167.571L-117.436,-167.571L-61.024,-74.559L-61.024,0L-45.276,0L-45.276,-74.559L18.701,-180.859L0,-180.859Z" style="fill:rgb(53,52,53);fill-rule:nonzero;"/>
        </g>
    </g>
</svg>
