<?xml version="1.0" encoding="utf-8"?>
<!-- Generator: Adobe Illustrator 18.1.1, SVG Export Plug-In . SVG Version: 6.00 Build 0)  -->
<svg version="1.1" id="Layer_1" xmlns="http://www.w3.org/2000/svg" xmlns:xlink="http://www.w3.org/1999/xlink" x="0px" y="0px"
	 viewBox="0 0 612 792" enable-background="new 0 0 612 792" xml:space="preserve">
<g id="Layer_2">
	<g>
		<path d="M441.5,176.2H166.7c-78.3,0-131.5,71.1-116.6,151.2l43.3,232.5c4.8,25.5,31.7,45,60.3,45h300.9c28.5,0,55.5-19.5,60.3-45
			l43.3-232.5C573,247.3,519.8,176.2,441.5,176.2z"/>
		<path fill="#FFFFFF" d="M406.8,235.3H201.4c-58.5,0-98.3,53.2-87.2,113l32.3,173.8c3.6,19.1,23.7,33.6,45,33.6h224.9
			c21.3,0,41.5-14.6,45-33.6L494,348.3C505.1,288.5,465.4,235.3,406.8,235.3z"/>
		<path fill="#FFFFFF" d="M304.1,538.5c-10.7-0.1-21.5-0.2-32.2-0.2c-10.1,0-20.2,0.5-30.3,1c-8.1,0.4-16.1,0.8-24.2,0.5
			c-5.6-0.2-11.3-0.6-16.9-1.5c-7.3-1.1-13.4-4.5-18.7-9.6c-6-5.9-10.6-12.8-13-20.9c-1.7-5.6-3.2-11.3-4.7-17
			c-2.9-11.3-4.8-22.7-6.8-34.2c-3.2-18.4-6.3-36.8-9.5-55.2c-1.9-11-2.5-22.1-2.2-33.2c0.1-6.3,0.7-12.6,1.7-18.9
			c0.9-6.1,2.8-12,5.5-17.6c0.8-1.6,1.6-3.2,2.4-4.9c2.5-5,3.9-10.3,4.3-15.8c0.3-4.4,0.4-8.7,0.5-13.1c0.1-4.8,0-9.7,0-14.5
			c0-2.8,0.2-5.7,0.6-8.5c0.8-6.2,3.8-11.1,8.6-15.1c2.9-2.5,6.3-3.9,10.2-4.3c4-0.4,8-0.7,12-0.9c11.4-0.7,22.9-1.5,34.3-2.2
			c3.4-0.2,6.8-0.4,10.2-0.4c5.4,0,9.9,2.1,13.8,5.7c4.2,3.9,6.8,8.5,7.6,14.1c0.2,1.4,0.4,2.7,0.7,4.1c0.7,3.5,2.5,6.6,5,9.2
			c1.3,1.3,2.6,2.5,4,3.6c3.1,2.4,6.8,3.5,10.8,3.8c4.6,0.3,9.2,0.5,13.8,1c8,0.7,16,0.8,24,0.6c5.9-0.1,11.8-0.5,17.6-0.9
			c5.7-0.3,10.4-3,14.2-7.2c3.1-3.3,5.1-7.2,6-11.6c0.2-1.3,0.5-2.6,0.9-3.8c1.5-6.2,5.3-10.8,10.6-14.2c3.4-2.2,7.2-2.8,11.1-2.9
			c7.3-0.1,14.6,0.5,21.9,0.9c9.5,0.6,19.1,1.2,28.6,1.8c1.1,0,2.1,0.2,3.2,0.3c6.1,0.5,10.9,3.5,14.9,8c4.2,4.6,6.2,10,6.3,16.2
			c0,3.3,0,6.6,0,9.9c0,6-0.1,12.1,0,18.2c0,3,0.3,6,0.6,9c0.5,4.2,1.9,8.1,3.7,11.8c4.7,9.5,7,19.6,7.8,30.2
			c0.6,8.4,0.4,16.9-0.5,25.3c-1.1,10.5-2.8,20.8-4.4,31.1c-1.1,7.1-2.1,14.3-3.2,21.5c-2.6,15.6-5.5,31.1-9.4,46.4
			c-1.9,7.5-4.2,14.9-6.6,22.2c-2.3,6.8-5.5,13.1-10.2,18.6c-6.7,8.1-15.1,13.2-25.4,14.9c-3.1,0.5-6.3,0.7-9.5,0.7
			c-7.6,0.1-15.2-0.2-22.8-0.8c-15.1-1-30.3-1.1-45.5-1.1c-7.2,0-14.4-0.1-21.6-0.1L304.1,538.5z"/>
		<path fill="#FFFFFF" d="M401.7,280.5c0.1,0,0.3,0,0.4,0c0.1,0.4,0.3,0.8,0.4,1.3c0.7,3.3,1.2,6.7,2,10.1c0.9,3.8,3.3,6.3,7.1,7.4
			c1.8,0.5,3.6,0.9,5.5,1.4c3.5,0.9,6.8,2.5,9.8,4.6c0.8,0.6,1.5,1.4,2.3,2.1c0.7,0.7,1.4,1.5,2.2,2.2c0.6,0.5,1.7,0.8,2.3,0.4
			c0.7-0.4,0.3-1.1,0.2-1.7c-0.2-2.1-0.5-4.2-0.7-6.3c-0.2-3.9-0.3-7.8-0.6-11.6c-0.1-2.5-0.9-4.9-2.7-6.8c-1.2-1.3-2.4-2.6-3.6-3.9
			s-2.7-1.8-4.4-1.9c-3.8-0.2-7.7-0.3-11.5-0.6c-6.6-0.4-13.3-0.8-19.8-1.3c-2.4-0.1-4.8-0.3-7.2-0.4c-1.5,0-3,0-4.6,0.1
			c-3.8,0.4-6.5,3.3-7.3,7.1c-0.5,2.5-0.8,5-1.9,7.3c-0.3,0.8-0.7,1.6-1.1,2.4c-0.7,1.5-0.3,2.2,1.3,2.1c0.2,0,0.4,0,0.6,0
			c4-0.6,8.1-0.6,12.1-0.2c3.9,0.3,7.8,0.4,11.6,0.4c0.5,0,1.1-0.1,1.6-0.2c1.8-0.5,2.8-1.9,3.3-3.6c0.6-1.8,1.1-3.7,1.6-5.5
			C401.1,283.4,401.4,281.9,401.7,280.5z"/>
		<path fill="#FFFFFF" d="M208.6,277.9c0.1,0,0.2,0,0.3,0c0.1,0.3,0.2,0.7,0.2,1.1c0.1,1.3,0.2,2.6,0.4,3.9c0.3,2.3,0.6,4.6,0.9,6.9
			c0.3,2.4,2.4,4,4.8,4c2.9,0,5.8-0.4,8.7-0.8c2-0.2,4-0.5,6.1-0.4c0.9,0,1.9,0.1,2.8,0.1c2.1,0.1,4.2,0.2,6.3,0.4
			c2.2,0.2,2.6-0.3,1.8-2.5c-0.6-1.7-0.9-3.5-1.3-5.2c-0.2-1.2-0.3-2.4-0.6-3.6c-0.3-1.7-1.3-3-2.4-4.3c-1.5-2-3.7-2.9-6.1-3
			c-3.2-0.1-6.4,0-9.6,0.4c-1.6,0.1-3.3,0.1-5,0.2c-3.7,0.2-7.4,0.5-11.1,0.7c-2.4,0.1-4.8,0.2-7.2,0.4c-3.4,0.2-6.8,0.5-10.2,0.6
			c-2.3,0.1-4.1,0.9-5.6,2.6c-1.4,1.5-2.4,3.2-2.9,5.2c-0.4,1.8-0.7,3.7-0.9,5.5c-0.3,2.8-0.6,5.5-0.7,8.3c-0.1,2,0,4,0,6
			c0,0.6,0.4,0.9,0.9,0.8c0.5,0,1.2-0.1,1.7-0.4c1.2-0.6,2.4-1.4,3.5-2.1c2.8-1.7,5.6-3,8.8-3.9c2.3-0.6,4.5-1.2,6.7-1.8
			c2.9-0.8,5.1-2.6,6.1-5.5c0.7-2.1,1.1-4.3,1.6-6.4c0.5-2.2,1-4.4,1.5-6.5C208.2,278.4,208.4,278.2,208.6,277.9z"/>
		<path fill="#FFFFFF" d="M277.3,410.8c0.3,0.5,0.4,0.7,0.6,0.9c2.8,2.8,5.1,5.8,7.4,9c2.6,3.6,5.3,7.1,7.9,10.8
			c1.6,2.3,3.9,3.7,6.2,5.2c0.4,0.2,0.8,0.4,1.3,0.5c1.5,0.4,2.9,0.8,4.4,1.2c0.5,0.1,1,0,1.5,0c2.7-0.5,5-2,6.9-3.9
			c2.6-2.6,4.6-5.6,6.7-8.6c1.8-2.5,3.6-5,5.5-7.3c2-2.4,4.2-4.5,6.3-6.7c0.2-0.2,0.3-0.4,0.5-0.8c-0.6-0.1-1-0.3-1.4-0.4
			c-3.2-0.3-6.5-0.7-9.7-0.9c-4-0.2-8-0.2-12-0.2c-0.7,0-1.5,0.1-2.2,0.1c-1.5,0.1-2.9,0.2-4.5,0.3c-1.2,0-2.4,0-3.5,0
			c-2.3,0.1-4.6,0.3-6.9,0.3c-3.8,0.1-7.7,0.1-11.5,0.2C279.7,410.6,278.6,410.7,277.3,410.8z"/>
		<path fill="#FFFFFF" d="M378.5,457.9c0.7,0.7,0.8,1.4,0.9,2.1c0.4,1.8,0.8,3.7,1.2,5.5c0.7,3.4,1.5,6.8,2.3,10.2
			c0.4,1.8,0.8,3.7,1.3,5.5c0.7,2.8,1.4,5.5,2.1,8.2s1.3,5.4,2,8c0.2,0.9,0.4,1,1.2,1c0.9,0,1.3-0.1,1.6-0.9
			c1.3-3.4,2.6-6.8,3.8-10.2c1.4-3.7,2.8-7.5,4.1-11.2c1.4-3.9,2.8-7.8,4.3-11.7c0.3-0.8,0.5-1.6,1.2-2.3c2.4-2.3,2.2-6-0.9-8.1
			c-1.6-1.1-3.3-1.9-5.2-2.5c-1.2-0.3-2.4-0.5-3.5-0.1c-1.5,0.5-3,0.3-4.5-0.1c-0.7-0.2-1.2-0.5-1.5-1.2c-1.2-2.1-3.1-2.9-5.5-2.8
			c-2.2,0.1-4.5,0.1-6.7,0.2c-1.3,0-2.6-0.1-3.9,0c-3.6,0.4-7.3,0.1-11-0.1c-0.5,0-1.1-0.1-1.6-0.2c-0.7-0.2-1.2-0.7-1.4-1.4
			c-0.1-0.5-0.2-1-0.3-1.5c-0.7-2.3-3.1-3.8-5.6-3.6c-2.5,0.2-4.6,2.1-4.8,4.5c-0.2,2.3,0,4.5,1.3,6.4c0.5,0.7,0.8,1.6,1,2.5
			c0.3,0.8,0.4,1.8,0.7,2.6c0.7,2.9,1.5,5.8,2.3,8.8c1.1,4.1,2.1,8.2,3.2,12.3c0.9,3.4,1.8,6.7,2.8,10.1c0.4,1.7,0.9,3.3,1.4,5
			c0.1,0.5,0.3,0.8,0.8,1c0.9,0.3,1.6,0.1,2-0.8c2.1-4.9,4.2-9.7,6.2-14.6c2.7-6.4,5.3-12.8,8-19.3
			C377.9,458.7,378.2,458.3,378.5,457.9z"/>
		<path fill="#FFFFFF" d="M229.4,455.5c0.3,0.6,0.5,1,0.7,1.5c0.3,0.8,0.5,1.6,0.8,2.3c0.2,0.7,0.5,1.4,0.8,2.1
			c0.9,2.8,1.7,5.5,2.7,8.3c1.8,5.1,3.8,10.1,5.7,15.1c0.9,2.4,1.9,4.8,2.8,7.2c0.4,1.1,0.9,1.4,1.7,1.4c1,0,1.1-0.8,1.3-1.5
			c1.2-3.8,2.5-7.7,3.6-11.6c1.2-4.2,2.4-8.4,3.6-12.7c1.2-4.2,2.3-8.3,3.4-12.5c0.4-1.5,0.7-3,1.6-4.4c1.2-1.9,1.2-3.8,0-5.6
			c-1.2-1.8-3-2.7-5.2-2.3c-2.5,0.4-5,0.9-7.3,2.2c-0.9,0.5-1.3,0.4-1.9-0.3c-2-2.2-4-2.8-6.8-1.8c-1.3,0.5-2.7,1-4,1.5
			c-0.8,0.3-1.6,0.4-2.5,0c-1.7-0.8-3.4-0.7-5,0.2c-2,1.1-3.9,2.2-5.5,3.9c-0.3,0.4-0.9,0.7-1.5,0.8c-2,0.4-3.9,0.8-5.9,1.1
			c-2.2,0.4-4.3,1.3-6.1,2.7c-2.2,1.5-2.8,3.7-2,6.2c0.2,0.6,0.4,1.2,0.6,1.9c1.1,3.6,2.1,7.2,3.3,10.8c1.2,3.6,2.4,7.2,3.7,10.8
			c1.3,3.8,2.8,7.5,4.1,11.2c0.3,0.8,0.5,0.9,1.4,0.9s1.1-0.2,1.3-1c1-3.5,1.9-7.1,2.9-10.7c0.9-3.4,1.9-6.7,2.8-10.1
			c0.7-2.6,1.4-5.2,2.1-7.7c0.7-2.9,1.4-5.9,2.1-8.9C229,456.3,229.2,456,229.4,455.5z"/>
		<path fill="#FFFFFF" d="M332.1,508.1c0-0.3,0-0.5,0-0.8c0-1.1,0.2-1.4,1.3-1.6c0.7-0.1,1.4-0.1,2.1,0c1.5,0.2,3,0.4,4.5,0.7
			c1.9,0.4,3.7,0.3,5.6,0.4c0.5,0,1.1-0.1,1.6-0.2c1.6-0.4,2.9,0.3,3.4,2c0.2,0.9,0.4,1.8,0.7,2.6c1,2.8,3.8,4.3,6.5,3.5
			c3-0.8,4.4-3.7,3.8-6.4c-0.7-2.8-1.2-5.5-1.8-8.3c-0.7-3.1-1.6-6.2-2.4-9.3c-1.2-4.5-2.5-9-3.7-13.5c-1.2-4.4-2.4-8.8-3.6-13.3
			c-0.9-3.5-1.9-7-2.8-10.5c-0.4-1.5-0.8-2.9-1.3-4.4c-0.3-1.1-1-1.4-2.2-1.4c-1.1,0-1.6,0.3-2,1.4c-0.1,0.3-0.2,0.6-0.4,1
			c-3,7.7-6,15.3-8.9,23c-2.8,7.5-5.5,15-8.3,22.5c-1.1,3-2.3,5.9-2.9,9.1c-0.4,2.1-0.1,4,0.5,5.9c0.2,0.6,0.6,1.1,1,1.6
			c1.5,1.7,4,2.2,6.1,1.3C331,512.6,332.2,510.6,332.1,508.1z"/>
		<path fill="#FFFFFF" d="M202.3,455.3c-0.1-1-0.2-2.1-0.4-3.2c-0.2-1-0.7-1.9-1.4-2.7c-0.5-0.6-1-1.3-1.4-2
			c-1.1-1.9-2.7-2.8-4.8-2.8s-3.8,1-4.8,2.8c-1.2,2.3-2.1,4.7-2.6,7.2c-0.2,1.3-0.7,2.4-1.4,3.4c-0.5,0.7-1,1.6-1.2,2.4
			c-0.5,2.8-1.1,5.5-0.5,8.4c0.1,0.7,0.2,1.5,0.2,2.2c0,2.6,0,5.1,0,7.7s0,5.2,0.2,7.8c0.1,1.6,0.6,3.1,0.9,4.6
			c0.8,4.4,2.5,8.5,4.9,12.3c1,1.6,2.2,3.2,3.9,4.2c1.9,1.1,4,1.9,6.1,2.5c1.4,0.3,2.8,0.5,4.2,0.6c0.7,0,1.3,0.2,2,0.6
			c0.7,0.5,1.4,0.9,2.2,1.2c2.3,0.9,4.4,0.5,6-1.3c1.7-1.7,1.8-3.7,0.9-5.9c-0.2-0.5-0.5-1.1-0.6-1.6c-0.6-2.1-1-4.1-1.7-6.1
			c-2-6.3-4-12.6-6.2-18.9c-1.9-5.5-3.9-11-5.8-16.4c-0.2-0.6-0.2-1.2,0.1-1.9C201.9,458.7,202.1,457,202.3,455.3z"/>
		<path fill="#FFFFFF" d="M278,506.9c3.3-0.1,5.8-3,5.3-6.2c-0.1-0.7-0.3-1.4-0.5-2.1c-0.8-2.4-1.5-4.7-2.3-7
			c-1.1-3.1-2.2-6.3-3.2-9.5c-1-3-2.1-6-3.1-9c-1.1-3.3-2.2-6.6-3.2-9.8c-1.6-4.7-3.1-9.4-4.7-14.1c-0.2-0.5-0.4-1-0.6-1.5
			c-0.6-0.9-2.2-1-2.6,0.1c-0.1,0.2-0.2,0.5-0.3,0.7c-0.4,1.2-0.8,2.4-1.1,3.6c-0.9,2.9-1.9,5.9-2.8,8.8c-1,3.4-2.1,6.8-3,10.3
			c-1.1,3.8-2.2,7.6-3.2,11.4c-1.2,4.5-2.5,8.9-3.7,13.4c-0.5,1.7-1,3.5-1.3,5.3c-0.5,2.5,0.6,4.7,2.9,5.7c1.8,0.9,3.7,1.4,5.8,1
			c0.9-0.1,1.8-0.2,2.7-0.3c1.6-0.1,3-0.5,4.5-1.3c0.9-0.5,1.9-0.9,2.8-1.1c1.1-0.2,2.3-0.3,3.4-0.4c2.1,0,4.2-0.1,6.1,1.1
			C276.2,506.6,277.1,506.7,278,506.9z"/>
		<path fill="#FFFFFF" d="M312.3,440.5c-0.6,0-0.9,0-1.2,0c-4.7,0-6.5,4.2-5.6,7.5c0.7,3,1.7,5.9,2.5,8.9c1.1,4,2.2,8,3.3,12
			c0.8,3.1,1.7,6.2,2.6,9.3c0.7,2.6,1.5,5.2,2.3,7.8c0.7,2.3,1.5,4.6,2.3,6.9c0.3,1,0.4,1,1.4,1.1c1,0,1.2-0.1,1.6-1.1
			c0.8-1.9,1.5-3.8,2.3-5.7c2.2-5.6,4.4-11.2,6.5-16.9c2-5.1,3.9-10.2,5.8-15.3c1.2-3.2,2.3-6.4,4.3-9.2c1-1.5,1.5-3.3,1.6-5.1
			c0-1.2-0.5-1.6-1.6-0.9c-0.5,0.3-1,0.7-1.6,1c-2.2,1-4.5,1.4-6.9,0.9c-1.2-0.2-2.4-0.5-3.6,0c-1,0.4-2.2,0.4-3.2,0.3
			c-1.2,0-2.5-0.1-3.7,0c-1.4,0.1-2.7,0-3.9-0.5C315.5,440.9,313.8,440.3,312.3,440.5z"/>
		<path fill="#FFFFFF" d="M424.8,481.5c-0.2-1.4-0.3-2.8-0.6-4.2c-0.4-2.4-0.9-4.8-1.3-7.2c-0.3-2.1-0.7-4.1-1.1-6.1
			s-1.6-3.3-3.5-3.9c-1.3-0.4-2.4-0.9-3.5-1.6c-0.2-0.2-0.5-0.3-0.8-0.4c-3.7-1.8-7.9,0.8-7.9,4.8c0,0.6-0.1,1.3-0.3,1.9
			c-0.3,1-0.7,1.9-1.1,2.8c-2,5.4-4.1,10.7-6.1,16.1c-2.1,5.6-4.2,11.1-6.2,16.8c-0.7,1.9-1.4,3.9-1.8,5.8c-0.7,3.3,1.8,6.3,5.3,6.3
			c0.8,0,1.6-0.2,2.4-0.4c0.7-0.1,1.4-0.4,2.2-0.4c1.1,0,2.1-0.3,3-0.8c0.7-0.3,1.6-0.5,2.4-0.7c1.1-0.3,2.3-0.4,3.3-0.8
			c0.9-0.3,1.8-0.7,2.5-1.3c2.7-2.1,4.8-4.6,6.7-7.4c1.8-2.7,3.2-5.6,4.4-8.6c0.5-1.3,1.1-2.6,1.3-3.9
			C424.5,486,424.6,483.7,424.8,481.5z"/>
		<path fill="#FFFFFF" d="M274.6,440.3c-2.9,0-5.5,3-4.6,6.4c0.6,2.5,1.3,5,2,7.4c1.8,5.5,3.5,11.1,5.5,16.6
			c1.9,5.5,3.8,10.9,5.8,16.3c0.7,2,1.6,3.8,2.4,5.7c0.3,0.8,1,0.7,1.6,0.7c0.5,0,0.9-0.2,1.1-0.8c1-3.1,2-6.2,3-9.3
			c1.6-4.8,3.1-9.5,4.7-14.3c2-5.9,3.9-11.9,5.8-17.9c0.5-1.6,1.1-3.1,1.5-4.7c1.1-3.9-2.1-7.4-6-6.8c-1.1,0.1-2.1,0.5-2.9,1.2
			c-0.5,0.4-1.1,0.5-1.8,0.2c-1.5-0.7-3-0.7-4.6-0.2c-0.5,0.1-1,0.1-1.5,0.3c-0.8,0.3-1.7,0.6-2.5,1s-0.8,0.5-1.6-0.2
			c-0.8-0.7-1.8-1.2-2.9-1.4C278.1,440.5,276.6,440.5,274.6,440.3z"/>
		<path fill="#FFFFFF" d="M374.5,509.3c0.7,0.1,1.3,0.3,1.8,0.4c1.1,0.1,1.6,0.7,1.8,1.7c0.1,0.6,0.2,1.3,0.1,1.9
			c0,0.7-0.3,1.5-0.4,2.2c-0.5,2.8,1.1,5.3,3.8,6.1c2.7,0.7,5.5-0.6,6.5-3.3c0.3-1,0.6-2,0.8-3.1c0.4-3.3,0.1-6.5-1.4-9.5
			c-0.3-0.6-0.6-1.4-0.7-2.1c-0.7-2.9-1.3-5.9-2.1-8.8c-0.8-3.3-1.7-6.5-2.6-9.8c-1.1-4.2-2.3-8.4-3.4-12.6
			c-0.2-0.8-0.8-1.2-1.6-0.8c-0.4,0.2-0.8,0.6-1,1c-0.9,1.7-1.7,3.4-2.5,5.2c-1.6,3.5-3.1,6.9-4.6,10.4c-2,4.7-4.4,9.2-5.9,14.1
			c-1.2,3.8-0.8,7.3,1.8,10.4c1.4,1.7,3.3,2.4,5.5,1.8c2.2-0.5,3.5-1.9,4-4.2C374.3,510.1,374.4,509.8,374.5,509.3z"/>
		<path fill="#FFFFFF" d="M305.6,509.5L305.6,509.5c0.4-0.1,0.9-0.1,1.3-0.1c1.7,0,3.2-0.6,4.2-2c0.6-0.8,1.4-1.3,2.4-1.5
			c3.3-0.6,5.1-3.9,3.8-7.1c-0.2-0.5-0.5-1-0.6-1.5c-0.6-1.8-1.1-3.7-1.6-5.5c-0.9-3.1-1.8-6.3-2.7-9.5c-0.9-3.1-1.8-6.2-2.7-9.3
			c-1-3.5-2.2-7-3.2-10.6c-0.3-1.1-0.7-2.3-1.1-3.4c-0.2-0.7-0.6-1-1.4-0.9c-0.6,0-1,0.2-1.2,0.9c-0.1,0.6-0.4,1.2-0.6,1.8
			c-1.1,3-2.2,6-3.2,9.1c-1.2,3.5-2.5,7-3.6,10.6c-1.3,4-2.6,8-3.8,12c-0.6,2-1.2,4-1.9,6c-0.3,1-0.6,2-0.4,3
			c0.5,2.6,2.4,4.4,5.1,4.6c1.2,0.1,2.4,0.1,3.6,0.2c0.9,0,1.6,0.3,2.2,1.1c0.6,0.9,1.6,1.5,2.7,1.8
			C303.8,509.4,304.6,509.4,305.6,509.5z"/>
		<path fill="#FFFFFF" d="M242.8,502.4c-0.1-0.8-0.1-1.7-0.3-2.5c-0.6-1.9-1.2-3.8-2-5.6c-2.4-6.1-4.8-12.2-7.3-18.4
			c-0.5-1.3-1.1-2.5-1.7-3.8c-0.3-0.7-0.9-0.8-1.6-0.8c-0.6,0-1.1,0.2-1.3,0.9c-0.4,1.4-1,2.8-1.4,4.1c-0.9,3.1-1.9,6.1-2.7,9.2
			c-1,3.6-1.9,7.2-2.8,10.8c-0.4,1.7-0.6,3.4-1.2,5c-1.1,2.7-0.8,5,1,7.2c0.2,0.3,0.4,0.6,0.7,1c0.6,0.8,1.4,1.4,2.4,1.8
			c2.5,0.9,5.2,0,6.6-2.2c0.5-0.8,1.1-1.2,2-1.2c1,0,2,0,2.9,0.1C239.6,508.9,243.2,506.4,242.8,502.4z"/>
		<path fill="#FFFFFF" d="M389.5,493c-0.4-1.7-0.7-3.3-1.1-4.9c-0.8-3.1-1.6-6.3-2.4-9.5c-0.6-2.5-1.1-4.9-1.6-7.4
			c-0.8-3.4-1.6-6.9-2.3-10.3c-0.2-0.8-0.3-1.7-0.5-2.6c-0.1-0.4-0.2-0.9-0.5-1.3c-0.8-1.6-1.7-2-3.4-1.8c-0.7,0.1-1.4,0.4-1.7,1.1
			c-0.6,1.1-1.2,2.3-1.7,3.5c-2.1,5.1-4.2,10.2-6.3,15.2c-1.7,4.1-3.4,8.3-5.2,12.4c-0.2,0.4-0.4,0.8-0.8,1.2
			c-0.1-0.7-0.3-1.4-0.5-2.1c-1.5-5.8-3.1-11.6-4.6-17.4c-1.1-4.2-2.2-8.3-3.2-12.5c-0.5-2-1.1-4-1.7-6c-0.1-0.4-0.4-0.8-0.5-1.3
			s-0.3-1-0.4-1.6c-0.1-0.4-0.1-0.8-0.2-1.1c-0.4-1.2,0.1-2.3,1.3-2.9c1.1-0.5,2.3-0.2,2.9,0.9c0.2,0.4,0.4,0.8,0.5,1.3
			c0.6,2.6,3.3,4.5,5.8,4.5c6.6-0.1,13.2,0,19.8,0c0.6,0,1.3-0.1,2-0.3c1.2-0.3,2.3,0,2.9,1c0.2,0.4,0.5,0.9,0.7,1.4
			c0.4,0.7,0.9,1.1,1.7,1.3c0.7,0.1,1.4,0.3,2,0.6c0.6,0.3,1.2,0.4,1.9,0.2c0.5-0.1,1.1-0.1,1.6-0.2s1.1-0.2,1.6-0.3
			c0.4,0,0.9-0.1,1.2,0c1.3,0.5,2.6,1,3.9,1.7c0.8,0.4,1.5,1,1.8,1.9c0.2,0.5,0.2,0.9,0,1.4c-2.3,4.6-3.7,9.5-5.5,14.3
			c-2.5,6.5-4.8,13-7.2,19.5C389.8,492.7,389.7,492.8,389.5,493z"/>
		<path fill="#FFFFFF" d="M217,489.6c-1.1-3.1-2.3-6.3-3.4-9.5c-1.5-4.4-3-8.7-4.4-13.2c-0.8-2.7-1.5-5.4-2.3-8
			c-0.3-0.9-0.5-1.8,0.1-2.6c0.4-0.5,1-1,1.6-1.4c0.9-0.5,1.8-1,2.8-1.4c0.4-0.2,1-0.2,1.5-0.3c0.2,0,0.5,0,0.8-0.1
			c1.4-0.5,2.9-0.5,4.3-0.9c1.4-0.3,2.9-0.6,3.9-1.9c1.2-1.6,3-2.5,4.6-3.5c0.7-0.4,1.4-0.5,2.1-0.1c0.5,0.3,1.1,0.5,1.7,0.8
			c0.7,0.4,1.3,0.3,2,0c1.5-0.6,3-1.2,4.6-1.8c0.3-0.1,0.5-0.3,0.8-0.4c1.3-0.6,2.5-0.3,3.1,0.8c0.5,0.9,1.4,1.5,2.3,1.9
			c0.6,0.3,1.2,0.3,1.8,0c0.5-0.2,1-0.4,1.4-0.8c0.7-0.5,1.5-0.8,2.5-0.9c1.3-0.1,2.5-0.5,3.7-0.9c0.9-0.2,1.6,0.1,2.2,0.7
			c0.6,0.6,1.1,1.3,0.6,2.2c-1.3,2.8-1.8,5.7-2.7,8.6c-1.2,4.3-2.4,8.7-3.6,13.1c-1.5,5.3-3.1,10.6-4.7,15.9c-0.1,0.5,0,1.2-0.7,1.6
			c-0.1-0.1-0.2-0.2-0.3-0.3c-1.3-3.3-2.6-6.7-3.8-10c-1.3-3.5-2.7-7-3.9-10.6c-0.6-1.7-1-3.5-1.6-5.3c-0.7-2.1-1.4-4.2-2.2-6.2
			c-0.5-1.3-1.6-2-3-2.1c-1.1-0.1-2.5,1.1-2.8,2.5c-0.4,1.8-0.8,3.6-1.3,5.4c-1,4.1-2.1,8.2-3.2,12.3c-1.3,5-2.8,10-4.1,15
			c-0.1,0.5-0.2,1-0.3,1.5C217.1,489.6,217,489.6,217,489.6z"/>
		<path fill="#FFFFFF" d="M343.5,451.5c0.1,0.4,0.3,0.8,0.4,1.1c1.4,5,2.7,10,4.1,15c1.4,5.1,2.8,10.2,4.3,15.3
			c1.5,5.6,3,11.2,4.5,16.8c0.4,1.7,0.8,3.3,1.1,5.1c0.1,0.4,0,0.8,0,1.2c0.1,0.7,0.2,1.5,0.3,2.2c0.2,0.9,0.2,1.8-0.2,2.7
			c-0.7,1.4-2.5,1.8-3.6,0.7c-0.4-0.4-0.9-1.1-0.9-1.7c0-1.1-0.4-2-0.7-2.9c-0.4-1.3-1.5-2.1-2.6-2.8c-1.3-0.8-2.6-0.8-4.1-0.4
			c-0.9,0.3-2,0.2-3,0.1c-0.9,0-1.8-0.2-2.7-0.4c-0.3,0-0.7,0-1-0.1c-0.7-0.1-1.4-0.2-2.1-0.3c-0.4,0-0.8-0.1-1.3-0.2
			c-0.9,0-1.7,0-2.6,0c-2.3,0-4.1,1.2-4.8,3.5c-0.1,0.5,0,1.1,0.1,1.6c0.4,1.5-0.7,3.3-2.3,3.3c-1.1,0-2.3-1.2-2.5-2.5
			c0-0.3,0-0.7-0.1-1c-0.5-1-0.2-2,0-3c0.4-1.4,0.8-2.8,1-4.3c0.1-1.1,0.7-2.1,1.1-3.1c1.5-3.9,2.9-7.9,4.4-11.8
			c2.5-6.8,5-13.6,7.5-20.3c1.4-3.8,3-7.5,4.5-11.2c0.3-0.8,0.6-1.6,0.9-2.4C343.4,451.5,343.4,451.5,343.5,451.5z"/>
		<path fill="#FFFFFF" d="M186.3,476.5c0-2.4,0-4.8,0-7.2c0-0.8-0.2-1.5-0.3-2.3c0-0.2-0.1-0.5-0.1-0.7c0.3-1.6,0.6-3.2,0.9-4.8
			c0.1-0.5,0.4-1,0.6-1.5c0.5-1.1,1-2.3,1.5-3.4c0.1-0.2,0.2-0.5,0.2-0.8c0-2.6,1.3-4.7,2.4-6.9c0.2-0.4,0.6-0.8,1-1.1
			c1.1-0.7,2.5-0.3,3.1,0.8c0.5,0.9,1.1,1.6,1.8,2.3c0.7,0.6,0.9,1.4,1.1,2.4c0.3,1.4,0.3,2.7,0,4c-0.2,0.8-0.3,1.5-0.8,2.2
			c-0.9,1.1-0.9,2.3-0.1,3.5c0.4,0.6,0.7,1.2,0.9,1.9c1.8,5,3.6,10.1,5.4,15.1c1.3,3.7,2.6,7.4,3.7,11.1c1.2,3.9,2.4,7.8,3.5,11.7
			c0,0.2,0.1,0.4,0.1,0.7c0,1.1,0.2,2.2,0.8,3.1c0.7,1.2-0.2,2.8-1.1,3.3c-1,0.5-1.8,0.4-2.7-0.4c-0.4-0.3-0.7-0.7-1.2-1
			c-0.9-0.6-2-0.9-3.1-0.8c-1.5,0.1-2.9-0.4-4.4-0.7c-0.5-0.1-1.1-0.2-1.6-0.3c-1.4-0.4-2.6-1.1-3.5-2.2c-0.3-0.3-0.6-0.6-0.9-0.9
			c-1.5-1.3-2.4-3-3-4.9c-0.1-0.2-0.1-0.5-0.2-0.6c-1.1-1-1.2-2.5-1.7-3.8c-0.1-0.3-0.3-0.6-0.4-1c-0.2-0.6-0.3-1.2-0.5-1.8
			c-0.3-1.2-0.5-2.5-0.8-3.8c-0.2-1.1-0.5-2.3-0.6-3.4C186.3,481.7,186.4,479.1,186.3,476.5z"/>
		<path fill="#FFFFFF" d="M263.9,452.5c0.1,0.3,0.3,0.7,0.5,1c1.9,5.6,3.7,11.3,5.6,17c1.2,3.5,2.4,7,3.6,10.5
			c1.8,5.3,3.5,10.6,5.3,15.9c0.5,1.4,0.9,2.8,1.3,4.3c0.2,0.8-0.1,1.6-0.8,2.1c-0.6,0.5-1.3,1-2.1,0.6c-0.9-0.3-1.7-0.7-2.6-1
			c-0.5-0.1-1-0.3-1.5-0.3c-2.3,0-4.6,0-6.8,0c-0.6,0-1.2,0.1-1.7,0.3c-1.6,0.6-3.1,1.2-4.7,1.9c-0.3,0.1-0.7,0.2-1.1,0.2
			c-0.5,0.1-1.1,0.2-1.6,0.3c-1.4,0.3-2.8,0.4-4.3-0.1c-0.1,0-0.3-0.1-0.4-0.1c-1.1,0-1.8-0.6-2.3-1.4c-0.6-0.9-0.6-1.9-0.4-2.8
			c0.4-1.8,0.9-3.5,1.3-5.2c1-3.5,2-7,2.9-10.4c1.1-4,2.2-8.1,3.4-12.1c1.4-4.9,2.9-9.7,4.4-14.5c0.6-2,1.2-3.9,1.8-5.9
			C263.7,452.5,263.8,452.5,263.9,452.5z"/>
		<path fill="#FFFFFF" d="M319.6,489c-0.2-0.4-0.4-0.7-0.5-1c-1.3-4.5-2.7-8.9-3.9-13.4c-1.2-4.2-2.4-8.4-3.5-12.7
			c-1.2-4.3-2.3-8.5-3.5-12.8c-0.1-0.6-0.4-1.2-0.5-1.8c-0.1-0.5,0-1,0.3-1.5c0.4-0.5,0.8-1.1,1.2-1.7c0.2-0.4,0.6-0.5,1.1-0.5
			c1.2,0,2.5,0,3.6,0c0.5,0,1,0.2,1.4,0.4c2.1,1.1,4.3,1.2,6.6,0.7c0.4-0.1,1-0.1,1.4,0c2,0.6,3.8,0.1,5.6-0.4
			c0.5-0.1,1.1-0.3,1.6-0.1c2,0.5,4,0.5,6,0c0.2,0,0.4,0,0.7,0c0.1,0.8-0.3,1.5-0.8,1.9c-0.8,0.8-1.2,1.9-1.5,3
			c-0.5,1.7-1.2,3.3-1.8,5c-1.3,3.4-2.6,6.9-3.9,10.4c-2.1,5.4-4.2,10.8-6.3,16.2c-1,2.7-2.1,5.4-3.1,8.1
			C319.9,488.6,319.8,488.7,319.6,489z"/>
		<path fill="#FFFFFF" d="M393.1,506.3c0.2-0.9,0.4-1.8,0.7-2.7c2.5-6.8,5-13.6,7.5-20.3c2.5-6.5,4.9-13,7.4-19.5
			c0.1-0.3,0.1-0.7,0.2-1c0.2-0.6,0.4-1.3,0.8-1.8c0.7-0.8,1.5-1,2.6-0.5c0.6,0.3,1.2,0.7,1.9,1c0.7,0.4,1.4,0.8,2.2,1
			c1.7,0.5,2.3,1.3,2.5,3.1c0.1,1.1,0.4,2.2,0.6,3.3c0.1,0.6,0.3,1.3,0.3,2c0,1.2,0.5,2.1,0.7,3.2c0.1,0.5,0.2,1,0.2,1.5
			c0,1,0,2,0.4,2.9c0.1,0.3,0,0.7,0,1c0.1,0.6,0.1,1.3,0.3,2c0.1,0.5,0.1,1.1,0,1.6s-0.2,1.1-0.2,1.6c-0.1,1.9-0.5,3.8-1.2,5.6
			c-0.5,1.4-1.1,2.7-1.7,4c-0.2,0.5-0.7,1-1,1.6c-0.4,0.8-0.8,1.6-1.3,2.4c-1.7,3-4.1,5.5-6.7,7.9c-0.4,0.4-1.1,0.7-1.7,0.7
			c-1.4,0-2.6,0.5-3.9,0.8c-0.8,0.1-1.5,0.6-2.3,0.9c-0.3,0.1-0.7,0.3-1.1,0.3c-1.4-0.1-2.6,0.3-3.9,0.7c-1.8,0.5-3.4-0.6-3.4-2.5
			C393.1,506.8,393.1,506.6,393.1,506.3C393.2,506.3,393.2,506.3,393.1,506.3z"/>
		<path fill="#FFFFFF" d="M286.3,488.6c-1.4-3.8-2.8-7.4-4-11.1c-2.2-6.2-4.3-12.4-6.4-18.7c-1.2-3.8-2.3-7.7-3.4-11.5
			c-0.2-0.9-0.3-1.8,0-2.7c0.3-0.9,1-1.4,1.9-1.6c0.3-0.1,0.6,0,0.9,0c0.7,0.1,1.5,0.3,2.2,0.3c1.4,0,2.4,0.4,3,1.8
			c0.7,1.4,2.1,1.6,3.3,0.5c0.3-0.3,0.6-0.6,0.9-0.9c0.7-0.6,1.5-1,2.5-0.9c0.4,0,1,0,1.4-0.2c1-0.4,1.9-0.3,2.7,0.2
			c0.9,0.5,1.7,0.5,2.7,0.1c0.7-0.3,1.5-0.6,2.2-1.1c1.7-1.2,4.1,0,4.2,2.1c0,0.6-0.1,1.3-0.3,2c-1.2,3.6-2.4,7.3-3.6,11
			c-0.9,2.8-1.8,5.5-2.7,8.3c-1.9,5.9-3.8,11.8-5.7,17.7c-0.4,1.3-0.9,2.6-1.3,3.9C286.7,488,286.5,488.2,286.3,488.6z"/>
		<path fill="#FFFFFF" d="M376.9,476.8c0.3,1.3,0.7,2.6,1.1,3.8c1,3.8,1.9,7.5,2.9,11.3c1,3.9,2.3,7.8,2.8,11.8
			c0.2,1.7,0.9,3.3,1.4,4.9c0.7,2.2,1.2,4.5,0.4,6.8c-0.1,0.3-0.1,0.8-0.1,1.2c-0.1,1.2-0.9,2.3-2.1,2.6c-0.3,0.1-0.7,0-1.1-0.1
			c-0.7-0.2-1.1-0.7-1.4-1.3s-0.2-1.2,0-1.9s0.1-1.4,0.2-2.1c0.2-1.8-0.3-3.4-1.2-4.9c-0.4-0.7-1-1.2-1.8-1.3c-1,0-1.8-0.3-2.7-0.8
			c-0.8-0.4-1.8-0.4-2.7-0.1c-0.8,0.2-1.3,0.9-1.4,1.7c0,0.3,0,0.7,0,1.1c-0.1,0.5-0.1,1.1-0.4,1.6c-1,1.5-2.7,1.9-4,0.2
			c-0.3-0.4-0.4-0.9-0.6-1.4c-0.1-0.2-0.1-0.6-0.2-0.8c-0.9-0.9-0.7-2.1-0.6-3.2c0.1-1.4,0.3-2.8,0.5-4.2c0.1-0.6,0.4-1.1,0.6-1.7
			c3.2-7.2,6.4-14.4,9.6-21.6c0.2-0.5,0.4-1.1,0.7-1.6C376.7,476.7,376.8,476.7,376.9,476.8z"/>
		<path fill="#FFFFFF" d="M303.7,464c0.2,0.5,0.4,1,0.5,1.5c1.3,4.2,2.6,8.4,3.8,12.6c1.1,3.7,2.1,7.4,3.1,11.1
			c1,3.5,2.1,7.1,3.1,10.6c0.5,1.8-0.3,3.3-2.3,3.5c-0.1,0-0.1,0-0.2,0c-1.4-0.1-2.2,0.6-2.8,1.7c-0.7,1.2-1.6,1.8-3,1.7
			c-0.5,0-1.1,0-1.7,0c-1.1,0-2-0.4-2.6-1.4s-1.4-1.4-2.5-1.7c-1.6-0.4-3.1-0.3-4.7-0.3c-1.2,0-2.2-0.5-2.8-1.6
			c-0.3-0.6-0.3-1.2-0.1-1.9c1.1-3.4,2.1-6.7,3.1-10.1c1.3-4,2.6-8.1,3.9-12.1c1.4-4,2.8-8.1,4.3-12.1c0.2-0.5,0.3-1,0.5-1.5
			C303.5,464,303.6,464,303.7,464z"/>
		<path fill="#FFFFFF" d="M229.9,476c0.3,0.8,0.7,1.6,1,2.4c2.4,6.2,4.9,12.3,7.3,18.5c0.3,0.8,0.5,1.6,0.8,2.3
			c0.6,1.3,0.5,2.8,0.4,4.2c-0.1,1.7-1.7,2.7-3.3,2.3c-0.6-0.1-1.2-0.2-1.9-0.2c-1,0-2,0-2.9,0c-1.2,0-2.1,0.4-2.6,1.6
			c-0.2,0.5-0.5,1-0.8,1.4c-1.2,1.2-2.5,1.1-3.5-0.1c-0.6-0.6-1.1-1.4-1.5-2.1s-0.7-1.3-0.3-2.2c0.4-0.9,0.4-2,0.6-2.9
			c0.8-3.5,1.6-7,2.6-10.4c1.3-4.8,2.7-9.6,4-14.4C229.7,476.1,229.8,476.1,229.9,476z"/>
		<path fill="#FFFFFF" d="M406,236.6c12.5,0,24.6,2.4,36,7.5c12.9,5.8,23.6,14.3,32.3,25.4c9,11.6,14.8,24.8,17.6,39.2
			c1.7,8.7,2.2,17.5,1.6,26.4c-0.3,5.4-1.2,10.6-2.2,15.9c-1.7,9.1-3.4,18.2-5.1,27.3c-1.8,9.5-3.5,19-5.3,28.5
			c-1.7,9.1-3.4,18.1-5.1,27.2c-1.8,9.4-3.5,18.9-5.3,28.3c-1.8,9.5-3.5,19.1-5.3,28.6c-1.9,10.2-3.7,20.5-5.7,30.7
			c-1.2,6.3-4.2,11.7-8.5,16.5c-7.3,8-16.3,12.8-26.9,14.8c-2.9,0.5-5.9,0.7-8.9,0.7c-22.2,0-44.3,0-66.5,0c-14.7,0-29.4,0-44.1,0
			c-0.3,0-0.7,0-1,0c-20.3,0-40.7,0-61,0c-16.8,0-33.6,0-50.5,0l0,0c-10.2,0-19.5-2.9-27.8-8.6c-7.1-4.9-12.5-11.3-15.3-19.6
			c-0.8-2.5-1.3-5.1-1.8-7.7c-1.8-9.5-3.6-19.1-5.4-28.6c-1.7-9.1-3.4-18.1-5.1-27.2c-1.8-9.5-3.5-19-5.3-28.5
			c-1.6-8.6-3.2-17.3-4.8-25.9c-1.7-9.1-3.4-18.2-5.1-27.3c-1.6-8.6-3.2-17.3-4.8-25.9c-0.7-3.8-1.4-7.7-2-11.5
			c-0.9-5.9-1.2-11.9-1-18c0.2-6.8,1-13.6,2.7-20.1c5-20,15.1-36.9,31.4-49.8c11-8.6,23.4-14.1,37.1-16.6c5.4-1,10.9-1.4,16.4-1.4
			c36.2,0,72.5,0,108.7,0C342.2,236.6,374,236.6,406,236.6 M223.6,539.4c6,0,12.1-0.3,18.1-0.6c9.6-0.5,19.2-1,28.7-1
			c0.5,0,1,0,1.5,0c10.7,0,21.5,0.1,32.2,0.2v0.1c6.5,0,13,0.1,19.4,0.1c0.7,0,1.4,0,2.1,0c2,0,3.9,0,5.8,0
			c13.2,0,26.4,0.2,39.6,1.1c6.8,0.5,13.7,0.8,20.6,0.8c0.7,0,1.5,0,2.3,0c3.2,0,6.4-0.2,9.5-0.7c10.4-1.8,18.8-6.9,25.4-14.9
			c4.6-5.5,7.9-11.8,10.2-18.6c2.5-7.3,4.7-14.7,6.6-22.2c4-15.3,6.9-30.8,9.4-46.4c1.2-7.1,2.1-14.3,3.2-21.5
			c1.6-10.4,3.4-20.7,4.4-31.1c0.9-8.4,1.1-16.8,0.5-25.3c-0.8-10.5-3.1-20.6-7.8-30.2c-1.9-3.7-3.3-7.7-3.7-11.8
			c-0.3-3-0.6-6-0.6-9c0-6,0-12.1,0-18.2c0-3.3,0.1-6.6,0-9.9c0-6.2-2.1-11.6-6.3-16.2c-4.1-4.4-8.8-7.4-14.9-8
			c-1-0.1-2.1-0.2-3.2-0.3c-9.5-0.6-19.1-1.2-28.6-1.8c-6.6-0.4-13.1-0.9-19.7-0.9c-0.7,0-1.5,0-2.2,0c-3.9,0.1-7.8,0.8-11.1,2.9
			c-5.3,3.4-9,8-10.6,14.2c-0.3,1.3-0.6,2.5-0.9,3.8c-0.9,4.4-2.8,8.3-6,11.6c-3.9,4.2-8.5,6.8-14.2,7.2c-5.9,0.3-11.7,0.7-17.6,0.9
			c-2.2,0-4.4,0-6.5,0c-5.8,0-11.7-0.2-17.5-0.7c-4.6-0.4-9.2-0.6-13.8-1c-3.9-0.3-7.6-1.4-10.8-3.8c-1.4-1.1-2.8-2.3-4-3.6
			c-2.5-2.6-4.2-5.6-5-9.2c-0.3-1.3-0.5-2.7-0.7-4.1c-0.7-5.6-3.4-10.3-7.6-14.1c-3.9-3.6-8.4-5.7-13.8-5.7l0,0
			c-3.4,0-6.8,0.2-10.2,0.4c-11.4,0.7-22.9,1.4-34.3,2.2c-4,0.2-8,0.5-12,0.9c-3.8,0.4-7.2,1.9-10.2,4.3c-4.8,4-7.8,8.9-8.6,15.1
			c-0.4,2.8-0.6,5.7-0.6,8.5c-0.1,4.8,0,9.7,0,14.5c-0.1,4.4-0.2,8.7-0.5,13.1c-0.3,5.5-1.8,10.9-4.3,15.8c-0.8,1.6-1.6,3.2-2.4,4.9
			c-2.8,5.5-4.7,11.4-5.5,17.6c-0.9,6.3-1.5,12.6-1.7,18.9c-0.3,11.1,0.3,22.2,2.2,33.2c3.1,18.4,6.3,36.8,9.5,55.2
			c2,11.4,3.9,22.9,6.8,34.2c1.5,5.7,3,11.4,4.7,17c2.5,8.1,7,15,13,20.9c5.3,5.1,11.3,8.4,18.7,9.6c5.6,0.8,11.2,1.2,16.9,1.5
			C219.5,539.3,221.5,539.4,223.6,539.4 M406,231.7L406,231.7c-31.9,0-63.8,0-95.7,0c-36.2,0-72.5,0-108.7,0c-6,0-11.8,0.5-17.3,1.5
			c-14.6,2.7-27.9,8.6-39.3,17.6c-16.6,13.1-27.7,30.7-33.2,52.4c-1.6,6.5-2.6,13.5-2.8,21.2c-0.2,6.3,0.1,12.7,1,18.9
			c0.5,3.5,1.1,7,1.8,10.4l0.2,1.3c1.2,6.3,2.4,12.7,3.5,18.9c0.4,2.4,0.9,4.7,1.3,7.1c1.7,9.1,3.4,18.2,5.1,27.3l2.3,12l2.6,13.9
			c1.8,9.5,3.5,19,5.3,28.5l2.8,14.7l2.3,12.5c0.5,2.6,0.9,5.1,1.4,7.7c1.3,6.9,2.6,13.9,3.9,20.9l0.1,0.7c0.5,2.5,0.9,5.1,1.8,7.6
			c2.9,8.9,8.7,16.4,17.1,22.2c9.2,6.3,19.4,9.5,30.6,9.5l0,0l0,0c14.6,0,30.6,0,50.4,0c10.2,0,20.3,0,30.5,0s20.3,0,30.5,0h1h22h22
			c22.2,0,44.3,0,66.5,0c3.8,0,6.9-0.2,9.8-0.8c11.9-2.3,21.9-7.8,29.6-16.3c5.1-5.6,8.3-11.9,9.7-18.8c1.4-7.1,2.8-14.3,4-21.4
			c0.6-3.1,1.1-6.2,1.7-9.4c0.9-4.9,1.8-9.9,2.8-14.8c0.8-4.6,1.7-9.2,2.6-13.8c1.5-8.2,3-16.3,4.5-24.4l0.7-4l1.8-9.9
			c1.1-5.8,2.2-11.5,3.2-17.3c0.9-4.8,1.8-9.5,2.7-14.3c0.9-4.7,1.8-9.5,2.7-14.2c0.5-3,1.1-6,1.7-8.9c1.1-6,2.3-12.2,3.4-18.4
			c1.2-6.6,2-11.6,2.3-16.5c0.6-9.5,0-18.8-1.7-27.7c-3-15.4-9.3-29.3-18.6-41.3c-9.1-11.8-20.6-20.8-34.1-26.9
			C432.3,234.3,419.5,231.7,406,231.7z M223.6,534.5c-2,0-4,0-5.8-0.1c-6.4-0.2-11.6-0.7-16.4-1.4c-6-0.9-11.2-3.6-16-8.3
			c-5.7-5.6-9.6-11.8-11.7-18.8c-1.5-4.9-2.9-10.2-4.7-16.8c-2.6-10.2-4.4-20.8-6.2-31l-0.5-2.8c-3.2-18.7-6.4-37-9.5-55.2
			c-1.7-10.1-2.4-20.7-2.1-32.3c0.1-5.9,0.7-12.1,1.6-18.3c0.8-5.6,2.6-11.1,5.1-16.1c0.5-1,1-2,1.4-2.9c0.3-0.7,0.6-1.3,1-2
			c2.8-5.6,4.4-11.5,4.8-17.7c0.3-4.4,0.5-8.8,0.5-13.3c0-2.4,0-4.9,0-7.2c0-2.4,0-4.9,0-7.3c0-2.8,0.2-5.5,0.6-8
			c0.6-4.7,2.8-8.6,6.9-12c2.3-1.9,4.7-2.9,7.5-3.2c3.9-0.4,7.9-0.7,11.8-0.9c13.3-0.9,24.2-1.6,34.3-2.2c3.2-0.2,6.6-0.4,9.9-0.4
			l0,0c3.9,0,7.3,1.4,10.5,4.4c3.5,3.2,5.5,6.9,6,11.2c0.2,1.6,0.5,3,0.8,4.4c0.9,4.4,3,8.3,6.2,11.6c1.5,1.6,3,2.9,4.5,4.1
			c3.7,2.8,8.1,4.4,13.4,4.8c2,0.1,3.9,0.3,5.8,0.4c2.7,0.1,5.4,0.3,8,0.6c5.5,0.5,11.3,0.7,17.9,0.7c2.1,0,4.3,0,6.6-0.1
			c5.3-0.1,10.6-0.4,15.7-0.7l2.2-0.1c6.6-0.4,12.5-3.3,17.5-8.7c3.7-3.9,6.1-8.6,7.2-13.9c0.2-1.1,0.5-2.3,0.8-3.6
			c1.1-4.7,3.9-8.3,8.4-11.2c2.2-1.4,4.9-2.1,8.6-2.2c0.7,0,1.4,0,2.1,0c5,0,10.1,0.3,15.1,0.7c1.4,0.1,2.8,0.2,4.3,0.3
			c8.9,0.5,18,1.1,26.8,1.7l1.8,0.1c0.7,0,1.4,0.1,2.1,0.2c0.3,0,0.6,0,0.9,0.1c4.4,0.4,8.1,2.4,11.7,6.4c3.3,3.6,4.9,7.8,5,12.9
			c0,2.2,0,4.4,0,6.6c0,1.1,0,2.2,0,3.2c0,1.7,0,3.5,0,5.2c0,4.3-0.1,8.7,0,13c0,2.9,0.2,6,0.6,9.5c0.5,4.3,1.9,8.7,4.2,13.5
			c4.1,8.3,6.5,17.5,7.3,28.3c0.6,7.7,0.4,15.6-0.4,24.4c-0.9,8.4-2.2,17-3.5,25.3c-0.3,1.9-0.6,3.7-0.9,5.5c-0.5,3-0.9,6.1-1.4,9.1
			c-0.6,4-1.2,8.2-1.9,12.3c-3,18.6-5.9,32.8-9.3,46c-1.8,7-4,14.2-6.5,21.9c-2.2,6.6-5.3,12.1-9.3,17c-6.1,7.4-13.4,11.7-22.5,13.3
			c-2.5,0.4-5.2,0.6-8.7,0.6c-0.7,0-1.5,0-2.2,0c-6.1,0-12.5-0.2-20.2-0.8c-14.3-1-28.2-1.1-39.9-1.1c-2,0-3.9,0-5.9,0
			c-0.7,0-1.4,0-2.1,0c-4.2,0-8.5,0-12.7-0.1c-0.6,0-1.2,0-1.8,0V533H304c-3.2,0-6.5,0-9.8-0.1c-7.3,0-14.9-0.1-22.4-0.2
			c-0.5,0-1,0-1.6,0c-9.5,0-19,0.5-28.2,1h-0.8C235.4,534.2,229.5,534.5,223.6,534.5z"/>
	</g>
	<g>
		<path fill="#CD0000" d="M192.1,555.9c-10.7,0-20.5-3-29.2-9.1c-8-5.5-13.4-12.5-16.2-20.9c-0.8-2.4-1.3-4.9-1.7-7.3l-0.1-0.7
			c-1.3-7-2.7-14-3.9-20.9l-1.4-7.7l-5.1-27.2L118,373.4c-1.2-6.3-2.4-12.6-3.5-18.9l-0.2-1.3c-0.6-3.3-1.3-6.8-1.8-10.3
			c-0.9-6-1.2-12.2-1-18.4c0.2-7.5,1.2-14.3,2.8-20.7c5.3-21.2,16.2-38.4,32.3-51.1c11.1-8.8,24-14.5,38.2-17.1
			c5.3-1,11-1.5,16.8-1.5c36.1,0,72.1,0,108.2,0c32.1,0,64.1,0,96.2,0c13.2,0,25.7,2.6,37,7.7c13.1,5.9,24.3,14.7,33.2,26.1
			c9,11.6,15.1,25.2,18.1,40.2c1.7,8.6,2.3,17.7,1.7,27c-0.3,4.7-1,9.7-2.2,16.2c-1.2,6.1-2.3,12.4-3.4,18.4c-0.5,3-1.1,5.9-1.7,8.9
			c-0.8,4.6-4.4,23.6-5.3,28.5c-1.1,5.7-2.2,11.5-3.2,17.3c0,0-5.6,30.1-7.1,38.3l-5.3,28.5c-0.6,3.1-1.2,6.2-1.7,9.4
			c-1.3,7-2.6,14.2-4,21.3c-1.3,6.4-4.3,12.3-9.1,17.6c-7.4,8.2-16.8,13.4-28.2,15.5c-2.8,0.5-5.7,0.8-9.3,0.8c-21.5,0-43,0-64.4,0
			H304c-10.2,0-50.9,0-61.1,0C225.8,555.9,209,555.9,192.1,555.9L192.1,555.9z M331.5,535.8c11.7,0,25.6,0.1,39.8,1.1
			c7.8,0.5,14.2,0.8,20.4,0.8c0.7,0,1.5,0,2.3,0c3.7,0,6.5-0.2,9.1-0.7c9.7-1.7,17.5-6.3,24-14.1c4.2-5.2,7.4-11,9.7-17.8
			c2.6-7.8,4.8-15,6.6-22.1c3.4-13.3,6.3-27.6,9.4-46.2c0.7-4.1,1.3-8.3,1.9-12.3c0.4-3,0.9-6.1,1.4-9.1c0.3-1.9,0.6-3.7,0.9-5.5
			c1.3-8.3,2.7-16.9,3.5-25.5c0.9-8.9,1.1-17,0.5-24.9c-0.9-11.1-3.3-20.7-7.6-29.3c-2.2-4.5-3.5-8.6-4-12.7
			c-0.4-3.4-0.6-6.5-0.6-9.3c0-4.3,0-8.7,0-13c0-1.7,0-3.5,0-5.2c0-1.1,0-2.2,0-3.2c0-2.2,0-4.4,0-6.6c0-5.7-1.9-10.5-5.6-14.5
			c-4.1-4.4-8.3-6.7-13.3-7.2l-0.9-0.1c-0.8,0-1.5-0.1-2.2-0.2l-1.6-0.1c-9-0.6-18-1.1-27-1.7c-1.4-0.1-2.8-0.2-4.3-0.3
			c-5-0.3-10.2-0.7-15.3-0.7c-0.7,0-1.4,0-2.2,0c-4.1,0.1-7.3,0.9-9.9,2.6c-5.1,3.2-8.2,7.4-9.5,12.7c-0.3,1.4-0.6,2.6-0.8,3.7
			c-1,4.9-3.2,9.2-6.6,12.8c-4.7,5-9.9,7.6-15.9,8l-2.3,0.1c-5.1,0.3-10.4,0.6-15.6,0.7c-2.3,0-4.5,0-6.6,0
			c-6.5,0-12.3-0.2-17.7-0.7c-2.7-0.2-5.4-0.4-8.1-0.6c-1.9-0.1-3.9-0.2-5.8-0.4c-4.8-0.4-8.8-1.8-12-4.3c-1.4-1.1-2.8-2.4-4.3-3.9
			c-2.9-2.9-4.8-6.5-5.6-10.4c-0.3-1.3-0.6-2.8-0.8-4.2c-0.6-4.9-2.8-9-6.8-12.7c-3.6-3.4-7.6-5.1-12.1-5.1c-3.4,0-6.8,0.2-10.1,0.4
			c-10.2,0.6-21.1,1.3-34.3,2.2c-3.9,0.2-8,0.5-11.9,0.9c-3.3,0.3-6.2,1.6-8.8,3.8c-4.5,3.7-7,8.2-7.7,13.6
			c-0.3,2.6-0.5,5.4-0.6,8.3c0,2.4,0,4.9,0,7.3s0,4.8,0,7.2c-0.1,4.4-0.2,8.8-0.5,13.2c-0.4,5.8-1.9,11.5-4.5,16.7
			c-0.3,0.7-0.6,1.3-1,2c-0.4,1-0.9,1.9-1.4,2.9c-2.7,5.3-4.4,10.9-5.3,16.8c-0.9,6.3-1.5,12.6-1.7,18.6
			c-0.3,11.8,0.4,22.5,2.2,32.8c3.1,18.3,6.3,36.5,9.5,55.2l0.5,2.8c1.8,10.3,3.6,21,6.2,31.2c1.7,6.7,3.2,12,4.7,16.9
			c2.3,7.4,6.3,13.9,12.4,19.8c5.1,5,10.8,7.9,17.3,8.9c4.8,0.7,10.1,1.2,16.6,1.4c1.9,0,3.9,0.1,5.9,0.1c6,0,11.9-0.3,18-0.6h0.8
			c9.2-0.5,18.7-1,28.1-1c0.5,0,1,0,1.5,0c7.5,0,14.9,0.1,22.3,0.2c3.3,0,12.3,0.1,12.3,0.1v0.1c1.4,0,2.8,0,4.3,0
			c4.2,0,8.4,0.1,12.7,0.1c0.7,0,1.4,0,2.1,0C327.6,535.8,329.5,535.8,331.5,535.8z"/>
		<path fill="#CD0000" d="M361,436.2c1.1-1,2.2-2,3.2-2.9c0.6-0.5,1.4-0.7,2.2-0.7c5.6-0.1,11.3-0.4,16.9-0.5
			c4.4-0.1,8.9-0.1,13.3-0.3c1.7,0,3.4-0.2,5.1-0.4c3.2-0.3,6.4-0.7,9.6-1.2c6.3-1,11.5-4,15.6-8.9c1.1-1.3,1.8-2.9,2.2-4.7
			c0.3-1.6,0.9-3.2,1.4-4.8c1.3-4.1,2-8.4,2.7-12.7c0.4-2.7,0.7-5.4,1.1-8.1c0.6-4.3,0.2-8.5-0.8-12.7c-0.5-2.2-1.3-4.3-2.1-6.4
			c-1-2.7-2.5-5.1-4.4-7.2c-3.3-4-7-7.6-11.2-10.7c-4.3-3.2-9-5.5-14.2-6.9c-3.7-1-7.3-2.1-11-3c-5.5-1.4-11-2.4-16.6-2.5
			c-0.8,0-1.6,0-2.4-0.1c-6.1-0.6-12.3-0.5-18.5-0.1c-3.7,0.2-7.5,0.9-11.2,1.4c-4.5,0.6-8.9,1.3-13.4,2.1
			c-3.7,0.6-7.4,1.4-11.1,2.1c-4,0.7-8.1,1.5-12.1,2.1c-1.6,0.2-3.2,0-4.8-0.2c-4.2-0.4-8.3-1.5-12.5-2.5
			c-5.9-1.4-11.9-2.8-17.9-4.1c-2.5-0.5-5.1-0.7-7.6-1.1c-4.4-0.7-8.8-0.9-13.3-1c-5.9-0.1-11.8,0-17.6,0.6
			c-5.9,0.6-11.8,1.8-17.6,3.3c-6.2,1.7-12,4.1-17.5,7.5c-2.4,1.5-4.8,3.1-7,4.7c-4.3,3.1-7.5,7.1-10.3,11.5
			c-1.3,2.1-2.7,4.3-3.3,6.7c-0.4,1.7-0.7,3.4-0.9,5.1c-0.4,2.9-0.9,5.9-0.8,8.9c0.2,4.2,0.5,8.4,1.3,12.6s1.6,8.5,2.8,12.6
			c1.2,4,3.3,7.3,6.6,9.9c2.3,1.8,4.7,3.5,7.5,4.6c1.9,0.7,3.8,1.2,5.8,1.3c6.3,0.4,12.6,0.8,18.9,1.2c2.4,0.1,4.8,0.1,7.2,0.2
			c5.5,0.1,11,0.3,16.5,0.4c0.8,0,1.6,0.2,2.2,0.7c1,0.8,2.1,1.7,3,2.6c0.7,0.7,0.5,1.3-0.5,1.6c-0.4,0.1-0.9,0.1-1.3,0.1
			c-2.4-0.1-4.8-0.2-7.2-0.3c-2.1-0.1-4.2-0.1-6.3-0.2c-3.4-0.1-6.9-0.2-10.4-0.4c-1.7,0-3.3,0-5-0.1c-3.9-0.2-7.9-0.4-11.7-0.6
			c-3.2-0.2-6.3-0.5-9.5-0.7c-3.3-0.2-6.4-1.3-9.3-2.9c-3-1.8-5.7-4-8.1-6.6c-2.5-2.8-3.8-6.1-4.6-9.7c-0.9-4.1-1.7-8.3-2.6-12.3
			c-0.8-4-1-8-1.3-12c-0.3-3.1,0.2-6.1,0.5-9.1c0.1-1.6,0.5-3.2,0.7-4.9c0.3-2.4,1.1-4.5,2.2-6.5c2-3.7,4.2-7.2,6.9-10.4
			c2.6-3,5.6-5.6,8.9-7.9c5.2-3.7,10.6-6.9,16.6-9.1c2.2-0.8,4.5-1.5,6.7-2.1c2.4-0.6,4.7-1.2,7.1-1.8c4-0.9,8-1.5,12.1-1.9
			c5-0.5,10-0.7,15-0.7c4.6,0,9.2,0.1,13.8,0.8c4,0.6,8,1.2,12,1.9c2.2,0.4,4.4,1,6.5,1.6c2.4,0.6,4.8,1.2,7.2,1.8
			c2.5,0.6,4.9,1.2,7.3,1.8c3.7,0.9,7.5,1.6,11.2,1.9c1.1,0,2.3,0,3.4-0.2c4.8-0.9,9.6-1.8,14.3-2.8c4.7-0.9,9.3-1.8,14-2.6
			c4.5-0.7,9-1.3,13.5-2c2.3-0.3,4.7-0.8,7-0.9c5.4-0.1,10.7-0.2,16,0c4.1,0.1,8.2,0.4,12.2,1c3.6,0.5,7.2,1.3,10.7,2.2
			c4,1,8,2.3,12,3.4c6.6,1.8,12.1,5.5,17.2,9.9c3.6,3.1,6.7,6.6,9.7,10.3c1.9,2.5,3.3,5.2,4.3,8.1c0.9,2.6,1.8,5.2,2.2,7.9
			c0.2,1.4,0.4,2.8,0.6,4.2c0.1,0.8,0.3,1.7,0.2,2.6c-0.1,2.2-0.4,4.5-0.6,6.7c-0.2,1.8-0.5,3.6-0.8,5.4c-0.7,5.2-1.5,10.3-3,15.4
			c-0.6,2-1,3.9-1.6,5.9c-0.5,2-1.5,3.7-2.9,5.2c-3.6,4-7.8,7.1-13,8.5c-2,0.5-4,0.8-6,1.1c-1.6,0.2-3.3,0.3-4.9,0.6
			c-4.4,0.6-8.8,0.7-13.3,0.7c-5,0-9.9,0.1-14.8,0.3c-5.4,0.2-10.8,0.5-16.3,0.4C362.5,437.2,361.6,437.2,361,436.2z"/>
		<path fill="#CD0000" d="M401.7,280.5c-0.3,1.4-0.6,2.9-1,4.3c-0.5,1.9-0.9,3.7-1.6,5.5c-0.5,1.7-1.5,3-3.3,3.6
			c-0.5,0.1-1.1,0.2-1.6,0.2c-3.9,0-7.8,0-11.6-0.4c-4-0.3-8.1-0.4-12.1,0.2c-0.2,0-0.4,0-0.6,0c-1.6,0.1-2.1-0.5-1.3-2.1
			c0.4-0.8,0.7-1.6,1.1-2.4c1.1-2.3,1.4-4.8,1.9-7.3c0.8-3.8,3.5-6.6,7.3-7.1c1.5-0.2,3-0.1,4.6-0.1c2.4,0,4.8,0.2,7.2,0.4
			c6.6,0.4,13.3,0.9,19.8,1.3c3.8,0.2,7.7,0.4,11.5,0.6c1.7,0.1,3.2,0.6,4.4,1.9c1.2,1.3,2.4,2.6,3.6,3.9c1.8,1.9,2.5,4.3,2.7,6.8
			c0.2,3.9,0.3,7.8,0.6,11.6c0.1,2.1,0.4,4.2,0.7,6.3c0,0.6,0.4,1.3-0.2,1.7c-0.6,0.3-1.7,0.1-2.3-0.4c-0.7-0.7-1.4-1.5-2.2-2.2
			c-0.7-0.7-1.4-1.5-2.3-2.1c-2.9-2.1-6.2-3.7-9.8-4.6c-1.8-0.4-3.7-0.9-5.5-1.4c-3.9-1-6.2-3.5-7.1-7.4c-0.8-3.3-1.3-6.7-2-10.1
			c-0.1-0.4-0.3-0.8-0.4-1.3C402,280.5,401.9,280.5,401.7,280.5z"/>
		<path fill="#CD0000" d="M208.6,277.9c-0.1,0.2-0.3,0.5-0.4,0.7c-0.5,2.2-1,4.4-1.5,6.5s-0.9,4.3-1.6,6.4c-1,2.9-3.1,4.7-6.1,5.5
			c-2.2,0.6-4.5,1.2-6.7,1.8c-3.1,0.8-6,2.2-8.8,3.9c-1.2,0.7-2.3,1.5-3.5,2.1c-0.5,0.2-1.1,0.4-1.7,0.4c-0.5,0-0.9-0.3-0.9-0.8
			c0-2-0.1-4,0-6c0.1-2.8,0.4-5.5,0.7-8.3c0.2-1.9,0.5-3.7,0.9-5.5c0.5-2,1.6-3.7,2.9-5.2c1.5-1.6,3.3-2.5,5.6-2.6
			c3.4-0.1,6.8-0.4,10.2-0.6c2.4-0.1,4.8-0.2,7.2-0.4c3.7-0.2,7.4-0.5,11.1-0.7c1.7-0.1,3.3-0.1,5-0.2c3.2-0.3,6.4-0.5,9.6-0.4
			c2.5,0.1,4.6,1,6.1,3c1,1.3,2,2.7,2.4,4.3c0.2,1.2,0.3,2.4,0.6,3.6c0.4,1.8,0.7,3.5,1.3,5.2c0.7,2.2,0.3,2.7-1.8,2.5
			s-4.2-0.3-6.3-0.4c-0.9,0-1.9-0.1-2.8-0.1c-2.1-0.1-4.1,0.2-6.1,0.4c-2.9,0.3-5.7,0.8-8.7,0.8c-2.5,0-4.5-1.6-4.8-4
			c-0.3-2.3-0.6-4.6-0.9-6.9c-0.1-1.3-0.2-2.6-0.4-3.9c0-0.3-0.2-0.7-0.2-1.1C208.8,278,208.7,277.9,208.6,277.9z"/>
		<path fill="#CD0000" d="M277.3,410.8c1.3-0.1,2.4-0.1,3.4-0.2c3.8-0.1,7.7-0.1,11.5-0.2c2.3,0,4.6-0.2,6.9-0.3c1.2,0,2.4,0,3.5,0
			c1.5,0,2.9-0.2,4.5-0.3c0.7,0,1.5-0.1,2.2-0.1c4,0,8,0,12,0.2c3.2,0.1,6.5,0.6,9.7,0.9c0.4,0,0.9,0.2,1.4,0.4
			c-0.2,0.3-0.3,0.6-0.5,0.8c-2.1,2.2-4.3,4.4-6.3,6.7c-2,2.4-3.8,4.8-5.5,7.3c-2.1,2.9-4.1,6-6.7,8.6c-2,1.9-4.2,3.3-6.9,3.9
			c-0.5,0.1-1,0.1-1.5,0c-1.5-0.3-2.9-0.8-4.4-1.2c-0.4-0.1-0.9-0.3-1.3-0.5c-2.3-1.5-4.6-2.9-6.2-5.2c-2.6-3.6-5.3-7.2-7.9-10.8
			c-2.3-3.1-4.6-6.2-7.4-9C277.7,411.5,277.6,411.2,277.3,410.8z"/>
		<g>
			<path fill="#CD0000" d="M378.5,457.9c-0.3,0.5-0.6,0.9-0.8,1.3c-2.7,6.4-5.3,12.8-8,19.3c-2,4.9-4.1,9.7-6.2,14.6
				c-0.4,0.9-1.1,1.2-2,0.8c-0.5-0.2-0.7-0.5-0.8-1c-0.4-1.7-0.9-3.3-1.4-5c-0.9-3.4-1.9-6.7-2.8-10.1c-1.1-4.1-2.1-8.2-3.2-12.3
				c-0.7-2.9-1.5-5.8-2.3-8.8c-0.2-0.9-0.4-1.8-0.7-2.6s-0.6-1.7-1-2.5c-1.3-2-1.5-4.2-1.3-6.4c0.2-2.4,2.3-4.3,4.8-4.5
				s4.9,1.3,5.6,3.6c0.1,0.5,0.2,1,0.3,1.5c0.1,0.8,0.6,1.2,1.4,1.4c0.5,0.1,1.1,0.2,1.6,0.2c3.6,0.2,7.3,0.5,11,0.1
				c1.3-0.1,2.6,0,3.9,0c2.3,0,4.5-0.1,6.7-0.2c2.4-0.1,4.2,0.7,5.5,2.8c0.3,0.6,0.9,0.9,1.5,1.2c1.5,0.5,2.9,0.7,4.5,0.1
				c1.1-0.4,2.3-0.2,3.5,0.1c1.9,0.6,3.6,1.4,5.2,2.5c3,2.1,3.2,5.8,0.9,8.1c-0.6,0.6-0.9,1.5-1.2,2.3c-1.4,3.9-2.8,7.8-4.3,11.7
				c-1.4,3.7-2.8,7.5-4.1,11.2c-1.3,3.4-2.6,6.8-3.8,10.2c-0.3,0.7-0.7,0.9-1.6,0.9c-0.8,0-0.9-0.1-1.2-1c-0.7-2.7-1.3-5.4-2-8
				c-0.7-2.8-1.4-5.5-2.1-8.2c-0.4-1.8-0.8-3.7-1.3-5.5c-0.8-3.4-1.5-6.8-2.3-10.2c-0.4-1.8-0.8-3.7-1.2-5.5
				C379.3,459.3,379.3,458.5,378.5,457.9z M389.5,493c0.1-0.2,0.2-0.2,0.3-0.3c2.4-6.5,4.7-13.1,7.2-19.5c1.8-4.8,3.2-9.7,5.5-14.3
				c0.2-0.4,0.2-0.9,0-1.4c-0.4-0.9-1-1.5-1.8-1.9c-1.3-0.6-2.6-1.2-3.9-1.7c-0.3-0.1-0.8,0-1.2,0c-0.5,0.1-1.1,0.2-1.6,0.3
				c-0.5,0.1-1.1,0.1-1.6,0.2c-0.7,0.2-1.3,0.1-1.9-0.2c-0.6-0.3-1.3-0.5-2-0.6c-0.8-0.1-1.4-0.5-1.7-1.3c-0.2-0.4-0.4-0.9-0.7-1.4
				c-0.6-1.1-1.7-1.4-2.9-1c-0.6,0.2-1.3,0.3-2,0.3c-6.6,0-13.2,0-19.8,0c-2.5,0-5.2-1.9-5.8-4.5c-0.1-0.4-0.3-0.9-0.5-1.3
				c-0.6-1-1.9-1.4-2.9-0.9c-1.2,0.6-1.7,1.7-1.3,2.9c0.1,0.4,0.1,0.8,0.2,1.1c0.1,0.5,0.2,1.1,0.4,1.6c0.1,0.4,0.4,0.8,0.5,1.3
				c0.6,2,1.2,4,1.7,6c1.1,4.2,2.2,8.3,3.2,12.5c1.5,5.8,3.1,11.6,4.6,17.4c0.2,0.7,0.3,1.4,0.5,2.1c0.4-0.4,0.6-0.8,0.8-1.2
				c1.7-4.1,3.5-8.3,5.2-12.4c2.1-5.1,4.2-10.2,6.3-15.2c0.5-1.2,1.1-2.4,1.7-3.5c0.3-0.7,0.9-1,1.7-1.1c1.8-0.2,2.6,0.1,3.4,1.8
				c0.2,0.4,0.3,0.9,0.5,1.3c0.2,0.8,0.3,1.7,0.5,2.6c0.8,3.4,1.6,6.9,2.3,10.3c0.5,2.5,1,4.9,1.6,7.4c0.7,3.2,1.6,6.3,2.4,9.5
				C388.7,489.7,389.1,491.3,389.5,493z"/>
			<path fill="#CD0000" d="M229.4,455.5c-0.2,0.5-0.4,0.8-0.5,1.1c-0.7,3-1.4,6-2.1,8.9c-0.6,2.6-1.4,5.2-2.1,7.7
				c-0.9,3.4-1.9,6.7-2.8,10.1c-1,3.5-1.9,7.1-2.9,10.7c-0.2,0.8-0.5,1-1.3,1c-0.9,0-1.1-0.1-1.4-0.9c-1.4-3.7-2.8-7.5-4.1-11.2
				c-1.3-3.6-2.5-7.2-3.7-10.8c-1.2-3.6-2.2-7.2-3.3-10.8c-0.2-0.6-0.4-1.3-0.6-1.9c-0.8-2.5-0.2-4.7,2-6.2c1.8-1.3,3.9-2.2,6.1-2.7
				c2-0.4,3.9-0.7,5.9-1.1c0.5-0.1,1.1-0.4,1.5-0.8c1.5-1.7,3.5-2.8,5.5-3.9c1.6-0.9,3.3-1,5-0.2c0.9,0.4,1.6,0.3,2.5,0
				c1.3-0.5,2.7-1,4-1.5c2.8-1,4.8-0.4,6.8,1.8c0.7,0.8,1,0.8,1.9,0.3c2.3-1.3,4.8-1.8,7.3-2.2c2.2-0.4,4,0.5,5.2,2.3
				c1.2,1.9,1.2,3.8,0,5.6c-0.9,1.4-1.1,2.9-1.6,4.4c-1.2,4.2-2.3,8.3-3.4,12.5c-1.2,4.2-2.4,8.4-3.6,12.7
				c-1.1,3.9-2.4,7.7-3.6,11.6c-0.2,0.6-0.3,1.4-1.3,1.5c-0.8,0-1.2-0.3-1.7-1.4c-0.9-2.4-1.9-4.8-2.8-7.2c-1.9-5-3.9-10-5.7-15.1
				c-1-2.7-1.8-5.5-2.7-8.3c-0.2-0.7-0.5-1.4-0.8-2.1c-0.3-0.8-0.5-1.6-0.8-2.3C229.9,456.5,229.8,456.1,229.4,455.5z M217,489.6
				c0.1,0,0.1,0,0.2,0c0.1-0.5,0.1-1,0.3-1.5c1.4-5,2.8-10,4.1-15c1.1-4.1,2.1-8.2,3.2-12.3c0.4-1.8,0.8-3.6,1.3-5.4
				c0.3-1.3,1.7-2.6,2.8-2.5c1.4,0.1,2.5,0.8,3,2.1c0.8,2.1,1.5,4.1,2.2,6.2c0.6,1.8,1,3.5,1.6,5.3c1.3,3.5,2.6,7.1,3.9,10.6
				c1.3,3.3,2.5,6.7,3.8,10c0,0.1,0.2,0.2,0.3,0.3c0.6-0.4,0.5-1,0.7-1.6c1.6-5.3,3.2-10.6,4.7-15.9c1.2-4.3,2.4-8.7,3.6-13.1
				c0.8-2.9,1.3-5.9,2.7-8.6c0.4-0.9,0-1.6-0.6-2.2s-1.3-1-2.2-0.7c-1.2,0.3-2.5,0.7-3.7,0.9c-0.9,0.1-1.7,0.4-2.5,0.9
				c-0.4,0.3-1,0.5-1.4,0.8c-0.6,0.3-1.2,0.2-1.8,0c-0.9-0.4-1.7-1-2.3-1.9c-0.7-1.2-1.9-1.4-3.1-0.8c-0.3,0.1-0.5,0.3-0.8,0.4
				c-1.5,0.6-3,1.2-4.6,1.8c-0.7,0.3-1.3,0.3-2,0c-0.5-0.3-1.1-0.6-1.7-0.8c-0.7-0.4-1.5-0.3-2.1,0.1c-1.7,1-3.4,2-4.6,3.5
				c-1,1.3-2.5,1.6-3.9,1.9s-2.9,0.3-4.3,0.9c-0.2,0.1-0.5,0-0.8,0.1c-0.5,0.1-1,0.1-1.5,0.3c-0.9,0.4-1.9,0.8-2.8,1.4
				c-0.6,0.3-1.1,0.8-1.6,1.4c-0.6,0.8-0.4,1.6-0.1,2.6c0.8,2.7,1.5,5.4,2.3,8c1.4,4.4,2.9,8.8,4.4,13.2
				C214.7,483.3,215.9,486.4,217,489.6z"/>
			<path fill="#CD0000" d="M332.1,508.1c0.1,2.5-1,4.5-3.1,5.4c-2.2,0.9-4.6,0.4-6.1-1.3c-0.4-0.4-0.8-1-1-1.6
				c-0.6-1.9-0.9-3.9-0.5-5.9c0.6-3.1,1.8-6.1,2.9-9.1c2.8-7.5,5.4-15,8.3-22.5c2.9-7.7,5.9-15.4,8.9-23c0.1-0.3,0.2-0.6,0.4-1
				c0.4-1.1,0.9-1.4,2-1.4c1.2,0,1.8,0.3,2.2,1.4c0.5,1.4,0.9,2.9,1.3,4.4c0.9,3.5,1.9,7,2.8,10.5c1.2,4.4,2.4,8.8,3.6,13.3
				s2.5,9,3.7,13.5c0.8,3.1,1.7,6.2,2.4,9.3c0.6,2.8,1.1,5.5,1.8,8.3c0.6,2.7-0.7,5.5-3.8,6.4c-2.8,0.8-5.6-0.7-6.5-3.5
				c-0.3-0.8-0.5-1.7-0.7-2.6c-0.4-1.6-1.8-2.4-3.4-2c-0.5,0.1-1.1,0.2-1.6,0.2c-1.9,0-3.8,0-5.6-0.4c-1.5-0.3-3-0.5-4.5-0.7
				c-0.7-0.1-1.4-0.1-2.1,0c-1.1,0.1-1.3,0.5-1.3,1.6C332,507.6,332,507.9,332.1,508.1z M343.5,451.5c-0.1,0-0.1,0-0.2,0
				c-0.3,0.8-0.6,1.6-0.9,2.4c-1.5,3.7-3,7.5-4.5,11.2c-2.6,6.8-5,13.6-7.5,20.3c-1.4,3.9-2.9,7.9-4.4,11.8c-0.4,1-0.9,2-1.1,3.1
				c-0.2,1.5-0.6,2.9-1,4.3c-0.3,1-0.6,2,0,3c0.1,0.3,0,0.7,0.1,1c0.1,1.3,1.3,2.5,2.5,2.5c1.5,0,2.8-1.8,2.3-3.3
				c-0.1-0.5-0.2-1.1-0.1-1.6c0.7-2.4,2.6-3.6,4.8-3.5c0.9,0,1.7,0,2.6,0c0.4,0,0.8,0.1,1.3,0.2c0.7,0.1,1.4,0.2,2.1,0.3
				c0.3,0,0.7,0,1,0.1c0.9,0.1,1.8,0.3,2.7,0.4c1,0,2.1,0.1,3-0.1c1.5-0.4,2.8-0.4,4.1,0.4c1.1,0.7,2.2,1.5,2.6,2.8
				c0.3,0.9,0.7,1.9,0.7,2.9c0,0.6,0.4,1.3,0.9,1.7c1.2,1.1,2.9,0.7,3.6-0.7c0.4-0.8,0.4-1.7,0.2-2.7c-0.1-0.7-0.2-1.5-0.3-2.2
				c0-0.4,0-0.8,0-1.2c-0.3-1.7-0.7-3.4-1.1-5.1c-1.5-5.6-3-11.2-4.5-16.8c-1.4-5.1-2.8-10.2-4.3-15.3c-1.4-5-2.7-10-4.1-15
				C343.8,452.3,343.6,451.9,343.5,451.5z"/>
			<path fill="#CD0000" d="M202.3,455.3c-0.3,1.8-0.5,3.5-1.3,5.1c-0.3,0.6-0.3,1.2-0.1,1.9c2,5.5,4,10.9,5.8,16.4
				c2.1,6.3,4.2,12.6,6.2,18.9c0.6,2,1.1,4.1,1.7,6.1c0.1,0.5,0.4,1.1,0.6,1.6c0.9,2.2,0.8,4.2-0.9,5.9c-1.7,1.8-3.8,2.1-6,1.3
				c-0.7-0.3-1.5-0.7-2.2-1.2c-0.6-0.4-1.2-0.6-2-0.6c-1.4-0.1-2.8-0.2-4.2-0.6c-2.2-0.5-4.2-1.4-6.1-2.5c-1.7-1-2.9-2.6-3.9-4.2
				c-2.4-3.8-4-7.9-4.9-12.3c-0.3-1.5-0.8-3-0.9-4.6c-0.2-2.6-0.1-5.2-0.2-7.8c0-2.6,0-5.1,0-7.7c0-0.7,0-1.5-0.2-2.2
				c-0.6-2.8,0-5.6,0.5-8.4c0.1-0.8,0.7-1.7,1.2-2.4c0.7-1,1.2-2.2,1.4-3.4c0.4-2.6,1.3-4.9,2.6-7.2c1-1.9,2.7-2.9,4.8-2.8
				c2.2,0,3.7,1,4.8,2.8c0.4,0.7,0.9,1.4,1.4,2c0.7,0.8,1.2,1.6,1.4,2.7C202.1,453.1,202.2,454.2,202.3,455.3z M186.3,476.5
				L186.3,476.5c0,2.6,0,5.2,0,7.8c0,1.2,0.3,2.3,0.6,3.4c0.2,1.3,0.5,2.5,0.8,3.8c0.1,0.6,0.3,1.2,0.5,1.8c0.1,0.3,0.3,0.6,0.4,1
				c0.5,1.3,0.6,2.8,1.7,3.8c0.1,0.1,0.2,0.4,0.2,0.6c0.6,1.8,1.4,3.6,3,4.9c0.3,0.3,0.6,0.6,0.9,0.9c1,1,2.2,1.8,3.5,2.2
				c0.5,0.1,1.1,0.2,1.6,0.3c1.4,0.3,2.8,0.8,4.4,0.7c1.1,0,2.2,0.2,3.1,0.8c0.4,0.3,0.8,0.6,1.2,1c0.9,0.8,1.7,0.9,2.7,0.4
				c0.9-0.5,1.8-2.2,1.1-3.3c-0.5-1-0.8-2-0.8-3.1c0-0.2,0-0.5-0.1-0.7c-1.2-3.9-2.3-7.9-3.5-11.7c-1.2-3.7-2.5-7.5-3.7-11.1
				c-1.8-5.1-3.6-10.1-5.4-15.1c-0.2-0.6-0.5-1.3-0.9-1.9c-0.7-1.2-0.8-2.4,0.1-3.5c0.5-0.6,0.7-1.4,0.8-2.2c0.3-1.4,0.3-2.7,0-4
				c-0.2-0.9-0.4-1.7-1.1-2.4c-0.7-0.7-1.4-1.4-1.8-2.3c-0.6-1.2-2-1.5-3.1-0.8c-0.4,0.2-0.8,0.6-1,1.1c-1,2.2-2.4,4.4-2.4,6.9
				c0,0.2-0.1,0.5-0.2,0.8c-0.5,1.1-1,2.3-1.5,3.4c-0.2,0.5-0.5,1-0.6,1.5c-0.3,1.6-0.6,3.2-0.9,4.8c0,0.2,0,0.4,0.1,0.7
				c0.1,0.8,0.3,1.5,0.3,2.3C186.4,471.7,186.3,474.1,186.3,476.5z"/>
			<path fill="#CD0000" d="M278,506.9c-0.8-0.2-1.8-0.3-2.6-0.8c-1.9-1.3-4-1.2-6.1-1.1c-1.1,0-2.3,0.1-3.4,0.4
				c-1,0.2-2,0.6-2.8,1.1c-1.4,0.8-2.8,1.2-4.5,1.3c-0.9,0-1.8,0.1-2.7,0.3c-2.1,0.3-4-0.1-5.8-1c-2.3-1.1-3.4-3.2-2.9-5.7
				c0.3-1.8,0.9-3.5,1.3-5.3c1.2-4.5,2.5-8.9,3.7-13.4c1.1-3.8,2.2-7.6,3.2-11.4c1-3.4,2-6.8,3-10.3c0.9-2.9,1.9-5.9,2.8-8.8
				c0.4-1.2,0.8-2.4,1.1-3.6c0.1-0.2,0.2-0.5,0.3-0.7c0.4-1.1,2-1.1,2.6-0.1c0.3,0.4,0.5,1,0.6,1.5c1.6,4.7,3.1,9.4,4.7,14.1
				c1.1,3.3,2.1,6.6,3.2,9.8c1,3,2.1,6,3.1,9c1.1,3.1,2.2,6.3,3.2,9.5c0.8,2.4,1.6,4.7,2.3,7c0.2,0.7,0.4,1.4,0.5,2.1
				C283.8,503.9,281.3,506.8,278,506.9z M263.9,452.5c-0.1,0-0.1,0-0.2,0.1c-0.6,2-1.2,3.9-1.8,5.9c-1.5,4.9-3,9.7-4.4,14.5
				c-1.2,4-2.3,8.1-3.4,12.1c-1,3.5-2,6.9-2.9,10.4c-0.5,1.7-0.9,3.5-1.3,5.2c-0.2,1-0.2,2,0.4,2.8c0.5,0.8,1.2,1.4,2.3,1.4
				c0.1,0,0.3,0.1,0.4,0.1c1.4,0.5,2.8,0.3,4.3,0.1c0.5-0.1,1.1-0.2,1.6-0.3c0.4-0.1,0.8-0.1,1.1-0.2c1.6-0.6,3.1-1.3,4.7-1.9
				c0.5-0.2,1.1-0.3,1.7-0.3c2.3,0,4.6,0,6.8,0c0.5,0,1,0.1,1.5,0.3c0.9,0.3,1.7,0.7,2.6,1s1.5-0.1,2.1-0.6s1-1.3,0.8-2.1
				c-0.4-1.4-0.8-2.8-1.3-4.3c-1.8-5.3-3.5-10.6-5.3-15.9c-1.2-3.5-2.4-7-3.6-10.5c-1.9-5.6-3.7-11.3-5.6-17
				C264.2,453.1,264,452.8,263.9,452.5z"/>
			<path fill="#CD0000" d="M312.3,440.5c1.6-0.2,3.2,0.4,4.9,1c1.3,0.5,2.6,0.6,3.9,0.5c1.2-0.1,2.5,0,3.7,0c1.1,0,2.2,0,3.2-0.3
				c1.2-0.5,2.4-0.2,3.6,0c2.4,0.5,4.7,0.1,6.9-0.9c0.6-0.2,1.1-0.6,1.6-1c1.1-0.6,1.7-0.3,1.6,0.9c-0.1,1.8-0.5,3.7-1.6,5.1
				c-2,2.8-3.1,6-4.3,9.2c-1.9,5.1-3.8,10.2-5.8,15.3c-2.2,5.6-4.4,11.2-6.5,16.9c-0.7,1.9-1.5,3.8-2.3,5.7c-0.4,1-0.5,1.1-1.6,1.1
				c-1,0-1.1,0-1.4-1.1c-0.8-2.3-1.5-4.6-2.3-6.9c-0.8-2.6-1.6-5.2-2.3-7.8c-0.9-3.1-1.8-6.2-2.6-9.3c-1.1-4-2.2-8-3.3-12
				c-0.8-3-1.8-5.9-2.5-8.9c-0.8-3.3,1-7.5,5.6-7.5C311.4,440.5,311.7,440.5,312.3,440.5z M319.6,489c0.2-0.3,0.3-0.4,0.4-0.5
				c1-2.7,2.1-5.4,3.1-8.1c2.1-5.4,4.2-10.8,6.3-16.2c1.3-3.4,2.6-6.9,3.9-10.4c0.6-1.7,1.3-3.3,1.8-5c0.3-1.1,0.6-2.1,1.5-3
				c0.4-0.4,0.9-1,0.8-1.9c-0.3,0-0.5,0-0.7,0c-2,0.6-4,0.6-6,0c-0.5-0.1-1.1,0-1.6,0.1c-1.9,0.4-3.7,1-5.6,0.4
				c-0.4-0.1-0.9-0.1-1.4,0c-2.3,0.5-4.5,0.4-6.6-0.7c-0.4-0.2-0.9-0.4-1.4-0.4c-1.2,0-2.4,0-3.6,0c-0.5,0-0.8,0.1-1.1,0.5
				c-0.4,0.6-0.7,1.2-1.2,1.7c-0.4,0.5-0.5,1-0.3,1.5c0.1,0.6,0.4,1.2,0.5,1.8c1.2,4.3,2.3,8.5,3.5,12.8c1.2,4.2,2.3,8.5,3.5,12.7
				c1.3,4.5,2.6,8.9,3.9,13.4C319.2,488.3,319.4,488.6,319.6,489z"/>
			<path fill="#CD0000" d="M424.8,481.5c-0.2,2.2-0.3,4.5-0.7,6.7c-0.2,1.3-0.8,2.6-1.3,3.9c-1.2,3-2.6,5.9-4.4,8.6
				c-1.9,2.8-4,5.4-6.7,7.4c-0.7,0.5-1.6,1-2.5,1.3c-1.1,0.3-2.2,0.5-3.3,0.8c-0.8,0.2-1.6,0.4-2.4,0.7c-1,0.4-2,0.7-3,0.8
				c-0.7,0-1.5,0.3-2.2,0.4c-0.8,0.1-1.6,0.4-2.4,0.4c-3.4,0-5.9-2.9-5.3-6.3c0.4-2,1.1-3.9,1.8-5.8c2-5.6,4.1-11.2,6.2-16.8
				c2-5.4,4.1-10.7,6.1-16.1c0.3-0.9,0.8-1.9,1.1-2.8c0.2-0.6,0.3-1.2,0.3-1.9c0-4,4.2-6.6,7.9-4.8c0.3,0.1,0.6,0.2,0.8,0.4
				c1.1,0.8,2.3,1.2,3.5,1.6c1.9,0.6,3.1,2,3.5,3.9c0.4,2.1,0.7,4.1,1.1,6.1c0.4,2.4,0.9,4.8,1.3,7.2
				C424.5,478.6,424.6,480.1,424.8,481.5z M393.1,506.3h0.1c0,0.2,0,0.5,0,0.7c0,1.9,1.6,3,3.4,2.5c1.3-0.4,2.5-0.9,3.9-0.7
				c0.3,0,0.7-0.2,1.1-0.3c0.8-0.3,1.5-0.7,2.3-0.9c1.3-0.2,2.5-0.8,3.9-0.8c0.5,0,1.2-0.3,1.7-0.7c2.6-2.4,4.9-4.8,6.7-7.9
				c0.4-0.8,0.8-1.6,1.3-2.4c0.3-0.5,0.7-1,1-1.6c0.6-1.3,1.2-2.7,1.7-4c0.7-1.8,1-3.7,1.2-5.6c0-0.5,0.1-1.1,0.2-1.6s0.1-1,0-1.6
				c-0.2-0.6-0.2-1.3-0.3-2c0-0.3,0-0.7,0-1c-0.4-0.9-0.3-1.9-0.4-2.9c0-0.5-0.2-1-0.2-1.5c-0.2-1.1-0.8-2-0.7-3.2
				c0-0.6-0.2-1.3-0.3-2c-0.2-1.1-0.5-2.2-0.6-3.3c-0.2-1.8-0.8-2.6-2.5-3.1c-0.8-0.2-1.5-0.7-2.2-1c-0.6-0.3-1.2-0.7-1.9-1
				c-1-0.4-1.8-0.3-2.6,0.5c-0.4,0.5-0.6,1.2-0.8,1.8c-0.1,0.3-0.1,0.7-0.2,1c-2.5,6.5-4.9,13-7.4,19.5c-2.6,6.8-5.1,13.5-7.5,20.3
				C393.5,504.4,393.3,505.4,393.1,506.3z"/>
			<path fill="#CD0000" d="M274.6,440.3c2,0.1,3.4,0.2,4.9,0.3c1.1,0.1,2.1,0.6,2.9,1.4c0.8,0.7,0.7,0.6,1.6,0.2
				c0.8-0.4,1.7-0.7,2.5-1c0.5-0.1,1-0.1,1.5-0.3c1.6-0.5,3.1-0.4,4.6,0.2c0.6,0.3,1.2,0.1,1.8-0.2c0.9-0.6,1.9-1,2.9-1.2
				c4-0.6,7.1,2.9,6,6.8c-0.4,1.6-1,3.1-1.5,4.7c-1.9,5.9-3.9,11.9-5.8,17.9c-1.6,4.8-3.1,9.5-4.7,14.3c-1,3.1-2,6.2-3,9.3
				c-0.2,0.6-0.5,0.8-1.1,0.8s-1.3,0.1-1.6-0.7c-0.8-1.9-1.6-3.8-2.4-5.7c-2-5.4-4-10.8-5.8-16.3c-1.9-5.5-3.7-11.1-5.5-16.6
				c-0.8-2.4-1.4-4.9-2-7.4C269.2,443.4,271.7,440.3,274.6,440.3z M286.3,488.6c0.2-0.4,0.4-0.6,0.4-0.8c0.4-1.3,0.9-2.6,1.3-3.9
				c1.9-5.9,3.8-11.8,5.7-17.7c0.9-2.8,1.8-5.5,2.7-8.3c1.2-3.6,2.5-7.3,3.6-11c0.2-0.6,0.3-1.3,0.3-2c-0.1-2.1-2.6-3.3-4.2-2.1
				c-0.7,0.5-1.4,0.8-2.2,1.1c-1,0.4-1.8,0.4-2.7-0.1c-0.8-0.5-1.7-0.6-2.7-0.2c-0.4,0.2-0.9,0.2-1.4,0.2c-1,0-1.8,0.3-2.5,0.9
				c-0.3,0.3-0.6,0.6-0.9,0.9c-1.2,1-2.7,0.9-3.3-0.5c-0.6-1.3-1.7-1.8-3-1.8c-0.7,0-1.5-0.2-2.2-0.3c-0.3,0-0.6-0.1-0.9,0
				c-0.8,0.2-1.5,0.7-1.9,1.6c-0.3,0.9-0.2,1.8,0,2.7c1.1,3.8,2.2,7.7,3.4,11.5c2.1,6.2,4.2,12.5,6.4,18.7
				C283.5,481.1,284.9,484.7,286.3,488.6z"/>
			<path fill="#CD0000" d="M374.5,509.3c-0.1,0.5-0.2,0.8-0.2,1.1c-0.4,2.3-1.8,3.6-4,4.2c-2.2,0.5-4.1-0.1-5.5-1.8
				c-2.6-3.1-3-6.6-1.8-10.4c1.6-4.9,3.9-9.4,5.9-14.1c1.5-3.5,3-7,4.6-10.4c0.8-1.8,1.6-3.5,2.5-5.2c0.2-0.4,0.6-0.8,1-1
				c0.7-0.3,1.4,0,1.6,0.8c1.2,4.2,2.3,8.4,3.4,12.6c0.9,3.2,1.8,6.5,2.6,9.8c0.7,2.9,1.4,5.9,2.1,8.8c0.2,0.7,0.4,1.4,0.7,2.1
				c1.5,3,1.9,6.2,1.4,9.5c-0.1,1-0.4,2.1-0.8,3.1c-0.9,2.7-3.8,4-6.5,3.3c-2.7-0.8-4.3-3.3-3.8-6.1c0.1-0.7,0.3-1.5,0.4-2.2
				c0-0.6,0-1.3-0.1-1.9c-0.1-1-0.6-1.7-1.8-1.7C375.8,509.7,375.2,509.5,374.5,509.3z M376.9,476.8c-0.1,0-0.1,0-0.2,0
				c-0.2,0.5-0.4,1.1-0.7,1.6c-3.2,7.2-6.4,14.4-9.6,21.6c-0.2,0.5-0.5,1.1-0.6,1.7c-0.2,1.4-0.4,2.8-0.5,4.2
				c-0.1,1.1-0.2,2.3,0.6,3.2c0.1,0.2,0.1,0.5,0.2,0.8c0.2,0.5,0.3,1,0.6,1.4c1.3,1.6,3,1.3,4-0.2c0.3-0.4,0.3-1,0.4-1.6
				c0-0.3,0-0.7,0-1.1c0.1-0.9,0.6-1.5,1.4-1.7c0.9-0.3,1.8-0.3,2.7,0.1c0.8,0.4,1.7,0.7,2.7,0.8c0.8,0,1.4,0.5,1.8,1.3
				c0.9,1.5,1.4,3.1,1.2,4.9c-0.1,0.7,0,1.5-0.2,2.1c-0.2,0.7-0.3,1.2,0,1.9c0.3,0.6,0.8,1.1,1.4,1.3c0.3,0.1,0.8,0.2,1.1,0.1
				c1.2-0.3,2-1.3,2.1-2.6c0-0.4,0-0.8,0.1-1.2c0.7-2.3,0.3-4.6-0.4-6.8c-0.5-1.6-1.2-3.2-1.4-4.9c-0.6-4-1.8-7.9-2.8-11.8
				c-1-3.8-1.9-7.5-2.9-11.3C377.6,479.3,377.3,478,376.9,476.8z"/>
			<path fill="#CD0000" d="M305.6,509.5c-0.9-0.1-1.8-0.1-2.7-0.3c-1.1-0.2-2.1-0.8-2.7-1.8c-0.5-0.8-1.3-1.1-2.2-1.1
				c-1.2,0-2.5-0.1-3.6-0.2c-2.7-0.2-4.6-2-5.1-4.6c-0.2-1,0.1-2,0.4-3c0.6-2,1.2-4,1.9-6c1.3-4,2.5-8,3.8-12
				c1.2-3.5,2.4-7.1,3.6-10.6c1.1-3,2.2-6,3.2-9.1c0.2-0.6,0.5-1.2,0.6-1.8c0.1-0.7,0.5-0.9,1.2-0.9c0.8,0,1.2,0.2,1.4,0.9
				c0.4,1.1,0.7,2.3,1.1,3.4c1.1,3.5,2.2,7,3.2,10.6c0.9,3.1,1.8,6.2,2.7,9.3c0.9,3.1,1.8,6.3,2.7,9.5c0.5,1.9,1.1,3.7,1.6,5.5
				c0.1,0.5,0.4,1,0.6,1.5c1.2,3.2-0.5,6.5-3.8,7.1c-1,0.2-1.8,0.6-2.4,1.5c-1,1.4-2.5,1.9-4.2,2c-0.4,0-0.9,0-1.3,0
				C305.6,509.5,305.6,509.5,305.6,509.5z M303.7,464c-0.1,0-0.2,0-0.3,0c-0.1,0.5-0.3,1-0.5,1.5c-1.4,4-2.9,8.1-4.3,12.1
				s-2.7,8.1-3.9,12.1c-1.1,3.3-2.1,6.7-3.1,10.1c-0.2,0.7-0.2,1.3,0.1,1.9c0.6,1.1,1.6,1.6,2.8,1.6c1.6,0,3.1,0,4.7,0.3
				c1.1,0.3,2,0.6,2.5,1.7c0.5,0.9,1.4,1.4,2.6,1.4c0.5,0,1.1,0,1.7,0c1.4,0.1,2.3-0.5,3-1.7c0.6-1.1,1.5-1.9,2.8-1.7
				c0.1,0,0.1,0,0.2,0c1.9-0.2,2.8-1.7,2.3-3.5c-1-3.5-2.1-7.1-3.1-10.6c-1.1-3.7-2.1-7.4-3.1-11.1c-1.2-4.2-2.6-8.4-3.8-12.6
				C304.1,465,303.9,464.5,303.7,464z"/>
			<path fill="#CD0000" d="M242.8,502.4c0.4,4-3.2,6.5-6.7,5.7c-0.9-0.2-2-0.1-2.9-0.1s-1.5,0.4-2,1.2c-1.4,2.3-4.1,3.1-6.6,2.2
				c-1-0.4-1.8-1-2.4-1.8c-0.2-0.3-0.4-0.6-0.7-1c-1.8-2.2-2.1-4.5-1-7.2c0.6-1.6,0.8-3.3,1.2-5c0.9-3.6,1.8-7.2,2.8-10.8
				c0.8-3.1,1.8-6.2,2.7-9.2c0.4-1.4,1-2.8,1.4-4.1c0.2-0.7,0.7-0.9,1.3-0.9s1.2,0,1.6,0.8c0.5,1.3,1.2,2.5,1.7,3.8
				c2.5,6.1,4.9,12.2,7.3,18.4c0.7,1.9,1.4,3.7,2,5.6C242.7,500.7,242.7,501.6,242.8,502.4z M229.9,476c-0.1,0.1-0.2,0.2-0.2,0.2
				c-1.3,4.8-2.8,9.6-4,14.4c-0.9,3.4-1.7,6.9-2.6,10.4c-0.2,1-0.3,2.1-0.6,2.9c-0.3,0.9-0.1,1.5,0.3,2.2c0.4,0.7,0.9,1.4,1.5,2.1
				c1.1,1.2,2.3,1.4,3.5,0.1c0.4-0.4,0.6-0.9,0.8-1.4c0.5-1.2,1.3-1.7,2.6-1.6c1,0,2,0,2.9,0c0.6,0,1.3,0,1.9,0.2
				c1.7,0.4,3.2-0.5,3.3-2.3c0.1-1.4,0.2-2.8-0.4-4.2c-0.3-0.7-0.5-1.6-0.8-2.3c-2.4-6.2-4.9-12.3-7.3-18.5
				C230.6,477.6,230.2,476.8,229.9,476z"/>
		</g>
	</g>
	<g>
		<path d="M151.8,363.9c0.4-5.6,0.8-11.3,2.1-16.8c0.6-3,1.4-6,2.8-8.7c1.5-3,3.2-5.9,4.8-8.9c0.4-0.8,1-1.5,1.3-2.4
			c1.3-3.1,2.1-6.4,2.4-9.8c0.4-4.8,0.7-9.6,0.9-14.4c0.1-3.6,0.1-7.2,0.1-10.9c0-1.1,0-2.1,0-3.2c-0.1-3.4-0.3-6.7,0-10.1
			c0.2-2.9,0.9-5.8,2.1-8.5c1.3-3,3.2-5.5,6.1-7.1c2-1.2,4.1-2,6.6-1.9c2,0.1,4.1-0.1,6.1-0.2c3.9-0.2,7.8-0.5,11.6-0.8
			c3.9-0.3,7.8-0.6,11.7-0.8c5.3-0.3,10.5-0.5,15.8-0.8c2.4-0.1,4.7-0.4,7-0.7c2.1-0.2,4.1-0.3,6.1,0.2c3.4,0.9,6.1,2.9,8.4,5.6
			c2.6,3,3.9,6.4,4,10.4c0.1,3.5,0.1,7.1,0.1,10.6c0,1.9,0.1,3.8,0.5,5.7c0.7,3,2.4,5.3,5.4,6.4c2.3,0.8,4.7,1.1,7,1.3
			c4.1,0.2,8.2,0.4,12.2,0.6c2.6,0.1,5.2,0.3,7.8,0.4c3.8,0.1,7.6,0.5,11.3,1.4c1,0.2,2,0.5,2.9,0.8c1.2,0.4,1.8,1.3,1.7,2.7
			c0,0.6,0,1.2,0.1,1.8c0.6,4,1.1,8,1.8,12c0.8,4.9,1.6,9.8,2.4,14.8c0,0.4,0,0.9,0.5,1.2c0.1-0.2,0.2-0.4,0.3-0.6
			c0.3-1.8,0.7-3.6,1-5.5c0.7-3.8,1.5-7.6,2.3-11.3c0.6-2.9,1.1-5.8,1.7-8.6c0.3-1.4,0.6-2.8,0.9-4.3c0.1-0.7,0.5-1.1,1.2-1.3
			c1.5-0.3,2.9-0.7,4.4-0.9c2.2-0.3,4.4-0.6,6.5-0.9c1.4-0.2,2.8-0.4,4.2-0.5c3.8-0.2,7.7-0.3,11.5-0.5c1.4,0,2.8-0.1,4.1-0.2
			c1.7,0,3.4,0,5.1,0c1.1,0,2.2-0.2,3.2-0.6c2.3-0.9,3.8-2.7,4.9-4.9c1.2-2.2,1.7-4.6,2-7.1c0.4-3.7,0.7-7.4,1-11
			c0.2-2.2,0.6-4.3,1.4-6.3c2.1-5,5.8-8,11-9.3c2.5-0.6,4.9-0.4,7.4-0.3c3.6,0.1,7.2,0.5,10.8,0.7c3.5,0.2,7.1,0.4,10.6,0.6
			c3.8,0.2,7.6,0.6,11.4,0.8c3.2,0.2,6.5,0.4,9.8,0.6c2.5,0.1,4.9,0.3,7.4,0.2c1.1-0.1,2.4,0.1,3.4,0.6c6.4,2.7,12.6,9.2,12.2,18.4
			c-0.1,2.5-0.2,5-0.3,7.4c-0.1,3.8-0.4,7.5-0.4,11.3c0,4.7,0.1,9.3,0.3,14c0.1,2.9,0.3,5.8,1,8.6c0.2,1.1,0.5,2.2,0.6,3.2
			c0,1.7,0.6,3,1.6,4.3c2.1,2.9,3.7,6,4.8,9.4c1,3.2,1.9,6.5,2.7,9.8c0.9,3.9,1.6,8,1.8,12c0,0.8,0.3,1.5,0.4,2.3
			c0,3.8,0,7.7,0,11.5c-0.1,0.3-0.3,0.6-0.3,0.9c-0.2,2.2-0.4,4.5-0.6,6.7c-0.4,3.5-0.8,7-1.3,10.5s-1.1,7-1.6,10.5
			c-0.6,3.7-1.2,7.4-1.8,11.1c-0.4,3-0.9,6-1.3,9c-0.4,2.9-0.8,5.7-1.2,8.6c-0.5,3.3-1.1,6.6-1.7,9.9c-0.5,3.2-1.1,6.3-1.7,9.5
			c-0.4,2.1-0.7,4.1-1.1,6.1c-0.7,3.5-1.5,7-2.3,10.5c-0.6,2.6-1.2,5.1-1.8,7.7c-0.6,2.4-1.1,4.8-1.7,7.2c-0.8,2.9-1.7,5.8-2.6,8.7
			c-1.6,5.2-2.9,10.4-4.9,15.5c-1.5,3.9-3.2,7.7-5.8,11c-1.7,2.2-3.5,4.4-5.2,6.5c-1,1.3-2.3,2.3-3.7,3c-2.3,1.1-4.5,2.3-6.8,3.3
			c-3.4,1.6-7,2.5-10.7,3c-0.5,0-13.8,0-14.2,0c-3-0.1-6.1-0.2-9.2-0.3c-2.4-0.1-4.7-0.2-7.1-0.3c-4-0.2-8-0.5-12-0.7
			c-2.8-0.1-5.6-0.1-8.5-0.1c-12.9-0.1-25.8,0.2-38.7-0.2c-3.2-0.1-6.5-0.1-9.8-0.1c-3,0-6-0.1-9.1-0.2c-5.8-0.1-11.7-0.2-17.5-0.3
			c-2.5,0-5,0.1-7.4,0.1c-1.9,0-3.7,0.1-5.5,0.2c-3.3,0.1-6.7,0.3-10,0.4c-4.2,0.2-8.3,0.3-12.5,0.5c-2.2,0.1-4.5,0.3-6.7,0.4
			c-3.8,0.1-7.5,0.1-11.3,0.1c-1.7,0-3.4-0.1-5.2-0.2c-5-0.2-9.9-0.8-14.8-1.7c-3.4-0.6-6.6-1.8-9.5-3.7c-2.2-1.5-4.1-3.3-5.9-5.3
			c-4.4-4.7-7.5-10.1-9.4-16.1c-1.5-4.8-2.8-9.7-4.1-14.6c-1.2-4.4-2.3-8.8-3.2-13.3c-0.9-4.3-1.7-8.7-2.5-13.1
			c-0.6-3.3-1.1-6.7-1.7-10c-0.6-3.5-1.3-7.1-1.9-10.7c-0.6-3.6-1.2-7.2-1.8-10.8c-0.7-4.2-1.5-8.3-2.2-12.5
			c-0.6-3.5-1.2-7-1.8-10.5c-0.4-2.6-0.8-5.1-1.2-7.7c-0.4-2.3-1-4.6-1.4-6.9c-0.3-1.6-0.4-3.2-0.6-4.8c-0.3-2.9-0.5-5.8-0.8-8.7
			C151.8,382.9,151.8,364.4,151.8,363.9z M361.7,436.7c0.3,0.2,0.4,0.3,0.5,0.3c0.3,0,0.7,0,1.1,0c5.4,0,10.8-0.2,16.1-0.4
			c6-0.3,12.1-0.3,18.1-0.3c3,0,5.9-0.2,8.9-0.6c2-0.2,4-0.4,6-0.7c2.6-0.3,5.1-0.8,7.6-1.7c4.2-1.5,7.7-4.1,10.7-7.3
			c1.5-1.6,2.6-3.4,3.1-5.6c0.4-1.6,0.7-3.2,1.2-4.8c0.9-2.8,1.7-5.7,2.2-8.7c0.8-5.2,1.5-10.4,2.2-15.6c0.5-3.6,0.2-7.3-0.5-10.9
			c-0.4-2.1-1-4.1-1.6-6.1c-1-3.4-2.5-6.6-4.7-9.5c-4.6-5.9-9.9-11.1-16.2-15.3c-2.6-1.7-5.4-3.1-8.4-4c-5.4-1.6-10.9-3.2-16.3-4.7
			c-3.1-0.8-6.3-1.4-9.5-1.8c-3.7-0.4-7.4-0.7-11.1-0.9c-3.9-0.1-7.8-0.1-11.6-0.1c-2.2,0-4.3,0.1-6.5,0.4c-3.2,0.3-6.4,0.8-9.7,1.3
			c-2.4,0.3-4.8,0.6-7.2,1c-2.9,0.5-5.8,1.1-8.8,1.7c-2.9,0.5-5.8,1.1-8.6,1.7c-4,0.8-8.1,1.6-12.1,2.3c-1,0.2-2.1,0.3-3.1,0.2
			c-4-0.3-8-1-11.9-2c-2.4-0.6-4.7-1.1-7.1-1.7s-4.8-1.2-7.2-1.8c-2.1-0.5-4.2-1.2-6.4-1.6c-4.1-0.7-8.2-1.3-12.3-2
			c-4.5-0.6-9-0.6-13.5-0.8c-1.6,0-3.2,0.1-4.8,0.1c-3.3,0-6.7,0.2-10,0.5c-4.9,0.5-9.2,1.2-14,2.3c-2,0.4-3.8,1.1-5.8,1.6
			c-4.8,1.2-9.3,3.1-13.6,5.5c-3.6,1.9-6.9,4.2-10.2,6.6c-2.4,1.7-4.5,3.6-6.4,5.8c-2.7,3.1-4.9,6.5-6.9,10.1
			c-1.3,2.3-2.3,4.7-2.6,7.3c-0.2,1.7-0.5,3.4-0.7,5.1c-0.2,2-0.5,4.1-0.5,6.1c0,5,0.3,10,1.4,15c0.9,4.1,1.7,8.3,2.6,12.4
			c0.4,2.1,1.2,4.1,2.2,6.1c1.5,2.8,3.7,5.1,6.2,7c2.7,2.1,5.5,3.8,8.8,4.8c2.7,0.8,5.5,0.8,8.3,1c2.2,0.2,4.5,0.3,6.7,0.4
			c3.2,0.2,6.4,0.4,9.6,0.6c2.1,0.1,4.2,0.1,6.2,0.2c3.3,0.1,6.6,0.2,9.9,0.3c2.1,0,4.1,0.1,6.1,0.2c2.4,0.1,4.9,0.2,7.3,0.3
			c0.5,0,1,0.2,1.5-0.4c-0.2-0.2-0.3-0.5-0.5-0.7c-0.7-0.6-1.4-1.2-2.2-1.8c-1.4-1-2.6-2.2-3.3-3.7c-1.2-2.4-1.9-4.9-2-7.6
			c-0.1-3.2,0.6-6.2,1.9-9.1c1.2-3,3.3-5.4,6.1-7.1c4.3-2.6,8.9-2.9,13.8-2.2c2.7,0.4,5.2,1.2,7.6,2.4c1.6,0.7,3.1,1.6,4.6,2.6
			c2.9,2,5.3,4.5,7.4,7.2c3.3,4.2,6.5,8.5,9.7,12.9c2.4,3.3,4.8,6.5,8.3,8.7c0.8,0.5,1.6,1,2.5,1.3c1.6,0.6,3.3,1,5,1.4
			c0.2,0,0.5,0.1,0.7,0c1.3-0.2,2.7-0.4,3.9-0.8c2.4-0.7,4.2-2.4,5.9-4.2c1.7-1.8,3.2-3.8,4.8-5.8c1.9-2.6,3.6-5.4,5.6-7.8
			c2.9-3.5,6.1-6.8,9.3-10.1c1.6-1.7,3.4-3.1,5.5-4.1c2.7-1.2,5.4-2,8.3-2.6c4.4-0.9,8.6-0.3,12.7,1.1c2.3,0.8,4.4,2.2,6.2,3.7
			c2.1,1.7,3.2,3.9,3.8,6.5c0.6,2.9,0.4,5.7-0.5,8.5c-1.2,3.8-3.1,7.2-6.5,9.5C363.5,434.9,362.7,435.9,361.7,436.7z M389.6,498.1
			c0.2-0.3,0.4-0.5,0.5-0.7c1.8-4.8,3.6-9.5,5.4-14.3c1.9-5.2,3.9-10.5,5.7-15.7c0.7-1.9,1.3-3.8,2-5.8c0.3-1,0.2-1.2-0.8-1.5
			s-2-0.6-3-0.9c-2.7-0.8-5.5-1.5-8.2-2.3c-2.1-0.5-4.2-1.1-6.3-1.6c-2.2-0.5-4.3-0.8-6.5-1.2c-3-0.6-6-1.2-9-1.7
			c-3.2-0.6-6.5-1.3-9.7-1.8c-2.7-0.4-5.4-0.8-8.2-1.2c-1.2-0.1-1.3,0-1,1.2c0.2,0.9,0.5,1.8,0.7,2.8c0.7,3,1.5,6.1,2.3,9.1
			c0.9,3.4,1.8,6.8,2.7,10.1c0.7,2.8,1.4,5.5,2.2,8.3c0.8,2.9,1.6,5.7,2.4,8.6c0.2,1,0.5,2,0.8,2.9c0.1,0.4,0.2,0.8,0.9,0.8
			c0.1-0.2,0.2-0.3,0.2-0.5c1.3-3.1,2.7-6.3,4-9.4c3.2-7.8,6.5-15.6,9.7-23.3c0.4-0.9,0.8-1.9,1.3-2.8c0.2-0.3,0.6-0.6,1-0.7
			c0.5-0.1,0.8,0.4,1,0.8c0.1,0.2,0.1,0.4,0.2,0.7c0.2,0.8,0.4,1.7,0.5,2.5c0.7,3.4,1.5,6.7,2.3,10.1c0.9,3.9,1.7,7.8,2.6,11.6
			c1.1,4.5,2.2,9,3.3,13.5C388.9,496.5,388.9,497.3,389.6,498.1z M256.9,448.6c-0.3,0-0.6,0-0.9,0c-2.6,0.3-5.1,0.5-7.6,0.8
			c-4.2,0.6-8.3,1.2-12.5,1.9c-3.4,0.5-6.7,1.2-10.1,1.9c-1.6,0.3-3.2,0.8-4.8,1.2c-2.3,0.6-4.5,1.1-6.7,1.8
			c-2.3,0.7-4.6,1.6-6.8,2.5c-1.9,0.7-2,0.9-1.4,2.8c0.9,2.9,1.8,5.9,2.7,8.9c1.2,3.6,2.4,7.3,3.6,11c1.2,3.5,2.6,7,3.8,10.5
			c0.3,1,0.7,1.9,1.1,2.9c0.1,0,0.2,0,0.3,0c0.2-0.3,0.4-0.7,0.5-1.1c1-3.5,1.9-7,2.8-10.5c1.2-4.5,2.5-8.9,3.6-13.4
			c0.8-3,1.6-6.1,2.3-9.1c0.4-1.5,0.7-3,1.1-4.6c0.1-0.6,0.4-1.2,1.1-1.3c0.5-0.1,1.2,0.5,1.4,1.2c0,0.2,0.1,0.4,0.2,0.5
			c0.2,0.8,0.5,1.6,0.8,2.3c0.2,0.7,0.5,1.4,0.8,2.1c0.9,2.8,1.7,5.7,2.8,8.5c1.5,4.1,3,8.3,4.6,12.3c1.3,3.3,2.6,6.6,3.9,10
			c0.1,0.3,0.4,0.6,0.6,1C245.9,490.3,257.1,450.8,256.9,448.6z M368.9,293.4c0.5,0,0.6,0,0.8,0c4.6-0.6,9.2-0.5,13.8-0.2
			c3.3,0.2,6.7,0.4,10,0.4c0.5,0,1.1-0.1,1.6-0.2c1.8-0.5,2.7-1.9,3.2-3.5c0.6-1.8,1.1-3.6,1.5-5.4c0.4-1.4,0.7-2.9,1-4.4
			c0.1-0.4,0.3-0.9,0.8-0.8c0.3,0,0.8,0.2,1,0.5c0.3,0.3,0.5,0.8,0.6,1.3c0.2,0.8,0.3,1.6,0.4,2.4c0.5,2.7,0.9,5.4,1.6,8
			c0.9,3.8,3.3,6.3,7.2,7.3c2.5,0.6,4.9,1.2,7.3,1.9c3.2,1,6.2,2.6,8.7,4.8c1.2,1.1,2.3,2.3,3.5,3.5c0.3,0.3,0.6,0.5,0.9,0.8
			c0.2-0.4,0.2-0.8,0.1-1.1c-0.2-2.1-0.5-4.1-0.7-6.2c-0.2-3.9-0.3-7.9-0.6-11.9c-0.1-2.5-0.9-4.8-2.6-6.7c-1.2-1.3-2.5-2.7-3.7-4
			c-1.1-1.2-2.5-1.7-4-1.8c-2.4-0.1-4.8-0.2-7.2-0.3c-2.2-0.1-4.4-0.2-6.6-0.3c-3.7-0.2-7.4-0.5-11.1-0.8c-3.2-0.2-6.3-0.4-9.5-0.5
			c-2-0.1-4.1-0.2-6.1-0.2c-3.6,0-6.2,1.6-7.9,4.8c-0.6,1.2-0.9,2.6-1.1,3.9c-0.3,2.3-1,4.4-1.9,6.4
			C369.8,291.6,369.4,292.4,368.9,293.4z M240.6,292.4c-0.3-0.9-0.6-1.7-0.8-2.4c-0.4-2.1-0.9-4.1-1.2-6.2c-0.3-1.9-1-3.5-2-5.1
			c-1.9-2.9-4.6-3.9-7.9-3.7c-2.2,0.1-4.4,0.2-6.6,0.3c-2.5,0.1-5,0.2-7.5,0.4c-2.8,0.2-5.5,0.4-8.3,0.6c-4,0.2-7.9,0.4-11.9,0.6
			c-2.1,0.1-4.1,0.4-6.2,0.4c-1.9,0-3.5,0.7-4.9,2c-2,1.9-3.4,4.3-3.8,7c-0.9,5.7-1.6,11.4-1.3,17.2c0,0.3,0.1,0.7,0.2,1.3
			c0.6-0.3,1-0.5,1.4-0.8c3.4-2.2,6.8-4.2,10.7-5.4c2.7-0.8,5.3-1.4,8-2.2c2.9-0.8,5.2-2.7,6-5.6c1-3.6,1.7-7.3,2.6-10.9
			c0.2-0.8,0.3-1.6,0.6-2.4c0.2-0.6,0.7-0.9,1.3-0.8s0.9,0.5,1,1c0,0.1,0,0.3,0,0.5c0.1,1.4,0.3,2.9,0.4,4.3
			c0.2,2.2,0.5,4.4,0.8,6.5c0.4,2.7,2.5,4.2,5.2,3.9c2.2-0.2,4.5-0.5,6.7-0.7c2.3-0.2,4.6-0.7,6.9-0.5c2.3,0.2,4.6,0.2,6.8,0.3
			C237.9,292.2,239.1,292.3,240.6,292.4z M323.5,500.7c0.6,0,1,0.1,1.4,0.1c3.7,0,7.5,0,11.2,0.1c1.4,0,2.8,0,4.1,0.1
			c3.7,0.2,7.4,0.4,11.1,0.6c2,0.1,4,0.1,6,0.4c1.8,0.3,2.1,0,1.6-2c-0.9-3.3-1.8-6.6-2.7-9.9c-1.2-4.5-2.4-9-3.6-13.5
			c-1.2-4.4-2.5-8.7-3.7-13.1c-1.2-4.5-2.4-9-3.6-13.5c-0.1-0.5-0.4-1-0.7-1.3c-0.4-0.5-1.2-0.5-1.6,0c-0.2,0.2-0.3,0.5-0.4,0.8
			c-0.6,1.5-1.2,3-1.8,4.5c-2.4,6.2-4.8,12.4-7.2,18.7c-1.7,4.6-3.3,9.1-5,13.7c-1.4,3.8-2.8,7.6-4.2,11.3
			C324,498.6,323.8,499.5,323.5,500.7z M264,447.6c-0.2,0.4-0.5,0.9-0.6,1.3c-0.4,1.2-0.8,2.4-1.2,3.6c-0.9,2.9-1.9,5.9-2.8,8.8
			c-1,3.4-2.1,6.8-3,10.3c-0.9,3.2-1.9,6.5-2.8,9.7c-0.9,3.2-1.9,6.5-2.8,9.7c-0.7,2.7-1.4,5.4-2.1,8.1c-0.1,0.6-0.1,1.2-0.2,2
			c0.5,0,0.8,0.1,1.2,0c4-0.4,8.1-0.5,12.1-0.5c6.2,0,12.5,0,18.8,0c0.4,0,0.9,0,1.5-0.1c0-0.6,0-1.1-0.2-1.6c-0.6-2-1.2-4-1.9-6
			c-1.2-3.7-2.5-7.4-3.8-11c-1.2-3.5-2.4-7-3.6-10.6c-1.3-3.8-2.5-7.6-3.8-11.4c-1.2-3.6-2.4-7.2-3.6-10.8
			C265,448.6,264.8,447.9,264,447.6z M319.5,493.8c0.1,0,0.2,0,0.4,0.1c0.1-0.3,0.3-0.5,0.5-0.8c1.1-2.8,2.2-5.5,3.2-8.2
			c1.4-3.6,2.8-7.2,4.2-10.8c1.9-4.9,3.7-9.7,5.6-14.6c1.3-3.5,2.6-7,3.9-10.5c0.3-0.8,0.2-1-0.6-1.1c-2.9-0.3-5.8-0.7-8.8-0.9
			c-3.2-0.2-6.5-0.4-9.7-0.5c-3.6-0.1-7.1-0.1-10.7-0.1c-0.4,0-0.8,0.1-1.3,0.2C310.3,462.4,314.5,478.2,319.5,493.8z M271.2,447.3
			c0.1,0.7,0.2,1.1,0.3,1.6c0.9,3,1.8,6,2.7,9c1.3,4.2,2.7,8.3,4.1,12.5c1.7,4.9,3.4,9.8,5.2,14.6c0.9,2.5,1.9,4.9,2.9,7.3
			c0.1,0.3,0.2,0.7,0.8,0.6c2.5-7.7,5-15.3,7.5-23s5-15.3,7.5-23.1c-1.1-0.1-2-0.4-2.9-0.4c-2.6-0.1-5.1-0.2-7.7-0.3
			c-1.2,0-2.4-0.2-3.6-0.1c-1.9,0-3.7,0.2-5.6,0.3c-2.9,0.2-5.8,0.3-8.7,0.6C272.9,446.9,272.1,447.2,271.2,447.3z M408,461.9
			c-0.3,0.5-0.5,1-0.7,1.5c-1.1,2.8-2.1,5.5-3.2,8.3c-1.9,5-3.8,10-5.6,15c-1.6,4.3-3.2,8.5-4.8,12.8c-0.6,1.5-1.1,3.1-1.6,4.7
			c-0.3,1.1-0.1,1.3,0.9,1.6c0.1,0,0.3,0,0.4,0.1c2.9,0.2,5.8,0.6,8.8,0.6c5.6,0,9.7-2.8,12.4-7.6c1.2-2.2,1.5-4.7,1.9-7.1
			c0.5-2.9,0.9-5.9,1.3-8.8c0.3-2.2,0.6-4.3,0.6-6.4c0-2.5-0.5-4.9-1.4-7.2c-0.8-2-2-3.6-3.9-4.5c-0.4-0.2-0.8-0.5-1.2-0.7
			C410.6,463.2,409.4,462.6,408,461.9z M204.3,504.4c1.5-0.1,3-0.2,4.5-0.3c1.3-0.1,2.7-0.2,4-0.4c0.8-0.1,0.9-0.3,0.7-1.1
			c-0.3-1.2-0.7-2.4-1-3.6c-1.9-6.1-3.8-12.2-5.8-18.3c-1.2-3.5-2.5-7-3.7-10.6c-0.9-2.5-1.8-5-2.7-7.4c-0.4-1.1-0.4-1.1-1.5-0.6
			c-1.3,0.6-2.5,1.3-3.7,2c-2.5,1.4-3.8,3.5-4.7,6.1c-1,3.1-1.2,6.3-1.4,9.5c-0.2,5.5,0.4,11,1.8,16.4c0.5,2.1,1.6,3.7,3.2,5.1
			C196.9,503.3,200.4,504.5,204.3,504.4z M316.5,500.8c-0.1-0.5-0.1-0.9-0.2-1.3c-0.7-2.7-1.5-5.4-2.3-8.1c-0.9-3.2-1.8-6.5-2.8-9.7
			c-1-3.6-2.1-7.3-3.2-11c-1.1-3.8-2.4-7.6-3.5-11.3c-0.1-0.3-0.2-0.7-0.7-0.7c-0.6,1.7-1.2,3.4-1.8,5.1c-2.4,6.8-4.8,13.6-7,20.3
			c-1.5,4.4-2.7,8.8-4,13.2c-0.3,0.9-0.5,1.8-0.7,2.8c-0.1,0.5,0.1,0.8,0.7,0.8c1.3,0,2.5,0.1,3.8,0.2c2.2,0.1,4.3,0.2,6.5,0.3
			c1,0,2.1,0.3,3.1,0.3c3.5-0.2,7-0.5,10.6-0.7C315.5,500.9,315.9,500.8,316.5,500.8z M401.6,286.1c-0.1,0.4-0.2,0.7-0.3,1
			c-0.6,1.6-1.1,3.1-1.8,4.7c-1.1,2.5-3.2,3.8-5.9,3.8c-3.4,0-6.9-0.2-10.4-0.4c-2.1-0.1-4.2-0.3-6.3-0.3c-3,0-6.1,0.4-9.1,1.2
			c-1.6,0.4-3.1,0.8-4.5,1.8c-0.2,0.1-0.4,0.4-0.8,0.7c0.4,0.1,0.6,0.2,0.8,0.2c1.4,0.1,2.8,0.1,4.2,0.3c6,0.5,12,1.1,18,2.3
			c3.5,0.7,7,1.3,10.5,2.3c4.6,1.3,9.2,2.8,13.7,4.3c4.8,1.6,9.5,3.5,14,5.6c4.9,2.3,9.7,4.8,14.3,7.7c0.2,0.1,0.5,0.2,0.7,0.3
			c0-0.5-0.2-0.9-0.4-1.2c-2.1-2.8-4.3-5.7-6.4-8.5c-0.9-1.1-1.8-2.2-2.8-3.2c-2.4-2.7-5.4-4.3-8.6-5.6c-1.4-0.6-2.8-1-4.3-1.5
			c-1.6-0.4-3.1-0.6-4.7-1.1c-3.9-1.2-6.7-3.6-7.9-7.6c-0.5-1.8-0.9-3.6-1.4-5.4C402.2,287,402.3,286.5,401.6,286.1z M247.4,299
			c0-0.1,0.1-0.3,0.1-0.4c-0.4-0.3-0.8-0.8-1.3-1.1c-0.4-0.3-1-0.4-1.5-0.7c-4.2-2.1-8.7-3-13.5-2.8c-4.4,0.3-8.7,0.8-13.1,1.3
			c-1.4,0.1-2.7,0.1-4-0.2c-1.9-0.5-3.4-1.5-4.3-3.2c-0.5-1-0.7-2.2-1.1-3.3c-0.1-0.5,0-1.1-0.8-1.5c-0.2,0.7-0.5,1.3-0.7,1.9
			c-0.5,1.4-0.8,2.8-1.4,4.1c-1.2,2.6-3.1,4.3-5.8,5.1c-1.6,0.4-3.2,0.8-4.8,1.3c-2.1,0.6-4.2,1.2-6.1,2c-2.6,1.1-5.1,2.5-7.6,3.9
			c-1.2,0.6-2.2,1.6-3,2.8c-1.7,2.6-3.3,5.2-5,7.7c-0.2,0.3-0.3,0.7-0.4,1.1c1,0.2,1.6-0.2,2.3-0.5c2.6-1.3,5.2-2.7,7.8-3.9
			c3.2-1.5,6.5-2.9,9.8-4.2c3.1-1.2,6.3-2.3,9.4-3.3c2.6-0.8,5.2-1.5,7.8-2.2c2.1-0.5,4.1-0.9,6.2-1.3c1.9-0.4,3.7-0.8,5.5-1
			c3.3-0.4,6.5-0.7,9.8-0.9c4-0.2,7.9-0.2,11.9-0.4C245.1,299.2,246.3,299.1,247.4,299z M377.6,472c-0.3,0.5-0.6,0.7-0.7,1
			c-0.8,1.7-1.7,3.4-2.5,5.2c-2.8,6.4-5.7,12.9-8.6,19.4c-0.4,1-0.9,2.1-1.3,3.1c-0.4,1.3,0.1,2,1.5,2.2c0.6,0,1.3,0.1,1.9,0.1
			c4.2,0.4,8.3,0.9,12.5,1.3c1.5,0.1,3,0.2,4.5,0.3c0.8,0,1-0.1,0.9-0.9c0-0.5-0.1-1.1-0.2-1.6c-1.2-4.6-2.3-9.2-3.5-13.8
			c-1.1-4.1-2.2-8.3-3.3-12.4C378.5,474.6,378.1,473.4,377.6,472z M230.3,471.8c-0.1,0-0.2,0-0.3,0c-0.1,0.3-0.4,0.6-0.5,1
			c-0.9,2.9-2,5.8-2.8,8.7c-1.5,5.5-2.9,11.1-4.4,16.7c-0.3,1.3-0.5,2.6-0.7,3.9c-0.1,0.8,0,1,0.9,0.9c0.5,0,0.9-0.1,1.4-0.1
			c5-0.3,9.9-0.7,14.9-1c0.7,0,1.5-0.1,2.2-0.2c0.8-0.1,1-0.4,0.7-1.3c-0.7-2-1.3-3.9-2.1-5.9c-2.4-6-4.8-12-7.2-18
			C231.8,474.9,231,473.3,230.3,471.8z M326.5,436.5c0.6,0.1,1,0.2,1.4,0.2c1.6,0,3.3-0.1,4.9-0.1c2.7-0.1,5.4-0.3,8.1-1
			c3.3-0.8,6.5-2.2,9.2-4.3c2.1-1.6,3.6-3.6,3.9-6.3c0.3-2.7-1.3-5-4.1-5.2c-1.9-0.1-3.7,0.1-5.5,0.7c-3.1,1.1-5.8,3-8.1,5.3
			c-2.9,2.8-5.6,5.8-8.4,8.8C327.4,435.2,327.1,435.8,326.5,436.5z M280.2,436.2c0-0.1,0.1-0.2,0.2-0.3c-0.2-0.3-0.4-0.7-0.7-1
			c-2.4-2.7-4.7-5.4-7.1-8.1c-2.2-2.5-4.7-4.6-7.5-6.4c-1.3-0.8-2.7-1.5-4.2-1.8c-4.3-0.8-7.6,2.9-6.2,7c0.9,2.6,2.4,4.7,4.8,6.2
			c1.9,1.2,4,1.7,6.2,2.2c3.6,0.9,7.3,1.4,11,1.9C277.8,436.1,279,436.1,280.2,436.2z M418.2,445.1c1.7,1.3,3.2,2.5,4.7,3.7
			s2.8,2.8,4,4.3c1.2,1.6,2.2,3.3,2.8,5.3c0.6,1.8,1,3.7,1.5,5.7c0.2-0.3,0.4-0.4,0.5-0.6c0.3-0.8,0.7-1.7,0.9-2.6c1-4,2.1-8,2.9-12
			c1.1-4.9,2-9.8,2.9-14.8c0-0.3,0.2-0.7-0.2-1.2c-0.3,0.3-0.6,0.6-0.8,0.8c-1.3,1.4-2.6,2.8-3.9,4c-2.7,2.7-5.8,4.6-9.5,5.6
			C422.2,444,420.4,444.5,418.2,445.1z M176,459.7c0.1,0,0.1,0,0.2,0c1.1-2.2,2.1-4.4,3.2-6.5c1.2-2.2,2.9-3.9,4.7-5.5
			s3.9-2.8,6-3.9c-0.1-0.2-0.2-0.3-0.2-0.3c-0.4,0-0.8,0-1.2,0c-2.4,0-4.7-0.1-6.9-1.1c-2.4-1.1-4.5-2.5-6.5-4.1
			c-1.4-1.2-2.7-2.6-3.7-4.1c-0.4-0.6-0.8-1.3-1.8-1.5c0,0.3,0,0.5,0,0.7c0.5,2.6,1.1,5.1,1.6,7.6c0.9,4.7,1.7,9.3,3,13.9
			C174.9,456.5,175.5,458.1,176,459.7z"/>
		<path d="M318,370c0-0.5,0-1,0-1.5c0-1.1,0.3-1.5,1.4-1.8c2.7-0.6,5.3-1.3,7.9-1.9c4.7-1.1,8.5-3.4,12-6.7c2.3-2.2,4.5-4.4,6.8-6.5
			c2-1.8,4.1-3.4,6.5-4.6c2.2-1.1,4.6-1.6,7-1.9c3.5-0.3,7.1-0.6,10.7-0.5c5.5,0.1,10.9,0.9,16.1,2.8c2.4,0.8,4.8,1.6,7,2.7
			c4.2,1.9,8.3,4.2,11.8,7.3c3.2,2.7,6.2,5.7,8.3,9.4c1.2,2.2,2,4.6,2.8,7c1.6,4.7,3.1,9.4,5.4,13.9c1.8,3.6,4.3,6.6,7.7,8.9
			c0.3,0.2,0.6,0.4,0.8,0.6c0.6,0.4,0.8,1,0.6,1.8c-0.1,0.6-0.2,1.3-0.3,2c-0.1,0.4-0.2,0.9-0.4,1.3c-0.7,1.3-1.4,1.5-2.8,1
			c-2.9-1-5.7-2.1-8.7-2.9c-2.5-0.7-5.1-0.7-7.7-0.4c-3.7,0.4-7,1.8-10.1,3.6c-0.6,0.4-1.3,0.7-1.9,1.1c-2.3,1.6-4.9,2.1-7.6,2.4
			c-2.9,0.3-5.8,0-8.6-0.7c-2.5-0.6-5-1.1-7.5-1.6c-2.5-0.6-5-1.2-7.5-1.8c-2.1-0.4-4.1-0.9-6.2-1.2c-3.7-0.7-7.3-1.7-10.8-3.3
			c-1.7-0.8-2.8-2.1-3.6-3.7c-1.3-2.7-2.8-5.4-3.8-8.2c-1.2-3.1-3.2-5.5-6-7.3c-4.3-2.7-8.9-4.4-13.9-5c-1.1-0.1-2.3-0.3-3.4-0.5
			s-1.7-0.9-1.7-2.1C318,371,318,370.5,318,370z M377.3,351c0-0.1,0-0.1,0-0.2c-0.2-0.1-0.5-0.2-0.8-0.3c-3.2-0.8-6.5-1.2-9.8-1.4
			c-2.4-0.1-4.6,0.2-6.8,1.2c-2,0.9-4,1.8-5.9,2.9c-3.5,1.9-6.5,4.4-9.3,7.1c-1.3,1.2-2.5,2.5-3.9,3.6c-3.2,2.6-6.8,4.3-10.8,5.5
			c-0.4,0.1-0.9,0.1-1.2,0.7c0.4,0.2,0.7,0.4,1.1,0.5c2.1,0.9,4.2,1.7,6.3,2.6c3,1.2,5.6,3,7.5,5.9c1.4,2.3,2.9,4.5,4.5,6.6
			c1.6,2.4,3.2,4.8,5.4,6.8c1.1,1,2.3,1.9,3.8,2.3c2.2,0.5,4.3,0.9,6.4,1.4c0.3,0.1,0.7,0.2,1.2-0.2c-0.6-0.5-1.2-1-1.7-1.5
			c-1.7-1.5-3.5-2.8-4.9-4.7c-1.8-2.4-3.1-5-3.9-7.9c-1.3-4.6-1.3-9.1,0-13.7c1.1-3.9,3.3-7.2,5.9-10.2c1.2-1.4,2.7-2.7,4.4-3.5
			c3.6-1.9,7.5-3.1,11.7-3.3C376.8,351.2,377,351.1,377.3,351z M393.4,357.3c0,0.1-0.1,0.1-0.1,0.2c0.2,0.2,0.3,0.5,0.5,0.7
			c2.8,2.9,4.7,6.2,5.8,10.1c1.4,5,1.2,9.9-0.5,14.8c-1.3,4-3.7,7.3-7,10c-1.9,1.6-3.9,3-6.3,3.8c-2.1,0.7-4.1,1.2-6.2,1.8
			c-0.2,0.1-0.5,0.2-0.8,0.3c0,0.1,0,0.2,0,0.3c0.4,0.1,0.8,0.3,1.3,0.3c2.7,0.4,5.5,0.7,8.2,1.3c3,0.6,5.9,0.2,8.6-1
			c2.4-1.1,4.7-2.4,7.1-3.5c2.2-1,4.5-1.9,7-2.1c3-0.3,6-0.2,8.9,0.9c0.2,0.1,0.5,0.1,1.1,0.2c-0.2-0.4-0.3-0.6-0.5-0.7
			c-1.1-1.2-2.3-2.4-3.4-3.6c-1.3-1.4-2.5-2.8-3.1-4.5c-0.5-1.4-0.9-2.8-1.4-4.1c-1.3-3.5-2.8-6.9-4.4-10.3c-1.6-3.2-3.5-6.2-6-8.8
			c-2.2-2.4-4.7-4.4-7.7-5.7C394,357.5,393.7,357.4,393.4,357.3z"/>
		<path d="M241.5,344.1c4.6,0,9.2,0.2,13.5,2c2.4,1,4.4,2.5,6.3,4.2c3.2,2.9,6.4,5.7,9.8,8.5c2.8,2.4,6.2,3.6,9.7,4.5
			c2.7,0.7,5.4,1.3,8,2c0.4,0.1,0.9,0.3,1.3,0.5c0.7,0.4,1.2,1.1,1.2,1.9c0,1.3-0.2,2.7-0.4,4c-0.1,0.6-0.5,0.9-1.1,1
			c-4.4,0.1-8.4,1.5-12.4,3c-2.1,0.8-4,1.9-5.9,3.1c-1.6,1.1-2.8,2.5-3.7,4.2c-1.5,2.9-2.9,5.9-4.4,8.8c-1.1,2.3-2.7,4.2-4.6,5.8
			c-0.6,0.5-1.4,0.9-2.2,1.1c-1.9,0.5-3.7,0.9-5.6,1.3c-3.8,0.8-7.6,1.6-11.4,2.4c-4.2,0.9-8.4,1.8-12.7,2.7c-1.5,0.3-3.1,0.6-4.6,1
			c-3.1,0.7-6.1,0.3-9-0.8c-2.6-0.9-4.9-2.2-7.1-3.9c-2.1-1.6-4.4-2.8-7-3.5c-3.6-1-7.2-0.9-10.6,0.5c-2.3,0.9-4.6,2-6.9,2.9
			c-0.2,0.1-0.4,0.2-0.6,0.3c-1.2,0.4-1.6,0.2-2-0.9c-0.4-1.2-0.6-2.5-0.9-3.8c-0.2-0.8,0.1-1.5,0.7-2c1-0.8,1.9-1.6,2.9-2.4
			c3.3-2.3,5.4-5.5,6.9-9.1c2.4-5.9,4.9-11.9,7.3-17.8c0.7-1.7,1.7-3.2,3-4.5c1.7-1.7,3.4-3.4,5.1-5.1c2-1.9,4.3-3.2,6.7-4.5
			c3.3-1.6,6.6-3.2,10.2-4.3s7.1-1.9,10.8-2.3C235.1,344.8,238.3,344.5,241.5,344.1z M186.9,394.6c0,0.1,0.1,0.2,0.1,0.3
			c0.3-0.1,0.7-0.1,1.1-0.2c1.7-0.5,3.4-1.1,5.2-1.5c3.4-0.7,6.8-0.5,10.1,0.5c2.4,0.7,4.7,1.9,6.7,3.3c2.1,1.4,4.3,2.4,6.7,3.1
			c1.8,0.5,3.5,0.8,5.4,0.5c2.5-0.4,5-0.9,7.5-1.4c0.4-0.1,0.9-0.1,1-0.6c-0.1,0-0.1-0.1-0.2-0.1c-0.1,0-0.3-0.1-0.4-0.1
			c-2.7-0.5-5.3-1.3-7.7-2.5c-3.9-1.9-7-4.5-9.3-8.2c-1.9-3-3-6.3-3.6-9.7c-0.2-1.4-0.6-2.8-0.4-4.3c0.1-0.9,0.2-1.9,0.3-2.8
			c0.3-2.9,1.3-5.7,2.8-8.3c2-3.4,4.7-6.1,8-8.2c0.4-0.2,0.8-0.5,1.2-0.8c0-0.1-0.1-0.2-0.1-0.3c-0.3,0-0.7,0-1.1,0.1
			c-2.2,0.8-4.4,1.5-6.5,2.5c-3.6,1.6-6.8,3.9-9.4,6.9c-3.1,3.6-5.4,7.8-7.1,12.1c-1.5,3.7-2.9,7.4-4.4,11.1c-1.3,3-2.8,5.9-5.3,8.3
			C187.1,394.1,187,394.4,186.9,394.6z M233.7,350.1c0,0.1,0,0.2,0,0.2s0.1,0.1,0.2,0.1c0.3,0,0.6,0.1,0.9,0.1
			c2.4,0.3,4.8,0.7,7.1,1.6c3.4,1.3,6.2,3.6,8.5,6.3c2.7,3.1,4.5,6.8,5.2,10.9c0.7,3.7,0.7,7.4-0.2,11c-1.4,5.3-4.4,9.5-8.7,12.8
			c-1,0.8-2.2,1.5-3.2,2.2c-0.2,0.1-0.4,0.4-0.6,0.6c0,0.1,0.1,0.1,0.1,0.2c0.4,0,0.7,0,1.1-0.1c2.6-0.4,5.2-0.9,7.8-1.4
			c1.5-0.3,3-0.6,4.3-1.6c1-0.8,1.6-1.8,2.3-2.8c1.8-2.9,3.6-5.8,5.5-8.6c1.7-2.7,3.7-5,6-7c1.7-1.5,3.6-2.4,5.8-2.9
			c2.5-0.6,4.9-1.3,7.4-2c0.2,0,0.5-0.3,0.7-0.4c0-0.1,0-0.2,0-0.3c-1-0.2-1.9-0.5-2.9-0.7c-2.2-0.5-4.3-0.9-6.4-1.5
			c-2.8-0.8-5.4-2.1-7.5-4c-1.3-1.2-2.6-2.6-3.8-3.9c-3.1-3.3-7-5.6-11.3-7.3c-1.2-0.4-2.4-0.9-3.6-1c-2.6-0.2-5.3-0.3-7.9-0.4
			c-1.7,0-3.4-0.1-5.1-0.1C234.8,350,234.3,350.1,233.7,350.1z"/>
		<path d="M285.4,408.6c-1.7,0-3.4,0-5.1,0c-1.6,0-3.2,0.2-4.8,0.2c-0.5,0-1.1,0-1.7,0c-0.8-0.1-1.1-0.6-0.8-1.3
			c0.4-0.8,0.9-1.6,1.5-2.3c0.5-0.6,1.2-1.2,1.9-1.8c3.8-3.6,7-7.6,9.9-11.9c4.5-6.8,8.5-13.9,11.4-21.6c1.2-3.3,2.6-6.7,3.7-10
			c0.5-1.5,0.8-3,1.2-4.6c0.2-1,0.8-2,1.5-2.8c0.3-0.4,0.7-0.4,1.1,0c0.7,0.6,0.9,1.5,1.2,2.4c1.1,3.2,2.1,6.5,3.2,9.7
			c2.5,7.1,5.8,13.9,9.1,20.6c2.2,4.5,5.1,8.6,8.2,12.5c2.4,2.9,4.9,5.7,7.3,8.6c0.1,0.1,0.2,0.2,0.3,0.3c0.6,0.8,0.4,1.6-0.5,2
			c-0.3,0.1-0.8,0.2-1.1,0.1c-4.1-0.7-8.3-0.8-12.4-1.2c-1.2-0.1-2.4-0.1-3.5-0.1c-2.8,0-5.6,0-8.5,0c-1,0-2.1,0.2-3.1,0.3
			c-1.3,0.1-2.6,0.1-3.9,0.2c-2.2,0-4.4,0-6.6,0.1c-2.7,0.1-5.4,0.2-8,0.3c-0.5,0-1.1,0-1.7,0C285.4,408.5,285.4,408.5,285.4,408.6z
			"/>
	</g>
	<g>
		<g>
			<path fill="#FFFFFF" d="M99.3,453.1c-3.4,0.6-6.4,0.2-8.9-1.3c-2.6-1.5-4.1-3.8-4.7-7c-0.6-3.1,0.1-5.8,1.9-8.2s4.5-3.8,7.8-4.4
				l0.3-0.1c3.4-0.6,6.3-0.2,8.9,1.3s4.2,3.8,4.7,6.9c0.6,3.1-0.1,5.9-1.9,8.2c-1.9,2.4-4.5,3.8-7.8,4.5L99.3,453.1z M98.8,448.4
				c2.4-0.4,4.2-1.3,5.5-2.6c1.3-1.3,1.8-2.9,1.4-4.8s-1.4-3.3-3-3.9c-1.7-0.7-3.7-0.8-6.1-0.3l-0.4,0.1c-2.4,0.5-4.3,1.3-5.6,2.5
				c-1.3,1.2-1.8,2.8-1.4,4.8s1.4,3.3,3,4c1.7,0.7,3.7,0.8,6.1,0.4L98.8,448.4z"/>
			<path fill="#FFFFFF" d="M91,456.2l0.9,2.1l10.6-2v-2.5l2.8-0.5l1.3,6.8l-2.5,0.7c1,0.2,1.8,0.6,2.4,1.2c0.6,0.5,1,1.2,1.2,2.1
				c0,0.2,0.1,0.5,0.1,0.8s0,0.5,0,0.7l-4.3,0.3l-0.3-1.9c-0.1-0.7-0.4-1.2-0.7-1.6c-0.3-0.4-0.8-0.7-1.3-0.8l-8.3,1.6l-0.1,2.3
				L90,466l-1.7-9.1L91,456.2z"/>
			<path fill="#FFFFFF" d="M94.7,479.7c-0.9-0.4-1.6-0.9-2.2-1.6c-0.5-0.7-0.9-1.5-1.1-2.4c-0.4-2.1,0.1-3.9,1.4-5.3
				c1.3-1.5,3.3-2.4,5.8-2.9l0.3-0.1c2.7-0.5,5-0.3,6.9,0.5s3,2.4,3.4,4.5c0.2,0.9,0.1,1.7-0.1,2.4c-0.2,0.8-0.7,1.5-1.3,2.1
				l6.1-1.1v-2.6l2.8-0.5l0.5,2.5l0.9,4.6l-21.5,4l-0.1,2.3l-2.8,0.5l-1.2-6.2L94.7,479.7z M99.5,472.1c-1.5,0.3-2.6,0.8-3.4,1.4
				c-0.8,0.7-1,1.6-0.8,2.7c0.1,0.7,0.4,1.2,0.7,1.7c0.4,0.4,0.8,0.8,1.4,1l7.3-1.4c0.5-0.4,0.8-0.9,1-1.5c0.2-0.5,0.3-1.2,0.1-1.8
				c-0.2-1.1-0.9-1.9-2-2.2c-1.1-0.3-2.5-0.3-4.1,0L99.5,472.1z"/>
			<path fill="#FFFFFF" d="M95.1,495.5c-0.5-2.5,0-4.6,1.3-6.4s3.2-2.9,5.6-3.3l0.6-0.1c2.5-0.5,4.8-0.2,6.7,0.9
				c1.9,1.1,3.1,2.8,3.5,5.2c0.4,2.3,0.1,4.2-1.1,5.8c-1.2,1.5-2.9,2.5-5.3,3l-2.5,0.5l-1.9-10.2h-0.1c-1.1,0.3-2,0.8-2.6,1.7
				c-0.6,0.8-0.8,1.8-0.6,2.9c0.2,1,0.5,1.9,0.8,2.5s0.8,1.3,1.4,2l-2.6,1.8c-0.7-0.6-1.3-1.4-1.9-2.5
				C95.8,498.1,95.4,496.9,95.1,495.5z M109.3,492.5c-0.2-0.9-0.6-1.5-1.4-1.8s-1.7-0.5-2.8-0.4l-0.1,0.1l1.1,5.7l0.4-0.1
				c1-0.2,1.7-0.6,2.2-1.1S109.5,493.4,109.3,492.5z"/>
			<path fill="#FFFFFF" d="M99.8,503.6l0.9,2.1l10.6-2v-2.5l2.8-0.5l1.3,6.8l-2.5,0.7c1,0.2,1.7,0.6,2.4,1.2c0.6,0.5,1,1.2,1.2,2.1
				c0,0.2,0.1,0.5,0.1,0.8c0,0.3,0,0.5,0,0.7l-4.3,0.3l-0.3-1.9c-0.1-0.7-0.4-1.2-0.7-1.6s-0.8-0.7-1.3-0.8l-8.3,1.5l-0.1,2.3
				l-2.8,0.5l-1.7-9.1L99.8,503.6z"/>
			<path fill="#FFFFFF" d="M109.3,522.1c2.6-0.5,4.8-0.2,6.7,0.9c1.9,1.1,3.1,2.9,3.6,5.4s0.1,4.7-1.3,6.4s-3.3,2.9-5.9,3.4
				l-0.3,0.1c-2.6,0.5-4.8,0.2-6.7-0.9s-3.1-2.9-3.6-5.4s-0.1-4.7,1.2-6.4s3.3-2.9,5.9-3.4L109.3,522.1z M109.9,526.8
				c-1.6,0.3-2.8,0.8-3.6,1.6c-0.8,0.7-1.1,1.7-0.9,2.9s0.9,2,1.9,2.3c1.1,0.4,2.4,0.4,3.9,0.1l0.3-0.1c1.5-0.3,2.7-0.8,3.5-1.6
				c0.8-0.7,1.2-1.7,0.9-2.9s-0.9-2-2-2.3c-1.1-0.4-2.4-0.4-3.9-0.1L109.9,526.8z"/>
			<path fill="#FFFFFF" d="M107,542l1.1,2l10.4-3.2l-0.8-2.5l3.2-1l0.8,2.5l1.9-0.6c1.9-0.6,3.5-0.5,4.8,0.3
				c1.3,0.8,2.3,2.1,2.9,4.1c0.1,0.4,0.2,0.8,0.3,1.2s0.1,0.9,0.2,1.4l-3.5,0.6c0-0.3-0.1-0.5-0.1-0.7s-0.1-0.5-0.2-0.8
				c-0.2-0.7-0.6-1.2-1.1-1.5s-1.1-0.3-1.9,0l-1.8,0.6l1,3.3l-3.2,1l-1-3.3l-10.4,3.2l0.2,2.3l-2.7,0.8l-2.7-8.8L107,542z"/>
			<path fill="#FFFFFF" d="M133.6,557.4l-3.4,2.6l1.9,2.4l-2.6,2l-1.9-2.4l-7,5.5c-0.5,0.4-0.8,0.8-0.9,1.2s0.1,0.8,0.4,1.2
				c0.2,0.3,0.4,0.5,0.6,0.6c0.2,0.2,0.4,0.4,0.6,0.6l-2.4,2.4c-0.5-0.3-0.9-0.6-1.3-1s-0.8-0.8-1.1-1.2c-1-1.3-1.4-2.5-1.3-3.8
				s1-2.5,2.5-3.7l7-5.5l-1.6-2l2.6-2l1.6,2l3.4-2.6L133.6,557.4z"/>
			<path fill="#FFFFFF" d="M124.9,576.2l2.2,0.8l9.5-15.9l-1.9-1.7l1.5-2.4l6.2,3.7l-5.1,8.5c0.9-0.4,1.8-0.6,2.7-0.6
				s1.8,0.3,2.6,0.8c1.6,0.9,2.5,2.2,2.8,3.8s-0.2,3.4-1.5,5.6l-3.6,6l1.7,1.6l-1.4,2.4l-7.7-4.6l1.4-2.4l2,0.6l3.6-6.1
				c0.7-1.2,1-2.1,0.9-2.8s-0.6-1.3-1.4-1.8c-0.6-0.3-1.1-0.5-1.7-0.6c-0.5,0-1.1,0-1.6,0.2l-4.9,8.1l1.5,1.5l-1.4,2.4l-7.7-4.6
				L124.9,576.2z"/>
			<path fill="#FFFFFF" d="M151.7,591c-2.4-0.6-4.2-1.8-5.3-3.7s-1.4-4.1-0.8-6.5l0.1-0.6c0.6-2.5,1.8-4.4,3.6-5.7s3.8-1.7,6.1-1.1
				c2.3,0.5,3.9,1.7,4.8,3.3c0.9,1.7,1.1,3.7,0.6,6l-0.6,2.5l-10.1-2.4l-0.1,0.1c-0.2,1.1,0,2.1,0.5,3s1.3,1.5,2.4,1.7
				c1,0.2,1.9,0.3,2.6,0.3c0.7,0,1.5-0.2,2.4-0.4l0.6,3.1c-0.8,0.4-1.8,0.6-3.1,0.8C154.4,591.4,153.1,591.3,151.7,591z
				 M154.7,576.8c-0.8-0.2-1.6,0-2.2,0.5c-0.6,0.5-1.1,1.3-1.5,2.3v0.1l5.6,1.3l0.1-0.4c0.2-1,0.2-1.8-0.1-2.5
				C156.2,577.5,155.6,577,154.7,576.8z"/>
			<path fill="#FFFFFF" d="M170.2,590.1l1.7-0.2l7.3-20.3h4.8l6.9,20.5l1.7,0.3v2.8l-8-0.1v-2.8l1.6-0.3l-1-3.2l-7.6-0.1l-1.1,3.2
				l1.6,0.3v2.8l-8-0.1L170.2,590.1z M178.7,583.2h5.4l-2.6-8.3h-0.1L178.7,583.2z"/>
			<path fill="#FFFFFF" d="M193.7,590.2l2.3-0.5v-10.8l-2.5-0.5v-2.8h6.9l0.2,2.5c0.4-0.9,0.9-1.6,1.6-2.1c0.6-0.5,1.4-0.8,2.2-0.8
				c0.2,0,0.5,0,0.8,0.1c0.3,0,0.5,0.1,0.7,0.1l-0.5,4.3h-1.9c-0.7,0-1.3,0.1-1.7,0.4s-0.8,0.7-1,1.1v8.5l2.3,0.5v2.8h-9.2v-2.8
				H193.7z"/>
			<path fill="#FFFFFF" d="M206.8,590.2l2.3-0.5v-10.8l-2.5-0.5v-2.8h6.9l0.2,2.5c0.4-0.9,0.9-1.6,1.6-2.1c0.6-0.5,1.4-0.8,2.2-0.8
				c0.2,0,0.5,0,0.8,0.1c0.3,0,0.5,0.1,0.7,0.1l-0.5,4.3h-1.9c-0.7,0-1.3,0.1-1.7,0.4s-0.8,0.7-1,1.1v8.5l2.3,0.5v2.8H207v-2.8
				H206.8z"/>
			<path fill="#FFFFFF" d="M219.2,584.1c0-2.6,0.7-4.7,2.2-6.4s3.5-2.5,6-2.5c2.6,0,4.6,0.8,6.1,2.5s2.2,3.8,2.2,6.4v0.3
				c0,2.6-0.7,4.8-2.2,6.4c-1.5,1.6-3.5,2.5-6,2.5c-2.6,0-4.6-0.8-6.1-2.5c-1.5-1.6-2.2-3.8-2.2-6.4V584.1z M223.9,584.4
				c0,1.6,0.3,2.9,0.8,3.8c0.6,1,1.5,1.4,2.7,1.4s2.1-0.5,2.7-1.4c0.6-1,0.8-2.2,0.8-3.8v-0.3c0-1.5-0.3-2.8-0.9-3.8
				s-1.5-1.5-2.7-1.5s-2.1,0.5-2.7,1.5s-0.8,2.2-0.8,3.8L223.9,584.4L223.9,584.4z"/>
			<path fill="#FFFFFF" d="M261.7,578.4l-1.8,0.2l-3.6,14.4h-3.9l-3.2-10.4H249l-3.2,10.4h-3.9l-3.7-14.4l-1.8-0.2v-2.8h7.9v2.8
				l-1.9,0.4l1.6,8h0.1l3.3-11.2h3.2l3.3,11.2h0.1l1.6-8l-1.9-0.4v-2.8h7.9L261.7,578.4L261.7,578.4z"/>
			<path fill="#FFFFFF" d="M294.6,569.5c2.8,0,4.9,0.5,6.5,1.6s2.3,2.7,2.3,4.8c0,1.1-0.3,2.1-0.9,2.9c-0.6,0.9-1.4,1.5-2.5,1.9
				c1.4,0.3,2.5,0.9,3.2,1.9s1.1,2.1,1.1,3.4c0,2.2-0.7,3.9-2.2,5.1c-1.5,1.2-3.6,1.7-6.3,1.7h-11.5V590l2.5-0.5v-16.8l-2.5-0.5
				v-2.8h2.5L294.6,569.5L294.6,569.5z M291.4,579.3h3.4c1.3,0,2.2-0.3,2.9-0.8s1-1.3,1-2.3c0-1.1-0.3-1.9-1-2.4s-1.7-0.8-3.1-0.8
				h-3.2L291.4,579.3L291.4,579.3z M291.4,582.6v6.8h4.3c1.2,0,2.2-0.3,2.9-0.8c0.7-0.5,1-1.3,1-2.4c0-1.1-0.3-2-0.8-2.6
				c-0.6-0.6-1.4-0.9-2.6-0.9L291.4,582.6L291.4,582.6z"/>
			<path fill="#FFFFFF" d="M305.3,584.1c0-2.6,0.7-4.7,2.2-6.4s3.5-2.5,6-2.5c2.6,0,4.6,0.8,6.1,2.5s2.2,3.8,2.2,6.4v0.3
				c0,2.6-0.7,4.8-2.2,6.4c-1.5,1.6-3.5,2.5-6,2.5c-2.6,0-4.6-0.8-6.1-2.5c-1.5-1.6-2.2-3.8-2.2-6.4V584.1z M310,584.4
				c0,1.6,0.3,2.9,0.8,3.8c0.6,1,1.5,1.4,2.7,1.4s2.1-0.5,2.7-1.4c0.6-1,0.8-2.2,0.8-3.8v-0.3c0-1.5-0.3-2.8-0.9-3.8
				s-1.5-1.5-2.7-1.5s-2.1,0.5-2.7,1.5s-0.8,2.2-0.8,3.8v0.3H310z"/>
			<path fill="#FFFFFF" d="M340.8,578.4l-1.6,0.2l-6.4,17c-0.5,1.3-1.2,2.3-2,3.2c-0.8,0.8-2.1,1.3-3.8,1.3c-0.4,0-0.8,0-1.1-0.1
				c-0.3-0.1-0.8-0.2-1.2-0.3l0.5-3.4c0.2,0,0.3,0,0.5,0.1c0.2,0,0.3,0,0.4,0c0.8,0,1.4-0.2,1.8-0.6c0.4-0.4,0.7-0.9,1-1.4l0.5-1.3
				l-5.5-14.4l-1.6-0.3v-2.8h8.5v2.8l-1.9,0.3l2.4,7l0.2,1.3h0.1l2.8-8.2l-2-0.3v-2.8h8.5L340.8,578.4L340.8,578.4z"/>
			<path fill="#FFFFFF" d="M366.4,577h-3.5l-0.6-3.2c-0.4-0.3-1-0.5-1.8-0.7s-1.6-0.3-2.5-0.3c-1.3,0-2.3,0.3-3,0.8
				s-1.1,1.2-1.1,2.1c0,0.8,0.4,1.4,1.1,2c0.7,0.5,2,1,3.8,1.6c2.6,0.7,4.6,1.7,5.9,2.9s2,2.7,2,4.7s-0.8,3.6-2.4,4.8
				s-3.7,1.7-6.3,1.7c-1.9,0-3.5-0.3-5-0.9c-1.5-0.6-2.7-1.4-3.7-2.4v-4.9h3.6l0.5,3.3c0.5,0.4,1.1,0.7,1.9,1s1.7,0.4,2.7,0.4
				c1.3,0,2.3-0.3,2.9-0.8c0.7-0.5,1-1.2,1-2.1c0-0.9-0.3-1.6-1-2.2c-0.6-0.5-1.8-1.1-3.4-1.5c-2.8-0.8-4.9-1.8-6.3-2.9
				s-2.1-2.6-2.1-4.5s0.8-3.5,2.4-4.7s3.6-1.8,6.1-1.9c1.8,0,3.4,0.3,4.9,0.8s2.7,1.3,3.7,2.2v4.7L366.4,577L366.4,577z"/>
			<path fill="#FFFFFF" d="M376.1,589.7c0.8,0,1.5-0.2,2-0.7s0.8-1.1,0.8-2h4.3v0.1c0,1.8-0.6,3.2-2,4.4s-3.1,1.8-5.1,1.8
				c-2.6,0-4.6-0.8-6-2.5s-2.1-3.8-2.1-6.3V584c0-2.6,0.7-4.7,2.2-6.3c1.4-1.7,3.5-2.5,6.2-2.5c1.4,0,2.7,0.2,3.8,0.6
				c1.1,0.4,2,1,2.8,1.8l0.1,4.7h-3.8l-0.8-2.7c-0.2-0.2-0.5-0.4-0.9-0.5c-0.3-0.1-0.7-0.2-1.2-0.2c-1.3,0-2.3,0.5-2.8,1.4
				s-0.8,2.2-0.8,3.7v0.5c0,1.6,0.3,2.8,0.8,3.8C373.9,589.2,374.8,589.7,376.1,589.7z"/>
			<path fill="#FFFFFF" d="M384.5,584.1c0-2.6,0.7-4.7,2.2-6.4s3.5-2.5,6-2.5c2.6,0,4.6,0.8,6.1,2.5s2.2,3.8,2.2,6.4v0.3
				c0,2.6-0.7,4.8-2.2,6.4c-1.5,1.6-3.5,2.5-6,2.5c-2.6,0-4.6-0.8-6.1-2.5c-1.5-1.6-2.2-3.8-2.2-6.4V584.1z M389.2,584.4
				c0,1.6,0.3,2.9,0.8,3.8c0.6,1,1.5,1.4,2.7,1.4s2.1-0.5,2.7-1.4c0.6-1,0.8-2.2,0.8-3.8v-0.3c0-1.5-0.3-2.8-0.9-3.8
				s-1.5-1.5-2.7-1.5s-2.1,0.5-2.7,1.5s-0.8,2.2-0.8,3.8v0.3H389.2z"/>
			<path fill="#FFFFFF" d="M414.3,590.8c-0.6,0.8-1.2,1.4-2.1,1.9c-0.8,0.4-1.8,0.7-2.8,0.7c-1.8,0-3.3-0.6-4.3-1.8s-1.6-3-1.6-5.5
				v-7.2l-1.9-0.5v-2.8h1.9h4.7v10.6c0,1.3,0.2,2.2,0.6,2.7c0.4,0.6,1.1,0.8,1.9,0.8c0.7,0,1.4-0.1,1.9-0.4c0.5-0.2,1-0.6,1.3-1
				v-9.4l-2.1-0.5v-2.8h2.1h4.7v14.1l2.1,0.5v2.8h-6.2L414.3,590.8z"/>
			<path fill="#FFFFFF" d="M428.8,571.3v4.3h3.1v3.3h-3.1v8.9c0,0.7,0.1,1.2,0.4,1.5s0.7,0.4,1.1,0.4c0.3,0,0.6,0,0.8,0
				c0.2,0,0.5-0.1,0.8-0.1l0.4,3.4c-0.5,0.2-1,0.3-1.6,0.4c-0.5,0.1-1.1,0.1-1.7,0.1c-1.6,0-2.9-0.4-3.7-1.3
				c-0.9-0.9-1.3-2.3-1.3-4.2v-8.9h-2.6v-3.3h2.6v-4.3h4.8L428.8,571.3L428.8,571.3z"/>
			<path fill="#FFFFFF" d="M447.7,581.3l-3.2,0.1l-0.6-2.2c-0.3-0.2-0.7-0.4-1.2-0.6s-1-0.2-1.6-0.2c-0.8,0-1.5,0.2-1.9,0.6
				c-0.5,0.4-0.7,0.9-0.7,1.4s0.3,1,0.7,1.3s1.4,0.6,2.8,0.8c2.2,0.4,3.8,0.9,4.9,1.7s1.6,1.9,1.7,3.4c0.1,1.6-0.6,2.9-1.9,3.9
				s-3.1,1.6-5.3,1.7c-1.3,0-2.6-0.1-3.7-0.5s-2.1-0.9-3-1.6l-0.2-3.9l3.3-0.1l0.7,2.3c0.3,0.2,0.7,0.4,1.2,0.5s1,0.1,1.5,0.1
				c1,0,1.7-0.2,2.2-0.6c0.5-0.4,0.7-0.8,0.7-1.4c0-0.5-0.3-1-0.8-1.3s-1.5-0.7-2.8-0.9c-2.1-0.4-3.6-0.9-4.7-1.7s-1.6-1.9-1.7-3.3
				c0-1.5,0.5-2.7,1.7-3.8s2.9-1.7,5.1-1.8c1.4,0,2.6,0.1,3.9,0.4c1.2,0.3,2.2,0.8,2.9,1.3V581.3z"/>
			<path fill="#FFFFFF" d="M459.2,582.1c-1.1-2.3-1.4-4.6-0.8-6.7c0.6-2.1,2.1-3.7,4.4-4.8s4.5-1.2,6.5-0.4c2,0.9,3.6,2.5,4.7,4.8
				l0.1,0.3c1.1,2.4,1.4,4.6,0.8,6.7s-2.1,3.7-4.4,4.8s-4.5,1.2-6.5,0.4s-3.6-2.5-4.7-4.8L459.2,582.1z M463.6,580.4
				c0.7,1.4,1.5,2.5,2.4,3.1s1.9,0.7,3.1,0.1c1.1-0.5,1.7-1.3,1.8-2.5c0.1-1.1-0.2-2.4-0.9-3.8l-0.1-0.3c-0.7-1.4-1.5-2.4-2.4-3.1
				c-0.9-0.6-2-0.7-3.1-0.2s-1.7,1.3-1.8,2.5c-0.1,1.1,0.2,2.4,0.9,3.8L463.6,580.4z"/>
			<path fill="#FFFFFF" d="M480.6,577.3l1.3-1.9l-7.3-8l-1.9,1.8l-2.2-2.4l1.9-1.8l-1.3-1.4c-1.3-1.4-1.9-2.9-1.8-4.5
				c0.1-1.5,0.9-3,2.4-4.4c0.3-0.3,0.6-0.5,1-0.8c0.3-0.2,0.7-0.5,1.2-0.7l2.1,2.8c-0.2,0.1-0.4,0.3-0.6,0.4
				c-0.2,0.1-0.4,0.3-0.7,0.5c-0.6,0.5-0.8,1.1-0.9,1.6c0,0.6,0.3,1.1,0.8,1.7l1.3,1.4l2.6-2.3l2.2,2.4l-2.6,2.3l7.3,8l2-1.2
				l1.9,2.1l-6.8,6.3L480.6,577.3z"/>
			<path fill="#FFFFFF" d="M496.8,558.3l0.2-1.7l-18-12l1.2-4.7l21.5-1.8l0.7-1.6l2.7,0.7l-2,7.7l-2.7-0.7l0.1-1.6l-3.4,0.2
				l-1.9,7.4l2.9,1.8l0.7-1.5l2.7,0.7l-2,7.7L496.8,558.3z M492.1,548.3l1.3-5.2l-8.7,0.5v0.1L492.1,548.3z"/>
			<path fill="#FFFFFF" d="M490.3,533.4l-2.8-0.5l1.3-6.8l2.3,0.2c-0.7-0.7-1.2-1.5-1.5-2.4s-0.3-1.9-0.1-3c0.2-1.1,0.6-2,1.3-2.7
				s1.5-1.1,2.5-1.4c-0.8-0.7-1.4-1.5-1.8-2.5s-0.4-2-0.2-3.1c0.3-1.7,1.1-2.9,2.5-3.7c1.3-0.8,3.2-0.9,5.6-0.5l7.1,1.3l0.9-2.1
				l2.8,0.5l-1.6,8.9l-2.8-0.5l-0.1-2.1l-7.1-1.3c-1.3-0.2-2.2-0.2-2.8,0.1c-0.6,0.3-1,0.9-1.1,1.7c-0.1,0.7-0.1,1.3,0.1,1.8
				s0.5,1,1,1.4c0.2,0,0.4,0.1,0.5,0.1s0.3,0,0.4,0.1l8,1.5l0.8-1.8l2.8,0.5l-1.6,8.3l-2.8-0.5l-0.1-2l-7.1-1.3
				c-1.3-0.2-2.2-0.2-2.8,0.1c-0.6,0.3-1,0.9-1.1,1.8c-0.1,0.6-0.1,1.2,0.1,1.7s0.4,1,0.8,1.4l9.3,1.7l0.8-1.9l2.8,0.5l-1.6,8.8
				l-2.8-0.5l-0.1-2.3l-10.6-2L490.3,533.4z"/>
			<path fill="#FFFFFF" d="M512,498.1c-0.5,2.5-1.6,4.3-3.5,5.5s-4,1.6-6.4,1.1l-0.6-0.1c-2.5-0.5-4.5-1.6-5.9-3.3
				c-1.4-1.7-1.9-3.7-1.4-6.1c0.4-2.3,1.5-4,3.1-5s3.6-1.3,6-0.9l2.5,0.5l-1.9,10.2h0.1c1.1,0.1,2.1-0.1,3-0.6s1.4-1.4,1.6-2.5
				c0.2-1,0.2-1.9,0.2-2.6c-0.1-0.7-0.3-1.5-0.6-2.4l3.1-0.7c0.4,0.8,0.7,1.8,0.9,3C512.3,495.5,512.3,496.8,512,498.1z
				 M497.7,495.9c-0.2,0.9,0,1.6,0.6,2.2s1.4,1.1,2.4,1.4h0.1l1-5.7l-0.4-0.1c-1-0.2-1.8-0.1-2.5,0.3
				C498.3,494.4,497.9,495,497.7,495.9z"/>
			<path fill="#FFFFFF" d="M510.5,488.9l-0.1-2.3l-10.6-2l-0.9,2.4l-2.8-0.5l1.3-6.8l2.5,0.3c-0.8-0.6-1.4-1.2-1.8-1.9
				c-0.4-0.7-0.5-1.5-0.3-2.3c0-0.2,0.1-0.5,0.2-0.8s0.2-0.5,0.3-0.6l4.1,1.3l-0.4,1.9c-0.1,0.7-0.1,1.3,0.1,1.8s0.5,0.9,0.9,1.2
				l8.3,1.5l0.9-2.1l2.8,0.5l-1.7,9.1L510.5,488.9z"/>
			<path fill="#FFFFFF" d="M495.6,466.3l-0.9,4.6l-3.5-0.6l0.9-4.6L495.6,466.3z M512.8,476.6l-0.1-2.3l-10.6-2l-0.9,2.4l-2.8-0.5
				l1.3-7.1l13.9,2.6l0.9-2.1l2.8,0.5l-1.7,9.1L512.8,476.6z"/>
			<path fill="#FFFFFF" d="M515.7,458.7c0.2-0.8,0-1.5-0.4-2.1s-1-1-1.8-1.1l0.8-4.2h0.1c1.7,0.3,3.1,1.2,4,2.8
				c0.9,1.6,1.2,3.3,0.8,5.3c-0.5,2.6-1.6,4.4-3.5,5.5s-4.1,1.4-6.6,0.9l-0.5-0.1c-2.5-0.5-4.5-1.6-5.8-3.3
				c-1.4-1.7-1.8-3.9-1.3-6.5c0.3-1.4,0.7-2.6,1.3-3.6c0.6-1,1.4-1.8,2.3-2.4l4.6,0.8l-0.7,3.8l-2.8,0.3c-0.2,0.2-0.5,0.4-0.7,0.8
				c-0.2,0.3-0.3,0.7-0.4,1.1c-0.2,1.3,0.1,2.3,0.9,3s2,1.2,3.5,1.5l0.5,0.1c1.5,0.3,2.8,0.3,3.8-0.1S515.4,459.9,515.7,458.7z"/>
			<path fill="#FFFFFF" d="M522.4,440.1c-0.3,0.1-0.6,0.1-0.9,0.2c-0.3,0-0.6,0.1-1,0.1c0.5,0.7,0.9,1.4,1.2,2.3
				c0.2,0.9,0.3,1.8,0.1,2.8c-0.3,1.7-1,2.9-2.1,3.7s-2.4,1.1-4,0.8c-1.6-0.3-2.7-1.2-3.4-2.6c-0.6-1.5-0.7-3.4-0.3-5.9l0.4-2.4
				l-1.7-0.3c-0.8-0.2-1.5,0-2,0.4s-0.9,1.1-1.1,2c-0.1,0.5-0.1,1-0.1,1.4s0.1,0.8,0.3,1.1l1.8,0.6l-0.6,3.5l-3.8-0.7
				c-0.4-1-0.7-2-0.9-3.2c-0.2-1.2-0.2-2.4,0.1-3.7c0.4-2.1,1.2-3.8,2.5-4.9s2.9-1.5,4.8-1.2l7.1,1.3c0.3,0,0.5,0.1,0.7,0.1
				s0.5,0.1,0.7,0.1l0.5-1.4l2.8,0.5L522.4,440.1z M518.6,443.5c0.1-0.7,0.1-1.4-0.1-2c-0.2-0.6-0.5-1.1-0.9-1.5l-2.6-0.5l-0.4,2.4
				c-0.2,1-0.1,1.8,0.3,2.4s0.9,0.9,1.5,1.1c0.6,0.1,1.1,0,1.5-0.3S518.5,444.2,518.6,443.5z"/>
		</g>
		<g>
			<path fill="#FFFFFF" d="M68,355.3l0.9,2.8l32.2,1.6l1.2,6.6L80,377v0.1l24.7,2.2l1.2,6.6l-29.6,12.8l0.2,2.9l-4.3,0.8l-2.3-13
				l4.3-0.8l1.1,3.1l18.8-7.6V384l-25.6-2.2l-0.9-5.2l23.2-11.1l-0.1-0.1l-20.2-0.5v3.3L66,369l-2.3-13L68,355.3z"/>
			<path fill="#FFFFFF" d="M97.7,332.2c-0.4,0.2-0.9,0.4-1.3,0.6c-0.5,0.2-0.9,0.3-1.4,0.4c1.1,0.8,1.9,1.8,2.6,2.9
				c0.7,1.2,1.1,2.6,1.2,4.1c0.2,2.6-0.4,4.7-1.7,6.3c-1.3,1.6-3.2,2.5-5.7,2.7s-4.5-0.7-6-2.6s-2.4-4.8-2.7-8.6l-0.3-3.7l-2.6,0.2
				c-1.3,0.1-2.3,0.5-2.9,1.3c-0.7,0.8-0.9,1.9-0.8,3.3c0.1,0.8,0.2,1.5,0.4,2.2c0.2,0.6,0.5,1.1,0.8,1.5l2.9,0.3l0.4,5.4l-6,0.4
				c-1-1.2-1.8-2.7-2.6-4.3c-0.7-1.7-1.2-3.5-1.3-5.5c-0.2-3.3,0.4-6,1.9-8.2s3.7-3.4,6.7-3.6l11.1-0.8c0.4,0,0.8-0.1,1.2-0.1
				c0.4,0,0.7-0.1,1-0.2l0.1-2.2l4.3-0.3L97.7,332.2z M93.3,338.8c-0.1-1.1-0.4-2-0.9-2.9s-1.2-1.5-1.9-1.9l-4.1,0.3l0.3,3.7
				c0.1,1.5,0.5,2.7,1.3,3.4s1.7,1.1,2.7,1c0.9-0.1,1.6-0.4,2.1-1S93.4,339.8,93.3,338.8z"/>
			<path fill="#FFFFFF" d="M95.7,305.3c1.1,1,2,2.2,2.5,3.5s0.7,2.8,0.5,4.4c-0.4,2.8-1.5,4.9-3.5,6.2c-2,1.4-4.9,1.8-8.7,1.3
				l-11-1.4l-1.1,2.8l-4.3-0.5l0.4-2.9l0.9-7.1l16.1,2c1.9,0.2,3.4,0.1,4.3-0.4s1.5-1.4,1.6-2.7c0.1-1.1,0.1-2.1-0.2-3
				s-0.7-1.6-1.3-2.2l-14.4-1.8l-1.1,3l-4.3-0.5l0.4-3.1l0.9-7.1l21.6,2.7l1.1-3.1l4.3,0.5l-1.2,9.4L95.7,305.3z"/>
			<path fill="#FFFFFF" d="M95.2,293.7l0.6-3.5l-15.4-6.4l-2.1,3.2l-4-1.7l4-9.7l3.7,1.2c-0.9-1.3-1.5-2.8-1.7-4.2
				c-0.2-1.5,0-3,0.6-4.5c1-2.5,2.6-4.1,4.8-4.8c2.2-0.7,4.9-0.4,8.3,1l10.8,4.5l2-2.9l4,1.7l-5.2,12.7l-4-1.7l0.5-3.1l-11-4.5
				c-1.7-0.7-3-0.8-4-0.5c-1,0.4-1.7,1.2-2.3,2.6c-0.4,0.9-0.5,1.7-0.4,2.6c0.1,0.8,0.3,1.6,0.8,2.4l13.3,5.5l1.8-2.4l4,1.7
				l-5.2,12.5L95.2,293.7z"/>
			<path fill="#FFFFFF" d="M121.2,254.2c-0.5-0.1-0.9-0.3-1.4-0.4c-0.5-0.2-0.9-0.4-1.3-0.6c0.3,1.3,0.3,2.6,0,3.9
				c-0.3,1.3-0.9,2.6-1.8,3.9c-1.6,2.1-3.4,3.3-5.5,3.6c-2.1,0.3-4.1-0.3-6-1.8c-2-1.5-2.9-3.5-2.8-5.9s1.4-5.2,3.8-8.2l2.2-2.9
				l-2.1-1.6c-1-0.8-2-1.1-3.1-1c-1,0.1-2,0.8-2.8,1.9c-0.5,0.6-0.9,1.3-1.1,1.9c-0.2,0.6-0.4,1.2-0.4,1.6l2,2.1l-3.3,4.3l-4.7-3.7
				c0.1-1.6,0.4-3.2,1-5s1.4-3.4,2.7-5c2-2.6,4.3-4.2,6.9-4.9c2.6-0.6,5,0,7.4,1.8l8.8,6.8c0.3,0.3,0.6,0.5,0.9,0.7s0.6,0.4,0.9,0.6
				l1.6-1.5l3.4,2.7L121.2,254.2z M113.6,256.1c0.7-0.9,1.1-1.8,1.2-2.8c0.2-1,0.1-1.9-0.1-2.7l-3.2-2.5l-2.2,2.9
				c-0.9,1.2-1.4,2.3-1.3,3.4c0.1,1.1,0.5,1.9,1.3,2.5c0.7,0.6,1.5,0.8,2.2,0.6C112.2,257.4,112.9,256.9,113.6,256.1z"/>
			<path fill="#FFFFFF" d="M134.9,240l-2.2-3.8l2.9-2.6l-13-22.5l-3.7,1.3l-2.2-3.8l3.3-1.9l6.2-3.6l3.3-1.9l2.2,3.8l-3,2.6
				l12.7,22.1l8.8-5.1l-2-4.1l4.8-2.7l5.1,8.8L134.9,240z"/>
			<path fill="#FFFFFF" d="M175.2,222.8c-0.3-0.4-0.6-0.8-0.8-1.2s-0.5-0.9-0.7-1.3c-0.6,1.2-1.4,2.2-2.4,3.1s-2.3,1.5-3.8,1.9
				c-2.5,0.6-4.7,0.4-6.5-0.6s-3.1-2.7-3.7-5.1c-0.6-2.4-0.1-4.6,1.5-6.4c1.6-1.8,4.3-3.2,8-4.1l3.6-0.9l-0.6-2.6
				c-0.3-1.3-0.9-2.1-1.8-2.6c-0.9-0.5-2-0.6-3.4-0.2c-0.8,0.2-1.5,0.5-2.1,0.8s-1,0.7-1.3,1l0.2,2.9l-5.3,1.3l-1.4-5.8
				c1.1-1.2,2.3-2.3,3.8-3.3s3.2-1.8,5.2-2.2c3.2-0.8,6-0.7,8.4,0.4c2.4,1.1,4,3.1,4.7,6l2.7,10.8c0.1,0.4,0.2,0.8,0.3,1.1
				c0.1,0.4,0.2,0.7,0.3,1l2.2-0.2l1.1,4.2L175.2,222.8z M168,219.7c1.1-0.3,1.9-0.7,2.7-1.4c0.7-0.7,1.3-1.4,1.6-2.2l-1-4l-3.6,0.9
				c-1.5,0.4-2.5,1-3.1,1.9s-0.8,1.8-0.5,2.8c0.2,0.9,0.7,1.5,1.4,1.9C166.2,219.9,167,219.9,168,219.7z"/>
			<path fill="#FFFFFF" d="M198.9,207.6l-13.9,0.8l-0.3-5.6l13.9-0.8L198.9,207.6z"/>
			<path fill="#FFFFFF" d="M238,193.8h-0.1l-9.6,26.8h-4.8l-9.5-26.7h-0.1l0.7,15.9v5.7l3.8,0.7v4.3h-14.8v-4.3l3.8-0.7v-26
				l-3.8-0.7v-4.4h3.8h9.4l9.1,26.7h0.1l9.2-26.7h13.2v4.4l-3.8,0.7v26l3.8,0.7v4.3h-14.8v-4.3l3.8-0.7v-5.7L238,193.8z"/>
			<path fill="#FFFFFF" d="M251.1,206.9c0-4,1.1-7.3,3.3-9.9s5.3-3.8,9.2-3.8s7,1.3,9.2,3.8s3.3,5.8,3.3,9.9v0.5
				c0,4-1.1,7.3-3.3,9.9s-5.3,3.8-9.2,3.8c-4,0-7-1.3-9.3-3.8s-3.3-5.8-3.3-9.9v-0.5H251.1z M258.3,207.4c0,2.5,0.4,4.4,1.3,5.9
				s2.2,2.2,4.1,2.2s3.2-0.7,4.1-2.2s1.3-3.5,1.3-5.9v-0.5c0-2.4-0.4-4.3-1.3-5.8s-2.2-2.3-4.1-2.3s-3.2,0.8-4.1,2.3
				s-1.3,3.5-1.3,5.8V207.4z"/>
			<path fill="#FFFFFF" d="M279,216.3l3.4-0.7v-16.7l-3.8-0.7v-4.4h10.5l0.3,3.9c0.9-1.4,2-2.4,3.3-3.2s2.7-1.1,4.4-1.1
				c2.7,0,4.8,0.9,6.3,2.6c1.5,1.7,2.3,4.4,2.3,8v11.7l3.4,0.7v4.3h-13.7v-4.3l3.1-0.7V204c0-1.8-0.4-3.1-1.1-3.8
				c-0.7-0.8-1.8-1.1-3.3-1.1c-1,0-1.8,0.2-2.6,0.6c-0.8,0.4-1.4,0.9-1.9,1.7v14.4l2.9,0.7v4.3H279V216.3z"/>
			<path fill="#FFFFFF" d="M315.2,186.6c0,1.7-0.4,3.4-1.3,5.2s-1.9,3.3-3.2,4.5l-3.5-2c0.6-1.1,1.1-2.3,1.5-3.6
				c0.3-1.2,0.5-2.6,0.5-4.2v-4.7h6V186.6z"/>
			<path fill="#FFFFFF" d="M365.7,220.6c-0.2-0.4-0.4-0.9-0.5-1.4s-0.3-0.9-0.3-1.4c-0.9,1-1.9,1.8-3.1,2.4
				c-1.2,0.6-2.6,0.9-4.2,0.9c-2.6,0-4.7-0.7-6.2-2.1c-1.5-1.4-2.3-3.4-2.3-5.9s1-4.5,3-5.8c2-1.4,4.9-2.1,8.8-2.1h3.7v-2.6
				c0-1.3-0.4-2.3-1.1-3s-1.8-1.1-3.3-1.1c-0.8,0-1.6,0.1-2.2,0.3s-1.2,0.4-1.6,0.7l-0.5,2.9h-5.4v-6c1.3-0.9,2.8-1.6,4.5-2.3
				c1.7-0.6,3.5-0.9,5.5-0.9c3.3,0,6,0.8,8,2.4s3.1,4,3.1,7v11.1c0,0.4,0,0.8,0,1.2s0,0.7,0.1,1l2.2,0.3v4.3h-8.2V220.6z
				 M359.5,215.8c1.1,0,2.1-0.2,3-0.7s1.6-1.1,2.1-1.8v-4.1h-3.7c-1.5,0-2.7,0.4-3.5,1.1c-0.8,0.7-1.2,1.6-1.2,2.6
				c0,0.9,0.3,1.6,0.9,2.1C357.6,215.5,358.4,215.8,359.5,215.8z"/>
			<path fill="#FFFFFF" d="M405.6,198.1l-2.5,0.4l-9.8,26.2c-0.8,1.9-1.8,3.6-3.1,4.9c-1.3,1.3-3.2,2-5.8,2c-0.6,0-1.2-0.1-1.7-0.2
				c-0.5-0.1-1.2-0.2-1.9-0.4l0.8-5.3c0.2,0,0.5,0.1,0.7,0.1s0.5,0.1,0.6,0.1c1.2,0,2.1-0.3,2.8-0.9c0.6-0.6,1.1-1.3,1.5-2.2l0.8-2
				l-8.4-22.1l-2.5-0.4v-4.4h13v4.4l-3,0.5l3.6,10.7l0.4,1.9h0.1l4.2-12.7l-3-0.5v-4.4h13L405.6,198.1z"/>
			<path fill="#FFFFFF" d="M418.2,220.7l0.9-4.3h3.9l5.2-25.4l-3.6-1.5l0.9-4.3l3.7,0.8l7,1.4l3.8,0.8l-0.9,4.3h-3.9l-5.1,25l9.9,2
				l1.3-4.4l5.4,1.1l-2,9.9L418.2,220.7z"/>
			<path fill="#FFFFFF" d="M451.5,213.1c1.8-3.6,4.3-6,7.4-7.3s6.5-1,10,0.7c3.5,1.8,5.7,4.3,6.5,7.6s0.3,6.7-1.5,10.3l-0.2,0.5
				c-1.8,3.6-4.3,6-7.4,7.3s-6.4,1-9.9-0.7c-3.5-1.8-5.7-4.3-6.6-7.6c-0.8-3.3-0.4-6.7,1.5-10.3L451.5,213.1z M457.7,216.8
				c-1.1,2.2-1.6,4.1-1.5,5.8s1,3,2.7,3.8s3.2,0.8,4.6-0.2c1.4-0.9,2.7-2.5,3.8-4.7l0.2-0.5c1.1-2.1,1.6-4.1,1.5-5.8s-1-3-2.7-3.9
				c-1.7-0.8-3.2-0.8-4.7,0.2c-1.4,1-2.7,2.5-3.8,4.6L457.7,216.8z"/>
			<path fill="#FFFFFF" d="M337.8,183.7v7.4h5.3v5.7h-5.3V212c0,1.1,0.3,2,0.8,2.5s1.1,0.8,2,0.8c0.6,0,1,0,1.4-0.1
				c0.4,0,0.9-0.1,1.4-0.2l0.7,5.9c-0.9,0.3-1.8,0.5-2.6,0.7s-1.9,0.2-2.8,0.2c-2.7,0-4.9-0.8-6.4-2.3s-2.3-4-2.3-7.3v-15.3h-4.4
				v-5.7h4.4v-7.4L337.8,183.7L337.8,183.7z"/>
			<path fill="#FFFFFF" d="M483.4,246.3c-1.5,0.3-2.8,0.4-4.1,0.1c-1.3-0.3-2.4-1-3.5-1.9c-2.4-2.2-3.4-4.9-3.1-7.9s1.8-6,4.5-8.9
				l0.4-0.4c2.9-3.1,5.9-5,9-5.7s5.9,0.1,8.3,2.4c1,0.9,1.7,1.9,2,3.1c0.4,1.2,0.5,2.4,0.4,3.7l6.6-7.1l-2.3-3.2l3-3.2l2.8,2.6
				l5.3,4.9l-22.9,24.7l2,2.9l-3,3.2l-7.1-6.6L483.4,246.3z M482.4,232.6c-1.6,1.7-2.6,3.3-2.9,4.9c-0.3,1.5,0.1,2.9,1.4,4.1
				c0.8,0.7,1.6,1.2,2.4,1.4c0.9,0.2,1.7,0.2,2.7-0.1l7.8-8.4c0.2-1,0.2-1.9,0-2.7c-0.2-0.9-0.7-1.6-1.5-2.4
				c-1.3-1.2-2.8-1.5-4.4-0.9c-1.7,0.6-3.4,1.8-5.1,3.7L482.4,232.6z"/>
			<path fill="#FFFFFF" d="M500.1,249.3c3.6-2.2,7-3.2,10.2-3c3.2,0.2,5.6,1.7,7.3,4.5c0.8,1.3,1.2,2.6,1.2,3.9c0,1.3-0.3,2.6-0.9,4
				l3.2-1.3l3.3,5.3l-22.2,13.6c-3,1.9-6,2.4-9,1.6s-5.4-2.8-7.5-6.1c-0.7-1.1-1.3-2.5-1.8-3.9c-0.5-1.5-0.8-2.9-0.9-4.4l5-1.5
				c0.2,1.2,0.4,2.4,0.8,3.6c0.4,1.1,0.9,2.2,1.5,3.3c0.9,1.5,2.1,2.3,3.4,2.5c1.4,0.2,2.9-0.2,4.5-1.2l1.5-0.9
				c-1.3-0.1-2.4-0.5-3.4-1.2c-1-0.6-1.9-1.5-2.6-2.7c-1.7-2.8-2-5.6-0.9-8.4c1.1-2.8,3.4-5.3,6.7-7.3L500.1,249.3z M503.4,255.7
				c-2,1.2-3.4,2.5-4.1,3.9s-0.6,2.8,0.3,4.3c0.6,0.9,1.2,1.6,2,2.1s1.6,0.6,2.5,0.6l10-6.1c0.5-0.8,0.7-1.7,0.7-2.5
				c0-0.9-0.3-1.8-0.9-2.7c-0.9-1.5-2.3-2.2-4-2c-1.8,0.1-3.7,0.9-5.9,2.2L503.4,255.7z"/>
			<path fill="#FFFFFF" d="M505.5,291.1c-1.2-3.7-0.9-7,0.8-9.9c1.7-2.9,4.3-5,8-6.1l0.9-0.3c3.8-1.2,7.3-1.2,10.4,0.1
				c3.1,1.3,5.2,3.7,6.3,7.2c1.1,3.4,0.9,6.4-0.6,9s-4,4.4-7.6,5.5l-3.8,1.2l-4.8-15.2h-0.2c-1.7,0.7-2.9,1.7-3.6,3
				c-0.8,1.3-0.9,2.9-0.4,4.6c0.5,1.5,1,2.7,1.7,3.6s1.5,1.8,2.5,2.8l-3.7,3.2c-1.2-0.8-2.3-1.9-3.4-3.4
				C507,294.9,506.2,293.1,505.5,291.1z M526.6,283.7c-0.4-1.3-1.2-2.1-2.4-2.5s-2.6-0.5-4.3-0.1l-0.1,0.1l2.7,8.4l0.6-0.2
				c1.5-0.5,2.5-1.2,3.2-2.1C526.9,286.3,527,285.1,526.6,283.7z"/>
			<path fill="#FFFFFF" d="M523.3,335.6v4.1h-4.8v-4.1h-3.6l-0.8,3.8h-4.3l0.1-14.8h4.3l0.7,3.8h3.6l0.1-14.6l3.6-0.3l23.9,15v7.2
				L523.3,335.6z M523.4,320.2v8.2l13,0.1l0.1-0.1l-1-0.6L523.4,320.2z"/>
			<path fill="#FFFFFF" d="M519.6,364.3l-0.6,4l-4.8-0.7l0.6-4l-3.5-0.5l-1.3,3.7l-4.3-0.6l2.1-14.7l4.3,0.6l0.2,3.9l3.5,0.5
				l2.1-14.5l3.6,0.2l21.6,18.1l-1,7.2L519.6,364.3z M521.8,349.1l-1.2,8.2l12.9,1.9l0.1-0.1l-0.9-0.7L521.8,349.1z"/>
			<path fill="#FFFFFF" d="M504.7,369.1l4.7,0.9l10.2,13.7c1.6,2,3,3.5,4.2,4.4s2.3,1.5,3.5,1.7c1.5,0.3,2.8,0.1,3.9-0.5
				c1.1-0.6,1.8-1.7,2.1-3.1c0.3-1.6,0-3-1-4c-1-1.1-2.4-1.8-4.2-2.1l1.3-6.9h0.2c3.2,0.5,5.7,2.1,7.6,4.6s2.4,5.7,1.7,9.4
				c-0.7,3.6-2.1,6.3-4.4,8s-5,2.3-8.2,1.7c-2.2-0.4-4-1.3-5.6-2.9c-1.6-1.5-3.6-3.9-6.1-7.1l-5.8-7.5h-0.1l-1.7,9.1l3.5,0.9l-1,5.4
				l-9-1.7L504.7,369.1z"/>
		</g>
	</g>
</g>
</svg>
