<?xml version="1.0" encoding="UTF-8" standalone="no"?>
<!DOCTYPE svg PUBLIC "-//W3C//DTD SVG 1.1//EN" "http://www.w3.org/Graphics/SVG/1.1/DTD/svg11.dtd">
<svg width="100%" height="100%" viewBox="0 0 720 720" version="1.1" xmlns="http://www.w3.org/2000/svg" xmlns:xlink="http://www.w3.org/1999/xlink" xml:space="preserve" xmlns:serif="http://www.serif.com/" style="fill-rule:evenodd;clip-rule:evenodd;stroke-linejoin:round;stroke-miterlimit:2;">
    <g transform="matrix(1,0,0,1,-91.5268,-288)">
        <g transform="matrix(2.26546,0,0,2.26546,-238.158,-249.71)">
            <path d="M304.1,538.5C293.4,538.4 282.6,538.3 271.9,538.3C261.8,538.3 251.7,538.8 241.6,539.3C233.5,539.7 225.5,540.1 217.4,539.8C211.8,539.6 206.1,539.2 200.5,538.3C193.2,537.2 187.1,533.8 181.8,528.7C175.8,522.8 171.2,515.9 168.8,507.8C167.1,502.2 165.6,496.5 164.1,490.8C161.2,479.5 159.3,468.1 157.3,456.6C154.1,438.2 151,419.8 147.8,401.4C145.9,390.4 145.3,379.3 145.6,368.2C145.7,361.9 146.3,355.6 147.3,349.3C148.2,343.2 150.1,337.3 152.8,331.7C153.6,330.1 154.4,328.5 155.2,326.8C157.7,321.8 159.1,316.5 159.5,311C159.8,306.6 159.9,302.3 160,297.9C160.1,293.1 160,288.2 160,283.4C160,280.6 160.2,277.7 160.6,274.9C161.4,268.7 164.4,263.8 169.2,259.8C172.1,257.3 175.5,255.9 179.4,255.5C183.4,255.1 187.4,254.8 191.4,254.6C202.8,253.9 214.3,253.1 225.7,252.4C229.1,252.2 232.5,252 235.9,252C241.3,252 245.8,254.1 249.7,257.7C253.9,261.6 256.5,266.2 257.3,271.8C257.5,273.2 257.7,274.5 258,275.9C258.7,279.4 260.5,282.5 263,285.1C264.3,286.4 265.6,287.6 267,288.7C270.1,291.1 273.8,292.2 277.8,292.5C282.4,292.8 287,293 291.6,293.5C299.6,294.2 307.6,294.3 315.6,294.1C321.5,294 327.4,293.6 333.2,293.2C338.9,292.9 343.6,290.2 347.4,286C350.5,282.7 352.5,278.8 353.4,274.4C353.6,273.1 353.9,271.8 354.3,270.6C355.8,264.4 359.6,259.8 364.9,256.4C368.3,254.2 372.1,253.6 376,253.5C383.3,253.4 390.6,254 397.9,254.4C407.4,255 417,255.6 426.5,256.2C427.6,256.2 428.6,256.4 429.7,256.5C435.8,257 440.6,260 444.6,264.5C448.8,269.1 450.8,274.5 450.9,280.7L450.9,290.6C450.9,296.6 450.8,302.7 450.9,308.8C450.9,311.8 451.2,314.8 451.5,317.8C452,322 453.4,325.9 455.2,329.6C459.9,339.1 462.2,349.2 463,359.8C463.6,368.2 463.4,376.7 462.5,385.1C461.4,395.6 459.7,405.9 458.1,416.2C457,423.3 456,430.5 454.9,437.7C452.3,453.3 449.4,468.8 445.5,484.1C443.6,491.6 441.3,499 438.9,506.3C436.6,513.1 433.4,519.4 428.7,524.9C422,533 413.6,538.1 403.3,539.8C400.2,540.3 397,540.5 393.8,540.5C386.2,540.6 378.6,540.3 371,539.7C355.9,538.7 340.7,538.6 325.5,538.6C318.3,538.6 311.1,538.5 303.9,538.5L304.1,538.5Z" style="fill:white;fill-rule:nonzero;"/>
        </g>
        <g transform="matrix(2.26546,0,0,2.26546,-238.158,-249.71)">
            <path d="M401.7,280.5L402.1,280.5C402.2,280.9 402.4,281.3 402.5,281.8C403.2,285.1 403.7,288.5 404.5,291.9C405.4,295.7 407.8,298.2 411.6,299.3C413.4,299.8 415.2,300.2 417.1,300.7C420.6,301.6 423.9,303.2 426.9,305.3C427.7,305.9 428.4,306.7 429.2,307.4C429.9,308.1 430.6,308.9 431.4,309.6C432,310.1 433.1,310.4 433.7,310C434.4,309.6 434,308.9 433.9,308.3C433.7,306.2 433.4,304.1 433.2,302C433,298.1 432.9,294.2 432.6,290.4C432.5,287.9 431.7,285.5 429.9,283.6C428.7,282.3 427.5,281 426.3,279.7C425.1,278.4 423.6,277.9 421.9,277.8C418.1,277.6 414.2,277.5 410.4,277.2C403.8,276.8 397.1,276.4 390.6,275.9C388.2,275.8 385.8,275.6 383.4,275.5C381.9,275.5 380.4,275.5 378.8,275.6C375,276 372.3,278.9 371.5,282.7C371,285.2 370.7,287.7 369.6,290C369.3,290.8 368.9,291.6 368.5,292.4C367.8,293.9 368.2,294.6 369.8,294.5L370.4,294.5C374.4,293.9 378.5,293.9 382.5,294.3C386.4,294.6 390.3,294.7 394.1,294.7C394.6,294.7 395.2,294.6 395.7,294.5C397.5,294 398.5,292.6 399,290.9C399.6,289.1 400.1,287.2 400.6,285.4C401.1,283.4 401.4,281.9 401.7,280.5Z" style="fill:white;fill-rule:nonzero;"/>
        </g>
        <g transform="matrix(2.26546,0,0,2.26546,-238.158,-249.71)">
            <path d="M208.6,277.9L208.9,277.9C209,278.2 209.1,278.6 209.1,279C209.2,280.3 209.3,281.6 209.5,282.9C209.8,285.2 210.1,287.5 210.4,289.8C210.7,292.2 212.8,293.8 215.2,293.8C218.1,293.8 221,293.4 223.9,293C225.9,292.8 227.9,292.5 230,292.6C230.9,292.6 231.9,292.7 232.8,292.7C234.9,292.8 237,292.9 239.1,293.1C241.3,293.3 241.7,292.8 240.9,290.6C240.3,288.9 240,287.1 239.6,285.4C239.4,284.2 239.3,283 239,281.8C238.7,280.1 237.7,278.8 236.6,277.5C235.1,275.5 232.9,274.6 230.5,274.5C227.3,274.4 224.1,274.5 220.9,274.9C219.3,275 217.6,275 215.9,275.1C212.2,275.3 208.5,275.6 204.8,275.8C202.4,275.9 200,276 197.6,276.2C194.2,276.4 190.8,276.7 187.4,276.8C185.1,276.9 183.3,277.7 181.8,279.4C180.4,280.9 179.4,282.6 178.9,284.6C178.5,286.4 178.2,288.3 178,290.1C177.7,292.9 177.4,295.6 177.3,298.4C177.2,300.4 177.3,302.4 177.3,304.4C177.3,305 177.7,305.3 178.2,305.2C178.7,305.2 179.4,305.1 179.9,304.8C181.1,304.2 182.3,303.4 183.4,302.7C186.2,301 189,299.7 192.2,298.8C194.5,298.2 196.7,297.6 198.9,297C201.8,296.2 204,294.4 205,291.5C205.7,289.4 206.1,287.2 206.6,285.1C207.1,282.9 207.6,280.7 208.1,278.6C208.2,278.4 208.4,278.2 208.6,277.9Z" style="fill:white;fill-rule:nonzero;"/>
        </g>
        <g transform="matrix(2.26546,0,0,2.26546,-238.158,-249.71)">
            <path d="M277.3,410.8C277.6,411.3 277.7,411.5 277.9,411.7C280.7,414.5 283,417.5 285.3,420.7C287.9,424.3 290.6,427.8 293.2,431.5C294.8,433.8 297.1,435.2 299.4,436.7C299.8,436.9 300.2,437.1 300.7,437.2C302.2,437.6 303.6,438 305.1,438.4C305.6,438.5 306.1,438.4 306.6,438.4C309.3,437.9 311.6,436.4 313.5,434.5C316.1,431.9 318.1,428.9 320.2,425.9C322,423.4 323.8,420.9 325.7,418.6C327.7,416.2 329.9,414.1 332,411.9C332.2,411.7 332.3,411.5 332.5,411.1C331.9,411 331.5,410.8 331.1,410.7C327.9,410.4 324.6,410 321.4,409.8C317.4,409.6 313.4,409.6 309.4,409.6C308.7,409.6 307.9,409.7 307.2,409.7C305.7,409.8 304.3,409.9 302.7,410L299.2,410C296.9,410.1 294.6,410.3 292.3,410.3C288.5,410.4 284.6,410.4 280.8,410.5C279.7,410.6 278.6,410.7 277.3,410.8Z" style="fill:white;fill-rule:nonzero;"/>
        </g>
        <g transform="matrix(2.26546,0,0,2.26546,-238.158,-249.71)">
            <path d="M378.5,457.9C379.2,458.6 379.3,459.3 379.4,460C379.8,461.8 380.2,463.7 380.6,465.5C381.3,468.9 382.1,472.3 382.9,475.7C383.3,477.5 383.7,479.4 384.2,481.2C384.9,484 385.6,486.7 386.3,489.4C387,492.1 387.6,494.8 388.3,497.4C388.5,498.3 388.7,498.4 389.5,498.4C390.4,498.4 390.8,498.3 391.1,497.5C392.4,494.1 393.7,490.7 394.9,487.3C396.3,483.6 397.7,479.8 399,476.1C400.4,472.2 401.8,468.3 403.3,464.4C403.6,463.6 403.8,462.8 404.5,462.1C406.9,459.8 406.7,456.1 403.6,454C402,452.9 400.3,452.1 398.4,451.5C397.2,451.2 396,451 394.9,451.4C393.4,451.9 391.9,451.7 390.4,451.3C389.7,451.1 389.2,450.8 388.9,450.1C387.7,448 385.8,447.2 383.4,447.3C381.2,447.4 378.9,447.4 376.7,447.5C375.4,447.5 374.1,447.4 372.8,447.5C369.2,447.9 365.5,447.6 361.8,447.4C361.3,447.4 360.7,447.3 360.2,447.2C359.5,447 359,446.5 358.8,445.8C358.7,445.3 358.6,444.8 358.5,444.3C357.8,442 355.4,440.5 352.9,440.7C350.4,440.9 348.3,442.8 348.1,445.2C347.9,447.5 348.1,449.7 349.4,451.6C349.9,452.3 350.2,453.2 350.4,454.1C350.7,454.9 350.8,455.9 351.1,456.7C351.8,459.6 352.6,462.5 353.4,465.5C354.5,469.6 355.5,473.7 356.6,477.8C357.5,481.2 358.4,484.5 359.4,487.9C359.8,489.6 360.3,491.2 360.8,492.9C360.9,493.4 361.1,493.7 361.6,493.9C362.5,494.2 363.2,494 363.6,493.1C365.7,488.2 367.8,483.4 369.8,478.5C372.5,472.1 375.1,465.7 377.8,459.2C377.9,458.7 378.2,458.3 378.5,457.9Z" style="fill:white;fill-rule:nonzero;"/>
        </g>
        <g transform="matrix(2.26546,0,0,2.26546,-238.158,-249.71)">
            <path d="M229.4,455.5C229.7,456.1 229.9,456.5 230.1,457C230.4,457.8 230.6,458.6 230.9,459.3C231.1,460 231.4,460.7 231.7,461.4C232.6,464.2 233.4,466.9 234.4,469.7C236.2,474.8 238.2,479.8 240.1,484.8C241,487.2 242,489.6 242.9,492C243.3,493.1 243.8,493.4 244.6,493.4C245.6,493.4 245.7,492.6 245.9,491.9C247.1,488.1 248.4,484.2 249.5,480.3C250.7,476.1 251.9,471.9 253.1,467.6C254.3,463.4 255.4,459.3 256.5,455.1C256.9,453.6 257.2,452.1 258.1,450.7C259.3,448.8 259.3,446.9 258.1,445.1C256.9,443.3 255.1,442.4 252.9,442.8C250.4,443.2 247.9,443.7 245.6,445C244.7,445.5 244.3,445.4 243.7,444.7C241.7,442.5 239.7,441.9 236.9,442.9C235.6,443.4 234.2,443.9 232.9,444.4C232.1,444.7 231.3,444.8 230.4,444.4C228.7,443.6 227,443.7 225.4,444.6C223.4,445.7 221.5,446.8 219.9,448.5C219.6,448.9 219,449.2 218.4,449.3C216.4,449.7 214.5,450.1 212.5,450.4C210.3,450.8 208.2,451.7 206.4,453.1C204.2,454.6 203.6,456.8 204.4,459.3C204.6,459.9 204.8,460.5 205,461.2C206.1,464.8 207.1,468.4 208.3,472C209.5,475.6 210.7,479.2 212,482.8C213.3,486.6 214.8,490.3 216.1,494C216.4,494.8 216.6,494.9 217.5,494.9C218.4,494.9 218.6,494.7 218.8,493.9C219.8,490.4 220.7,486.8 221.7,483.2C222.6,479.8 223.6,476.5 224.5,473.1C225.2,470.5 225.9,467.9 226.6,465.4C227.3,462.5 228,459.5 228.7,456.5C229,456.3 229.2,456 229.4,455.5Z" style="fill:white;fill-rule:nonzero;"/>
        </g>
        <g transform="matrix(2.26546,0,0,2.26546,-238.158,-249.71)">
            <path d="M332.1,508.1L332.1,507.3C332.1,506.2 332.3,505.9 333.4,505.7C334.1,505.6 334.8,505.6 335.5,505.7C337,505.9 338.5,506.1 340,506.4C341.9,506.8 343.7,506.7 345.6,506.8C346.1,506.8 346.7,506.7 347.2,506.6C348.8,506.2 350.1,506.9 350.6,508.6C350.8,509.5 351,510.4 351.3,511.2C352.3,514 355.1,515.5 357.8,514.7C360.8,513.9 362.2,511 361.6,508.3C360.9,505.5 360.4,502.8 359.8,500C359.1,496.9 358.2,493.8 357.4,490.7C356.2,486.2 354.9,481.7 353.7,477.2C352.5,472.8 351.3,468.4 350.1,463.9C349.2,460.4 348.2,456.9 347.3,453.4C346.9,451.9 346.5,450.5 346,449C345.7,447.9 345,447.6 343.8,447.6C342.7,447.6 342.2,447.9 341.8,449C341.7,449.3 341.6,449.6 341.4,450C338.4,457.7 335.4,465.3 332.5,473C329.7,480.5 327,488 324.2,495.5C323.1,498.5 321.9,501.4 321.3,504.6C320.9,506.7 321.2,508.6 321.8,510.5C322,511.1 322.4,511.6 322.8,512.1C324.3,513.8 326.8,514.3 328.9,513.4C331,512.6 332.2,510.6 332.1,508.1Z" style="fill:white;fill-rule:nonzero;"/>
        </g>
        <g transform="matrix(2.26546,0,0,2.26546,-238.158,-249.71)">
            <path d="M202.3,455.3C202.2,454.3 202.1,453.2 201.9,452.1C201.7,451.1 201.2,450.2 200.5,449.4C200,448.8 199.5,448.1 199.1,447.4C198,445.5 196.4,444.6 194.3,444.6C192.2,444.6 190.5,445.6 189.5,447.4C188.3,449.7 187.4,452.1 186.9,454.6C186.7,455.9 186.2,457 185.5,458C185,458.7 184.5,459.6 184.3,460.4C183.8,463.2 183.2,465.9 183.8,468.8C183.9,469.5 184,470.3 184,471L184,478.7C184,481.3 184,483.9 184.2,486.5C184.3,488.1 184.8,489.6 185.1,491.1C185.9,495.5 187.6,499.6 190,503.4C191,505 192.2,506.6 193.9,507.6C195.8,508.7 197.9,509.5 200,510.1C201.4,510.4 202.8,510.6 204.2,510.7C204.9,510.7 205.5,510.9 206.2,511.3C206.9,511.8 207.6,512.2 208.4,512.5C210.7,513.4 212.8,513 214.4,511.2C216.1,509.5 216.2,507.5 215.3,505.3C215.1,504.8 214.8,504.2 214.7,503.7C214.1,501.6 213.7,499.6 213,497.6C211,491.3 209,485 206.8,478.7C204.9,473.2 202.9,467.7 201,462.3C200.8,461.7 200.8,461.1 201.1,460.4C201.9,458.7 202.1,457 202.3,455.3Z" style="fill:white;fill-rule:nonzero;"/>
        </g>
        <g transform="matrix(2.26546,0,0,2.26546,-238.158,-249.71)">
            <path d="M278,506.9C281.3,506.8 283.8,503.9 283.3,500.7C283.2,500 283,499.3 282.8,498.6C282,496.2 281.3,493.9 280.5,491.6C279.4,488.5 278.3,485.3 277.3,482.1C276.3,479.1 275.2,476.1 274.2,473.1C273.1,469.8 272,466.5 271,463.3C269.4,458.6 267.9,453.9 266.3,449.2C266.1,448.7 265.9,448.2 265.7,447.7C265.1,446.8 263.5,446.7 263.1,447.8C263,448 262.9,448.3 262.8,448.5C262.4,449.7 262,450.9 261.7,452.1C260.8,455 259.8,458 258.9,460.9C257.9,464.3 256.8,467.7 255.9,471.2C254.8,475 253.7,478.8 252.7,482.6C251.5,487.1 250.2,491.5 249,496C248.5,497.7 248,499.5 247.7,501.3C247.2,503.8 248.3,506 250.6,507C252.4,507.9 254.3,508.4 256.4,508C257.3,507.9 258.2,507.8 259.1,507.7C260.7,507.6 262.1,507.2 263.6,506.4C264.5,505.9 265.5,505.5 266.4,505.3C267.5,505.1 268.7,505 269.8,504.9C271.9,504.9 274,504.8 275.9,506C276.2,506.6 277.1,506.7 278,506.9Z" style="fill:white;fill-rule:nonzero;"/>
        </g>
        <g transform="matrix(2.26546,0,0,2.26546,-238.158,-249.71)">
            <path d="M312.3,440.5L311.1,440.5C306.4,440.5 304.6,444.7 305.5,448C306.2,451 307.2,453.9 308,456.9C309.1,460.9 310.2,464.9 311.3,468.9C312.1,472 313,475.1 313.9,478.2C314.6,480.8 315.4,483.4 316.2,486C316.9,488.3 317.7,490.6 318.5,492.9C318.8,493.9 318.9,493.9 319.9,494C320.9,494 321.1,493.9 321.5,492.9C322.3,491 323,489.1 323.8,487.2C326,481.6 328.2,476 330.3,470.3C332.3,465.2 334.2,460.1 336.1,455C337.3,451.8 338.4,448.6 340.4,445.8C341.4,444.3 341.9,442.5 342,440.7C342,439.5 341.5,439.1 340.4,439.8C339.9,440.1 339.4,440.5 338.8,440.8C336.6,441.8 334.3,442.2 331.9,441.7C330.7,441.5 329.5,441.2 328.3,441.7C327.3,442.1 326.1,442.1 325.1,442C323.9,442 322.6,441.9 321.4,442C320,442.1 318.7,442 317.5,441.5C315.5,440.9 313.8,440.3 312.3,440.5Z" style="fill:white;fill-rule:nonzero;"/>
        </g>
        <g transform="matrix(2.26546,0,0,2.26546,-238.158,-249.71)">
            <path d="M424.8,481.5C424.6,480.1 424.5,478.7 424.2,477.3C423.8,474.9 423.3,472.5 422.9,470.1C422.6,468 422.2,466 421.8,464C421.4,462 420.2,460.7 418.3,460.1C417,459.7 415.9,459.2 414.8,458.5C414.6,458.3 414.3,458.2 414,458.1C410.3,456.3 406.1,458.9 406.1,462.9C406.1,463.5 406,464.2 405.8,464.8C405.5,465.8 405.1,466.7 404.7,467.6C402.7,473 400.6,478.3 398.6,483.7C396.5,489.3 394.4,494.8 392.4,500.5C391.7,502.4 391,504.4 390.6,506.3C389.9,509.6 392.4,512.6 395.9,512.6C396.7,512.6 397.5,512.4 398.3,512.2C399,512.1 399.7,511.8 400.5,511.8C401.6,511.8 402.6,511.5 403.5,511C404.2,510.7 405.1,510.5 405.9,510.3C407,510 408.2,509.9 409.2,509.5C410.1,509.2 411,508.8 411.7,508.2C414.4,506.1 416.5,503.6 418.4,500.8C420.2,498.1 421.6,495.2 422.8,492.2C423.3,490.9 423.9,489.6 424.1,488.3C424.5,486 424.6,483.7 424.8,481.5Z" style="fill:white;fill-rule:nonzero;"/>
        </g>
        <g transform="matrix(2.26546,0,0,2.26546,-238.158,-249.71)">
            <path d="M274.6,440.3C271.7,440.3 269.1,443.3 270,446.7C270.6,449.2 271.3,451.7 272,454.1C273.8,459.6 275.5,465.2 277.5,470.7C279.4,476.2 281.3,481.6 283.3,487C284,489 284.9,490.8 285.7,492.7C286,493.5 286.7,493.4 287.3,493.4C287.8,493.4 288.2,493.2 288.4,492.6C289.4,489.5 290.4,486.4 291.4,483.3C293,478.5 294.5,473.8 296.1,469C298.1,463.1 300,457.1 301.9,451.1C302.4,449.5 303,448 303.4,446.4C304.5,442.5 301.3,439 297.4,439.6C296.3,439.7 295.3,440.1 294.5,440.8C294,441.2 293.4,441.3 292.7,441C291.2,440.3 289.7,440.3 288.1,440.8C287.6,440.9 287.1,440.9 286.6,441.1C285.8,441.4 284.9,441.7 284.1,442.1C283.3,442.5 283.3,442.6 282.5,441.9C281.7,441.2 280.7,440.7 279.6,440.5C278.1,440.5 276.6,440.5 274.6,440.3Z" style="fill:white;fill-rule:nonzero;"/>
        </g>
        <g transform="matrix(2.26546,0,0,2.26546,-238.158,-249.71)">
            <path d="M374.5,509.3C375.2,509.4 375.8,509.6 376.3,509.7C377.4,509.8 377.9,510.4 378.1,511.4C378.2,512 378.3,512.7 378.2,513.3C378.2,514 377.9,514.8 377.8,515.5C377.3,518.3 378.9,520.8 381.6,521.6C384.3,522.3 387.1,521 388.1,518.3C388.4,517.3 388.7,516.3 388.9,515.2C389.3,511.9 389,508.7 387.5,505.7C387.2,505.1 386.9,504.3 386.8,503.6C386.1,500.7 385.5,497.7 384.7,494.8C383.9,491.5 383,488.3 382.1,485C381,480.8 379.8,476.6 378.7,472.4C378.5,471.6 377.9,471.2 377.1,471.6C376.7,471.8 376.3,472.2 376.1,472.6C375.2,474.3 374.4,476 373.6,477.8C372,481.3 370.5,484.7 369,488.2C367,492.9 364.6,497.4 363.1,502.3C361.9,506.1 362.3,509.6 364.9,512.7C366.3,514.4 368.2,515.1 370.4,514.5C372.6,514 373.9,512.6 374.4,510.3C374.3,510.1 374.4,509.8 374.5,509.3Z" style="fill:white;fill-rule:nonzero;"/>
        </g>
        <g transform="matrix(2.26546,0,0,2.26546,-238.158,-249.71)">
            <path d="M305.6,509.5C306,509.4 306.5,509.4 306.9,509.4C308.6,509.4 310.1,508.8 311.1,507.4C311.7,506.6 312.5,506.1 313.5,505.9C316.8,505.3 318.6,502 317.3,498.8C317.1,498.3 316.8,497.8 316.7,497.3C316.1,495.5 315.6,493.6 315.1,491.8C314.2,488.7 313.3,485.5 312.4,482.3C311.5,479.2 310.6,476.1 309.7,473C308.7,469.5 307.5,466 306.5,462.4C306.2,461.3 305.8,460.1 305.4,459C305.2,458.3 304.8,458 304,458.1C303.4,458.1 303,458.3 302.8,459C302.7,459.6 302.4,460.2 302.2,460.8C301.1,463.8 300,466.8 299,469.9C297.8,473.4 296.5,476.9 295.4,480.5C294.1,484.5 292.8,488.5 291.6,492.5C291,494.5 290.4,496.5 289.7,498.5C289.4,499.5 289.1,500.5 289.3,501.5C289.8,504.1 291.7,505.9 294.4,506.1C295.6,506.2 296.8,506.2 298,506.3C298.9,506.3 299.6,506.6 300.2,507.4C300.8,508.3 301.8,508.9 302.9,509.2C303.8,509.4 304.6,509.4 305.6,509.5Z" style="fill:white;fill-rule:nonzero;"/>
        </g>
        <g transform="matrix(2.26546,0,0,2.26546,-238.158,-249.71)">
            <path d="M242.8,502.4C242.7,501.6 242.7,500.7 242.5,499.9C241.9,498 241.3,496.1 240.5,494.3C238.1,488.2 235.7,482.1 233.2,475.9C232.7,474.6 232.1,473.4 231.5,472.1C231.2,471.4 230.6,471.3 229.9,471.3C229.3,471.3 228.8,471.5 228.6,472.2C228.2,473.6 227.6,475 227.2,476.3C226.3,479.4 225.3,482.4 224.5,485.5C223.5,489.1 222.6,492.7 221.7,496.3C221.3,498 221.1,499.7 220.5,501.3C219.4,504 219.7,506.3 221.5,508.5C221.7,508.8 221.9,509.1 222.2,509.5C222.8,510.3 223.6,510.9 224.6,511.3C227.1,512.2 229.8,511.3 231.2,509.1C231.7,508.3 232.3,507.9 233.2,507.9C234.2,507.9 235.2,507.9 236.1,508C239.6,508.9 243.2,506.4 242.8,502.4Z" style="fill:white;fill-rule:nonzero;"/>
        </g>
        <g transform="matrix(2.26546,0,0,2.26546,-238.158,-249.71)">
            <path d="M389.5,493C389.1,491.3 388.8,489.7 388.4,488.1C387.6,485 386.8,481.8 386,478.6C385.4,476.1 384.9,473.7 384.4,471.2C383.6,467.8 382.8,464.3 382.1,460.9C381.9,460.1 381.8,459.2 381.6,458.3C381.5,457.9 381.4,457.4 381.1,457C380.3,455.4 379.4,455 377.7,455.2C377,455.3 376.3,455.6 376,456.3C375.4,457.4 374.8,458.6 374.3,459.8C372.2,464.9 370.1,470 368,475C366.3,479.1 364.6,483.3 362.8,487.4C362.6,487.8 362.4,488.2 362,488.6C361.9,487.9 361.7,487.2 361.5,486.5C360,480.7 358.4,474.9 356.9,469.1C355.8,464.9 354.7,460.8 353.7,456.6C353.2,454.6 352.6,452.6 352,450.6C351.9,450.2 351.6,449.8 351.5,449.3C351.4,448.8 351.2,448.3 351.1,447.7C351,447.3 351,446.9 350.9,446.6C350.5,445.4 351,444.3 352.2,443.7C353.3,443.2 354.5,443.5 355.1,444.6C355.3,445 355.5,445.4 355.6,445.9C356.2,448.5 358.9,450.4 361.4,450.4C368,450.3 374.6,450.4 381.2,450.4C381.8,450.4 382.5,450.3 383.2,450.1C384.4,449.8 385.5,450.1 386.1,451.1C386.3,451.5 386.6,452 386.8,452.5C387.2,453.2 387.7,453.6 388.5,453.8C389.2,453.9 389.9,454.1 390.5,454.4C391.1,454.7 391.7,454.8 392.4,454.6C392.9,454.5 393.5,454.5 394,454.4C394.5,454.3 395.1,454.2 395.6,454.1C396,454.1 396.5,454 396.8,454.1C398.1,454.6 399.4,455.1 400.7,455.8C401.5,456.2 402.2,456.8 402.5,457.7C402.7,458.2 402.7,458.6 402.5,459.1C400.2,463.7 398.8,468.6 397,473.4C394.5,479.9 392.2,486.4 389.8,492.9C389.8,492.7 389.7,492.8 389.5,493Z" style="fill:white;fill-rule:nonzero;"/>
        </g>
        <g transform="matrix(2.26546,0,0,2.26546,-238.158,-249.71)">
            <path d="M217,489.6C215.9,486.5 214.7,483.3 213.6,480.1C212.1,475.7 210.6,471.4 209.2,466.9C208.4,464.2 207.7,461.5 206.9,458.9C206.6,458 206.4,457.1 207,456.3C207.4,455.8 208,455.3 208.6,454.9C209.5,454.4 210.4,453.9 211.4,453.5C211.8,453.3 212.4,453.3 212.9,453.2C213.1,453.2 213.4,453.2 213.7,453.1C215.1,452.6 216.6,452.6 218,452.2C219.4,451.9 220.9,451.6 221.9,450.3C223.1,448.7 224.9,447.8 226.5,446.8C227.2,446.4 227.9,446.3 228.6,446.7C229.1,447 229.7,447.2 230.3,447.5C231,447.9 231.6,447.8 232.3,447.5C233.8,446.9 235.3,446.3 236.9,445.7C237.2,445.6 237.4,445.4 237.7,445.3C239,444.7 240.2,445 240.8,446.1C241.3,447 242.2,447.6 243.1,448C243.7,448.3 244.3,448.3 244.9,448C245.4,447.8 245.9,447.6 246.3,447.2C247,446.7 247.8,446.4 248.8,446.3C250.1,446.2 251.3,445.8 252.5,445.4C253.4,445.2 254.1,445.5 254.7,446.1C255.3,446.7 255.8,447.4 255.3,448.3C254,451.1 253.5,454 252.6,456.9C251.4,461.2 250.2,465.6 249,470C247.5,475.3 245.9,480.6 244.3,485.9C244.2,486.4 244.3,487.1 243.6,487.5C243.5,487.4 243.4,487.3 243.3,487.2C242,483.9 240.7,480.5 239.5,477.2C238.2,473.7 236.8,470.2 235.6,466.6C235,464.9 234.6,463.1 234,461.3C233.3,459.2 232.6,457.1 231.8,455.1C231.3,453.8 230.2,453.1 228.8,453C227.7,452.9 226.3,454.1 226,455.5C225.6,457.3 225.2,459.1 224.7,460.9C223.7,465 222.6,469.1 221.5,473.2C220.2,478.2 218.7,483.2 217.4,488.2C217.3,488.7 217.2,489.2 217.1,489.7C217.1,489.6 217,489.6 217,489.6Z" style="fill:white;fill-rule:nonzero;"/>
        </g>
        <g transform="matrix(2.26546,0,0,2.26546,-238.158,-249.71)">
            <path d="M343.5,451.5C343.6,451.9 343.8,452.3 343.9,452.6C345.3,457.6 346.6,462.6 348,467.6C349.4,472.7 350.8,477.8 352.3,482.9C353.8,488.5 355.3,494.1 356.8,499.7C357.2,501.4 357.6,503 357.9,504.8C358,505.2 357.9,505.6 357.9,506C358,506.7 358.1,507.5 358.2,508.2C358.4,509.1 358.4,510 358,510.9C357.3,512.3 355.5,512.7 354.4,511.6C354,511.2 353.5,510.5 353.5,509.9C353.5,508.8 353.1,507.9 352.8,507C352.4,505.7 351.3,504.9 350.2,504.2C348.9,503.4 347.6,503.4 346.1,503.8C345.2,504.1 344.1,504 343.1,503.9C342.2,503.9 341.3,503.7 340.4,503.5C340.1,503.5 339.7,503.5 339.4,503.4C338.7,503.3 338,503.2 337.3,503.1C336.9,503.1 336.5,503 336,502.9L333.4,502.9C331.1,502.9 329.3,504.1 328.6,506.4C328.5,506.9 328.6,507.5 328.7,508C329.1,509.5 328,511.3 326.4,511.3C325.3,511.3 324.1,510.1 323.9,508.8C323.9,508.5 323.9,508.1 323.8,507.8C323.3,506.8 323.6,505.8 323.8,504.8C324.2,503.4 324.6,502 324.8,500.5C324.9,499.4 325.5,498.4 325.9,497.4C327.4,493.5 328.8,489.5 330.3,485.6C332.8,478.8 335.3,472 337.8,465.3C339.2,461.5 340.8,457.8 342.3,454.1C342.6,453.3 342.9,452.5 343.2,451.7C343.4,451.5 343.4,451.5 343.5,451.5Z" style="fill:white;fill-rule:nonzero;"/>
        </g>
        <g transform="matrix(2.26546,0,0,2.26546,-238.158,-249.71)">
            <path d="M186.3,476.5L186.3,469.3C186.3,468.5 186.1,467.8 186,467C186,466.8 185.9,466.5 185.9,466.3C186.2,464.7 186.5,463.1 186.8,461.5C186.9,461 187.2,460.5 187.4,460C187.9,458.9 188.4,457.7 188.9,456.6C189,456.4 189.1,456.1 189.1,455.8C189.1,453.2 190.4,451.1 191.5,448.9C191.7,448.5 192.1,448.1 192.5,447.8C193.6,447.1 195,447.5 195.6,448.6C196.1,449.5 196.7,450.2 197.4,450.9C198.1,451.5 198.3,452.3 198.5,453.3C198.8,454.7 198.8,456 198.5,457.3C198.3,458.1 198.2,458.8 197.7,459.5C196.8,460.6 196.8,461.8 197.6,463C198,463.6 198.3,464.2 198.5,464.9C200.3,469.9 202.1,475 203.9,480C205.2,483.7 206.5,487.4 207.6,491.1C208.8,495 210,498.9 211.1,502.8C211.1,503 211.2,503.2 211.2,503.5C211.2,504.6 211.4,505.7 212,506.6C212.7,507.8 211.8,509.4 210.9,509.9C209.9,510.4 209.1,510.3 208.2,509.5C207.8,509.2 207.5,508.8 207,508.5C206.1,507.9 205,507.6 203.9,507.7C202.4,507.8 201,507.3 199.5,507C199,506.9 198.4,506.8 197.9,506.7C196.5,506.3 195.3,505.6 194.4,504.5C194.1,504.2 193.8,503.9 193.5,503.6C192,502.3 191.1,500.6 190.5,498.7C190.4,498.5 190.4,498.2 190.3,498.1C189.2,497.1 189.1,495.6 188.6,494.3C188.5,494 188.3,493.7 188.2,493.3C188,492.7 187.9,492.1 187.7,491.5C187.4,490.3 187.2,489 186.9,487.7C186.7,486.6 186.4,485.4 186.3,484.3C186.3,481.7 186.4,479.1 186.3,476.5Z" style="fill:white;fill-rule:nonzero;"/>
        </g>
        <g transform="matrix(2.26546,0,0,2.26546,-238.158,-249.71)">
            <path d="M263.9,452.5C264,452.8 264.2,453.2 264.4,453.5C266.3,459.1 268.1,464.8 270,470.5C271.2,474 272.4,477.5 273.6,481C275.4,486.3 277.1,491.6 278.9,496.9C279.4,498.3 279.8,499.7 280.2,501.2C280.4,502 280.1,502.8 279.4,503.3C278.8,503.8 278.1,504.3 277.3,503.9C276.4,503.6 275.6,503.2 274.7,502.9C274.2,502.8 273.7,502.6 273.2,502.6L266.4,502.6C265.8,502.6 265.2,502.7 264.7,502.9C263.1,503.5 261.6,504.1 260,504.8C259.7,504.9 259.3,505 258.9,505C258.4,505.1 257.8,505.2 257.3,505.3C255.9,505.6 254.5,505.7 253,505.2C252.9,505.2 252.7,505.1 252.6,505.1C251.5,505.1 250.8,504.5 250.3,503.7C249.7,502.8 249.7,501.8 249.9,500.9C250.3,499.1 250.8,497.4 251.2,495.7C252.2,492.2 253.2,488.7 254.1,485.3C255.2,481.3 256.3,477.2 257.5,473.2C258.9,468.3 260.4,463.5 261.9,458.7C262.5,456.7 263.1,454.8 263.7,452.8C263.7,452.5 263.8,452.5 263.9,452.5Z" style="fill:white;fill-rule:nonzero;"/>
        </g>
        <g transform="matrix(2.26546,0,0,2.26546,-238.158,-249.71)">
            <path d="M319.6,489C319.4,488.6 319.2,488.3 319.1,488C317.8,483.5 316.4,479.1 315.2,474.6C314,470.4 312.8,466.2 311.7,461.9C310.5,457.6 309.4,453.4 308.2,449.1C308.1,448.5 307.8,447.9 307.7,447.3C307.6,446.8 307.7,446.3 308,445.8C308.4,445.3 308.8,444.7 309.2,444.1C309.4,443.7 309.8,443.6 310.3,443.6L313.9,443.6C314.4,443.6 314.9,443.8 315.3,444C317.4,445.1 319.6,445.2 321.9,444.7C322.3,444.6 322.9,444.6 323.3,444.7C325.3,445.3 327.1,444.8 328.9,444.3C329.4,444.2 330,444 330.5,444.2C332.5,444.7 334.5,444.7 336.5,444.2L337.2,444.2C337.3,445 336.9,445.7 336.4,446.1C335.6,446.9 335.2,448 334.9,449.1C334.4,450.8 333.7,452.4 333.1,454.1C331.8,457.5 330.5,461 329.2,464.5C327.1,469.9 325,475.3 322.9,480.7C321.9,483.4 320.8,486.1 319.8,488.8C319.9,488.6 319.8,488.7 319.6,489Z" style="fill:white;fill-rule:nonzero;"/>
        </g>
        <g transform="matrix(2.26546,0,0,2.26546,-238.158,-249.71)">
            <path d="M393.1,506.3C393.3,505.4 393.5,504.5 393.8,503.6C396.3,496.8 398.8,490 401.3,483.3C403.8,476.8 406.2,470.3 408.7,463.8C408.8,463.5 408.8,463.1 408.9,462.8C409.1,462.2 409.3,461.5 409.7,461C410.4,460.2 411.2,460 412.3,460.5C412.9,460.8 413.5,461.2 414.2,461.5C414.9,461.9 415.6,462.3 416.4,462.5C418.1,463 418.7,463.8 418.9,465.6C419,466.7 419.3,467.8 419.5,468.9C419.6,469.5 419.8,470.2 419.8,470.9C419.8,472.1 420.3,473 420.5,474.1C420.6,474.6 420.7,475.1 420.7,475.6C420.7,476.6 420.7,477.6 421.1,478.5C421.2,478.8 421.1,479.2 421.1,479.5C421.2,480.1 421.2,480.8 421.4,481.5C421.5,482 421.5,482.6 421.4,483.1C421.3,483.6 421.2,484.2 421.2,484.7C421.1,486.6 420.7,488.5 420,490.3C419.5,491.7 418.9,493 418.3,494.3C418.1,494.8 417.6,495.3 417.3,495.9C416.9,496.7 416.5,497.5 416,498.3C414.3,501.3 411.9,503.8 409.3,506.2C408.9,506.6 408.2,506.9 407.6,506.9C406.2,506.9 405,507.4 403.7,507.7C402.9,507.8 402.2,508.3 401.4,508.6C401.1,508.7 400.7,508.9 400.3,508.9C398.9,508.8 397.7,509.2 396.4,509.6C394.6,510.1 393,509 393,507.1C393.1,506.8 393.1,506.6 393.1,506.3C393.2,506.3 393.2,506.3 393.1,506.3Z" style="fill:white;fill-rule:nonzero;"/>
        </g>
        <g transform="matrix(2.26546,0,0,2.26546,-238.158,-249.71)">
            <path d="M286.3,488.6C284.9,484.8 283.5,481.2 282.3,477.5C280.1,471.3 278,465.1 275.9,458.8C274.7,455 273.6,451.1 272.5,447.3C272.3,446.4 272.2,445.5 272.5,444.6C272.8,443.7 273.5,443.2 274.4,443C274.7,442.9 275,443 275.3,443C276,443.1 276.8,443.3 277.5,443.3C278.9,443.3 279.9,443.7 280.5,445.1C281.2,446.5 282.6,446.7 283.8,445.6C284.1,445.3 284.4,445 284.7,444.7C285.4,444.1 286.2,443.7 287.2,443.8C287.6,443.8 288.2,443.8 288.6,443.6C289.6,443.2 290.5,443.3 291.3,443.8C292.2,444.3 293,444.3 294,443.9C294.7,443.6 295.5,443.3 296.2,442.8C297.9,441.6 300.3,442.8 300.4,444.9C300.4,445.5 300.3,446.2 300.1,446.9C298.9,450.5 297.7,454.2 296.5,457.9C295.6,460.7 294.7,463.4 293.8,466.2C291.9,472.1 290,478 288.1,483.9C287.7,485.2 287.2,486.5 286.8,487.8C286.7,488 286.5,488.2 286.3,488.6Z" style="fill:white;fill-rule:nonzero;"/>
        </g>
        <g transform="matrix(2.26546,0,0,2.26546,-238.158,-249.71)">
            <path d="M376.9,476.8C377.2,478.1 377.6,479.4 378,480.6C379,484.4 379.9,488.1 380.9,491.9C381.9,495.8 383.2,499.7 383.7,503.7C383.9,505.4 384.6,507 385.1,508.6C385.8,510.8 386.3,513.1 385.5,515.4C385.4,515.7 385.4,516.2 385.4,516.6C385.3,517.8 384.5,518.9 383.3,519.2C383,519.3 382.6,519.2 382.2,519.1C381.5,518.9 381.1,518.4 380.8,517.8C380.5,517.2 380.6,516.6 380.8,515.9C381,515.2 380.9,514.5 381,513.8C381.2,512 380.7,510.4 379.8,508.9C379.4,508.2 378.8,507.7 378,507.6C377,507.6 376.2,507.3 375.3,506.8C374.5,506.4 373.5,506.4 372.6,506.7C371.8,506.9 371.3,507.6 371.2,508.4L371.2,509.5C371.1,510 371.1,510.6 370.8,511.1C369.8,512.6 368.1,513 366.8,511.3C366.5,510.9 366.4,510.4 366.2,509.9C366.1,509.7 366.1,509.3 366,509.1C365.1,508.2 365.3,507 365.4,505.9C365.5,504.5 365.7,503.1 365.9,501.7C366,501.1 366.3,500.6 366.5,500C369.7,492.8 372.9,485.6 376.1,478.4C376.3,477.9 376.5,477.3 376.8,476.8C376.7,476.7 376.8,476.7 376.9,476.8Z" style="fill:white;fill-rule:nonzero;"/>
        </g>
        <g transform="matrix(2.26546,0,0,2.26546,-238.158,-249.71)">
            <path d="M303.7,464C303.9,464.5 304.1,465 304.2,465.5C305.5,469.7 306.8,473.9 308,478.1C309.1,481.8 310.1,485.5 311.1,489.2C312.1,492.7 313.2,496.3 314.2,499.8C314.7,501.6 313.9,503.1 311.9,503.3L311.7,503.3C310.3,503.2 309.5,503.9 308.9,505C308.2,506.2 307.3,506.8 305.9,506.7L304.2,506.7C303.1,506.7 302.2,506.3 301.6,505.3C301,504.3 300.2,503.9 299.1,503.6C297.5,503.2 296,503.3 294.4,503.3C293.2,503.3 292.2,502.8 291.6,501.7C291.3,501.1 291.3,500.5 291.5,499.8C292.6,496.4 293.6,493.1 294.6,489.7C295.9,485.7 297.2,481.6 298.5,477.6C299.9,473.6 301.3,469.5 302.8,465.5C303,465 303.1,464.5 303.3,464L303.7,464Z" style="fill:white;fill-rule:nonzero;"/>
        </g>
        <g transform="matrix(2.26546,0,0,2.26546,-238.158,-249.71)">
            <path d="M229.9,476C230.2,476.8 230.6,477.6 230.9,478.4C233.3,484.6 235.8,490.7 238.2,496.9C238.5,497.7 238.7,498.5 239,499.2C239.6,500.5 239.5,502 239.4,503.4C239.3,505.1 237.7,506.1 236.1,505.7C235.5,505.6 234.9,505.5 234.2,505.5L231.3,505.5C230.1,505.5 229.2,505.9 228.7,507.1C228.5,507.6 228.2,508.1 227.9,508.5C226.7,509.7 225.4,509.6 224.4,508.4C223.8,507.8 223.3,507 222.9,506.3C222.5,505.6 222.2,505 222.6,504.1C223,503.2 223,502.1 223.2,501.2C224,497.7 224.8,494.2 225.8,490.8C227.1,486 228.5,481.2 229.8,476.4C229.7,476.1 229.8,476.1 229.9,476Z" style="fill:white;fill-rule:nonzero;"/>
        </g>
        <g transform="matrix(2.26546,0,0,2.26546,-238.158,-249.71)">
            <path d="M361,436.2C362.1,435.2 363.2,434.2 364.2,433.3C364.8,432.8 365.6,432.6 366.4,432.6C372,432.5 377.7,432.2 383.3,432.1C387.7,432 392.2,432 396.6,431.8C398.3,431.8 400,431.6 401.7,431.4C404.9,431.1 408.1,430.7 411.3,430.2C417.6,429.2 422.8,426.2 426.9,421.3C428,420 428.7,418.4 429.1,416.6C429.4,415 430,413.4 430.5,411.8C431.8,407.7 432.5,403.4 433.2,399.1C433.6,396.4 433.9,393.7 434.3,391C434.9,386.7 434.5,382.5 433.5,378.3C433,376.1 432.2,374 431.4,371.9C430.4,369.2 428.9,366.8 427,364.7C423.7,360.7 420,357.1 415.8,354C411.5,350.8 406.8,348.5 401.6,347.1C397.9,346.1 394.3,345 390.6,344.1C385.1,342.7 379.6,341.7 374,341.6C373.2,341.6 372.4,341.6 371.6,341.5C365.5,340.9 359.3,341 353.1,341.4C349.4,341.6 345.6,342.3 341.9,342.8C337.4,343.4 333,344.1 328.5,344.9C324.8,345.5 321.1,346.3 317.4,347C313.4,347.7 309.3,348.5 305.3,349.1C303.7,349.3 302.1,349.1 300.5,348.9C296.3,348.5 292.2,347.4 288,346.4C282.1,345 276.1,343.6 270.1,342.3C267.6,341.8 265,341.6 262.5,341.2C258.1,340.5 253.7,340.3 249.2,340.2C243.3,340.1 237.4,340.2 231.6,340.8C225.7,341.4 219.8,342.6 214,344.1C207.8,345.8 202,348.2 196.5,351.6C194.1,353.1 191.7,354.7 189.5,356.3C185.2,359.4 182,363.4 179.2,367.8C177.9,369.9 176.5,372.1 175.9,374.5C175.5,376.2 175.2,377.9 175,379.6C174.6,382.5 174.1,385.5 174.2,388.5C174.4,392.7 174.7,396.9 175.5,401.1C176.3,405.3 177.1,409.6 178.3,413.7C179.5,417.7 181.6,421 184.9,423.6C187.2,425.4 189.6,427.1 192.4,428.2C194.3,428.9 196.2,429.4 198.2,429.5C204.5,429.9 210.8,430.3 217.1,430.7C219.5,430.8 221.9,430.8 224.3,430.9C229.8,431 235.3,431.2 240.8,431.3C241.6,431.3 242.4,431.5 243,432C244,432.8 245.1,433.7 246,434.6C246.7,435.3 246.5,435.9 245.5,436.2C245.1,436.3 244.6,436.3 244.2,436.3C241.8,436.2 239.4,436.1 237,436C234.9,435.9 232.8,435.9 230.7,435.8C227.3,435.7 223.8,435.6 220.3,435.4C218.6,435.4 217,435.4 215.3,435.3C211.4,435.1 207.4,434.9 203.6,434.7C200.4,434.5 197.3,434.2 194.1,434C190.8,433.8 187.7,432.7 184.8,431.1C181.8,429.3 179.1,427.1 176.7,424.5C174.2,421.7 172.9,418.4 172.1,414.8C171.2,410.7 170.4,406.5 169.5,402.5C168.7,398.5 168.5,394.5 168.2,390.5C167.9,387.4 168.4,384.4 168.7,381.4C168.8,379.8 169.2,378.2 169.4,376.5C169.7,374.1 170.5,372 171.6,370C173.6,366.3 175.8,362.8 178.5,359.6C181.1,356.6 184.1,354 187.4,351.7C192.6,348 198,344.8 204,342.6C206.2,341.8 208.5,341.1 210.7,340.5C213.1,339.9 215.4,339.3 217.8,338.7C221.8,337.8 225.8,337.2 229.9,336.8C234.9,336.3 239.9,336.1 244.9,336.1C249.5,336.1 254.1,336.2 258.7,336.9C262.7,337.5 266.7,338.1 270.7,338.8C272.9,339.2 275.1,339.8 277.2,340.4C279.6,341 282,341.6 284.4,342.2C286.9,342.8 289.3,343.4 291.7,344C295.4,344.9 299.2,345.6 302.9,345.9C304,345.9 305.2,345.9 306.3,345.7C311.1,344.8 315.9,343.9 320.6,342.9C325.3,342 329.9,341.1 334.6,340.3C339.1,339.6 343.6,339 348.1,338.3C350.4,338 352.8,337.5 355.1,337.4C360.5,337.3 365.8,337.2 371.1,337.4C375.2,337.5 379.3,337.8 383.3,338.4C386.9,338.9 390.5,339.7 394,340.6C398,341.6 402,342.9 406,344C412.6,345.8 418.1,349.5 423.2,353.9C426.8,357 429.9,360.5 432.9,364.2C434.8,366.7 436.2,369.4 437.2,372.3C438.1,374.9 439,377.5 439.4,380.2C439.6,381.6 439.8,383 440,384.4C440.1,385.2 440.3,386.1 440.2,387C440.1,389.2 439.8,391.5 439.6,393.7C439.4,395.5 439.1,397.3 438.8,399.1C438.1,404.3 437.3,409.4 435.8,414.5C435.2,416.5 434.8,418.4 434.2,420.4C433.7,422.4 432.7,424.1 431.3,425.6C427.7,429.6 423.5,432.7 418.3,434.1C416.3,434.6 414.3,434.9 412.3,435.2C410.7,435.4 409,435.5 407.4,435.8C403,436.4 398.6,436.5 394.1,436.5C389.1,436.5 384.2,436.6 379.3,436.8C373.9,437 368.5,437.3 363,437.2C362.5,437.2 361.6,437.2 361,436.2Z" style="fill:rgb(205,0,0);fill-rule:nonzero;"/>
        </g>
        <g transform="matrix(2.26546,0,0,2.26546,-238.158,-249.71)">
            <path d="M401.7,280.5C401.4,281.9 401.1,283.4 400.7,284.8C400.2,286.7 399.8,288.5 399.1,290.3C398.6,292 397.6,293.3 395.8,293.9C395.3,294 394.7,294.1 394.2,294.1C390.3,294.1 386.4,294.1 382.6,293.7C378.6,293.4 374.5,293.3 370.5,293.9L369.9,293.9C368.3,294 367.8,293.4 368.6,291.8C369,291 369.3,290.2 369.7,289.4C370.8,287.1 371.1,284.6 371.6,282.1C372.4,278.3 375.1,275.5 378.9,275C380.4,274.8 381.9,274.9 383.5,274.9C385.9,274.9 388.3,275.1 390.7,275.3C397.3,275.7 404,276.2 410.5,276.6C414.3,276.8 418.2,277 422,277.2C423.7,277.3 425.2,277.8 426.4,279.1C427.6,280.4 428.8,281.7 430,283C431.8,284.9 432.5,287.3 432.7,289.8C432.9,293.7 433,297.6 433.3,301.4C433.4,303.5 433.7,305.6 434,307.7C434,308.3 434.4,309 433.8,309.4C433.2,309.7 432.1,309.5 431.5,309C430.8,308.3 430.1,307.5 429.3,306.8C428.6,306.1 427.9,305.3 427,304.7C424.1,302.6 420.8,301 417.2,300.1C415.4,299.7 413.5,299.2 411.7,298.7C407.8,297.7 405.5,295.2 404.6,291.3C403.8,288 403.3,284.6 402.6,281.2C402.5,280.8 402.3,280.4 402.2,279.9C402,280.5 401.9,280.5 401.7,280.5Z" style="fill:rgb(205,0,0);fill-rule:nonzero;"/>
        </g>
        <g transform="matrix(2.26546,0,0,2.26546,-238.158,-249.71)">
            <path d="M208.6,277.9C208.5,278.1 208.3,278.4 208.2,278.6C207.7,280.8 207.2,283 206.7,285.1C206.2,287.2 205.8,289.4 205.1,291.5C204.1,294.4 202,296.2 199,297C196.8,297.6 194.5,298.2 192.3,298.8C189.2,299.6 186.3,301 183.5,302.7C182.3,303.4 181.2,304.2 180,304.8C179.5,305 178.9,305.2 178.3,305.2C177.8,305.2 177.4,304.9 177.4,304.4C177.4,302.4 177.3,300.4 177.4,298.4C177.5,295.6 177.8,292.9 178.1,290.1C178.3,288.2 178.6,286.4 179,284.6C179.5,282.6 180.6,280.9 181.9,279.4C183.4,277.8 185.2,276.9 187.5,276.8C190.9,276.7 194.3,276.4 197.7,276.2C200.1,276.1 202.5,276 204.9,275.8C208.6,275.6 212.3,275.3 216,275.1C217.7,275 219.3,275 221,274.9C224.2,274.6 227.4,274.4 230.6,274.5C233.1,274.6 235.2,275.5 236.7,277.5C237.7,278.8 238.7,280.2 239.1,281.8C239.3,283 239.4,284.2 239.7,285.4C240.1,287.2 240.4,288.9 241,290.6C241.7,292.8 241.3,293.3 239.2,293.1C237.1,292.9 235,292.8 232.9,292.7C232,292.7 231,292.6 230.1,292.6C228,292.5 226,292.8 224,293C221.1,293.3 218.3,293.8 215.3,293.8C212.8,293.8 210.8,292.2 210.5,289.8C210.2,287.5 209.9,285.2 209.6,282.9C209.5,281.6 209.4,280.3 209.2,279C209.2,278.7 209,278.3 209,277.9C208.8,278 208.7,277.9 208.6,277.9Z" style="fill:rgb(205,0,0);fill-rule:nonzero;"/>
        </g>
        <g transform="matrix(2.26546,0,0,2.26546,-238.158,-249.71)">
            <path d="M277.3,410.8C278.6,410.7 279.7,410.7 280.7,410.6C284.5,410.5 288.4,410.5 292.2,410.4C294.5,410.4 296.8,410.2 299.1,410.1L302.6,410.1C304.1,410.1 305.5,409.9 307.1,409.8C307.8,409.8 308.6,409.7 309.3,409.7C313.3,409.7 317.3,409.7 321.3,409.9C324.5,410 327.8,410.5 331,410.8C331.4,410.8 331.9,411 332.4,411.2C332.2,411.5 332.1,411.8 331.9,412C329.8,414.2 327.6,416.4 325.6,418.7C323.6,421.1 321.8,423.5 320.1,426C318,428.9 316,432 313.4,434.6C311.4,436.5 309.2,437.9 306.5,438.5C306,438.6 305.5,438.6 305,438.5C303.5,438.2 302.1,437.7 300.6,437.3C300.2,437.2 299.7,437 299.3,436.8C297,435.3 294.7,433.9 293.1,431.6C290.5,428 287.8,424.4 285.2,420.8C282.9,417.7 280.6,414.6 277.8,411.8C277.7,411.5 277.6,411.2 277.3,410.8Z" style="fill:rgb(205,0,0);fill-rule:nonzero;"/>
        </g>
        <g transform="matrix(2.26546,0,0,2.26546,-238.158,-249.71)">
            <path d="M378.5,457.9C378.2,458.4 377.9,458.8 377.7,459.2C375,465.6 372.4,472 369.7,478.5C367.7,483.4 365.6,488.2 363.5,493.1C363.1,494 362.4,494.3 361.5,493.9C361,493.7 360.8,493.4 360.7,492.9C360.3,491.2 359.8,489.6 359.3,487.9C358.4,484.5 357.4,481.2 356.5,477.8C355.4,473.7 354.4,469.6 353.3,465.5C352.6,462.6 351.8,459.7 351,456.7C350.8,455.8 350.6,454.9 350.3,454.1C350,453.3 349.7,452.4 349.3,451.6C348,449.6 347.8,447.4 348,445.2C348.2,442.8 350.3,440.9 352.8,440.7C355.3,440.5 357.7,442 358.4,444.3C358.5,444.8 358.6,445.3 358.7,445.8C358.8,446.6 359.3,447 360.1,447.2C360.6,447.3 361.2,447.4 361.7,447.4C365.3,447.6 369,447.9 372.7,447.5C374,447.4 375.3,447.5 376.6,447.5C378.9,447.5 381.1,447.4 383.3,447.3C385.7,447.2 387.5,448 388.8,450.1C389.1,450.7 389.7,451 390.3,451.3C391.8,451.8 393.2,452 394.8,451.4C395.9,451 397.1,451.2 398.3,451.5C400.2,452.1 401.9,452.9 403.5,454C406.5,456.1 406.7,459.8 404.4,462.1C403.8,462.7 403.5,463.6 403.2,464.4C401.8,468.3 400.4,472.2 398.9,476.1C397.5,479.8 396.1,483.6 394.8,487.3C393.5,490.7 392.2,494.1 391,497.5C390.7,498.2 390.3,498.4 389.4,498.4C388.6,498.4 388.5,498.3 388.2,497.4C387.5,494.7 386.9,492 386.2,489.4C385.5,486.6 384.8,483.9 384.1,481.2C383.7,479.4 383.3,477.5 382.8,475.7C382,472.3 381.3,468.9 380.5,465.5C380.1,463.7 379.7,461.8 379.3,460C379.3,459.3 379.3,458.5 378.5,457.9ZM389.5,493C389.6,492.8 389.7,492.8 389.8,492.7C392.2,486.2 394.5,479.6 397,473.2C398.8,468.4 400.2,463.5 402.5,458.9C402.7,458.5 402.7,458 402.5,457.5C402.1,456.6 401.5,456 400.7,455.6C399.4,455 398.1,454.4 396.8,453.9C396.5,453.8 396,453.9 395.6,453.9C395.1,454 394.5,454.1 394,454.2C393.5,454.3 392.9,454.3 392.4,454.4C391.7,454.6 391.1,454.5 390.5,454.2C389.9,453.9 389.2,453.7 388.5,453.6C387.7,453.5 387.1,453.1 386.8,452.3C386.6,451.9 386.4,451.4 386.1,450.9C385.5,449.8 384.4,449.5 383.2,449.9C382.6,450.1 381.9,450.2 381.2,450.2L361.4,450.2C358.9,450.2 356.2,448.3 355.6,445.7C355.5,445.3 355.3,444.8 355.1,444.4C354.5,443.4 353.2,443 352.2,443.5C351,444.1 350.5,445.2 350.9,446.4C351,446.8 351,447.2 351.1,447.5C351.2,448 351.3,448.6 351.5,449.1C351.6,449.5 351.9,449.9 352,450.4C352.6,452.4 353.2,454.4 353.7,456.4C354.8,460.6 355.9,464.7 356.9,468.9C358.4,474.7 360,480.5 361.5,486.3C361.7,487 361.8,487.7 362,488.4C362.4,488 362.6,487.6 362.8,487.2C364.5,483.1 366.3,478.9 368,474.8C370.1,469.7 372.2,464.6 374.3,459.6C374.8,458.4 375.4,457.2 376,456.1C376.3,455.4 376.9,455.1 377.7,455C379.5,454.8 380.3,455.1 381.1,456.8C381.3,457.2 381.4,457.7 381.6,458.1C381.8,458.9 381.9,459.8 382.1,460.7C382.9,464.1 383.7,467.6 384.4,471C384.9,473.5 385.4,475.9 386,478.4C386.7,481.6 387.6,484.7 388.4,487.9C388.7,489.7 389.1,491.3 389.5,493Z" style="fill:rgb(205,0,0);fill-rule:nonzero;"/>
        </g>
        <g transform="matrix(2.26546,0,0,2.26546,-238.158,-249.71)">
            <path d="M229.4,455.5C229.2,456 229,456.3 228.9,456.6C228.2,459.6 227.5,462.6 226.8,465.5C226.2,468.1 225.4,470.7 224.7,473.2C223.8,476.6 222.8,479.9 221.9,483.3C220.9,486.8 220,490.4 219,494C218.8,494.8 218.5,495 217.7,495C216.8,495 216.6,494.9 216.3,494.1C214.9,490.4 213.5,486.6 212.2,482.9C210.9,479.3 209.7,475.7 208.5,472.1C207.3,468.5 206.3,464.9 205.2,461.3C205,460.7 204.8,460 204.6,459.4C203.8,456.9 204.4,454.7 206.6,453.2C208.4,451.9 210.5,451 212.7,450.5C214.7,450.1 216.6,449.8 218.6,449.4C219.1,449.3 219.7,449 220.1,448.6C221.6,446.9 223.6,445.8 225.6,444.7C227.2,443.8 228.9,443.7 230.6,444.5C231.5,444.9 232.2,444.8 233.1,444.5C234.4,444 235.8,443.5 237.1,443C239.9,442 241.9,442.6 243.9,444.8C244.6,445.6 244.9,445.6 245.8,445.1C248.1,443.8 250.6,443.3 253.1,442.9C255.3,442.5 257.1,443.4 258.3,445.2C259.5,447.1 259.5,449 258.3,450.8C257.4,452.2 257.2,453.7 256.7,455.2C255.5,459.4 254.4,463.5 253.3,467.7C252.1,471.9 250.9,476.1 249.7,480.4C248.6,484.3 247.3,488.1 246.1,492C245.9,492.6 245.8,493.4 244.8,493.5C244,493.5 243.6,493.2 243.1,492.1C242.2,489.7 241.2,487.3 240.3,484.9C238.4,479.9 236.4,474.9 234.6,469.8C233.6,467.1 232.8,464.3 231.9,461.5C231.7,460.8 231.4,460.1 231.1,459.4C230.8,458.6 230.6,457.8 230.3,457.1C229.9,456.5 229.8,456.1 229.4,455.5ZM217,489.6L217.2,489.6C217.3,489.1 217.3,488.6 217.5,488.1C218.9,483.1 220.3,478.1 221.6,473.1C222.7,469 223.7,464.9 224.8,460.8C225.2,459 225.6,457.2 226.1,455.4C226.4,454.1 227.8,452.8 228.9,452.9C230.3,453 231.4,453.7 231.9,455C232.7,457.1 233.4,459.1 234.1,461.2C234.7,463 235.1,464.7 235.7,466.5C237,470 238.3,473.6 239.6,477.1C240.9,480.4 242.1,483.8 243.4,487.1C243.4,487.2 243.6,487.3 243.7,487.4C244.3,487 244.2,486.4 244.4,485.8C246,480.5 247.6,475.2 249.1,469.9C250.3,465.6 251.5,461.2 252.7,456.8C253.5,453.9 254,450.9 255.4,448.2C255.8,447.3 255.4,446.6 254.8,446C254.2,445.4 253.5,445 252.6,445.3C251.4,445.6 250.1,446 248.9,446.2C248,446.3 247.2,446.6 246.4,447.1C246,447.4 245.4,447.6 245,447.9C244.4,448.2 243.8,448.1 243.2,447.9C242.3,447.5 241.5,446.9 240.9,446C240.2,444.8 239,444.6 237.8,445.2C237.5,445.3 237.3,445.5 237,445.6C235.5,446.2 234,446.8 232.4,447.4C231.7,447.7 231.1,447.7 230.4,447.4C229.9,447.1 229.3,446.8 228.7,446.6C228,446.2 227.2,446.3 226.6,446.7C224.9,447.7 223.2,448.7 222,450.2C221,451.5 219.5,451.8 218.1,452.1C216.7,452.4 215.2,452.4 213.8,453C213.6,453.1 213.3,453 213,453.1C212.5,453.2 212,453.2 211.5,453.4C210.6,453.8 209.6,454.2 208.7,454.8C208.1,455.1 207.6,455.6 207.1,456.2C206.5,457 206.7,457.8 207,458.8C207.8,461.5 208.5,464.2 209.3,466.8C210.7,471.2 212.2,475.6 213.7,480C214.7,483.3 215.9,486.4 217,489.6Z" style="fill:rgb(205,0,0);fill-rule:nonzero;"/>
        </g>
        <g transform="matrix(2.26546,0,0,2.26546,-238.158,-249.71)">
            <path d="M332.1,508.1C332.2,510.6 331.1,512.6 329,513.5C326.8,514.4 324.4,513.9 322.9,512.2C322.5,511.8 322.1,511.2 321.9,510.6C321.3,508.7 321,506.7 321.4,504.7C322,501.6 323.2,498.6 324.3,495.6C327.1,488.1 329.7,480.6 332.6,473.1C335.5,465.4 338.5,457.7 341.5,450.1C341.6,449.8 341.7,449.5 341.9,449.1C342.3,448 342.8,447.7 343.9,447.7C345.1,447.7 345.7,448 346.1,449.1C346.6,450.5 347,452 347.4,453.5C348.3,457 349.3,460.5 350.2,464C351.4,468.4 352.6,472.8 353.8,477.3C355,481.8 356.3,486.3 357.5,490.8C358.3,493.9 359.2,497 359.9,500.1C360.5,502.9 361,505.6 361.7,508.4C362.3,511.1 361,513.9 357.9,514.8C355.1,515.6 352.3,514.1 351.4,511.3C351.1,510.5 350.9,509.6 350.7,508.7C350.3,507.1 348.9,506.3 347.3,506.7C346.8,506.8 346.2,506.9 345.7,506.9C343.8,506.9 341.9,506.9 340.1,506.5C338.6,506.2 337.1,506 335.6,505.8C334.9,505.7 334.2,505.7 333.5,505.8C332.4,505.9 332.2,506.3 332.2,507.4C332,507.6 332,507.9 332.1,508.1ZM343.5,451.5L343.3,451.5C343,452.3 342.7,453.1 342.4,453.9C340.9,457.6 339.4,461.4 337.9,465.1C335.3,471.9 332.9,478.7 330.4,485.4C329,489.3 327.5,493.3 326,497.2C325.6,498.2 325.1,499.2 324.9,500.3C324.7,501.8 324.3,503.2 323.9,504.6C323.6,505.6 323.3,506.6 323.9,507.6C324,507.9 323.9,508.3 324,508.6C324.1,509.9 325.3,511.1 326.5,511.1C328,511.1 329.3,509.3 328.8,507.8C328.7,507.3 328.6,506.7 328.7,506.2C329.4,503.8 331.3,502.6 333.5,502.7L336.1,502.7C336.5,502.7 336.9,502.8 337.4,502.9C338.1,503 338.8,503.1 339.5,503.2C339.8,503.2 340.2,503.2 340.5,503.3C341.4,503.4 342.3,503.6 343.2,503.7C344.2,503.7 345.3,503.8 346.2,503.6C347.7,503.2 349,503.2 350.3,504C351.4,504.7 352.5,505.5 352.9,506.8C353.2,507.7 353.6,508.7 353.6,509.7C353.6,510.3 354,511 354.5,511.4C355.7,512.5 357.4,512.1 358.1,510.7C358.5,509.9 358.5,509 358.3,508C358.2,507.3 358.1,506.5 358,505.8L358,504.6C357.7,502.9 357.3,501.2 356.9,499.5C355.4,493.9 353.9,488.3 352.4,482.7C351,477.6 349.6,472.5 348.1,467.4C346.7,462.4 345.4,457.4 344,452.4C343.8,452.3 343.6,451.9 343.5,451.5Z" style="fill:rgb(205,0,0);fill-rule:nonzero;"/>
        </g>
        <g transform="matrix(2.26546,0,0,2.26546,-238.158,-249.71)">
            <path d="M202.3,455.3C202,457.1 201.8,458.8 201,460.4C200.7,461 200.7,461.6 200.9,462.3C202.9,467.8 204.9,473.2 206.7,478.7C208.8,485 210.9,491.3 212.9,497.6C213.5,499.6 214,501.7 214.6,503.7C214.7,504.2 215,504.8 215.2,505.3C216.1,507.5 216,509.5 214.3,511.2C212.6,513 210.5,513.3 208.3,512.5C207.6,512.2 206.8,511.8 206.1,511.3C205.5,510.9 204.9,510.7 204.1,510.7C202.7,510.6 201.3,510.5 199.9,510.1C197.7,509.6 195.7,508.7 193.8,507.6C192.1,506.6 190.9,505 189.9,503.4C187.5,499.6 185.9,495.5 185,491.1C184.7,489.6 184.2,488.1 184.1,486.5C183.9,483.9 184,481.3 183.9,478.7L183.9,471C183.9,470.3 183.9,469.5 183.7,468.8C183.1,466 183.7,463.2 184.2,460.4C184.3,459.6 184.9,458.7 185.4,458C186.1,457 186.6,455.8 186.8,454.6C187.2,452 188.1,449.7 189.4,447.4C190.4,445.5 192.1,444.5 194.2,444.6C196.4,444.6 197.9,445.6 199,447.4C199.4,448.1 199.9,448.8 200.4,449.4C201.1,450.2 201.6,451 201.8,452.1C202.1,453.1 202.2,454.2 202.3,455.3ZM186.3,476.5L186.3,484.3C186.3,485.5 186.6,486.6 186.9,487.7C187.1,489 187.4,490.2 187.7,491.5C187.8,492.1 188,492.7 188.2,493.3C188.3,493.6 188.5,493.9 188.6,494.3C189.1,495.6 189.2,497.1 190.3,498.1C190.4,498.2 190.5,498.5 190.5,498.7C191.1,500.5 191.9,502.3 193.5,503.6C193.8,503.9 194.1,504.2 194.4,504.5C195.4,505.5 196.6,506.3 197.9,506.7C198.4,506.8 199,506.9 199.5,507C200.9,507.3 202.3,507.8 203.9,507.7C205,507.7 206.1,507.9 207,508.5C207.4,508.8 207.8,509.1 208.2,509.5C209.1,510.3 209.9,510.4 210.9,509.9C211.8,509.4 212.7,507.7 212,506.6C211.5,505.6 211.2,504.6 211.2,503.5C211.2,503.3 211.2,503 211.1,502.8C209.9,498.9 208.8,494.9 207.6,491.1C206.4,487.4 205.1,483.6 203.9,480C202.1,474.9 200.3,469.9 198.5,464.9C198.3,464.3 198,463.6 197.6,463C196.9,461.8 196.8,460.6 197.7,459.5C198.2,458.9 198.4,458.1 198.5,457.3C198.8,455.9 198.8,454.6 198.5,453.3C198.3,452.4 198.1,451.6 197.4,450.9C196.7,450.2 196,449.5 195.6,448.6C195,447.4 193.6,447.1 192.5,447.8C192.1,448 191.7,448.4 191.5,448.9C190.5,451.1 189.1,453.3 189.1,455.8C189.1,456 189,456.3 188.9,456.6C188.4,457.7 187.9,458.9 187.4,460C187.2,460.5 186.9,461 186.8,461.5C186.5,463.1 186.2,464.7 185.9,466.3C185.9,466.5 185.9,466.7 186,467C186.1,467.8 186.3,468.5 186.3,469.3C186.4,471.7 186.3,474.1 186.3,476.5Z" style="fill:rgb(205,0,0);fill-rule:nonzero;"/>
        </g>
        <g transform="matrix(2.26546,0,0,2.26546,-238.158,-249.71)">
            <path d="M278,506.9C277.2,506.7 276.2,506.6 275.4,506.1C273.5,504.8 271.4,504.9 269.3,505C268.2,505 267,505.1 265.9,505.4C264.9,505.6 263.9,506 263.1,506.5C261.7,507.3 260.3,507.7 258.6,507.8C257.7,507.8 256.8,507.9 255.9,508.1C253.8,508.4 251.9,508 250.1,507.1C247.8,506 246.7,503.9 247.2,501.4C247.5,499.6 248.1,497.9 248.5,496.1C249.7,491.6 251,487.2 252.2,482.7C253.3,478.9 254.4,475.1 255.4,471.3C256.4,467.9 257.4,464.5 258.4,461C259.3,458.1 260.3,455.1 261.2,452.2C261.6,451 262,449.8 262.3,448.6C262.4,448.4 262.5,448.1 262.6,447.9C263,446.8 264.6,446.8 265.2,447.8C265.5,448.2 265.7,448.8 265.8,449.3C267.4,454 268.9,458.7 270.5,463.4C271.6,466.7 272.6,470 273.7,473.2C274.7,476.2 275.8,479.2 276.8,482.2C277.9,485.3 279,488.5 280,491.7C280.8,494.1 281.6,496.4 282.3,498.7C282.5,499.4 282.7,500.1 282.8,500.8C283.8,503.9 281.3,506.8 278,506.9ZM263.9,452.5C263.8,452.5 263.8,452.5 263.7,452.6C263.1,454.6 262.5,456.5 261.9,458.5C260.4,463.4 258.9,468.2 257.5,473C256.3,477 255.2,481.1 254.1,485.1C253.1,488.6 252.1,492 251.2,495.5C250.7,497.2 250.3,499 249.9,500.7C249.7,501.7 249.7,502.7 250.3,503.5C250.8,504.3 251.5,504.9 252.6,504.9C252.7,504.9 252.9,505 253,505C254.4,505.5 255.8,505.3 257.3,505.1C257.8,505 258.4,504.9 258.9,504.8C259.3,504.7 259.7,504.7 260,504.6C261.6,504 263.1,503.3 264.7,502.7C265.2,502.5 265.8,502.4 266.4,502.4L273.2,502.4C273.7,502.4 274.2,502.5 274.7,502.7C275.6,503 276.4,503.4 277.3,503.7C278.2,504 278.8,503.6 279.4,503.1C280,502.6 280.4,501.8 280.2,501C279.8,499.6 279.4,498.2 278.9,496.7C277.1,491.4 275.4,486.1 273.6,480.8C272.4,477.3 271.2,473.8 270,470.3C268.1,464.7 266.3,459 264.4,453.3C264.2,453.1 264,452.8 263.9,452.5Z" style="fill:rgb(205,0,0);fill-rule:nonzero;"/>
        </g>
        <g transform="matrix(2.26546,0,0,2.26546,-238.158,-249.71)">
            <path d="M312.3,440.5C313.9,440.3 315.5,440.9 317.2,441.5C318.5,442 319.8,442.1 321.1,442C322.3,441.9 323.6,442 324.8,442C325.9,442 327,442 328,441.7C329.2,441.2 330.4,441.5 331.6,441.7C334,442.2 336.3,441.8 338.5,440.8C339.1,440.6 339.6,440.2 340.1,439.8C341.2,439.2 341.8,439.5 341.7,440.7C341.6,442.5 341.2,444.4 340.1,445.8C338.1,448.6 337,451.8 335.8,455C333.9,460.1 332,465.2 330,470.3C327.8,475.9 325.6,481.5 323.5,487.2C322.8,489.1 322,491 321.2,492.9C320.8,493.9 320.7,494 319.6,494C318.6,494 318.5,494 318.2,492.9C317.4,490.6 316.7,488.3 315.9,486C315.1,483.4 314.3,480.8 313.6,478.2C312.7,475.1 311.8,472 311,468.9C309.9,464.9 308.8,460.9 307.7,456.9C306.9,453.9 305.9,451 305.2,448C304.4,444.7 306.2,440.5 310.8,440.5L312.3,440.5ZM319.6,489C319.8,488.7 319.9,488.6 320,488.5C321,485.8 322.1,483.1 323.1,480.4C325.2,475 327.3,469.6 329.4,464.2C330.7,460.8 332,457.3 333.3,453.8C333.9,452.1 334.6,450.5 335.1,448.8C335.4,447.7 335.7,446.7 336.6,445.8C337,445.4 337.5,444.8 337.4,443.9L336.7,443.9C334.7,444.5 332.7,444.5 330.7,443.9C330.2,443.8 329.6,443.9 329.1,444C327.2,444.4 325.4,445 323.5,444.4C323.1,444.3 322.6,444.3 322.1,444.4C319.8,444.9 317.6,444.8 315.5,443.7C315.1,443.5 314.6,443.3 314.1,443.3L310.5,443.3C310,443.3 309.7,443.4 309.4,443.8C309,444.4 308.7,445 308.2,445.5C307.8,446 307.7,446.5 307.9,447C308,447.6 308.3,448.2 308.4,448.8C309.6,453.1 310.7,457.3 311.9,461.6C313.1,465.8 314.2,470.1 315.4,474.3C316.7,478.8 318,483.2 319.3,487.7C319.2,488.3 319.4,488.6 319.6,489Z" style="fill:rgb(205,0,0);fill-rule:nonzero;"/>
        </g>
        <g transform="matrix(2.26546,0,0,2.26546,-238.158,-249.71)">
            <path d="M424.8,481.5C424.6,483.7 424.5,486 424.1,488.2C423.9,489.5 423.3,490.8 422.8,492.1C421.6,495.1 420.2,498 418.4,500.7C416.5,503.5 414.4,506.1 411.7,508.1C411,508.6 410.1,509.1 409.2,509.4C408.1,509.7 407,509.9 405.9,510.2C405.1,510.4 404.3,510.6 403.5,510.9C402.5,511.3 401.5,511.6 400.5,511.7C399.8,511.7 399,512 398.3,512.1C397.5,512.2 396.7,512.5 395.9,512.5C392.5,512.5 390,509.6 390.6,506.2C391,504.2 391.7,502.3 392.4,500.4C394.4,494.8 396.5,489.2 398.6,483.6C400.6,478.2 402.7,472.9 404.7,467.5C405,466.6 405.5,465.6 405.8,464.7C406,464.1 406.1,463.5 406.1,462.8C406.1,458.8 410.3,456.2 414,458C414.3,458.1 414.6,458.2 414.8,458.4C415.9,459.2 417.1,459.6 418.3,460C420.2,460.6 421.4,462 421.8,463.9C422.2,466 422.5,468 422.9,470C423.3,472.4 423.8,474.8 424.2,477.2C424.5,478.6 424.6,480.1 424.8,481.5ZM393.1,506.3L393.2,506.3L393.2,507C393.2,508.9 394.8,510 396.6,509.5C397.9,509.1 399.1,508.6 400.5,508.8C400.8,508.8 401.2,508.6 401.6,508.5C402.4,508.2 403.1,507.8 403.9,507.6C405.2,507.4 406.4,506.8 407.8,506.8C408.3,506.8 409,506.5 409.5,506.1C412.1,503.7 414.4,501.3 416.2,498.2C416.6,497.4 417,496.6 417.5,495.8C417.8,495.3 418.2,494.8 418.5,494.2C419.1,492.9 419.7,491.5 420.2,490.2C420.9,488.4 421.2,486.5 421.4,484.6C421.4,484.1 421.5,483.5 421.6,483C421.7,482.5 421.7,482 421.6,481.4C421.4,480.8 421.4,480.1 421.3,479.4L421.3,478.4C420.9,477.5 421,476.5 420.9,475.5C420.9,475 420.7,474.5 420.7,474C420.5,472.9 419.9,472 420,470.8C420,470.2 419.8,469.5 419.7,468.8C419.5,467.7 419.2,466.6 419.1,465.5C418.9,463.7 418.3,462.9 416.6,462.4C415.8,462.2 415.1,461.7 414.4,461.4C413.8,461.1 413.2,460.7 412.5,460.4C411.5,460 410.7,460.1 409.9,460.9C409.5,461.4 409.3,462.1 409.1,462.7C409,463 409,463.4 408.9,463.7C406.4,470.2 404,476.7 401.5,483.2C398.9,490 396.4,496.7 394,503.5C393.5,504.4 393.3,505.4 393.1,506.3Z" style="fill:rgb(205,0,0);fill-rule:nonzero;"/>
        </g>
        <g transform="matrix(2.26546,0,0,2.26546,-238.158,-249.71)">
            <path d="M274.6,440.3C276.6,440.4 278,440.5 279.5,440.6C280.6,440.7 281.6,441.2 282.4,442C283.2,442.7 283.1,442.6 284,442.2C284.8,441.8 285.7,441.5 286.5,441.2C287,441.1 287.5,441.1 288,440.9C289.6,440.4 291.1,440.5 292.6,441.1C293.2,441.4 293.8,441.2 294.4,440.9C295.3,440.3 296.3,439.9 297.3,439.7C301.3,439.1 304.4,442.6 303.3,446.5C302.9,448.1 302.3,449.6 301.8,451.2C299.9,457.1 297.9,463.1 296,469.1C294.4,473.9 292.9,478.6 291.3,483.4C290.3,486.5 289.3,489.6 288.3,492.7C288.1,493.3 287.8,493.5 287.2,493.5C286.6,493.5 285.9,493.6 285.6,492.8C284.8,490.9 284,489 283.2,487.1C281.2,481.7 279.2,476.3 277.4,470.8C275.5,465.3 273.7,459.7 271.9,454.2C271.1,451.8 270.5,449.3 269.9,446.8C269.2,443.4 271.7,440.3 274.6,440.3ZM286.3,488.6C286.5,488.2 286.7,488 286.7,487.8C287.1,486.5 287.6,485.2 288,483.9C289.9,478 291.8,472.1 293.7,466.2C294.6,463.4 295.5,460.7 296.4,457.9C297.6,454.3 298.9,450.6 300,446.9C300.2,446.3 300.3,445.6 300.3,444.9C300.2,442.8 297.7,441.6 296.1,442.8C295.4,443.3 294.7,443.6 293.9,443.9C292.9,444.3 292.1,444.3 291.2,443.8C290.4,443.3 289.5,443.2 288.5,443.6C288.1,443.8 287.6,443.8 287.1,443.8C286.1,443.8 285.3,444.1 284.6,444.7C284.3,445 284,445.3 283.7,445.6C282.5,446.6 281,446.5 280.4,445.1C279.8,443.8 278.7,443.3 277.4,443.3C276.7,443.3 275.9,443.1 275.2,443C274.9,443 274.6,442.9 274.3,443C273.5,443.2 272.8,443.7 272.4,444.6C272.1,445.5 272.2,446.4 272.4,447.3C273.5,451.1 274.6,455 275.8,458.8C277.9,465 280,471.3 282.2,477.5C283.5,481.1 284.9,484.7 286.3,488.6Z" style="fill:rgb(205,0,0);fill-rule:nonzero;"/>
        </g>
        <g transform="matrix(2.26546,0,0,2.26546,-238.158,-249.71)">
            <path d="M374.5,509.3C374.4,509.8 374.3,510.1 374.3,510.4C373.9,512.7 372.5,514 370.3,514.6C368.1,515.1 366.2,514.5 364.8,512.8C362.2,509.7 361.8,506.2 363,502.4C364.6,497.5 366.9,493 368.9,488.3C370.4,484.8 371.9,481.3 373.5,477.9C374.3,476.1 375.1,474.4 376,472.7C376.2,472.3 376.6,471.9 377,471.7C377.7,471.4 378.4,471.7 378.6,472.5C379.8,476.7 380.9,480.9 382,485.1C382.9,488.3 383.8,491.6 384.6,494.9C385.3,497.8 386,500.8 386.7,503.7C386.9,504.4 387.1,505.1 387.4,505.8C388.9,508.8 389.3,512 388.8,515.3C388.7,516.3 388.4,517.4 388,518.4C387.1,521.1 384.2,522.4 381.5,521.7C378.8,520.9 377.2,518.4 377.7,515.6C377.8,514.9 378,514.1 378.1,513.4C378.1,512.8 378.1,512.1 378,511.5C377.9,510.5 377.4,509.8 376.2,509.8C375.8,509.7 375.2,509.5 374.5,509.3ZM376.9,476.8L376.7,476.8C376.5,477.3 376.3,477.9 376,478.4C372.8,485.6 369.6,492.8 366.4,500C366.2,500.5 365.9,501.1 365.8,501.7C365.6,503.1 365.4,504.5 365.3,505.9C365.2,507 365.1,508.2 365.9,509.1C366,509.3 366,509.6 366.1,509.9C366.3,510.4 366.4,510.9 366.7,511.3C368,512.9 369.7,512.6 370.7,511.1C371,510.7 371,510.1 371.1,509.5L371.1,508.4C371.2,507.5 371.7,506.9 372.5,506.7C373.4,506.4 374.3,506.4 375.2,506.8C376,507.2 376.9,507.5 377.9,507.6C378.7,507.6 379.3,508.1 379.7,508.9C380.6,510.4 381.1,512 380.9,513.8C380.8,514.5 380.9,515.3 380.7,515.9C380.5,516.6 380.4,517.1 380.7,517.8C381,518.4 381.5,518.9 382.1,519.1C382.4,519.2 382.9,519.3 383.2,519.2C384.4,518.9 385.2,517.9 385.3,516.6C385.3,516.2 385.3,515.8 385.4,515.4C386.1,513.1 385.7,510.8 385,508.6C384.5,507 383.8,505.4 383.6,503.7C383,499.7 381.8,495.8 380.8,491.9C379.8,488.1 378.9,484.4 377.9,480.6C377.6,479.3 377.3,478 376.9,476.8Z" style="fill:rgb(205,0,0);fill-rule:nonzero;"/>
        </g>
        <g transform="matrix(2.26546,0,0,2.26546,-238.158,-249.71)">
            <path d="M305.6,509.5C304.7,509.4 303.8,509.4 302.9,509.2C301.8,509 300.8,508.4 300.2,507.4C299.7,506.6 298.9,506.3 298,506.3C296.8,506.3 295.5,506.2 294.4,506.1C291.7,505.9 289.8,504.1 289.3,501.5C289.1,500.5 289.4,499.5 289.7,498.5C290.3,496.5 290.9,494.5 291.6,492.5C292.9,488.5 294.1,484.5 295.4,480.5C296.6,477 297.8,473.4 299,469.9C300.1,466.9 301.2,463.9 302.2,460.8C302.4,460.2 302.7,459.6 302.8,459C302.9,458.3 303.3,458.1 304,458.1C304.8,458.1 305.2,458.3 305.4,459C305.8,460.1 306.1,461.3 306.5,462.4C307.6,465.9 308.7,469.4 309.7,473C310.6,476.1 311.5,479.2 312.4,482.3C313.3,485.4 314.2,488.6 315.1,491.8C315.6,493.7 316.2,495.5 316.7,497.3C316.8,497.8 317.1,498.3 317.3,498.8C318.5,502 316.8,505.3 313.5,505.9C312.5,506.1 311.7,506.5 311.1,507.4C310.1,508.8 308.6,509.3 306.9,509.4L305.6,509.4L305.6,509.5ZM303.7,464L303.4,464C303.3,464.5 303.1,465 302.9,465.5C301.5,469.5 300,473.6 298.6,477.6C297.2,481.6 295.9,485.7 294.7,489.7C293.6,493 292.6,496.4 291.6,499.8C291.4,500.5 291.4,501.1 291.7,501.7C292.3,502.8 293.3,503.3 294.5,503.3C296.1,503.3 297.6,503.3 299.2,503.6C300.3,503.9 301.2,504.2 301.7,505.3C302.2,506.2 303.1,506.7 304.3,506.7L306,506.7C307.4,506.8 308.3,506.2 309,505C309.6,503.9 310.5,503.1 311.8,503.3L312,503.3C313.9,503.1 314.8,501.6 314.3,499.8C313.3,496.3 312.2,492.7 311.2,489.2C310.1,485.5 309.1,481.8 308.1,478.1C306.9,473.9 305.5,469.7 304.3,465.5C304.1,465 303.9,464.5 303.7,464Z" style="fill:rgb(205,0,0);fill-rule:nonzero;"/>
        </g>
        <g transform="matrix(2.26546,0,0,2.26546,-238.158,-249.71)">
            <path d="M242.8,502.4C243.2,506.4 239.6,508.9 236.1,508.1C235.2,507.9 234.1,508 233.2,508C232.3,508 231.7,508.4 231.2,509.2C229.8,511.5 227.1,512.3 224.6,511.4C223.6,511 222.8,510.4 222.2,509.6C222,509.3 221.8,509 221.5,508.6C219.7,506.4 219.4,504.1 220.5,501.4C221.1,499.8 221.3,498.1 221.7,496.4C222.6,492.8 223.5,489.2 224.5,485.6C225.3,482.5 226.3,479.4 227.2,476.4C227.6,475 228.2,473.6 228.6,472.3C228.8,471.6 229.3,471.4 229.9,471.4C230.5,471.4 231.1,471.4 231.5,472.2C232,473.5 232.7,474.7 233.2,476C235.7,482.1 238.1,488.2 240.5,494.4C241.2,496.3 241.9,498.1 242.5,500C242.7,500.7 242.7,501.6 242.8,502.4ZM229.9,476C229.8,476.1 229.7,476.2 229.7,476.2C228.4,481 226.9,485.8 225.7,490.6C224.8,494 224,497.5 223.1,501C222.9,502 222.8,503.1 222.5,503.9C222.2,504.8 222.4,505.4 222.8,506.1C223.2,506.8 223.7,507.5 224.3,508.2C225.4,509.4 226.6,509.6 227.8,508.3C228.2,507.9 228.4,507.4 228.6,506.9C229.1,505.7 229.9,505.2 231.2,505.3L234.1,505.3C234.7,505.3 235.4,505.3 236,505.5C237.7,505.9 239.2,505 239.3,503.2C239.4,501.8 239.5,500.4 238.9,499C238.6,498.3 238.4,497.4 238.1,496.7C235.7,490.5 233.2,484.4 230.8,478.2C230.6,477.6 230.2,476.8 229.9,476Z" style="fill:rgb(205,0,0);fill-rule:nonzero;"/>
        </g>
        <g transform="matrix(2.26546,0,0,2.26546,-238.158,-249.71)">
            <path d="M151.8,363.9C152.2,358.3 152.6,352.6 153.9,347.1C154.5,344.1 155.3,341.1 156.7,338.4C158.2,335.4 159.9,332.5 161.5,329.5C161.9,328.7 162.5,328 162.8,327.1C164.1,324 164.9,320.7 165.2,317.3C165.6,312.5 165.9,307.7 166.1,302.9C166.2,299.3 166.2,295.7 166.2,292L166.2,288.8C166.1,285.4 165.9,282.1 166.2,278.7C166.4,275.8 167.1,272.9 168.3,270.2C169.6,267.2 171.5,264.7 174.4,263.1C176.4,261.9 178.5,261.1 181,261.2C183,261.3 185.1,261.1 187.1,261C191,260.8 194.9,260.5 198.7,260.2C202.6,259.9 206.5,259.6 210.4,259.4C215.7,259.1 220.9,258.9 226.2,258.6C228.6,258.5 230.9,258.2 233.2,257.9C235.3,257.7 237.3,257.6 239.3,258.1C242.7,259 245.4,261 247.7,263.7C250.3,266.7 251.6,270.1 251.7,274.1C251.8,277.6 251.8,281.2 251.8,284.7C251.8,286.6 251.9,288.5 252.3,290.4C253,293.4 254.7,295.7 257.7,296.8C260,297.6 262.4,297.9 264.7,298.1C268.8,298.3 272.9,298.5 276.9,298.7C279.5,298.8 282.1,299 284.7,299.1C288.5,299.2 292.3,299.6 296,300.5C297,300.7 298,301 298.9,301.3C300.1,301.7 300.7,302.6 300.6,304C300.6,304.6 300.6,305.2 300.7,305.8C301.3,309.8 301.8,313.8 302.5,317.8C303.3,322.7 304.1,327.6 304.9,332.6C304.9,333 304.9,333.5 305.4,333.8C305.5,333.6 305.6,333.4 305.7,333.2C306,331.4 306.4,329.6 306.7,327.7C307.4,323.9 308.2,320.1 309,316.4C309.6,313.5 310.1,310.6 310.7,307.8C311,306.4 311.3,305 311.6,303.5C311.7,302.8 312.1,302.4 312.8,302.2C314.3,301.9 315.7,301.5 317.2,301.3C319.4,301 321.6,300.7 323.7,300.4C325.1,300.2 326.5,300 327.9,299.9C331.7,299.7 335.6,299.6 339.4,299.4C340.8,299.4 342.2,299.3 343.5,299.2L348.6,299.2C349.7,299.2 350.8,299 351.8,298.6C354.1,297.7 355.6,295.9 356.7,293.7C357.9,291.5 358.4,289.1 358.7,286.6C359.1,282.9 359.4,279.2 359.7,275.6C359.9,273.4 360.3,271.3 361.1,269.3C363.2,264.3 366.9,261.3 372.1,260C374.6,259.4 377,259.6 379.5,259.7C383.1,259.8 386.7,260.2 390.3,260.4C393.8,260.6 397.4,260.8 400.9,261C404.7,261.2 408.5,261.6 412.3,261.8C415.5,262 418.8,262.2 422.1,262.4C424.6,262.5 427,262.7 429.5,262.6C430.6,262.5 431.9,262.7 432.9,263.2C439.3,265.9 445.5,272.4 445.1,281.6C445,284.1 444.9,286.6 444.8,289C444.7,292.8 444.4,296.5 444.4,300.3C444.4,305 444.5,309.6 444.7,314.3C444.8,317.2 445,320.1 445.7,322.9C445.9,324 446.2,325.1 446.3,326.1C446.3,327.8 446.9,329.1 447.9,330.4C450,333.3 451.6,336.4 452.7,339.8C453.7,343 454.6,346.3 455.4,349.6C456.3,353.5 457,357.6 457.2,361.6C457.2,362.4 457.5,363.1 457.6,363.9L457.6,375.4C457.5,375.7 457.3,376 457.3,376.3C457.1,378.5 456.9,380.8 456.7,383C456.3,386.5 455.9,390 455.4,393.5C454.9,397 454.3,400.5 453.8,404C453.2,407.7 452.6,411.4 452,415.1C451.6,418.1 451.1,421.1 450.7,424.1C450.3,427 449.9,429.8 449.5,432.7C449,436 448.4,439.3 447.8,442.6C447.3,445.8 446.7,448.9 446.1,452.1C445.7,454.2 445.4,456.2 445,458.2C444.3,461.7 443.5,465.2 442.7,468.7C442.1,471.3 441.5,473.8 440.9,476.4C440.3,478.8 439.8,481.2 439.2,483.6C438.4,486.5 437.5,489.4 436.6,492.3C435,497.5 433.7,502.7 431.7,507.8C430.2,511.7 428.5,515.5 425.9,518.8C424.2,521 422.4,523.2 420.7,525.3C419.7,526.6 418.4,527.6 417,528.3C414.7,529.4 412.5,530.6 410.2,531.6C406.8,533.2 403.2,534.1 399.5,534.6L385.3,534.6C382.3,534.5 379.2,534.4 376.1,534.3C373.7,534.2 371.4,534.1 369,534C365,533.8 361,533.5 357,533.3C354.2,533.2 351.4,533.2 348.5,533.2C335.6,533.1 322.7,533.4 309.8,533C306.6,532.9 303.3,532.9 300,532.9C297,532.9 294,532.8 290.9,532.7C285.1,532.6 279.2,532.5 273.4,532.4C270.9,532.4 268.4,532.5 266,532.5C264.1,532.5 262.3,532.6 260.5,532.7C257.2,532.8 253.8,533 250.5,533.1C246.3,533.3 242.2,533.4 238,533.6C235.8,533.7 233.5,533.9 231.3,534C227.5,534.1 223.8,534.1 220,534.1C218.3,534.1 216.6,534 214.8,533.9C209.8,533.7 204.9,533.1 200,532.2C196.6,531.6 193.4,530.4 190.5,528.5C188.3,527 186.4,525.2 184.6,523.2C180.2,518.5 177.1,513.1 175.2,507.1C173.7,502.3 172.4,497.4 171.1,492.5C169.9,488.1 168.8,483.7 167.9,479.2C167,474.9 166.2,470.5 165.4,466.1C164.8,462.8 164.3,459.4 163.7,456.1C163.1,452.6 162.4,449 161.8,445.4C161.2,441.8 160.6,438.2 160,434.6C159.3,430.4 158.5,426.3 157.8,422.1C157.2,418.6 156.6,415.1 156,411.6C155.6,409 155.2,406.5 154.8,403.9C154.4,401.6 153.8,399.3 153.4,397C153.1,395.4 153,393.8 152.8,392.2C152.5,389.3 152.3,386.4 152,383.5C151.8,382.9 151.8,364.4 151.8,363.9ZM361.7,436.7C362,436.9 362.1,437 362.2,437L363.3,437C368.7,437 374.1,436.8 379.4,436.6C385.4,436.3 391.5,436.3 397.5,436.3C400.5,436.3 403.4,436.1 406.4,435.7C408.4,435.5 410.4,435.3 412.4,435C415,434.7 417.5,434.2 420,433.3C424.2,431.8 427.7,429.2 430.7,426C432.2,424.4 433.3,422.6 433.8,420.4C434.2,418.8 434.5,417.2 435,415.6C435.9,412.8 436.7,409.9 437.2,406.9C438,401.7 438.7,396.5 439.4,391.3C439.9,387.7 439.6,384 438.9,380.4C438.5,378.3 437.9,376.3 437.3,374.3C436.3,370.9 434.8,367.7 432.6,364.8C428,358.9 422.7,353.7 416.4,349.5C413.8,347.8 411,346.4 408,345.5C402.6,343.9 397.1,342.3 391.7,340.8C388.6,340 385.4,339.4 382.2,339C378.5,338.6 374.8,338.3 371.1,338.1C367.2,338 363.3,338 359.5,338C357.3,338 355.2,338.1 353,338.4C349.8,338.7 346.6,339.2 343.3,339.7C340.9,340 338.5,340.3 336.1,340.7C333.2,341.2 330.3,341.8 327.3,342.4C324.4,342.9 321.5,343.5 318.7,344.1C314.7,344.9 310.6,345.7 306.6,346.4C305.6,346.6 304.5,346.7 303.5,346.6C299.5,346.3 295.5,345.6 291.6,344.6C289.2,344 286.9,343.5 284.5,342.9C282.1,342.3 279.7,341.7 277.3,341.1C275.2,340.6 273.1,339.9 270.9,339.5C266.8,338.8 262.7,338.2 258.6,337.5C254.1,336.9 249.6,336.9 245.1,336.7C243.5,336.7 241.9,336.8 240.3,336.8C237,336.8 233.6,337 230.3,337.3C225.4,337.8 221.1,338.5 216.3,339.6C214.3,340 212.5,340.7 210.5,341.2C205.7,342.4 201.2,344.3 196.9,346.7C193.3,348.6 190,350.9 186.7,353.3C184.3,355 182.2,356.9 180.3,359.1C177.6,362.2 175.4,365.6 173.4,369.2C172.1,371.5 171.1,373.9 170.8,376.5C170.6,378.2 170.3,379.9 170.1,381.6C169.9,383.6 169.6,385.7 169.6,387.7C169.6,392.7 169.9,397.7 171,402.7C171.9,406.8 172.7,411 173.6,415.1C174,417.2 174.8,419.2 175.8,421.2C177.3,424 179.5,426.3 182,428.2C184.7,430.3 187.5,432 190.8,433C193.5,433.8 196.3,433.8 199.1,434C201.3,434.2 203.6,434.3 205.8,434.4C209,434.6 212.2,434.8 215.4,435C217.5,435.1 219.6,435.1 221.6,435.2C224.9,435.3 228.2,435.4 231.5,435.5C233.6,435.5 235.6,435.6 237.6,435.7C240,435.8 242.5,435.9 244.9,436C245.4,436 245.9,436.2 246.4,435.6C246.2,435.4 246.1,435.1 245.9,434.9C245.2,434.3 244.5,433.7 243.7,433.1C242.3,432.1 241.1,430.9 240.4,429.4C239.2,427 238.5,424.5 238.4,421.8C238.3,418.6 239,415.6 240.3,412.7C241.5,409.7 243.6,407.3 246.4,405.6C250.7,403 255.3,402.7 260.2,403.4C262.9,403.8 265.4,404.6 267.8,405.8C269.4,406.5 270.9,407.4 272.4,408.4C275.3,410.4 277.7,412.9 279.8,415.6C283.1,419.8 286.3,424.1 289.5,428.5C291.9,431.8 294.3,435 297.8,437.2C298.6,437.7 299.4,438.2 300.3,438.5C301.9,439.1 303.6,439.5 305.3,439.9C305.5,439.9 305.8,440 306,439.9C307.3,439.7 308.7,439.5 309.9,439.1C312.3,438.4 314.1,436.7 315.8,434.9C317.5,433.1 319,431.1 320.6,429.1C322.5,426.5 324.2,423.7 326.2,421.3C329.1,417.8 332.3,414.5 335.5,411.2C337.1,409.5 338.9,408.1 341,407.1C343.7,405.9 346.4,405.1 349.3,404.5C353.7,403.6 357.9,404.2 362,405.6C364.3,406.4 366.4,407.8 368.2,409.3C370.3,411 371.4,413.2 372,415.8C372.6,418.7 372.4,421.5 371.5,424.3C370.3,428.1 368.4,431.5 365,433.8C363.5,434.9 362.7,435.9 361.7,436.7ZM389.6,498.1C389.8,497.8 390,497.6 390.1,497.4C391.9,492.6 393.7,487.9 395.5,483.1C397.4,477.9 399.4,472.6 401.2,467.4C401.9,465.5 402.5,463.6 403.2,461.6C403.5,460.6 403.4,460.4 402.4,460.1C401.4,459.8 400.4,459.5 399.4,459.2C396.7,458.4 393.9,457.7 391.2,456.9C389.1,456.4 387,455.8 384.9,455.3C382.7,454.8 380.6,454.5 378.4,454.1C375.4,453.5 372.4,452.9 369.4,452.4C366.2,451.8 362.9,451.1 359.7,450.6C357,450.2 354.3,449.8 351.5,449.4C350.3,449.3 350.2,449.4 350.5,450.6C350.7,451.5 351,452.4 351.2,453.4C351.9,456.4 352.7,459.5 353.5,462.5C354.4,465.9 355.3,469.3 356.2,472.6C356.9,475.4 357.6,478.1 358.4,480.9C359.2,483.8 360,486.6 360.8,489.5C361,490.5 361.3,491.5 361.6,492.4C361.7,492.8 361.8,493.2 362.5,493.2C362.6,493 362.7,492.9 362.7,492.7C364,489.6 365.4,486.4 366.7,483.3C369.9,475.5 373.2,467.7 376.4,460C376.8,459.1 377.2,458.1 377.7,457.2C377.9,456.9 378.3,456.6 378.7,456.5C379.2,456.4 379.5,456.9 379.7,457.3C379.8,457.5 379.8,457.7 379.9,458C380.1,458.8 380.3,459.7 380.4,460.5C381.1,463.9 381.9,467.2 382.7,470.6C383.6,474.5 384.4,478.4 385.3,482.2C386.4,486.7 387.5,491.2 388.6,495.7C388.9,496.5 388.9,497.3 389.6,498.1ZM256.9,448.6L256,448.6C253.4,448.9 250.9,449.1 248.4,449.4C244.2,450 240.1,450.6 235.9,451.3C232.5,451.8 229.2,452.5 225.8,453.2C224.2,453.5 222.6,454 221,454.4C218.7,455 216.5,455.5 214.3,456.2C212,456.9 209.7,457.8 207.5,458.7C205.6,459.4 205.5,459.6 206.1,461.5C207,464.4 207.9,467.4 208.8,470.4C210,474 211.2,477.7 212.4,481.4C213.6,484.9 215,488.4 216.2,491.9C216.5,492.9 216.9,493.8 217.3,494.8L217.6,494.8C217.8,494.5 218,494.1 218.1,493.7C219.1,490.2 220,486.7 220.9,483.2C222.1,478.7 223.4,474.3 224.5,469.8C225.3,466.8 226.1,463.7 226.8,460.7C227.2,459.2 227.5,457.7 227.9,456.1C228,455.5 228.3,454.9 229,454.8C229.5,454.7 230.2,455.3 230.4,456C230.4,456.2 230.5,456.4 230.6,456.5C230.8,457.3 231.1,458.1 231.4,458.8C231.6,459.5 231.9,460.2 232.2,460.9C233.1,463.7 233.9,466.6 235,469.4C236.5,473.5 238,477.7 239.6,481.7C240.9,485 242.2,488.3 243.5,491.7C243.6,492 243.9,492.3 244.1,492.7C245.9,490.3 257.1,450.8 256.9,448.6ZM368.9,293.4L369.7,293.4C374.3,292.8 378.9,292.9 383.5,293.2C386.8,293.4 390.2,293.6 393.5,293.6C394,293.6 394.6,293.5 395.1,293.4C396.9,292.9 397.8,291.5 398.3,289.9C398.9,288.1 399.4,286.3 399.8,284.5C400.2,283.1 400.5,281.6 400.8,280.1C400.9,279.7 401.1,279.2 401.6,279.3C401.9,279.3 402.4,279.5 402.6,279.8C402.9,280.1 403.1,280.6 403.2,281.1C403.4,281.9 403.5,282.7 403.6,283.5C404.1,286.2 404.5,288.9 405.2,291.5C406.1,295.3 408.5,297.8 412.4,298.8C414.9,299.4 417.3,300 419.7,300.7C422.9,301.7 425.9,303.3 428.4,305.5C429.6,306.6 430.7,307.8 431.9,309C432.2,309.3 432.5,309.5 432.8,309.8C433,309.4 433,309 432.9,308.7C432.7,306.6 432.4,304.6 432.2,302.5C432,298.6 431.9,294.6 431.6,290.6C431.5,288.1 430.7,285.8 429,283.9C427.8,282.6 426.5,281.2 425.3,279.9C424.2,278.7 422.8,278.2 421.3,278.1C418.9,278 416.5,277.9 414.1,277.8C411.9,277.7 409.7,277.6 407.5,277.5C403.8,277.3 400.1,277 396.4,276.7C393.2,276.5 390.1,276.3 386.9,276.2C384.9,276.1 382.8,276 380.8,276C377.2,276 374.6,277.6 372.9,280.8C372.3,282 372,283.4 371.8,284.7C371.5,287 370.8,289.1 369.9,291.1C369.8,291.6 369.4,292.4 368.9,293.4ZM240.6,292.4C240.3,291.5 240,290.7 239.8,290C239.4,287.9 238.9,285.9 238.6,283.8C238.3,281.9 237.6,280.3 236.6,278.7C234.7,275.8 232,274.8 228.7,275C226.5,275.1 224.3,275.2 222.1,275.3C219.6,275.4 217.1,275.5 214.6,275.7C211.8,275.9 209.1,276.1 206.3,276.3C202.3,276.5 198.4,276.7 194.4,276.9C192.3,277 190.3,277.3 188.2,277.3C186.3,277.3 184.7,278 183.3,279.3C181.3,281.2 179.9,283.6 179.5,286.3C178.6,292 177.9,297.7 178.2,303.5C178.2,303.8 178.3,304.2 178.4,304.8C179,304.5 179.4,304.3 179.8,304C183.2,301.8 186.6,299.8 190.5,298.6C193.2,297.8 195.8,297.2 198.5,296.4C201.4,295.6 203.7,293.7 204.5,290.8C205.5,287.2 206.2,283.5 207.1,279.9C207.3,279.1 207.4,278.3 207.7,277.5C207.9,276.9 208.4,276.6 209,276.7C209.6,276.8 209.9,277.2 210,277.7L210,278.2C210.1,279.6 210.3,281.1 210.4,282.5C210.6,284.7 210.9,286.9 211.2,289C211.6,291.7 213.7,293.2 216.4,292.9C218.6,292.7 220.9,292.4 223.1,292.2C225.4,292 227.7,291.5 230,291.7C232.3,291.9 234.6,291.9 236.8,292C237.9,292.2 239.1,292.3 240.6,292.4ZM323.5,500.7C324.1,500.7 324.5,500.8 324.9,500.8C328.6,500.8 332.4,500.8 336.1,500.9C337.5,500.9 338.9,500.9 340.2,501C343.9,501.2 347.6,501.4 351.3,501.6C353.3,501.7 355.3,501.7 357.3,502C359.1,502.3 359.4,502 358.9,500C358,496.7 357.1,493.4 356.2,490.1C355,485.6 353.8,481.1 352.6,476.6C351.4,472.2 350.1,467.9 348.9,463.5C347.7,459 346.5,454.5 345.3,450C345.2,449.5 344.9,449 344.6,448.7C344.2,448.2 343.4,448.2 343,448.7C342.8,448.9 342.7,449.2 342.6,449.5C342,451 341.4,452.5 340.8,454C338.4,460.2 336,466.4 333.6,472.7C331.9,477.3 330.3,481.8 328.6,486.4C327.2,490.2 325.8,494 324.4,497.7C324,498.6 323.8,499.5 323.5,500.7ZM264,447.6C263.8,448 263.5,448.5 263.4,448.9C263,450.1 262.6,451.3 262.2,452.5C261.3,455.4 260.3,458.4 259.4,461.3C258.4,464.7 257.3,468.1 256.4,471.6C255.5,474.8 254.5,478.1 253.6,481.3C252.7,484.5 251.7,487.8 250.8,491C250.1,493.7 249.4,496.4 248.7,499.1C248.6,499.7 248.6,500.3 248.5,501.1C249,501.1 249.3,501.2 249.7,501.1C253.7,500.7 257.8,500.6 261.8,500.6L280.6,500.6C281,500.6 281.5,500.6 282.1,500.5C282.1,499.9 282.1,499.4 281.9,498.9C281.3,496.9 280.7,494.9 280,492.9C278.8,489.2 277.5,485.5 276.2,481.9C275,478.4 273.8,474.9 272.6,471.3C271.3,467.5 270.1,463.7 268.8,459.9C267.6,456.3 266.4,452.7 265.2,449.1C265,448.6 264.8,447.9 264,447.6ZM319.5,493.8C319.6,493.8 319.7,493.8 319.9,493.9C320,493.6 320.2,493.4 320.4,493.1C321.5,490.3 322.6,487.6 323.6,484.9C325,481.3 326.4,477.7 327.8,474.1C329.7,469.2 331.5,464.4 333.4,459.5C334.7,456 336,452.5 337.3,449C337.6,448.2 337.5,448 336.7,447.9C333.8,447.6 330.9,447.2 327.9,447C324.7,446.8 321.4,446.6 318.2,446.5C314.6,446.4 311.1,446.4 307.5,446.4C307.1,446.4 306.7,446.5 306.2,446.6C310.3,462.4 314.5,478.2 319.5,493.8ZM271.2,447.3C271.3,448 271.4,448.4 271.5,448.9C272.4,451.9 273.3,454.9 274.2,457.9C275.5,462.1 276.9,466.2 278.3,470.4C280,475.3 281.7,480.2 283.5,485C284.4,487.5 285.4,489.9 286.4,492.3C286.5,492.6 286.6,493 287.2,492.9C289.7,485.2 292.2,477.6 294.7,469.9C297.2,462.2 299.7,454.6 302.2,446.8C301.1,446.7 300.2,446.4 299.3,446.4C296.7,446.3 294.2,446.2 291.6,446.1C290.4,446.1 289.2,445.9 288,446C286.1,446 284.3,446.2 282.4,446.3C279.5,446.5 276.6,446.6 273.7,446.9C272.9,446.9 272.1,447.2 271.2,447.3ZM408,461.9C407.7,462.4 407.5,462.9 407.3,463.4C406.2,466.2 405.2,468.9 404.1,471.7C402.2,476.7 400.3,481.7 398.5,486.7C396.9,491 395.3,495.2 393.7,499.5C393.1,501 392.6,502.6 392.1,504.2C391.8,505.3 392,505.5 393,505.8C393.1,505.8 393.3,505.8 393.4,505.9C396.3,506.1 399.2,506.5 402.2,506.5C407.8,506.5 411.9,503.7 414.6,498.9C415.8,496.7 416.1,494.2 416.5,491.8C417,488.9 417.4,485.9 417.8,483C418.1,480.8 418.4,478.7 418.4,476.6C418.4,474.1 417.9,471.7 417,469.4C416.2,467.4 415,465.8 413.1,464.9C412.7,464.7 412.3,464.4 411.9,464.2C410.6,463.2 409.4,462.6 408,461.9ZM204.3,504.4C205.8,504.3 207.3,504.2 208.8,504.1C210.1,504 211.5,503.9 212.8,503.7C213.6,503.6 213.7,503.4 213.5,502.6C213.2,501.4 212.8,500.2 212.5,499C210.6,492.9 208.7,486.8 206.7,480.7C205.5,477.2 204.2,473.7 203,470.1C202.1,467.6 201.2,465.1 200.3,462.7C199.9,461.6 199.9,461.6 198.8,462.1C197.5,462.7 196.3,463.4 195.1,464.1C192.6,465.5 191.3,467.6 190.4,470.2C189.4,473.3 189.2,476.5 189,479.7C188.8,485.2 189.4,490.7 190.8,496.1C191.3,498.2 192.4,499.8 194,501.2C196.9,503.3 200.4,504.5 204.3,504.4ZM316.5,500.8C316.4,500.3 316.4,499.9 316.3,499.5C315.6,496.8 314.8,494.1 314,491.4C313.1,488.2 312.2,484.9 311.2,481.7C310.2,478.1 309.1,474.4 308,470.7C306.9,466.9 305.6,463.1 304.5,459.4C304.4,459.1 304.3,458.7 303.8,458.7C303.2,460.4 302.6,462.1 302,463.8C299.6,470.6 297.2,477.4 295,484.1C293.5,488.5 292.3,492.9 291,497.3C290.7,498.2 290.5,499.1 290.3,500.1C290.2,500.6 290.4,500.9 291,500.9C292.3,500.9 293.5,501 294.8,501.1C297,501.2 299.1,501.3 301.3,501.4C302.3,501.4 303.4,501.7 304.4,501.7C307.9,501.5 311.4,501.2 315,501C315.5,500.9 315.9,500.8 316.5,500.8ZM401.6,286.1C401.5,286.5 401.4,286.8 401.3,287.1C400.7,288.7 400.2,290.2 399.5,291.8C398.4,294.3 396.3,295.6 393.6,295.6C390.2,295.6 386.7,295.4 383.2,295.2C381.1,295.1 379,294.9 376.9,294.9C373.9,294.9 370.8,295.3 367.8,296.1C366.2,296.5 364.7,296.9 363.3,297.9C363.1,298 362.9,298.3 362.5,298.6C362.9,298.7 363.1,298.8 363.3,298.8C364.7,298.9 366.1,298.9 367.5,299.1C373.5,299.6 379.5,300.2 385.5,301.4C389,302.1 392.5,302.7 396,303.7C400.6,305 405.2,306.5 409.7,308C414.5,309.6 419.2,311.5 423.7,313.6C428.6,315.9 433.4,318.4 438,321.3C438.2,321.4 438.5,321.5 438.7,321.6C438.7,321.1 438.5,320.7 438.3,320.4C436.2,317.6 434,314.7 431.9,311.9C431,310.8 430.1,309.7 429.1,308.7C426.7,306 423.7,304.4 420.5,303.1C419.1,302.5 417.7,302.1 416.2,301.6C414.6,301.2 413.1,301 411.5,300.5C407.6,299.3 404.8,296.9 403.6,292.9C403.1,291.1 402.7,289.3 402.2,287.5C402.2,287 402.3,286.5 401.6,286.1ZM247.4,299C247.4,298.9 247.5,298.7 247.5,298.6C247.1,298.3 246.7,297.8 246.2,297.5C245.8,297.2 245.2,297.1 244.7,296.8C240.5,294.7 236,293.8 231.2,294C226.8,294.3 222.5,294.8 218.1,295.3C216.7,295.4 215.4,295.4 214.1,295.1C212.2,294.6 210.7,293.6 209.8,291.9C209.3,290.9 209.1,289.7 208.7,288.6C208.6,288.1 208.7,287.5 207.9,287.1C207.7,287.8 207.4,288.4 207.2,289C206.7,290.4 206.4,291.8 205.8,293.1C204.6,295.7 202.7,297.4 200,298.2C198.4,298.6 196.8,299 195.2,299.5C193.1,300.1 191,300.7 189.1,301.5C186.5,302.6 184,304 181.5,305.4C180.3,306 179.3,307 178.5,308.2C176.8,310.8 175.2,313.4 173.5,315.9C173.3,316.2 173.2,316.6 173.1,317C174.1,317.2 174.7,316.8 175.4,316.5C178,315.2 180.6,313.8 183.2,312.6C186.4,311.1 189.7,309.7 193,308.4C196.1,307.2 199.3,306.1 202.4,305.1C205,304.3 207.6,303.6 210.2,302.9C212.3,302.4 214.3,302 216.4,301.6C218.3,301.2 220.1,300.8 221.9,300.6C225.2,300.2 228.4,299.9 231.7,299.7C235.7,299.5 239.6,299.5 243.6,299.3C245.1,299.2 246.3,299.1 247.4,299ZM377.6,472C377.3,472.5 377,472.7 376.9,473C376.1,474.7 375.2,476.4 374.4,478.2C371.6,484.6 368.7,491.1 365.8,497.6C365.4,498.6 364.9,499.7 364.5,500.7C364.1,502 364.6,502.7 366,502.9C366.6,502.9 367.3,503 367.9,503C372.1,503.4 376.2,503.9 380.4,504.3C381.9,504.4 383.4,504.5 384.9,504.6C385.7,504.6 385.9,504.5 385.8,503.7C385.8,503.2 385.7,502.6 385.6,502.1C384.4,497.5 383.3,492.9 382.1,488.3C381,484.2 379.9,480 378.8,475.9C378.5,474.6 378.1,473.4 377.6,472ZM230.3,471.8L230,471.8C229.9,472.1 229.6,472.4 229.5,472.8C228.6,475.7 227.5,478.6 226.7,481.5C225.2,487 223.8,492.6 222.3,498.2C222,499.5 221.8,500.8 221.6,502.1C221.5,502.9 221.6,503.1 222.5,503C223,503 223.4,502.9 223.9,502.9C228.9,502.6 233.8,502.2 238.8,501.9C239.5,501.9 240.3,501.8 241,501.7C241.8,501.6 242,501.3 241.7,500.4C241,498.4 240.4,496.5 239.6,494.5C237.2,488.5 234.8,482.5 232.4,476.5C231.8,474.9 231,473.3 230.3,471.8ZM326.5,436.5C327.1,436.6 327.5,436.7 327.9,436.7C329.5,436.7 331.2,436.6 332.8,436.6C335.5,436.5 338.2,436.3 340.9,435.6C344.2,434.8 347.4,433.4 350.1,431.3C352.2,429.7 353.7,427.7 354,425C354.3,422.3 352.7,420 349.9,419.8C348,419.7 346.2,419.9 344.4,420.5C341.3,421.6 338.6,423.5 336.3,425.8C333.4,428.6 330.7,431.6 327.9,434.6C327.4,435.2 327.1,435.8 326.5,436.5ZM280.2,436.2C280.2,436.1 280.3,436 280.4,435.9C280.2,435.6 280,435.2 279.7,434.9C277.3,432.2 275,429.5 272.6,426.8C270.4,424.3 267.9,422.2 265.1,420.4C263.8,419.6 262.4,418.9 260.9,418.6C256.6,417.8 253.3,421.5 254.7,425.6C255.6,428.2 257.1,430.3 259.5,431.8C261.4,433 263.5,433.5 265.7,434C269.3,434.9 273,435.4 276.7,435.9C277.8,436.1 279,436.1 280.2,436.2ZM418.2,445.1C419.9,446.4 421.4,447.6 422.9,448.8C424.4,450 425.7,451.6 426.9,453.1C428.1,454.7 429.1,456.4 429.7,458.4C430.3,460.2 430.7,462.1 431.2,464.1C431.4,463.8 431.6,463.7 431.7,463.5C432,462.7 432.4,461.8 432.6,460.9C433.6,456.9 434.7,452.9 435.5,448.9C436.6,444 437.5,439.1 438.4,434.1C438.4,433.8 438.6,433.4 438.2,432.9C437.9,433.2 437.6,433.5 437.4,433.7C436.1,435.1 434.8,436.5 433.5,437.7C430.8,440.4 427.7,442.3 424,443.3C422.2,444 420.4,444.5 418.2,445.1ZM176,459.7L176.2,459.7C177.3,457.5 178.3,455.3 179.4,453.2C180.6,451 182.3,449.3 184.1,447.7C185.9,446.1 188,444.9 190.1,443.8C190,443.6 189.9,443.5 189.9,443.5L188.7,443.5C186.3,443.5 184,443.4 181.8,442.4C179.4,441.3 177.3,439.9 175.3,438.3C173.9,437.1 172.6,435.7 171.6,434.2C171.2,433.6 170.8,432.9 169.8,432.7L169.8,433.4C170.3,436 170.9,438.5 171.4,441C172.3,445.7 173.1,450.3 174.4,454.9C174.9,456.5 175.5,458.1 176,459.7Z" style="fill-rule:nonzero;"/>
        </g>
        <g transform="matrix(2.26546,0,0,2.26546,-238.158,-249.71)">
            <path d="M318,370L318,368.5C318,367.4 318.3,367 319.4,366.7C322.1,366.1 324.7,365.4 327.3,364.8C332,363.7 335.8,361.4 339.3,358.1C341.6,355.9 343.8,353.7 346.1,351.6C348.1,349.8 350.2,348.2 352.6,347C354.8,345.9 357.2,345.4 359.6,345.1C363.1,344.8 366.7,344.5 370.3,344.6C375.8,344.7 381.2,345.5 386.4,347.4C388.8,348.2 391.2,349 393.4,350.1C397.6,352 401.7,354.3 405.2,357.4C408.4,360.1 411.4,363.1 413.5,366.8C414.7,369 415.5,371.4 416.3,373.8C417.9,378.5 419.4,383.2 421.7,387.7C423.5,391.3 426,394.3 429.4,396.6C429.7,396.8 430,397 430.2,397.2C430.8,397.6 431,398.2 430.8,399C430.7,399.6 430.6,400.3 430.5,401C430.4,401.4 430.3,401.9 430.1,402.3C429.4,403.6 428.7,403.8 427.3,403.3C424.4,402.3 421.6,401.2 418.6,400.4C416.1,399.7 413.5,399.7 410.9,400C407.2,400.4 403.9,401.8 400.8,403.6C400.2,404 399.5,404.3 398.9,404.7C396.6,406.3 394,406.8 391.3,407.1C388.4,407.4 385.5,407.1 382.7,406.4C380.2,405.8 377.7,405.3 375.2,404.8C372.7,404.2 370.2,403.6 367.7,403C365.6,402.6 363.6,402.1 361.5,401.8C357.8,401.1 354.2,400.1 350.7,398.5C349,397.7 347.9,396.4 347.1,394.8C345.8,392.1 344.3,389.4 343.3,386.6C342.1,383.5 340.1,381.1 337.3,379.3C333,376.6 328.4,374.9 323.4,374.3C322.3,374.2 321.1,374 320,373.8C318.9,373.6 318.3,372.9 318.3,371.7C318,371 318,370.5 318,370ZM377.3,351L377.3,350.8C377.1,350.7 376.8,350.6 376.5,350.5C373.3,349.7 370,349.3 366.7,349.1C364.3,349 362.1,349.3 359.9,350.3C357.9,351.2 355.9,352.1 354,353.2C350.5,355.1 347.5,357.6 344.7,360.3C343.4,361.5 342.2,362.8 340.8,363.9C337.6,366.5 334,368.2 330,369.4C329.6,369.5 329.1,369.5 328.8,370.1C329.2,370.3 329.5,370.5 329.9,370.6C332,371.5 334.1,372.3 336.2,373.2C339.2,374.4 341.8,376.2 343.7,379.1C345.1,381.4 346.6,383.6 348.2,385.7C349.8,388.1 351.4,390.5 353.6,392.5C354.7,393.5 355.9,394.4 357.4,394.8C359.6,395.3 361.7,395.7 363.8,396.2C364.1,396.3 364.5,396.4 365,396C364.4,395.5 363.8,395 363.3,394.5C361.6,393 359.8,391.7 358.4,389.8C356.6,387.4 355.3,384.8 354.5,381.9C353.2,377.3 353.2,372.8 354.5,368.2C355.6,364.3 357.8,361 360.4,358C361.6,356.6 363.1,355.3 364.8,354.5C368.4,352.6 372.3,351.4 376.5,351.2C376.8,351.2 377,351.1 377.3,351ZM393.4,357.3C393.4,357.4 393.3,357.4 393.3,357.5C393.5,357.7 393.6,358 393.8,358.2C396.6,361.1 398.5,364.4 399.6,368.3C401,373.3 400.8,378.2 399.1,383.1C397.8,387.1 395.4,390.4 392.1,393.1C390.2,394.7 388.2,396.1 385.8,396.9C383.7,397.6 381.7,398.1 379.6,398.7C379.4,398.8 379.1,398.9 378.8,399L378.8,399.3C379.2,399.4 379.6,399.6 380.1,399.6C382.8,400 385.6,400.3 388.3,400.9C391.3,401.5 394.2,401.1 396.9,399.9C399.3,398.8 401.6,397.5 404,396.4C406.2,395.4 408.5,394.5 411,394.3C414,394 417,394.1 419.9,395.2C420.1,395.3 420.4,395.3 421,395.4C420.8,395 420.7,394.8 420.5,394.7C419.4,393.5 418.2,392.3 417.1,391.1C415.8,389.7 414.6,388.3 414,386.6C413.5,385.2 413.1,383.8 412.6,382.5C411.3,379 409.8,375.6 408.2,372.2C406.6,369 404.7,366 402.2,363.4C400,361 397.5,359 394.5,357.7C394,357.5 393.7,357.4 393.4,357.3Z" style="fill-rule:nonzero;"/>
        </g>
        <g transform="matrix(2.26546,0,0,2.26546,-238.158,-249.71)">
            <path d="M241.5,344.1C246.1,344.1 250.7,344.3 255,346.1C257.4,347.1 259.4,348.6 261.3,350.3C264.5,353.2 267.7,356 271.1,358.8C273.9,361.2 277.3,362.4 280.8,363.3C283.5,364 286.2,364.6 288.8,365.3C289.2,365.4 289.7,365.6 290.1,365.8C290.8,366.2 291.3,366.9 291.3,367.7C291.3,369 291.1,370.4 290.9,371.7C290.8,372.3 290.4,372.6 289.8,372.7C285.4,372.8 281.4,374.2 277.4,375.7C275.3,376.5 273.4,377.6 271.5,378.8C269.9,379.9 268.7,381.3 267.8,383C266.3,385.9 264.9,388.9 263.4,391.8C262.3,394.1 260.7,396 258.8,397.6C258.2,398.1 257.4,398.5 256.6,398.7C254.7,399.2 252.9,399.6 251,400C247.2,400.8 243.4,401.6 239.6,402.4C235.4,403.3 231.2,404.2 226.9,405.1C225.4,405.4 223.8,405.7 222.3,406.1C219.2,406.8 216.2,406.4 213.3,405.3C210.7,404.4 208.4,403.1 206.2,401.4C204.1,399.8 201.8,398.6 199.2,397.9C195.6,396.9 192,397 188.6,398.4C186.3,399.3 184,400.4 181.7,401.3C181.5,401.4 181.3,401.5 181.1,401.6C179.9,402 179.5,401.8 179.1,400.7C178.7,399.5 178.5,398.2 178.2,396.9C178,396.1 178.3,395.4 178.9,394.9C179.9,394.1 180.8,393.3 181.8,392.5C185.1,390.2 187.2,387 188.7,383.4C191.1,377.5 193.6,371.5 196,365.6C196.7,363.9 197.7,362.4 199,361.1C200.7,359.4 202.4,357.7 204.1,356C206.1,354.1 208.4,352.8 210.8,351.5C214.1,349.9 217.4,348.3 221,347.2C224.6,346.1 228.1,345.3 231.8,344.9C235.1,344.8 238.3,344.5 241.5,344.1ZM186.9,394.6C186.9,394.7 187,394.8 187,394.9C187.3,394.8 187.7,394.8 188.1,394.7C189.8,394.2 191.5,393.6 193.3,393.2C196.7,392.5 200.1,392.7 203.4,393.7C205.8,394.4 208.1,395.6 210.1,397C212.2,398.4 214.4,399.4 216.8,400.1C218.6,400.6 220.3,400.9 222.2,400.6C224.7,400.2 227.2,399.7 229.7,399.2C230.1,399.1 230.6,399.1 230.7,398.6C230.6,398.6 230.6,398.5 230.5,398.5C230.4,398.5 230.2,398.4 230.1,398.4C227.4,397.9 224.8,397.1 222.4,395.9C218.5,394 215.4,391.4 213.1,387.7C211.2,384.7 210.1,381.4 209.5,378C209.3,376.6 208.9,375.2 209.1,373.7C209.2,372.8 209.3,371.8 209.4,370.9C209.7,368 210.7,365.2 212.2,362.6C214.2,359.2 216.9,356.5 220.2,354.4C220.6,354.2 221,353.9 221.4,353.6C221.4,353.5 221.3,353.4 221.3,353.3C221,353.3 220.6,353.3 220.2,353.4C218,354.2 215.8,354.9 213.7,355.9C210.1,357.5 206.9,359.8 204.3,362.8C201.2,366.4 198.9,370.6 197.2,374.9C195.7,378.6 194.3,382.3 192.8,386C191.5,389 190,391.9 187.5,394.3C187.1,394.1 187,394.4 186.9,394.6ZM233.7,350.1L233.7,350.3C233.7,350.3 233.8,350.4 233.9,350.4C234.2,350.4 234.5,350.5 234.8,350.5C237.2,350.8 239.6,351.2 241.9,352.1C245.3,353.4 248.1,355.7 250.4,358.4C253.1,361.5 254.9,365.2 255.6,369.3C256.3,373 256.3,376.7 255.4,380.3C254,385.6 251,389.8 246.7,393.1C245.7,393.9 244.5,394.6 243.5,395.3C243.3,395.4 243.1,395.7 242.9,395.9C242.9,396 243,396 243,396.1C243.4,396.1 243.7,396.1 244.1,396C246.7,395.6 249.3,395.1 251.9,394.6C253.4,394.3 254.9,394 256.2,393C257.2,392.2 257.8,391.2 258.5,390.2C260.3,387.3 262.1,384.4 264,381.6C265.7,378.9 267.7,376.6 270,374.6C271.7,373.1 273.6,372.2 275.8,371.7C278.3,371.1 280.7,370.4 283.2,369.7C283.4,369.7 283.7,369.4 283.9,369.3L283.9,369C282.9,368.8 282,368.5 281,368.3C278.8,367.8 276.7,367.4 274.6,366.8C271.8,366 269.2,364.7 267.1,362.8C265.8,361.6 264.5,360.2 263.3,358.9C260.2,355.6 256.3,353.3 252,351.6C250.8,351.2 249.6,350.7 248.4,350.6C245.8,350.4 243.1,350.3 240.5,350.2C238.8,350.2 237.1,350.1 235.4,350.1C234.8,350 234.3,350.1 233.7,350.1Z" style="fill-rule:nonzero;"/>
        </g>
        <g transform="matrix(2.26546,0,0,2.26546,-238.158,-249.71)">
            <path d="M285.4,408.6L280.3,408.6C278.7,408.6 277.1,408.8 275.5,408.8L273.8,408.8C273,408.7 272.7,408.2 273,407.5C273.4,406.7 273.9,405.9 274.5,405.2C275,404.6 275.7,404 276.4,403.4C280.2,399.8 283.4,395.8 286.3,391.5C290.8,384.7 294.8,377.6 297.7,369.9C298.9,366.6 300.3,363.2 301.4,359.9C301.9,358.4 302.2,356.9 302.6,355.3C302.8,354.3 303.4,353.3 304.1,352.5C304.4,352.1 304.8,352.1 305.2,352.5C305.9,353.1 306.1,354 306.4,354.9C307.5,358.1 308.5,361.4 309.6,364.6C312.1,371.7 315.4,378.5 318.7,385.2C320.9,389.7 323.8,393.8 326.9,397.7C329.3,400.6 331.8,403.4 334.2,406.3C334.3,406.4 334.4,406.5 334.5,406.6C335.1,407.4 334.9,408.2 334,408.6C333.7,408.7 333.2,408.8 332.9,408.7C328.8,408 324.6,407.9 320.5,407.5C319.3,407.4 318.1,407.4 317,407.4L308.5,407.4C307.5,407.4 306.4,407.6 305.4,407.7C304.1,407.8 302.8,407.8 301.5,407.9C299.3,407.9 297.1,407.9 294.9,408C292.2,408.1 289.5,408.2 286.9,408.3L285.2,408.3C285.4,408.5 285.4,408.5 285.4,408.6Z" style="fill-rule:nonzero;"/>
        </g>
    </g>
</svg>
